<svg viewBox="0 0 1498 400" xmlns="http://www.w3.org/2000/svg"><g><g><g><g><g><line x1="34" y1="246.67529986582485" x2="29" y2="246.67529986582485" style="visibility: inherit;" fill="rgb(0, 0, 0)" stroke="rgb(204, 204, 204)" stroke-width="1px"></line></g><g transform="translate(24, 0)"><text x="0" y="246.67529986582485" dx="0em" dy="0.3em" style="text-anchor: end; visibility: inherit; font-family: &quot;Helvetica Neue&quot;, sans-serif; font-size: 12px; font-weight: 200;" fill="rgb(50, 49, 63)" stroke="none" stroke-width="1px">50</text></g><line x1="34" y1="0" x2="34" y2="378" fill="rgb(0, 0, 0)" stroke="rgb(204, 204, 204)" stroke-width="1px"></line></g></g><g transform="translate(34, 0)" clip-path="url(#clip_0)"><clipPath id="clip_0"><rect width="1464" height="378"></rect></clipPath><g><g><g><line x1="0" y1="0" x2="0" y2="378" fill="rgb(0, 0, 0)" stroke="rgb(60, 60, 60)" stroke-width="1px" opacity="0.25"></line><line x1="122" y1="0" x2="122" y2="378" fill="rgb(0, 0, 0)" stroke="rgb(60, 60, 60)" stroke-width="1px" opacity="0.25"></line><line x1="244" y1="0" x2="244" y2="378" fill="rgb(0, 0, 0)" stroke="rgb(60, 60, 60)" stroke-width="1px" opacity="0.25"></line><line x1="366" y1="0" x2="366" y2="378" fill="rgb(0, 0, 0)" stroke="rgb(60, 60, 60)" stroke-width="1px" opacity="0.25"></line><line x1="488" y1="0" x2="488" y2="378" fill="rgb(0, 0, 0)" stroke="rgb(60, 60, 60)" stroke-width="1px" opacity="0.25"></line><line x1="610" y1="0" x2="610" y2="378" fill="rgb(0, 0, 0)" stroke="rgb(60, 60, 60)" stroke-width="1px" opacity="0.25"></line><line x1="732" y1="0" x2="732" y2="378" fill="rgb(0, 0, 0)" stroke="rgb(60, 60, 60)" stroke-width="1px" opacity="0.25"></line><line x1="854" y1="0" x2="854" y2="378" fill="rgb(0, 0, 0)" stroke="rgb(60, 60, 60)" stroke-width="1px" opacity="0.25"></line><line x1="976" y1="0" x2="976" y2="378" fill="rgb(0, 0, 0)" stroke="rgb(60, 60, 60)" stroke-width="1px" opacity="0.25"></line><line x1="1098" y1="0" x2="1098" y2="378" fill="rgb(0, 0, 0)" stroke="rgb(60, 60, 60)" stroke-width="1px" opacity="0.25"></line><line x1="1220" y1="0" x2="1220" y2="378" fill="rgb(0, 0, 0)" stroke="rgb(60, 60, 60)" stroke-width="1px" opacity="0.25"></line><line x1="1342" y1="0" x2="1342" y2="378" fill="rgb(0, 0, 0)" stroke="rgb(60, 60, 60)" stroke-width="1px" opacity="0.25"></line><line x1="1464" y1="0" x2="1464" y2="378" fill="rgb(0, 0, 0)" stroke="rgb(60, 60, 60)" stroke-width="1px" opacity="0.25"></line></g><g><line x1="0" y1="246.67529986582485" x2="1464" y2="246.67529986582485" fill="rgb(0, 0, 0)" stroke="rgb(60, 60, 60)" stroke-width="1px" opacity="0.25"></line></g></g></g><g><g><line x1="122" y1="0" x2="122" y2="378" fill="rgb(0, 0, 0)" stroke="rgb(153, 153, 153)" stroke-width="1.5px"></line></g></g><g><g><g><g><g><path style="fill: none;" stroke="rgb(238, 51, 119)" stroke-width="2px" d="M176.9,381.60405409043045L183,365.2059281791401L189.10000000000002,343.5585793098443L195.2,336.2551730243895L201.3,324.0000000000001L207.4,314.75629441209844L213.5,306.6363918884781L219.6,301.73774642590894L225.70000000000002,290.0841906689975L231.79999999999998,293.2165266147161L237.9,284.6158281664889L244,277.70488912213176L250.1,267.5054050085555L256.2,250.55001843962623L262.3,240.89542120323028L268.4,241.14107985198405L274.5,255.02985095149876L280.6,250.46541666646277L286.7,239.16336816922816L292.8,223.28468133062657L298.9,237.97991432101543L305,229.26864241695796L311.09999999999997,233.56328372991163L317.2,236.78401909810785L323.3,235.85915209613407L329.40000000000003,228.26175522647733L335.5,229.63722038248943L341.6,216.05999840272167L347.7,211.05893321546418L353.8,218.58155525166146L359.9,213.65953739639127L366,215.9485149915312L372.09999999999997,213.89852354923988L378.20000000000005,214.9271953545091L384.3,206.67121662026636L390.4,214.23375624163356L396.5,208.574581694282L402.6,206.3003793716655L408.7,202.8800998586818L414.8,194.75387948995126L420.9,192.78759326432194L427,201.66187576098645L433.1,198.11998960936702L439.2,192.96674460604737L445.29999999999995,192.9551291219815L451.40000000000003,183.34143738842982L457.5,186.2127846061815L463.59999999999997,195.82642345204582L469.70000000000005,194.2338458485707L475.8,200.9419038854719L481.9,188.7380181296598L488,194.77541462757034L494.1,197.71884974900306L500.2,188.41970079546584L506.3,194.00944756399932L512.4,191.0575211751183L518.5,192.72679877956205L524.6,188.38932120436925L530.6999999999999,186.86664329245588L536.8,186.5248730140744L542.9,190.6667829710796L549,188.09405031240235L555.1,182.4454480615336L561.2,193.0222968190162L567.3000000000001,186.46267734452312L573.4,180.7871827608776L579.5,184.9049653891116L585.6,184.84566122874693L591.7,181.8917305651401L597.8,184.70200724343232L603.9,183.03613354552127L610,185.93788748501612L616.1,188.82538718233036L622.1999999999999,183.0193156066232L628.3,196.37903814839962L634.4,196.08197056852896L640.5,189.20491916420505L646.6,179.42102011312008L652.7,184.37942525052074L658.8000000000001,184.34781064430126L664.9,184.00947404153604L671,181.5275927248618L677.1,177.33576540348813L683.2,184.78878768077752L689.3,174.6096020182258L695.4,172.94372971426185L701.5,182.86793317134575L707.6,179.6150913115719L713.6999999999999,179.46218383660474L719.8,181.23619967376328L725.9,182.89409322556492L732,184.41440622575573L738.1,185.85249363178085L744.1999999999999,182.97313928764444L750.3,187.79684073241128L756.4000000000001,189.46181037718583L762.5,189.6372137906384L768.6,197.50210965921485L774.7,199.979899566237L780.8,195.7329359728661L786.9,200.50695277716878L793,198.69502696667405L799.0999999999999,197.72405552025046L805.2,193.1200940842383L811.3000000000001,195.41274965750245L817.4,195.61715628434953L823.5,198.52425369461008L829.6,190.70888815825248L835.6999999999999,196.60639660064146L841.8,194.88507179175102L847.9000000000001,190.4817813290232L854,195.41190041583377L860.1,192.83764100088905L866.2,187.31219072354736L872.3,194.81205683385238L878.4,202.35229377904918L884.5,200.65383588848013L890.5999999999999,187.46875670522778L896.7,183.84958506025723L902.8000000000001,194.90425977907364L908.9,197.86538265083763L915,197.43364654734853L921.1,195.01306433467454L927.1999999999999,201.0423218428369L933.3,195.97752630676058L939.4000000000001,185.9187807690385L945.5,184.563678540657L951.6,183.34072814151375L957.7,177.37538850954786L963.8,184.94958740430903L969.9,185.3289717903902L976,187.88746584951747L982.0999999999999,184.39677006219236L988.2,173.76421601503333L994.3000000000001,179.90192728402312L1000.4,192.379132870247L1006.5,183.04364740141702L1012.6,184.89217713336402L1018.6999999999999,180.84940118501652L1024.8,175.8180147460337L1030.9,175.25429687750847L1037,178.75245845543037L1043.1000000000001,183.06480483408112L1049.2,188.72128444974243L1055.3,182.82032982640436L1061.3999999999999,185.96801735470677L1067.5,184.09123963907692L1073.6,178.52818102003107L1079.7,172.45916348615873L1085.8,179.79773331311912L1091.9,180.02666885766047L1098,193.78566740667173L1104.1,196.18055600065978L1110.2,179.90822772317736L1116.3,169.10010893924337L1122.4,170.8144450877619L1128.5,168.2511459499548L1134.6000000000001,171.1182857340574L1140.7,177.37590563696668L1146.8,170.68500654633294L1152.8999999999999,176.47924926191797L1159,177.08052956480014L1165.1,172.2274333251995L1171.2,174.77627483596368L1177.3,190.16870741893018L1183.4,177.10919238387666L1189.5,176.4824061738211L1195.6,169.17986616129474L1201.7,170.34246773787507L1207.8,174.32273227611432L1213.9,218.07431249599628L1220,221.89536562869043L1226.1000000000001,220.2609491914618L1232.2,210.40858408226453L1238.3,193.97390860189563L1244.3999999999999,181.28243907560298L1250.5,174.85230463573623L1256.6,179.4199994681237L1262.7,184.49287268334265L1268.8,183.02473908535276L1274.9,174.5324333092133L1281,159.95868098803945L1287.1,176.0090550838652L1293.2,179.68386679649146L1299.3,183.7392070542654L1305.4,177.6816485126335L1311.5,166.80360374917547L1317.6000000000001,176.63467171116181L1323.7,162.64564380185067L1329.8,160.83562362998222L1335.8999999999999,165.05609452043458" fill="none"></path></g><g><path stroke="rgb(0, 153, 136)" stroke-width="2px" d="M146.4,414.53271647107607L152.5,375.280389752458L158.6,329.7780064406358L164.70000000000002,281.96550294918995L170.8,219.40206140395625L176.9,255.9878921495106L183,246.62050429712383L189.10000000000002,246.64247009741388L195.2,222.31890153693155L201.3,218.9934601543494L207.4,206.07744821096077L213.5,192.75161989621657L219.6,242.2920996387929L225.70000000000002,207.44528637807144L231.79999999999998,194.25667192689772L237.9,191.54933198790275L244,153.84146634467885L250.1,148.2760445606191L256.2,121.14246645195357L262.3,148.77765756212085L268.4,241.04820640484164L274.5,186.13383089249112L280.6,135.3612890070787L286.7,158.57344613858L292.8,134.3532168743285L298.9,129.32302399519483L305,136.3301332721339L311.09999999999997,172.4577689303609L317.2,176.75214648929534L323.3,164.96571210665758L329.40000000000003,188.27961869725314L335.5,149.92100398409474L341.6,119.16075877590896L347.7,136.58909768365385L353.8,175.33568903302137L359.9,149.23032067152008L366,119.30068622270159L372.09999999999997,120.08518419324224L378.20000000000005,120.55608171814953L384.3,106.04710546293984L390.4,105.71720548944091L396.5,126.87610294656409L402.6,121.12565816423034L408.7,79.67326464384331L414.8,98.85980703940362L420.9,111.68620031435L427,90.66794231559794L433.1,62.14049874691523L439.2,61.78891637106051L445.29999999999995,90.63949776238104L451.40000000000003,89.05465039983119L457.5,87.14253921787923L463.59999999999997,70.91144671771485L469.70000000000005,84.64770325285639L475.8,74.08352276612447L481.9,69.46938192824246L488,138.50253413477074L494.1,169.8337777152985L500.2,123.36739991251383L506.3,135.2733858939734L512.4,132.73521055075238L518.5,102.65208465489422L524.6,70.0274910402236L530.6999999999999,55.17687161699672L536.8,78.38892630884385L542.9,82.87161134159618L549,82.47539967368868L555.1,110.62392090261233L561.2,76.71630055342513L567.3000000000001,94.58982013280217L573.4,96.14372881317968L579.5,83.58421906540974L585.6,83.22248477015341L591.7,44.923100174169576L597.8,62.85162500414617L603.9,62.530708657570074L610,108.76885985751306L616.1,74.35625639864469L622.1999999999999,104.1401340133009L628.3,132.51140063276952L634.4,101.87285316556188L640.5,83.36183276399856L646.6,102.93542842952394L652.7,133.5373645616703L658.8000000000001,117.12270093132219L664.9,152.00088297035077L671,140.1828700208069L677.1,97.6348136838198L683.2,122.38951769531585L689.3,93.23046307305788L695.4,126.48819719260285L701.5,132.63607230914766L707.6,153.22091646330776L713.6999999999999,96.9177662339032L719.8,104.7686428099002L725.9,90.7433839824422L732,90.93700791862125L738.1,88.69803407835616L744.1999999999999,83.62045582484427L750.3,177.6187868716731L756.4000000000001,148.6813865824916L762.5,127.62720935507517L768.6,106.34261524189952L774.7,68.60024079872204L780.8,81.33054537550595L786.9,85.70834055113806L793,86.73798048190059L799.0999999999999,110.83841647160017L805.2,65.10940556449168L811.3000000000001,92.3482304110899L817.4,66.91929369962384L823.5,80.63219747104392L829.6,123.55602057573645L835.6999999999999,129.32896693423737L841.8,180.04532671616434L847.9000000000001,172.57312772646776L854,133.31348366856525L860.1,127.60278551359107L866.2,120.02972856830297L872.3,117.02989999165601L878.4,115.66855074732939L884.5,99.15003223913754L890.5999999999999,93.18375051144307L896.7,85.44698950721698L902.8000000000001,78.06030504617456L908.9,78.09987139932724L915,71.3417044046306L921.1,51.882141282931855L927.1999999999999,45.40981841683839L933.3,37.91730823917072L939.4000000000001,33.54294781366917L945.5,28.14902305598565L951.6,56.82459773690715L957.7,33.13525025275936L963.8,55.47275848612725L969.9,52.138957955412366L976,57.03736600317251L982.0999999999999,57.67767573278127L988.2,56.49105643419347L994.3000000000001,70.2884082726643L1000.4,50.736850815106095L1006.5,44.31016915522571L1012.6,80.77337522654642L1018.6999999999999,84.09284851280046L1024.8,109.33328498089043L1030.9,122.82398586219307L1037,138.14820002942048L1043.1000000000001,123.3566584009755L1049.2,76.61810316081989L1055.3,104.76719354228806L1061.3999999999999,117.98341023525768L1067.5,70.10727823201876L1073.6,63.08900421560713L1079.7,103.91802737628205L1085.8,131.93499670181626L1091.9,119.77175198020706L1098,93.29833371858041L1104.1,82.52971022105311L1110.2,85.04206528341871L1116.3,57.77852355309375L1122.4,72.12538280436337L1128.5,50.155742870641916L1134.6000000000001,77.5546990309179L1140.7,86.6361645189499L1146.8,43.6976743443725L1152.8999999999999,62.212388022036805L1159,37.55415320834675L1165.1,49.49015095078698L1171.2,35.28678548627772L1177.3,94.3149517190281L1183.4,65.65461478370503L1189.5,65.3693864806014L1195.6,65.40887590686083L1201.7,74.62259089898862L1207.8,67.25915420710487L1213.9,74.04372335304038L1220,97.58630364589453L1226.1000000000001,146.51734836312713L1232.2,90.8973205819031L1238.3,93.06632965268858L1244.3999999999999,95.76581256827734L1250.5,85.59930658209322L1256.6,53.50318907714092L1262.7,53.7779670305992L1268.8,54.56998217060254L1274.9,54.00000000000051L1281,29.30670701655447L1287.1,43.56211867842012L1293.2,50.61668918503648L1299.3,98.58106096844091L1305.4,87.81071816731708L1311.5,79.89631524170636L1317.6000000000001,77.92635572578382L1323.7,124.62144265512998L1329.8,107.05277088151968L1335.8999999999999,59.54534225858481" style="fill: none;" fill="none"></path></g></g></g></g><g opacity="0.2"><g><g><g><path style="fill: none;" stroke="rgb(238, 51, 119)" stroke-width="2px" d="M164.70000000000002,402.6162040669661L170.8,347.757992679524L176.9,344.1336950445498L183,341.0884280804104L189.10000000000002,311.7816930274L195.2,325.39050038328446L201.3,305.8281860931898L207.4,301.0083269834547L213.5,294.54474085541153L219.6,294.4219641399253L225.70000000000002,272.77624565066947L231.79999999999998,297.9269580930792L237.9,271.80811977205656L244,267.398709997904L250.1,252.33649872109385L256.2,225.47435116002157L262.3,226.53016558539306L268.4,241.509642191631L274.5,276.10925438133285L280.6,243.64494063139708L286.7,222.36976798965682L292.8,199.78013665901014L298.9,260.29869973191563L305,216.29668553940883L311.09999999999997,240.0285917761099L317.2,241.6282397235717L323.3,234.47292936053893L329.40000000000003,216.9379510170351L335.5,231.70280663464476L341.6,195.92381891961105L347.7,203.5887320732466L353.8,229.93733047727963L359.9,206.30692469517672L366,219.38860164425574L372.09999999999997,210.82882578869396L378.20000000000005,216.4715385935712L384.3,194.3725656198754L390.4,225.6501749667693L396.5,200.12599977362393L402.6,202.8955842759852L408.7,197.76438655331074L414.8,182.64721480321631L420.9,189.84303055615453L427,215.0734005919867L433.1,192.82292895206982L439.2,185.27020900553285L445.29999999999995,192.93770606600728L451.40000000000003,169.03644598188606L457.5,190.53022839379565L463.59999999999997,210.3644360755249L469.70000000000005,191.84817304936306L475.8,211.06107504358658L481.9,170.61795906138167L488,203.87772171586863L494.1,202.1449560287718L500.2,174.5791165078705L506.3,202.43366518489617L512.4,186.6405903944866L518.5,195.23423409134858L524.6,181.906736222063L530.6999999999999,184.585546024881L536.8,186.01236483971883L542.9,196.90136079794613L549,184.24327832521791L555.1,174.01257497642501L561.2,209.02998469301116L567.3000000000001,176.67718821467759L573.4,172.31435227440167L579.5,191.10309953067497L585.6,184.75670942272401L591.7,177.47180823924828L597.8,188.92740601759624L603.9,180.54081710225563L610,190.30116356741863L616.1,193.16717743893926L622.1999999999999,174.35249560421335L628.3,216.6464122111859L634.4,195.63648044734248L640.5,178.94861222094167L646.6,164.86482729073185L652.7,191.84817304936306L658.8000000000001,184.30038999524072L664.9,183.50211343728452L671,177.81252065865033L677.1,171.0700982586456L683.2,196.03883564627253L689.3,159.47029778474263L695.4,170.4484153560738L701.5,197.87954574127923L707.6,174.74913187654383L713.6999999999999,179.2328521021312L719.8,183.90119814704912L725.9,185.3844045904606L732,186.69779421686252L738.1,188.01223588472598L744.1999999999999,178.66453503765595L750.3,195.06186044682866L756.4000000000001,191.9627655966486L762.5,189.9003577119304L768.6,209.37800624607618L774.7,203.70434323364742L780.8,189.38514781053215L786.9,207.69684032681857L793,195.98127134879553L799.0999999999999,196.26878612725298L805.2,186.24076988513374L811.3000000000001,198.85837459623326L817.4,195.92381891961105L823.5,202.8955842759852L829.6,179.06232333420377L835.6999999999999,205.4967493445578L841.8,192.30681498128808L847.9000000000001,183.90119814704912L854,202.83786407945L860.1,188.9845887539645L866.2,179.06232333420377L872.3,206.13326275611266L878.4,213.73482940408275L884.5,198.10978107518423L890.5999999999999,167.90779199418634L896.7,178.4372906883591L902.8000000000001,211.64191233595534L908.9,202.3181527731943L915,196.78627733831706L921.1,191.38956323174227L927.1999999999999,210.13229559460117L933.3,188.41253305942223L939.4000000000001,170.95710447702606L945.5,182.53333788359205L951.6,181.50818637205597L957.7,168.47201190266304L963.8,196.38371986736436L969.9,185.89822992377896L976,191.73348000103363L982.0999999999999,179.17604314382652L988.2,157.95659251161243L994.3000000000001,189.15625930040235L1000.4,211.29347135818443L1006.5,169.14940158589283L1012.6,187.6692876498502L1018.6999999999999,174.80577195489252L1024.8,168.30271268737667L1030.9,174.40912057601759L1037,184.01517987417517L1043.1000000000001,189.55686461045156L1049.2,197.24655489010945L1055.3,174.01257497642501L1061.3999999999999,190.70207748757085L1067.5,181.28050706204266L1073.6,170.2224230694862L1079.7,163.40183068358155L1085.8,190.87394644427087L1091.9,180.37013827659422L1098,214.6658624764472L1104.1,199.78013665901014L1110.2,155.82882727343554L1116.3,153.03381736347856L1122.4,173.38966090030166L1128.5,164.41446336000052L1134.6000000000001,175.42938780836766L1140.7,186.81199052368424L1146.8,160.70477207576806L1152.8999999999999,185.21316892814176L1159,177.98290614841747L1165.1,164.9773590534225L1171.2,178.6077477870982L1177.3,213.56029784572206L1183.4,157.7324906622842L1189.5,175.54272196069806L1195.6,158.2928620756172L1201.7,172.0880762425907L1207.8,180.31317735805533L1213.9,286.21438831150857L1220,227.6454191609249L1226.1000000000001,217.81268801915525L1232.2,195.75136532249041L1238.3,169.6575387143131L1244.3999999999999,162.4460583906216L1250.5,165.25894052846954L1256.6,186.2979583281382L1262.7,192.13478033834946L1268.8,180.82525299973176L1274.9,161.88422709061905L1281,138.3624219822034L1287.1,200.41420718633083L1293.2,185.21316892814176L1299.3,189.84303055615453L1305.4,168.6413303957664L1311.5,150.63430785572137L1317.6000000000001,191.50422975506632L1323.7,141.90580886242566L1329.8,158.12471778792482L1335.8999999999999,171.40934682499295" fill="none"></path></g><g><path stroke="rgb(0, 153, 136)" stroke-width="2px" d="M140.3,396.7488401539394L146.4,354.2658749005948L152.5,322.6338035746359L158.6,267.03684209427405L164.70000000000002,214.89871185845902L170.8,131.6860901120702L176.9,312.03037757835136L183,232.76305440153672L189.10000000000002,246.67529986582485L195.2,186.6405903944866L201.3,214.02568687718758L207.4,186.9263045797402L213.5,172.9933870415798L219.6,319.81964417201687L225.70000000000002,156.66844117249568L231.79999999999998,174.69249395559015L237.9,187.4977886787311L244,99.01611685632764L250.1,139.96695654904283L256.2,81.34897234649713L262.3,191.21763467134613L268.4,391.16681392828286L274.5,107.38737253563653L280.6,62.312211990563014L286.7,194.08552672330148L292.8,98.74690581854213L298.9,121.80949999659055L305,146.90309894703853L311.09999999999997,228.3503154225107L317.2,183.21705637513142L323.3,147.45940331242792L329.40000000000003,223.9505212662735L335.5,94.17694055077993L341.6,74.1815585135866L347.7,163.12070787742235L353.8,235.41704227318644L359.9,110.9119866667993L366,75.50633214441245L372.09999999999997,121.26270773322341L378.20000000000005,121.26270773322341L384.3,84.54568067992801L390.4,105.22249272352417L396.5,159.18991721378958L402.6,112.5414739970779L408.7,19.584000042001605L414.8,128.11194832377276L420.9,131.13565458476592L427,59.68731883065425L433.1,20.349986334116295L439.2,61.26169862508749L445.29999999999995,134.99288379995616L451.40000000000003,86.68054205613856L457.5,84.2789748221773L463.59999999999997,46.89224603914084L469.70000000000005,105.49298198115315L475.8,58.37665779769674L481.9,62.57490621872495L488,248.46077328350682L494.1,218.10434431263604L500.2,56.28192027225401L506.3,153.31303943941305L512.4,128.9360525906376L518.5,58.638657611642714L524.6,22.39467771319613L530.6999999999999,33.175385092906424L536.8,113.90088382805891L542.9,89.62107941922204L549,81.88128005098037L555.1,153.87174751979248L561.2,27.26197107843899L567.3000000000001,121.80949999659055L573.4,98.47764082657852L579.5,64.94164658498983L585.6,82.68004827194886L591.7,-10.737563369909424L597.8,90.1563571763428L603.9,62.04946396275977L610,180.93910771922316L616.1,24.186043133871465L622.1999999999999,149.96529856362778L628.3,176.10984689655305L634.4,57.06715100622921L640.5,56.020335343905685L646.6,132.78757281349672L652.7,180.65454152437215L658.8000000000001,92.83553782118418L664.9,205.9017818417893L671,122.63011776268138L677.1,36.011895706273776L683.2,160.31186389160385L689.3,50.53676033930083L695.4,177.81252065865033L701.5,141.90580886242566L707.6,184.6425620312753L713.6999999999999,16.269116266260824L719.8,116.62322967212941L725.9,69.95045883921915L732,91.2274911046116L738.1,85.34588183041001L744.1999999999999,76.0364508729134L750.3,330.7935765351375L756.4000000000001,106.30453864786529L762.5,96.59456013192425L768.6,74.97630126612108L774.7,13.724284483292365L780.8,100.63271592609215L786.9,92.29929491874913L793,88.28377842613975L799.0999999999999,147.73768663328417L805.2,-0.9507349510001291L811.3000000000001,134.16552199719706L817.4,29.573124369044706L823.5,101.44162356834761L829.6,190.35839915835462L835.6999999999999,138.03062900741952L841.8,259.5185352790387L847.9000000000001,161.43476486598786L854,76.3016822914048L860.1,119.07765126331617L866.2,108.74197302051584L872.3,112.5414739970779L878.4,113.62886092538241L884.5,74.71130613036718L890.5999999999999,84.2789748221773L896.7,73.91680596294498L902.8000000000001,67.04862760070557L908.9,78.15922290314779L915,61.26169862508749L921.1,23.162113621885055L927.1999999999999,35.7538521460869L933.3,26.74885804592003L939.4000000000001,27.0054413626209L945.5,20.09464619563761L951.6,100.90226863172933L957.7,-1.7058295186660644L963.8,89.62107941922204L969.9,47.15222994751741L976,64.4153674880406L982.0999999999999,58.638657611642714L988.2,54.71290110720355L994.3000000000001,91.2274911046116L1000.4,21.883241220214416L1006.5,34.721928721829556L1012.6,137.2015757204588L1018.6999999999999,89.08599428175643L1024.8,148.0159158803272L1030.9,143.2923435104326L1037,161.43476486598786L1043.1000000000001,101.44162356834761L1049.2,9.154456517867914L1055.3,148.0159158803272L1061.3999999999999,138.03062900741952L1067.5,1.0648554184750765L1073.6,52.62331485648622L1079.7,167.3437860939856L1085.8,174.97581324212072L1091.9,101.7114258721229L1098,54.451492338885544L1104.1,66.52160238833068L1110.2,88.81857491225401L1116.3,17.798166857766034L1122.4,93.90860412843745L1128.5,17.798166857766034L1134.6000000000001,119.62364047366367L1140.7,100.36321207524867L1146.8,-18.471098328703704L1152.8999999999999,90.42401726534302L1159,1.3169483317983577L1165.1,67.57573909936497L1171.2,14.232921942123198L1177.3,187.4977886787311L1183.4,23.67399024283219L1189.5,64.94164658498983L1195.6,65.46811201267207L1201.7,88.55110162536698L1207.8,56.28192027225401L1213.9,84.2789748221773L1220,133.61416805531957L1226.1000000000001,223.07216717287054L1232.2,11.183703715784134L1238.3,96.32578711338112L1244.3999999999999,99.82424808888203L1250.5,70.47870095799084L1256.6,6.621761511414718L1262.7,54.190229190082334L1268.8,55.75879642506135L1274.9,53.14543619367555L1281,-6.980973571078152L1287.1,65.20480579273817L1293.2,61.26169862508749L1299.3,173.55954031683453L1305.4,71.80007740799891L1311.5,68.1031381276739L1317.6000000000001,74.97630126612108L1323.7,197.5342046883832L1329.8,81.08294068142493L1335.8999999999999,-8.985694569178463" style="fill: none;" fill="none"></path></g></g></g></g></g></g><g transform="translate(34, 378)" clip-path="url(#clip_1)"><clipPath id="clip_1"><rect width="1464" height="22"></rect></clipPath><g><g><line x1="0" y1="0" x2="0" y2="5" style="visibility: inherit;" fill="rgb(0, 0, 0)" stroke="rgb(204, 204, 204)" stroke-width="1px"></line><line x1="122" y1="0" x2="122" y2="5" style="visibility: inherit;" fill="rgb(0, 0, 0)" stroke="rgb(204, 204, 204)" stroke-width="1px"></line><line x1="244" y1="0" x2="244" y2="5" style="visibility: inherit;" fill="rgb(0, 0, 0)" stroke="rgb(204, 204, 204)" stroke-width="1px"></line><line x1="366" y1="0" x2="366" y2="5" style="visibility: inherit;" fill="rgb(0, 0, 0)" stroke="rgb(204, 204, 204)" stroke-width="1px"></line><line x1="488" y1="0" x2="488" y2="5" style="visibility: inherit;" fill="rgb(0, 0, 0)" stroke="rgb(204, 204, 204)" stroke-width="1px"></line><line x1="610" y1="0" x2="610" y2="5" style="visibility: inherit;" fill="rgb(0, 0, 0)" stroke="rgb(204, 204, 204)" stroke-width="1px"></line><line x1="732" y1="0" x2="732" y2="5" style="visibility: inherit;" fill="rgb(0, 0, 0)" stroke="rgb(204, 204, 204)" stroke-width="1px"></line><line x1="854" y1="0" x2="854" y2="5" style="visibility: inherit;" fill="rgb(0, 0, 0)" stroke="rgb(204, 204, 204)" stroke-width="1px"></line><line x1="976" y1="0" x2="976" y2="5" style="visibility: inherit;" fill="rgb(0, 0, 0)" stroke="rgb(204, 204, 204)" stroke-width="1px"></line><line x1="1098" y1="0" x2="1098" y2="5" style="visibility: inherit;" fill="rgb(0, 0, 0)" stroke="rgb(204, 204, 204)" stroke-width="1px"></line><line x1="1220" y1="0" x2="1220" y2="5" style="visibility: inherit;" fill="rgb(0, 0, 0)" stroke="rgb(204, 204, 204)" stroke-width="1px"></line><line x1="1342" y1="0" x2="1342" y2="5" style="visibility: inherit;" fill="rgb(0, 0, 0)" stroke="rgb(204, 204, 204)" stroke-width="1px"></line><line x1="1464" y1="0" x2="1464" y2="5" style="visibility: inherit;" fill="rgb(0, 0, 0)" stroke="rgb(204, 204, 204)" stroke-width="1px"></line></g><g transform="translate(0, 8)"><text x="0" y="0" dx="0em" dy="0.95em" style="text-anchor: middle; visibility: hidden; font-family: &quot;Helvetica Neue&quot;, sans-serif; font-size: 12px; font-weight: 200;" fill="rgb(50, 49, 63)" stroke="none" stroke-width="1px">-20</text><text x="122" y="0" dx="0em" dy="0.95em" style="text-anchor: middle; visibility: inherit; font-family: &quot;Helvetica Neue&quot;, sans-serif; font-size: 12px; font-weight: 200;" fill="rgb(50, 49, 63)" stroke="none" stroke-width="1px">0</text><text x="244" y="0" dx="0em" dy="0.95em" style="text-anchor: middle; visibility: inherit; font-family: &quot;Helvetica Neue&quot;, sans-serif; font-size: 12px; font-weight: 200;" fill="rgb(50, 49, 63)" stroke="none" stroke-width="1px">20</text><text x="366" y="0" dx="0em" dy="0.95em" style="text-anchor: middle; visibility: inherit; font-family: &quot;Helvetica Neue&quot;, sans-serif; font-size: 12px; font-weight: 200;" fill="rgb(50, 49, 63)" stroke="none" stroke-width="1px">40</text><text x="488" y="0" dx="0em" dy="0.95em" style="text-anchor: middle; visibility: inherit; font-family: &quot;Helvetica Neue&quot;, sans-serif; font-size: 12px; font-weight: 200;" fill="rgb(50, 49, 63)" stroke="none" stroke-width="1px">60</text><text x="610" y="0" dx="0em" dy="0.95em" style="text-anchor: middle; visibility: inherit; font-family: &quot;Helvetica Neue&quot;, sans-serif; font-size: 12px; font-weight: 200;" fill="rgb(50, 49, 63)" stroke="none" stroke-width="1px">80</text><text x="732" y="0" dx="0em" dy="0.95em" style="text-anchor: middle; visibility: inherit; font-family: &quot;Helvetica Neue&quot;, sans-serif; font-size: 12px; font-weight: 200;" fill="rgb(50, 49, 63)" stroke="none" stroke-width="1px">100</text><text x="854" y="0" dx="0em" dy="0.95em" style="text-anchor: middle; visibility: inherit; font-family: &quot;Helvetica Neue&quot;, sans-serif; font-size: 12px; font-weight: 200;" fill="rgb(50, 49, 63)" stroke="none" stroke-width="1px">120</text><text x="976" y="0" dx="0em" dy="0.95em" style="text-anchor: middle; visibility: inherit; font-family: &quot;Helvetica Neue&quot;, sans-serif; font-size: 12px; font-weight: 200;" fill="rgb(50, 49, 63)" stroke="none" stroke-width="1px">140</text><text x="1098" y="0" dx="0em" dy="0.95em" style="text-anchor: middle; visibility: inherit; font-family: &quot;Helvetica Neue&quot;, sans-serif; font-size: 12px; font-weight: 200;" fill="rgb(50, 49, 63)" stroke="none" stroke-width="1px">160</text><text x="1220" y="0" dx="0em" dy="0.95em" style="text-anchor: middle; visibility: inherit; font-family: &quot;Helvetica Neue&quot;, sans-serif; font-size: 12px; font-weight: 200;" fill="rgb(50, 49, 63)" stroke="none" stroke-width="1px">180</text><text x="1342" y="0" dx="0em" dy="0.95em" style="text-anchor: middle; visibility: inherit; font-family: &quot;Helvetica Neue&quot;, sans-serif; font-size: 12px; font-weight: 200;" fill="rgb(50, 49, 63)" stroke="none" stroke-width="1px">200</text><text x="1464" y="0" dx="0em" dy="0.95em" style="text-anchor: middle; visibility: hidden; font-family: &quot;Helvetica Neue&quot;, sans-serif; font-size: 12px; font-weight: 200;" fill="rgb(50, 49, 63)" stroke="none" stroke-width="1px">220</text></g><line x1="0" y1="0" x2="1464" y2="0" fill="rgb(0, 0, 0)" stroke="rgb(204, 204, 204)" stroke-width="1px"></line></g></g></g></g></svg>