<svg viewBox="0 0 1498 400" xmlns="http://www.w3.org/2000/svg"><g><g><g><g><g><line x1="34" y1="324.09477334970273" x2="29" y2="324.09477334970273" style="visibility: inherit;" fill="rgb(0, 0, 0)" stroke="rgb(204, 204, 204)" stroke-width="1px"></line><line x1="34" y1="211.10294899327127" x2="29" y2="211.10294899327127" style="visibility: inherit;" fill="rgb(0, 0, 0)" stroke="rgb(204, 204, 204)" stroke-width="1px"></line><line x1="34" y1="115.56972272123892" x2="29" y2="115.56972272123892" style="visibility: inherit;" fill="rgb(0, 0, 0)" stroke="rgb(204, 204, 204)" stroke-width="1px"></line><line x1="34" y1="32.81507797810002" x2="29" y2="32.81507797810002" style="visibility: inherit;" fill="rgb(0, 0, 0)" stroke="rgb(204, 204, 204)" stroke-width="1px"></line></g><g transform="translate(24, 0)"><text x="0" y="324.09477334970273" dx="0em" dy="0.3em" style="text-anchor: end; visibility: inherit; font-family: &quot;Helvetica Neue&quot;, sans-serif; font-size: 12px; font-weight: 200;" fill="rgb(50, 49, 63)" stroke="none" stroke-width="1px">50</text><text x="0" y="211.10294899327127" dx="0em" dy="0.3em" style="text-anchor: end; visibility: inherit; font-family: &quot;Helvetica Neue&quot;, sans-serif; font-size: 12px; font-weight: 200;" fill="rgb(50, 49, 63)" stroke="none" stroke-width="1px">60</text><text x="0" y="115.56972272123892" dx="0em" dy="0.3em" style="text-anchor: end; visibility: inherit; font-family: &quot;Helvetica Neue&quot;, sans-serif; font-size: 12px; font-weight: 200;" fill="rgb(50, 49, 63)" stroke="none" stroke-width="1px">70</text><text x="0" y="32.81507797810002" dx="0em" dy="0.3em" style="text-anchor: end; visibility: inherit; font-family: &quot;Helvetica Neue&quot;, sans-serif; font-size: 12px; font-weight: 200;" fill="rgb(50, 49, 63)" stroke="none" stroke-width="1px">80</text></g><line x1="34" y1="0" x2="34" y2="378" fill="rgb(0, 0, 0)" stroke="rgb(204, 204, 204)" stroke-width="1px"></line></g></g><g transform="translate(34, 0)" clip-path="url(#clip_0)"><clipPath id="clip_0"><rect width="1464" height="378"></rect></clipPath><g><g><g><line x1="0" y1="0" x2="0" y2="378" fill="rgb(0, 0, 0)" stroke="rgb(60, 60, 60)" stroke-width="1px" opacity="0.25"></line><line x1="122" y1="0" x2="122" y2="378" fill="rgb(0, 0, 0)" stroke="rgb(60, 60, 60)" stroke-width="1px" opacity="0.25"></line><line x1="244" y1="0" x2="244" y2="378" fill="rgb(0, 0, 0)" stroke="rgb(60, 60, 60)" stroke-width="1px" opacity="0.25"></line><line x1="366" y1="0" x2="366" y2="378" fill="rgb(0, 0, 0)" stroke="rgb(60, 60, 60)" stroke-width="1px" opacity="0.25"></line><line x1="488" y1="0" x2="488" y2="378" fill="rgb(0, 0, 0)" stroke="rgb(60, 60, 60)" stroke-width="1px" opacity="0.25"></line><line x1="610" y1="0" x2="610" y2="378" fill="rgb(0, 0, 0)" stroke="rgb(60, 60, 60)" stroke-width="1px" opacity="0.25"></line><line x1="732" y1="0" x2="732" y2="378" fill="rgb(0, 0, 0)" stroke="rgb(60, 60, 60)" stroke-width="1px" opacity="0.25"></line><line x1="854" y1="0" x2="854" y2="378" fill="rgb(0, 0, 0)" stroke="rgb(60, 60, 60)" stroke-width="1px" opacity="0.25"></line><line x1="976" y1="0" x2="976" y2="378" fill="rgb(0, 0, 0)" stroke="rgb(60, 60, 60)" stroke-width="1px" opacity="0.25"></line><line x1="1098" y1="0" x2="1098" y2="378" fill="rgb(0, 0, 0)" stroke="rgb(60, 60, 60)" stroke-width="1px" opacity="0.25"></line><line x1="1220" y1="0" x2="1220" y2="378" fill="rgb(0, 0, 0)" stroke="rgb(60, 60, 60)" stroke-width="1px" opacity="0.25"></line><line x1="1342" y1="0" x2="1342" y2="378" fill="rgb(0, 0, 0)" stroke="rgb(60, 60, 60)" stroke-width="1px" opacity="0.25"></line><line x1="1464" y1="0" x2="1464" y2="378" fill="rgb(0, 0, 0)" stroke="rgb(60, 60, 60)" stroke-width="1px" opacity="0.25"></line></g><g><line x1="0" y1="324.09477334970273" x2="1464" y2="324.09477334970273" fill="rgb(0, 0, 0)" stroke="rgb(60, 60, 60)" stroke-width="1px" opacity="0.25"></line><line x1="0" y1="211.10294899327127" x2="1464" y2="211.10294899327127" fill="rgb(0, 0, 0)" stroke="rgb(60, 60, 60)" stroke-width="1px" opacity="0.25"></line><line x1="0" y1="115.56972272123892" x2="1464" y2="115.56972272123892" fill="rgb(0, 0, 0)" stroke="rgb(60, 60, 60)" stroke-width="1px" opacity="0.25"></line><line x1="0" y1="32.81507797810002" x2="1464" y2="32.81507797810002" fill="rgb(0, 0, 0)" stroke="rgb(60, 60, 60)" stroke-width="1px" opacity="0.25"></line></g></g></g><g><g><line x1="122" y1="0" x2="122" y2="378" fill="rgb(0, 0, 0)" stroke="rgb(153, 153, 153)" stroke-width="1.5px"></line></g></g><g><g><g><g><g><path style="fill: none;" stroke="rgb(187, 187, 187)" stroke-width="2px" d="M128.1,413.26181799147173L134.2,323.71486080115477L140.3,268.6794460141434L146.4,236.31301225623574L152.5,216.27554037017592L158.6,199.99642782783013L164.70000000000002,184.5970779445461L170.8,179.44671389429345L176.9,165.51773752371247L183,159.56886165092067L189.10000000000002,152.55776878160333L195.2,145.60521006396235L201.3,137.89971943618102L207.4,134.83127399042877L213.5,131.60967839896009L219.6,129.41446899174673L225.70000000000002,124.85766322889336L231.79999999999998,122.13437388556954L237.9,117.74286629541575L244,117.54198731391335L250.1,110.28958749411754L256.2,110.59085381979128L262.3,109.33840253866077L268.4,106.27651826996293L274.5,102.78837865550076L280.6,102.82797767040375L286.7,101.39946604175879L292.8,98.69446094856806L298.9,97.31068595632462L305,96.34110456077775L311.09999999999997,93.3472694699202L317.2,91.23369394970752L323.3,92.78593893644234L329.40000000000003,89.87089570807319L335.5,91.75652404922766L341.6,88.60258717899876L347.7,87.24893273654573L353.8,85.79773835377677L359.9,88.24575597612301L366,83.99525878828985L372.09999999999997,87.69762526102596L378.20000000000005,82.9288248562508L384.3,83.20627942347892L390.4,81.43142446933757L396.5,80.00241028679795L402.6,81.9005711461395L408.7,79.12485215535054L414.8,81.63775138967901L420.9,76.71477070089594L427,76.4142644492731L433.1,76.0172480559691L439.2,76.72826522058415L445.29999999999995,76.64307757474808L451.40000000000003,75.09222286428354L457.5,77.28344161858467L463.59999999999997,72.56778905159467L469.70000000000005,72.14270406382593L475.8,74.88079809294612L481.9,72.99537529604925L488,69.884926421449L494.1,70.0229399188737L500.2,72.97281839046047L506.3,74.39124032075381L512.4,73.0190985077652L518.5,69.49778035306656L524.6,68.12860087324555L530.6999999999999,67.26700108427212L536.8,69.84649332846607L542.9,72.72618903034379L549,67.68724912350189L555.1,69.64414332532891L561.2,69.6955625128798L567.3000000000001,66.39502600148904L573.4,69.95993367914537L579.5,68.26575778799781L585.6,68.29977240215311L591.7,66.96459387698258L597.8,69.13073559834794L603.9,67.63895675651497L610,66.27788909809419L616.1,65.19446015763816L622.1999999999999,62.95078321036044L628.3,62.351717163540116L634.4,66.63226410542961L640.5,65.61778290677563L646.6,62.46343872972011L652.7,64.21275254612323L658.8000000000001,63.39652058604048L664.9,64.50171243264515L671,63.60955288927181L677.1,66.07679429454731L683.2,63.87772139338364L689.3,63.9182097404277L695.4,61.95432300700901L701.5,63.96353959971009L707.6,64.86430828787923L713.6999999999999,61.12668355456066L719.8,61.123276867624895L725.9,64.01248425094172L732,59.40971977819993L738.1,60.519309878997376L744.1999999999999,61.9888603769017L750.3,62.44611351512742L756.4000000000001,62.58203044742248L762.5,61.46805904179416L768.6,61.47987726111637L774.7,59.87278896037685L780.8,58.7958288150636L786.9,59.189116215462946L793,59.06920999286382L799.0999999999999,63.04804316539543L805.2,60.75980861562965L811.3000000000001,59.510311238866166L817.4,59.80560628184202L823.5,60.22420737038175L829.6,57.94600831615344L835.6999999999999,58.57084619709292L841.8,59.21679851033525L847.9000000000001,61.264069859606366L854,60.298193222138366L860.1,60.360302878165385L866.2,57.58409530387149L872.3,61.234545786522574L878.4,57.837317250367505L884.5,57.82389329719166L890.5999999999999,60.14077934281056L896.7,56.94707413554386L902.8000000000001,57.74447273605762L908.9,59.09077428665438L915,58.97220149010161L921.1,59.68468076811553L927.1999999999999,57.50868127080702L933.3,57.13720038063889L939.4000000000001,58.35011209309198L945.5,57.56384173801894L951.6,57.94570151244557L957.7,57.35074993144622L963.8,56.37529042282705L969.9,57.116793251295235L976,57.810916739940296L982.0999999999999,55.704354335020014L988.2,57.136324434701464L994.3000000000001,58.223281846602106L1000.4,56.7545526239939L1006.5,56.8388487299984L1012.6,53.99999999999994L1018.6999999999999,53.77591269379269L1024.8,55.00063835181942L1030.9,55.38549568157504L1037,56.22930414293313L1043.1000000000001,53.65855121309414L1049.2,57.415895218914216L1055.3,53.61689702953407L1061.3999999999999,55.26587488498342L1067.5,55.137877001665345L1073.6,57.44265364171565L1079.7,56.83542209363054L1085.8,55.59212099022193L1091.9,53.88317974203005L1098,56.707954171593485L1104.1,56.3479374516358L1110.2,54.43217226063075L1116.3,55.233278506999966L1122.4,55.026892503716056L1128.5,56.71281206183943L1134.6000000000001,54.86425100773721L1140.7,55.35149934995263L1146.8,57.19321860684994L1152.8999999999999,56.60955563555831L1159,55.50913061235059L1165.1,56.67410163656092L1171.2,56.789980424325336L1177.3,55.57552936457637L1183.4,55.253866900063315L1189.5,53.924363889073334L1195.6,53.93192475436251L1201.7,55.6976646780912L1207.8,53.03564201424473L1213.9,53.96311678434648L1220,52.48606565373859L1226.1000000000001,55.229680909147646L1232.2,53.37321546852229L1238.3,53.52855806292348L1244.3999999999999,52.72957337569068L1250.5,54.90289631126262L1256.6,54.5322477908295L1262.7,52.65332981454952L1268.8,51.85031851024701L1274.9,56.43401601834199L1281,53.61504260091982L1287.1,54.19399717375671L1293.2,54.29893193179896L1299.3,53.356499774136296L1305.4,50.530793132825124L1311.5,52.28290362951054L1317.6000000000001,54.35899205565249L1323.7,51.47311973356523L1329.8,52.19000721009297L1335.8999999999999,51.371515611532345" fill="none"></path></g><g><path style="fill: none;" stroke="rgb(255, 112, 67)" stroke-width="2px" d="M122,439.42123416001283L128.1,313.9844834346002L134.2,235.3904982651679L140.3,221.044028511796L146.4,190.7244801137996L152.5,161.82407850460362L158.6,156.74641502665796L164.70000000000002,150.1863315585003L170.8,143.66778535582114L176.9,135.0597078061325L183,135.80344770244872L189.10000000000002,132.2340914435101L195.2,120.49302771373317L201.3,140.31496694404086L207.4,120.81021380865161L213.5,111.76306992312624L219.6,120.47597087505306L225.70000000000002,108.1385649854094L231.79999999999998,103.63984023082321L237.9,99.818554866689L244,99.58047538943379L250.1,101.01818682692567L256.2,92.44160176018659L262.3,90.03159970104008L268.4,84.50654601149347L274.5,88.13919891919909L280.6,86.95830967001888L286.7,93.5302286266949L292.8,97.605915459492L298.9,87.45937602196562L305,86.69710054275026L311.09999999999997,79.66977124260683L317.2,84.56819819768123L323.3,83.25225837376257L329.40000000000003,78.3789766851649L335.5,81.98650731555097L341.6,79.25755715939681L347.7,77.16226879044115L353.8,70.86461086596427L359.9,75.94958182837155L366,73.84307747443489L372.09999999999997,72.50616407775345L378.20000000000005,78.18541874491592L384.3,78.12438094459878L390.4,70.23492624435892L396.5,79.20897134446932L402.6,76.18162005758103L408.7,67.13742481283771L414.8,78.33302909920417L420.9,66.85396081428217L427,70.51774561748374L433.1,71.87886530272294L439.2,78.01030516759079L445.29999999999995,89.51967413234041L451.40000000000003,73.19012776301753L457.5,80.49395244625612L463.59999999999997,77.0210379909571L469.70000000000005,70.70036318765926L475.8,72.20634277151777L481.9,73.36948268509104L488,68.37510803188286L494.1,72.00223787338308L500.2,58.678487704809754L506.3,70.04552771907254L512.4,73.73666814450877L518.5,69.18790076865201L524.6,62.36756254577335L530.6999999999999,67.45253465028236L536.8,63.05513344735141L542.9,60.346233310147454L549,59.74117699361716L555.1,66.52056146855017L561.2,69.70374599739858L567.3000000000001,63.334980216607335L573.4,71.2627290973195L579.5,72.70305607038995L585.6,66.99513853525303L591.7,70.84371170099536L597.8,68.8940913462933L603.9,62.36233064070319L610,69.87054929535708L616.1,58.640869910480774L622.1999999999999,59.948846336611325L628.3,73.79613474573125L634.4,62.60895662130554L640.5,64.24737288903293L646.6,56.64082356968362L652.7,73.00409501495608L658.8000000000001,72.08574212502066L664.9,60.50692268796445L671,66.77550526667216L677.1,61.925782798748344L683.2,64.95575028790597L689.3,60.06218632816035L695.4,62.28370662805736L701.5,59.53765312917301L707.6,66.11534054799102L713.6999999999999,70.1002562841075L719.8,62.54342917938868L725.9,61.77021147183984L732,66.39681491425267L738.1,55.25753600633351L744.1999999999999,71.43829929637513L750.3,58.66854827304002L756.4000000000001,65.13706142045567L762.5,58.71553530330851L768.6,61.143520716673265L774.7,61.90442701312986L780.8,60.166526594881134L786.9,63.56332218425632L793,59.40169182790453L799.0999999999999,71.1907945508496L805.2,65.20221871330142L811.3000000000001,59.82816432317492L817.4,56.7991415729889L823.5,61.746192212438245L829.6,64.39190387288261L835.6999999999999,59.893177692140625L841.8,62.75948211719202L847.9000000000001,55.666426577343145L854,78.2845450822461L860.1,55.70248548315698L866.2,60.929681210128706L872.3,61.66144336642674L878.4,58.17771953752913L884.5,59.14624444472156L890.5999999999999,64.02470937633524L896.7,55.45217415394188L902.8000000000001,61.243637470348574L908.9,55.48161221691652L915,59.65336125604426L921.1,52.854850976094895L927.1999999999999,54.463850744423155L933.3,51.114489488423544L939.4000000000001,57.59138255675799L945.5,56.04781526856988L951.6,54.9154005228155L957.7,70.46114658862393L963.8,62.709462229830194L969.9,66.81548423214662L976,53.37473608402365L982.0999999999999,57.157475024568214L988.2,60.55819199396592L994.3000000000001,59.98337856796769L1000.4,56.16962884029124L1006.5,55.8642936107986L1012.6,57.91504953762552L1018.6999999999999,57.081190853991416L1024.8,72.60654718715682L1030.9,62.109149934573L1037,61.04538969890075L1043.1000000000001,55.635882559205186L1049.2,63.161374814125054L1055.3,60.74587272104384L1061.3999999999999,57.36935066724533L1067.5,57.0713772394206L1073.6,54.14585810675686L1079.7,65.37513421159565L1085.8,59.03714489763058L1091.9,60.75127571859338L1098,55.946424131360175L1104.1,60.93410844191487L1110.2,55.00285421464139L1116.3,50.5759023904896L1122.4,60.83624217576943L1128.5,51.54155500686994L1134.6000000000001,49.653420103065116L1140.7,53.14685977327423L1146.8,57.15334739310504L1152.8999999999999,56.51397710280054L1159,48.336663658831526L1165.1,53.201628157265304L1171.2,60.80464557567791L1177.3,61.42015379140474L1183.4,59.68100690148651L1189.5,56.71741909139797L1195.6,53.03819332919312L1201.7,53.67989368418927L1207.8,56.609401601616696L1213.9,53.036260357622496L1220,62.47521111995883L1226.1000000000001,56.451215140630495L1232.2,49.506699288466336L1238.3,57.56210101769409L1244.3999999999999,55.88931814602722L1250.5,51.688712992508556L1256.6,53.105076190173406L1262.7,63.03533547506669L1268.8,54.40975500387873L1274.9,53.075438507067645L1281,54.31032171988778L1287.1,62.259112776175755L1293.2,51.80202188950716L1299.3,53.1856871025401L1305.4,55.336990001865615L1311.5,57.98476066058117L1317.6000000000001,51.64767214194649L1323.7,61.094657893509236L1329.8,58.326123252439345L1335.8999999999999,59.46650873031649" fill="none"></path></g><g><path style="fill: none;" stroke="rgb(238, 51, 119)" stroke-width="2px" d="M164.70000000000002,389.2770293610597L170.8,366.6315443214233L176.9,364.74801479655827L183,363.4677769651139L189.10000000000002,351.44801617403317L195.2,356.8031505494306L201.3,348.8926110985773L207.4,346.7784116940078L213.5,344.0949085481669L219.6,343.99646180559023L225.70000000000002,335.1344056309174L231.79999999999998,345.26816449869773L237.9,334.76059556522046L244,332.76834704816514L250.1,326.56733832010303L256.2,315.4603725625925L262.3,315.69438170596425L268.4,321.82881493181804L274.5,336.0976377029846L280.6,323.0680713455396L286.7,314.1273832864065L292.8,304.72087361572625L298.9,329.31274128377606L305,311.75086442523093L311.09999999999997,321.1509142539534L317.2,321.9761202860634L323.3,319.0623435715278L329.40000000000003,311.83256031344115L335.5,317.7456142187057L341.6,303.2058941302864L347.7,306.0842422344624L353.8,316.9183453541855L359.9,307.442366118111L366,312.6267707332442L372.09999999999997,309.2169842726961L378.20000000000005,311.46514628281767L384.3,302.45985885137486L390.4,315.0978332531896L396.5,304.8796624383766L402.6,305.8307888612826L408.7,303.74776919718755L414.8,297.52263349540647L420.9,300.35612636987935L427,310.73189644153535L433.1,301.81244986978925L439.2,298.5617481612871L445.29999999999995,301.6413932026364L451.40000000000003,291.9133019635058L457.5,300.53542797303624L463.59999999999997,308.80843011802233L469.70000000000005,301.3792386218788L475.8,309.108867561997L481.9,292.6924386125513L488,306.0107572899336L494.1,305.5439426814032L500.2,294.25156206682846L506.3,305.4485771543841L512.4,299.1876444886188L518.5,302.5925477518944L524.6,297.19891967870996L530.6999999999999,298.19862793599566L536.8,298.8005984669096L542.9,303.26777607120584L549,298.1674156968965L555.1,293.88851513341945L561.2,308.1406123078435L567.3000000000001,295.15639663719753L573.4,293.1394806677715L579.5,300.79219797965254L585.6,298.3332859509967L591.7,295.3074257627864L597.8,299.94130768225904L603.9,296.59241932116845L610,300.5267760393675L616.1,301.7707990137387L622.1999999999999,294.09190009005863L628.3,311.26014072378644L634.4,302.9736444810445L640.5,295.9947941341612L646.6,290.10518973725226L652.7,301.0416135283844L658.8000000000001,298.15097959343865L664.9,297.77235194980665L671,295.4368298515734L677.1,292.63522616741136L683.2,302.8025447150798L689.3,288.01716887638986L695.4,292.2470814554398L701.5,303.5485579542642L707.6,294.28584047071075L713.6999999999999,295.9554231575388L719.8,297.89611511252974L725.9,298.538141830053L732,299.0872421682732L738.1,299.6350987921634L744.1999999999999,295.81893616899157L750.3,302.4608791175921L756.4000000000001,301.31267633869675L762.5,300.4479177828584L768.6,308.40320711915786L774.7,306.2251636859517L780.8,300.3249761117521L786.9,307.71305852821695L793,303.05160280710675L799.0999999999999,303.08569072919505L805.2,298.98180375058007L811.3000000000001,304.07191316557856L817.4,302.9628504708158L823.5,305.79618072545014L829.6,296.0914714846497L835.6999999999999,306.73553045273843L841.8,301.5300520231233L847.9000000000001,297.99632988722084L854,305.6824012283804L860.1,300.15132825380107L866.2,295.99099405865263L872.3,306.99411716020325L878.4,310.3049707002026L884.5,303.9691395793283L890.5999999999999,291.49237328933407L896.7,295.5793281989417L902.8000000000001,309.2402998194458L908.9,305.6727755415836L915,303.34458985912306L921.1,301.0939283591529L927.1999999999999,308.72362530361295L933.3,299.9712638386018L939.4000000000001,292.66993077574784L945.5,297.2768814463523L951.6,296.9405470252342L957.7,291.59864717097514L963.8,302.92466838072914L969.9,298.83871324937894L976,301.1535758105149L982.0999999999999,296.05544969182534L988.2,287.2782666927236L994.3000000000001,299.88839772093274L1000.4,309.17675215891404L1006.5,292.092285070898L1012.6,299.36804660696225L1018.6999999999999,294.23464653741576L1024.8,291.48095920390983L1030.9,293.93063778070444L1037,297.9061407665183L1043.1000000000001,300.24594576522696L1049.2,303.4352180265866L1055.3,293.98229116663924L1061.3999999999999,300.6434499993579L1067.5,296.9077567214994L1073.6,292.3145722612717L1079.7,289.4405619302569L1085.8,300.6308363240814L1091.9,296.5348936598075L1098,310.49501435032874L1104.1,304.65629014497154L1110.2,286.558571731656L1116.3,285.0936385682746L1122.4,293.39748742497864L1128.5,289.8744420145893L1134.6000000000001,294.31908997487153L1140.7,299.0577088494656L1146.8,288.4565598631691L1152.8999999999999,298.2967130144432L1159,295.51596986527386L1165.1,290.1427133374632L1171.2,295.62460056433736L1177.3,310.02595789330826L1183.4,287.4316941709604L1189.5,294.32109400216746L1195.6,287.38510124628L1201.7,292.9065952678454L1207.8,296.37261397250995L1213.9,339.7497644018481L1220,316.58020364110644L1226.1000000000001,312.1463727734862L1232.2,303.036406258052L1238.3,292.1922755127603L1244.3999999999999,289.04715940632184L1250.5,290.1419279693649L1256.6,298.7713639498929L1262.7,301.3165905580127L1268.8,296.73344363004395L1274.9,288.8981970275471L1281,279.1296923955671L1287.1,304.3421941633231L1293.2,298.58360543156687L1299.3,300.3752952635581L1305.4,291.7290915895789L1311.5,284.2038378738287L1317.6000000000001,300.7922928454263L1323.7,280.78957036869343L1329.8,287.0728387766327L1335.8999999999999,292.6231803970551" fill="none"></path></g><g><path style="fill: none;" stroke="rgb(0, 153, 136)" stroke-width="2px" d="M140.3,386.91095528237344L146.4,369.25541580293526L152.5,355.9932702651125L158.6,332.99476630313495L164.70000000000002,311.2425837496605L170.8,276.78358766576685L176.9,349.90919621009454L183,318.85142816872025L189.10000000000002,324.00000000000006L195.2,299.51340052331875L201.3,310.2877948217358L207.4,299.39051926078594L213.5,293.49315670192897L219.6,353.4254161010274L225.70000000000002,287.72328258196114L231.79999999999998,293.97848645785956L237.9,299.3321682831678L244,263.19638056963686L250.1,279.32128482333314L256.2,255.6161273158428L262.3,300.1344734705896L268.4,382.69515412365206L274.5,267.95919882400136L280.6,247.62242572799914L286.7,301.15073674214625L292.8,263.1169138585244L298.9,271.8911325724607L305,282.3188672962236L311.09999999999997,315.8258657346257L317.2,297.96916540012586L323.3,283.0142927854405L329.40000000000003,314.0400750242532L335.5,261.45976585133167L341.6,252.36813633717122L347.7,288.58679318534917L353.8,318.8341050746656L359.9,268.3984846517203L366,253.0329891204439L372.09999999999997,271.4818900700129L378.20000000000005,271.8190542173837L384.3,256.7943221738951L390.4,264.988765939297L396.5,287.21757477387644L402.6,268.52777188078244L408.7,230.1296212072687L414.8,273.84899375388744L420.9,275.9023868442573L427,246.6847167480249L433.1,230.06724701282798L439.2,246.51242913067952L445.29999999999995,276.97511284361116L451.40000000000003,257.7587919676835L457.5,256.4353651723846L463.59999999999997,241.10653734548592L469.70000000000005,264.80966919248885L475.8,245.9558417605988L481.9,247.33989958009715L488,323.3547459367687L494.1,312.3862048601317L500.2,245.89706910312327L506.3,284.45357767106333L512.4,275.19181980719776L518.5,246.2429576790733L524.6,230.89673664726396L530.6999999999999,235.03601629976725L536.8,268.13349028723246L542.9,258.8072649066998L549,255.47277437115153L555.1,284.8640857577284L561.2,233.54959829364475L567.3000000000001,271.3384947748581L573.4,262.48988311866657L579.5,248.60336698961768L585.6,255.6154570535291L591.7,217.48752986202427L597.8,258.09105224031396L603.9,247.34161085226566L610,295.77315746465604L616.1,232.4676709549399L622.1999999999999,282.8255764623408L628.3,294.46898264965716L634.4,245.92503297050413L640.5,244.65670424804418L646.6,276.0382607720469L652.7,296.20279368821434L658.8000000000001,260.6110334309256L664.9,306.23276068189455L671,272.9881776356966L677.1,236.93599822827534L683.2,287.14087118748864L689.3,243.1263440236361L695.4,294.4132460558904L701.5,280.6778303146707L707.6,297.92015939003113L713.6999999999999,229.25618689842244L719.8,269.136102549568L725.9,250.7708910234984L732,259.1524438338663L738.1,256.89706382553294L744.1999999999999,253.04617275367997L750.3,357.07395169543844L756.4000000000001,267.12377644863966L762.5,261.6440231305305L768.6,252.69676236406923L774.7,227.458463525859L780.8,262.56463266049786L786.9,259.80432877101407L793,258.11124863181595L799.0999999999999,282.4051781466844L805.2,221.94404882683529L811.3000000000001,276.16340018620735L817.4,234.35148044057078L823.5,263.0260073573756L829.6,299.92567863949336L835.6999999999999,279.18750762760993L841.8,328.5059228897495L847.9000000000001,289.2647680115331L854,253.71924355122795L860.1,270.60077702902475L866.2,266.67850053481754L872.3,268.1631482484615L878.4,268.63494539796494L884.5,252.7116035337935L890.5999999999999,256.3443461066577L896.7,252.16866018675645L902.8000000000001,249.2826339462377L908.9,253.77783735781003L915,246.94256783085848L921.1,231.2232555012417L927.1999999999999,236.09710664878656L933.3,232.49944614150814L939.4000000000001,232.539893305104L945.5,229.71206298844072L951.6,262.717696881841L957.7,221.30813082162368L963.8,257.94542564632536L969.9,241.23948053849892L976,248.00761478643193L982.0999999999999,245.76576343762676L988.2,244.1187162821951L994.3000000000001,259.03043259223614L1000.4,230.90953105675692L1006.5,235.66913181435197L1012.6,277.671151671722L1018.6999999999999,258.75598784338916L1024.8,282.53103309438893L1030.9,281.0341650509064L1037,288.4317460505338L1043.1000000000001,264.0031022769921L1049.2,225.7797804538319L1055.3,281.8978668300634L1061.3999999999999,278.86915878583517L1067.5,222.71241141803063L1073.6,242.84251273448945L1079.7,290.1295867073833L1085.8,294.1380989466752L1091.9,264.2119211049578L1098,244.33802135543255L1104.1,248.92579324298399L1110.2,258.1330979383556L1116.3,229.22079383475128L1122.4,259.8487952046613L1128.5,229.25022866907995L1134.6000000000001,270.362471921407L1140.7,263.24444450104045L1146.8,214.4464538843963L1152.8999999999999,258.1418665924259L1159,222.46925718614943L1165.1,248.95337543012243L1171.2,227.60188334203733L1177.3,298.06142209432426L1183.4,232.2948341836097L1189.5,248.05897832112936L1195.6,248.56190775864067L1201.7,258.0170079918595L1207.8,244.97894894814686L1213.9,256.20347896728066L1220,276.5930138800219L1226.1000000000001,313.5588541751671L1232.2,227.41881290481257L1238.3,260.802980435212L1244.3999999999999,262.8524713701462L1250.5,250.87681420727108L1256.6,224.51795720879585L1262.7,243.51698234776643L1268.8,244.50632635361342L1274.9,243.45454035709025L1281,218.8183201985372L1287.1,247.91508814559762L1293.2,246.83770949307856L1299.3,292.74744951855234L1305.4,251.93375858626635L1311.5,249.7100442113303L1317.6000000000001,252.4830148356611L1323.7,302.6550744713858L1329.8,255.9039591110872L1335.8999999999999,218.21019696319468" fill="none"></path></g></g></g></g><g opacity="0.2"><g><g><g><path style="fill: none;" stroke="rgb(187, 187, 187)" stroke-width="2px" d="M128.1,409.5466988145354L134.2,322.1889182896939L140.3,267.71490245883587L146.4,235.73523291632264L152.5,215.9142341569775L158.6,199.70198762867975L164.70000000000002,184.31834955093763L170.8,179.3527063633554L176.9,165.26531947148246L183,159.46035029892786L189.10000000000002,152.42999324867014L195.2,145.47849522115177L201.3,137.75936858643897L207.4,134.77517112119122L213.5,131.55078276593852L219.6,129.37430341958577L225.70000000000002,124.77444916739046L231.79999999999998,122.08456767474726L237.9,117.66265994736233L244,117.53830582207445L250.1,110.15744034458163L256.2,110.59637738018449L262.3,109.3154687895601L268.4,106.22053506252416L274.5,102.72462414436683L280.6,102.82870354154244L286.7,101.37331221752424L292.8,98.6449883956314L298.9,97.28535025945905L305,96.32334634264402L311.09999999999997,93.29252740962255L317.2,91.19501943416992L323.3,92.81442780896242L329.40000000000003,89.81759090382292L335.5,91.79114110332148L341.6,88.54492524742068L347.7,87.22414790723872L353.8,85.77116973854282L359.9,88.29071836130476L366,83.91761886676278L372.09999999999997,87.76569626743407L378.20000000000005,82.84175460240664L384.3,83.21136630821906L390.4,81.39893887864179L396.5,79.97624727238178L402.6,81.93541863578474L408.7,79.07408924414506L414.8,81.68390790815039L420.9,76.62489674404111L427,76.40875754774714L433.1,76.00997314292078L439.2,76.74130573804842L445.29999999999995,76.64151619968538L451.40000000000003,75.06383198125803L457.5,77.3236789201722L463.59999999999997,72.48168543323135L469.70000000000005,72.13491500253798L475.8,74.93110026523698L481.9,72.9608690889446L488,69.82805753030908L494.1,70.02546998472008L500.2,73.02702074291881L506.3,74.41727023056768L512.4,72.99397556411185L518.5,69.433421173363L524.6,68.10353210682456L530.6999999999999,67.25121918689769L536.8,69.89387561057424L542.9,72.77909876049694L549,67.59526696537796L555.1,69.68007080883274L561.2,69.69650506326326L567.3000000000001,66.33469111870056L573.4,70.02546998472008L579.5,68.2347468308817L585.6,68.30039590537626L591.7,66.9401469628155L597.8,69.17051159090494L603.9,67.61164602710534L610,66.25296868771744L616.1,65.17461863779852L622.1999999999999,62.909732465074114L628.3,62.340741722254904L634.4,66.71100286558737L640.5,65.59920301844244L646.6,62.40576937082494L652.7,64.24486349003439L658.8000000000001,63.38156913267892L664.9,64.52198893741769L671,63.593211639980154L677.1,66.12211047639471L683.2,63.837485258814866L689.3,63.91895191404285L695.4,61.918383101877794L701.5,64.00042927972441L707.6,64.88083154807617L713.6999999999999,61.058383062617565L719.8,61.12321442343631L725.9,64.0655691579758L732,59.32566961161149L738.1,60.5396671503338L744.1999999999999,62.01582969657778L750.3,62.454498086662625L756.4000000000001,62.58452207470839L762.5,61.447658690209494L768.6,61.48009389045774L774.7,59.84336998985157L780.8,58.77610565757544L786.9,59.196327479320985L793,59.06701233563342L799.0999999999999,63.12121387280831L805.2,60.717944167437736L811.3000000000001,59.487431523470946L817.4,59.811020335329204L823.5,60.23188294220324L829.6,57.90432712917476L835.6999999999999,58.58230531888751L841.8,59.22864506267547L847.9000000000001,61.30165940964639L854,60.280502804098546L860.1,60.36144140246114L866.2,57.53332347771567L872.3,61.30165940964639L878.4,57.77521973424689L884.5,57.823647239663785L890.5999999999999,60.183328665806016L896.7,56.88868704425221L902.8000000000001,57.75909858344312L908.9,59.11547922808228L915,58.97002826970078L921.1,59.69774811739126L927.1999999999999,57.46886655287551L933.3,57.13039323637071L939.4000000000001,58.37236686051864L945.5,57.54943875647092L951.6,57.95270317517617L957.7,57.339849834121594L963.8,56.35742463127758L969.9,57.13039323637071L976,57.823647239663785L982.0999999999999,55.66580792453726L988.2,57.162603263887775L994.3000000000001,58.243223512781015L1000.4,56.72766336632867L1006.5,56.84039397948635L1012.6,53.948085249801295L1018.6999999999999,53.77180594328178L1024.8,55.0231101022743L1030.9,55.39255232393373L1037,56.24478182807513L1043.1000000000001,53.6115288512396L1049.2,57.484980155602045L1055.3,53.54747850973462L1061.3999999999999,55.29614153470402L1067.5,55.135531054993805L1073.6,57.484980155602045L1079.7,56.82429712746779L1085.8,55.569354619771104L1091.9,53.85189889245896L1098,56.75985246881447L1104.1,56.34134031865659L1110.2,54.39711161345764L1116.3,55.247972404620214L1122.4,55.0231101022743L1128.5,56.743757708584724L1134.6000000000001,54.83041840455223L1140.7,55.36043415855619L1146.8,57.227028341561834L1152.8999999999999,56.59886225749324L1159,55.48897811380533L1165.1,56.69547593564994L1171.2,56.792104677655345L1177.3,55.55329074694714L1183.4,55.247972404620214L1189.5,53.90002077923657L1195.6,53.93206334542214L1201.7,55.7300775823407L1207.8,52.98695386035291L1213.9,53.9801303012394L1220,52.45902422473006L1226.1000000000001,55.28008474201272L1232.2,53.339238418764694L1238.3,53.53140584662452L1244.3999999999999,52.71493764454107L1250.5,54.942804405183495L1256.6,54.52545589454792L1262.7,52.61894247223688L1268.8,51.835609068530516L1274.9,56.518352128206686L1281,53.56349047453102L1287.1,54.204614425102136L1293.2,54.30085554533673L1299.3,53.339238418764694L1305.4,50.479118157869834L1311.5,52.31506598408464L1317.6000000000001,54.39711161345764L1323.7,51.42034708807864L1329.8,52.203155456323884L1335.8999999999999,51.35652279472538" fill="none"></path></g><g><path style="fill: none;" stroke="rgb(255, 112, 67)" stroke-width="2px" d="M122,439.42123416001283L128.1,311.9438170307005L134.2,234.03939374175607L140.3,220.78413503613132L146.4,190.18233752196198L152.5,161.30671392383894L158.6,156.65372894253272L164.70000000000002,150.06673134649816L170.8,143.54893838285295L176.9,134.90303282838047L183,135.81708874290896L189.10000000000002,132.1688568427165L195.2,120.27987720188293L201.3,140.68428485759088L207.4,120.45836025694899L213.5,111.59846276699574L219.6,120.63682662865546L225.70000000000002,107.91469763489562L231.79999999999998,103.55768289996075L237.9,99.74873037382957L244,99.5761122606491L250.1,101.04457114289875L256.2,92.2854959459869L262.3,89.98751186036111L268.4,84.40573041168165L274.5,88.20598435586754L280.6,86.93668502887607L286.7,93.65134431136624L292.8,97.68087327630667L298.9,87.27493225049415L305,86.68313682660465L311.09999999999997,79.54170150938836L317.2,84.65834839996228L323.3,83.22816333656903L329.40000000000003,78.29000640596405L335.5,82.05282951492956L341.6,79.20764764996102L347.7,77.12392832020504L353.8,70.74977035663198L359.9,76.04317953430376L366,73.80453212434668L372.09999999999997,72.48168543323135L378.20000000000005,78.29000640596405L384.3,78.12326218155226L390.4,70.09124626824251L396.5,79.37468392895522L402.6,76.126266678935L408.7,66.97287090781168L414.8,78.54014326320203L420.9,66.6455219311502L427,70.5851051311488L433.1,71.90384246450901L439.2,78.12326218155226L445.29999999999995,89.73264789329625L451.40000000000003,72.8947875468595L457.5,80.62863775032889L463.59999999999997,76.9575609646439L469.70000000000005,70.5851051311488L475.8,72.23398146853384L481.9,73.39082335577228L488,68.28393604664416L494.1,72.06892146691894L500.2,58.43691782871406L506.3,70.25584309350671L512.4,73.80453212434668L518.5,69.10483295221104L524.6,62.24324402964453L530.6999999999999,67.54613237732497L536.8,62.97481984693445L542.9,60.29668967813984L549,59.730091859624L555.1,66.6455219311502L561.2,69.76224643937007L567.3000000000001,63.21884979685183L573.4,71.40899492558833L579.5,72.72948844246895L585.6,66.89100184125397L591.7,70.9144793454285L597.8,68.85841210359126L603.9,62.24324402964453L610,70.00902700459307L616.1,58.43691782871406L622.1999999999999,59.97284724721203L628.3,74.05286474543425L634.4,62.40576937082494L640.5,64.27744542190891L646.6,56.50226363848907L652.7,73.30810211371585L658.8000000000001,72.06892146691894L664.9,60.29668967813984L671,66.89100184125397L677.1,61.83724092298473L683.2,65.01142789752618L689.3,59.97284724721203L695.4,62.324501372492705L701.5,59.487431523470946L707.6,66.2365631168347L713.6999999999999,70.1735392164565L719.8,62.40576937082494L725.9,61.756047438180474L732,66.48194346141571L738.1,55.055210790039496L744.1999999999999,71.73887035628275L750.3,58.43691782871406L756.4000000000001,65.25626126472179L762.5,58.598447898107906L768.6,61.18811443871624L774.7,61.918383101877794L780.8,60.134716426531895L786.9,63.62575932926853L793,59.32566961161149L799.0999999999999,71.40899492558833L805.2,65.0929867648183L811.3000000000001,59.730091859624L817.4,56.743757708584724L823.5,61.83724092298473L829.6,64.44050517498482L835.6999999999999,59.811020335329204L841.8,62.81214522449761L847.9000000000001,55.537165980389034L854,78.70693605893041L860.1,55.29614153470402L866.2,61.02590806978958L872.3,61.67486458933075L878.4,58.11404550519825L884.5,59.16401158114576L890.5999999999999,64.11449072478484L896.7,55.29614153470402L902.8000000000001,61.350301385661L908.9,55.376493033178235L915,59.730091859624L921.1,52.730928113463165L927.1999999999999,54.49338263410908L933.3,51.05326452698972L939.4000000000001,57.7107376470164L945.5,56.019557624391155L951.6,54.894662729275694L957.7,70.74977035663198L963.8,62.568275335476585L969.9,66.89100184125397L976,53.131068275551286L982.0999999999999,57.227028341561834L988.2,60.6207014201982L994.3000000000001,59.97284724721203L1000.4,56.099941611502004L1006.5,55.85869823845002L1012.6,57.95270317517617L1018.6999999999999,57.06591674157784L1024.8,72.8947875468595L1030.9,61.918383101877794L1037,61.02590806978958L1043.1000000000001,55.537165980389034L1049.2,63.3001730828376L1055.3,60.70168446395917L1061.3999999999999,57.30763059339921L1067.5,57.06591674157784L1073.6,54.09236219899253L1079.7,65.5828770565231L1085.8,58.92157275050812L1091.9,60.7827399226216L1098,55.85869823845002L1104.1,61.02590806978958L1110.2,54.894662729275694L1116.3,50.4950510415286L1122.4,61.02590806978958L1128.5,51.37247825185648L1134.6000000000001,49.61886433708685L1140.7,53.2110784554651L1146.8,57.227028341561834L1152.8999999999999,56.50226363848907L1159,48.187776433253646L1165.1,53.29116005457098L1171.2,60.94488265051791L1177.3,61.43144172664677L1183.4,59.64917395056142L1189.5,56.663228754998556L1195.6,52.97095678419282L1201.7,53.69166221589887L1207.8,56.663228754998556L1213.9,52.97095678419282L1220,62.64957530889944L1226.1000000000001,56.34134031865659L1232.2,49.380130197396795L1238.3,57.7107376470164L1244.3999999999999,55.85869823845002L1250.5,51.61198126158075L1256.6,53.131068275551286L1262.7,63.21884979685183L1268.8,54.252763708607574L1274.9,53.05100735921167L1281,54.332980034329296L1287.1,62.40576937082494L1293.2,51.61198126158075L1299.3,53.2110784554651L1305.4,55.376493033178235L1311.5,58.0333998684975L1317.6000000000001,51.53211633531106L1323.7,61.269171666712L1329.8,58.27549143146598L1335.8999999999999,59.487431523470946" fill="none"></path></g><g><path style="fill: none;" stroke="rgb(238, 51, 119)" stroke-width="2px" d="M164.70000000000002,389.0879192367383L170.8,366.2240801813549L176.9,364.7135431857243L183,363.4443349489296L189.10000000000002,351.2298559029689L195.2,356.9017429960996L201.3,348.7485496241782L207.4,346.7397257823597L213.5,344.04582838369214L219.6,343.99465742875896L225.70000000000002,334.9731415743471L231.79999999999998,345.455470962562L237.9,334.5696454756933L244,332.7318889602023L250.1,326.45425128771336L256.2,315.2586289189732L262.3,315.6986719040344L268.4,321.9418273696773L274.5,336.3622750014263L280.6,322.83177836565903L286.7,313.96469883729503L292.8,304.54977840876313L298.9,329.7727423182049L305,311.43355580144447L311.09999999999997,321.32455426731116L317.2,321.99125652192413L323.3,319.0090618714958L329.40000000000003,311.7008228213017L335.5,317.8545284194081L341.6,302.94253993142144L347.7,306.1371271460956L353.8,317.11871218156125L359.9,307.2700171375394L366,312.7222064957715L372.09999999999997,309.15465785424726L378.20000000000005,311.5064311648149L384.3,302.2960076278289L390.4,315.3319088732028L396.5,304.6939274502234L402.6,305.84823658117625L408.7,303.7096528409227L414.8,297.40910870860216L420.9,300.40818522032805L427,310.9237143492834L433.1,301.6501491050857L439.2,298.50232184421475L445.29999999999995,301.6979859811692L451.40000000000003,291.7364041146977L457.5,300.6945959574202L463.59999999999997,308.9611092242001L469.70000000000005,301.2438897409156L475.8,309.2514548414309L481.9,292.39554810789485L488,306.25757242694715L494.1,305.5353892790012L500.2,294.0464817427871L506.3,305.65571765851814L512.4,299.0734702416762L518.5,302.6551343429112L524.6,297.10049159048515L530.6999999999999,298.2169675863766L536.8,298.81163800888163L542.9,303.34996043622596L549,298.07431704416894L555.1,293.8103582151409L561.2,308.4049357569038L567.3000000000001,294.9209173581281L573.4,293.1025719137422L579.5,300.93335754190895L585.6,298.2883051725187L591.7,295.2520995803055L597.8,300.02657066244706L603.9,296.53120298030086L610,300.59912617831014L616.1,301.7936252010023L622.1999999999999,293.95203054329005L628.3,311.57931509863363L634.4,302.82278282636435L640.5,295.8676028513712L646.6,289.997754312914L652.7,301.2438897409156L658.8000000000001,298.0981200810992L664.9,297.7654138866904L671,295.39410191185L677.1,292.5839909603943L683.2,302.99047667344325L689.3,287.7494189901789L695.4,292.3248855782029L701.5,303.7576489580557L707.6,294.11734085262634L713.6999999999999,295.98606852373416L719.8,297.9317446572851L725.9,298.54991635028034L732,299.09731168592083L738.1,299.6451454920482L744.1999999999999,295.74920498834075L750.3,302.5832923494153L756.4000000000001,301.2916496931966L762.5,300.43207806754293L768.6,308.5499843936682L774.7,306.1853116365766L780.8,300.21734856821394L786.9,307.8493070286731L793,302.9664849901646L799.0999999999999,303.0863155762234L805.2,298.9068328040769L811.3000000000001,304.1656058497665L817.4,302.94253993142144L823.5,305.84823658117625L829.6,295.91499543903825L835.6999999999999,306.93235175701193L841.8,301.4350428071635L847.9000000000001,297.9317446572851L854,305.8241799221922L860.1,300.05040331845254L866.2,295.91499543903825L872.3,307.1976382078516L878.4,310.36582382696463L884.5,303.8536065820126L890.5999999999999,291.2660030120855L896.7,295.65449394878686L902.8000000000001,309.4935365651003L908.9,305.60757432458036L915,303.30199588119683L921.1,301.05275005928706L927.1999999999999,308.864357571898L933.3,299.8119815945222L939.4000000000001,292.53689734265026L945.5,297.36164701605753L951.6,296.9343837390687L957.7,291.50115893228394L963.8,303.1342177310599L969.9,298.7640687884741L976,301.19608790174766L982.0999999999999,295.96239165117976L988.2,287.1185359761903L994.3000000000001,300.1219522742977L1000.4,309.34831312024914L1006.5,291.7834818207529L1012.6,299.50221131595646L1018.6999999999999,294.14094733928874L1024.8,291.4305983012934L1030.9,293.97563073383776L1037,297.9792500315647L1043.1000000000001,300.2889168016136L1049.2,303.49383064209815L1055.3,293.8103582151409L1061.3999999999999,300.7662193283344L1067.5,296.8394914163203L1073.6,292.23069637411436L1079.7,289.3880056878957L1085.8,300.8378509777305L1091.9,296.46006735445036L1098,310.7538603630347L1104.1,304.54977840876313L1110.2,286.23172467259667L1116.3,285.0668187246406L1122.4,293.55073970367994L1128.5,289.81005135709097L1134.6000000000001,294.4008583379458L1140.7,299.1449064928578L1146.8,288.2639239438435L1152.8999999999999,298.4785486457056L1159,295.4651152809862L1165.1,290.0446553701251L1171.2,295.7255371631544L1177.3,310.29308245681204L1183.4,287.0251346697047L1189.5,294.4480938156039L1195.6,287.25868661173195L1201.7,293.00826445014525L1207.8,296.43632714781626L1213.9,340.573898930994L1220,316.1634879746279L1226.1000000000001,312.06539624661826L1232.2,302.8706646152315L1238.3,291.9952635254134L1244.3999999999999,288.98965832426245L1250.5,290.1620130703422L1256.6,298.9306678384976L1262.7,301.36334210295496L1268.8,296.6497503484522L1274.9,288.7554979297717L1281,278.95206554127026L1287.1,304.81404671281024L1293.2,298.4785486457056L1299.3,300.40818522032805L1305.4,291.5717275978949L1311.5,284.0667496773699L1317.6000000000001,301.10054084334695L1323.7,280.42888050281124L1329.8,287.18860733217383L1335.8999999999999,292.7253831863631" fill="none"></path></g><g><path style="fill: none;" stroke="rgb(0, 153, 136)" stroke-width="2px" d="M140.3,386.6425156992559L146.4,368.9364393328968L152.5,355.7528052060523L158.6,332.5810694329401L164.70000000000002,310.85090747156795L170.8,276.1694998414706L176.9,351.33350280294457L183,318.2964191352726L189.10000000000002,324.09477334970273L195.2,299.0734702416762L201.3,310.487047583353L207.4,299.1925503753929L213.5,293.3855804413102L219.6,354.57991812077626L225.70000000000002,286.5816594694349L231.79999999999998,294.09373526512417L237.9,299.4307338693781L244,262.5532883104842L250.1,279.6208044441105L256.2,255.1899649642652L262.3,300.9810935682258L268.4,384.316035378471L274.5,266.04226539709396L280.6,247.25581228400446L286.7,302.17637538011394L292.8,262.4410863687113L298.9,272.0531285434444L305,282.5116541353801L311.09999999999997,316.4572750717285L317.2,297.6466076291432L323.3,282.7435110106661L329.40000000000003,314.62352615938136L335.5,260.5364134359235L341.6,252.20272582222293L347.7,289.27083915197966L353.8,319.40254983143717L359.9,267.5112562407452L366,252.7548657902234L372.09999999999997,271.825236127885L378.20000000000005,271.825236127885L384.3,256.522291028022L390.4,265.13998545856657L396.5,287.6325618035081L402.6,268.19039497166636L408.7,229.44752184929573L414.8,274.6798668304414L420.9,275.9400889841284L427,246.16180769967957L433.1,229.76677008686306L439.2,246.8179786779446L445.29999999999995,277.5477073469105L451.40000000000003,257.4120598643863L457.5,256.41113319672354L463.59999999999997,240.82906939837133L469.70000000000005,265.2527201375913L475.8,245.61554958889167L481.9,247.36529814585768L488,324.83892405799367L494.1,312.1869529358537L500.2,244.7425035957087L506.3,285.1831930730457L512.4,275.02333751324176L518.5,245.72474603236108L524.6,230.61895781640897L530.6999999999999,235.11214766344983L536.8,268.7569706364532L542.9,258.6376188336909L549,255.41182049647148L555.1,285.4160517701423L561.2,232.64755133638874L567.3000000000001,272.0531285434444L573.4,262.3288619398828L579.5,248.3517096501989L585.6,255.74473160649285L591.7,216.81008201624562L597.8,258.8607122262607L603.9,247.14630399950394L610,296.6972027884118L616.1,231.36556419732852L622.1999999999999,283.78791957346886L628.3,294.68446049489836L634.4,245.06977254358145L640.5,244.63348006851365L646.6,276.62857647869157L652.7,296.5786011148404L658.8000000000001,259.9773427819184L664.9,307.1011614501224L671,272.39514612030956L677.1,236.29435030007767L683.2,288.1001674293843L689.3,242.3480323081423L695.4,295.39410191185L701.5,280.42888050281124L707.6,298.2407307525609L713.6999999999999,228.06594255206792L719.8,269.89159161037315L725.9,250.43928549970147L732,259.30714008315397L738.1,256.8557993552865L744.1999999999999,252.97580899967448L750.3,359.15364039515003L756.4000000000001,265.59096122388894L762.5,261.5440304107104L768.6,252.5339591950365L774.7,227.00530599762604L780.8,263.22705546426783L786.9,259.7538471354913L793,258.0802577039505L799.0999999999999,282.85949410415265L805.2,220.8890423792119L811.3000000000001,277.20287898629823L817.4,233.61079522517562L823.5,263.5641924885243L829.6,300.62298086307476L835.6999999999999,278.81378066133516L841.8,329.4475848980818L847.9000000000001,288.5681707875712L854,253.0863523132723L860.1,270.91454694952216L866.2,266.606836619657L872.3,268.19039497166636L878.4,268.6435967639031L884.5,252.4235143595032L890.5999999999999,256.41113319672354L896.7,252.0923820914618L902.8000000000001,249.2298584927823L908.9,253.86053923099325L915,246.8179786779446L921.1,230.93881022606305L927.1999999999999,236.18680274648142L933.3,232.43369577136L939.4000000000001,232.54063472377882L945.5,229.66034926702773L951.6,263.3393998065779L957.7,220.57433360125378L963.8,258.6376188336909L969.9,240.93742565147855L976,248.1323667247456L982.0999999999999,245.72474603236108L988.2,244.08856682385212L994.3000000000001,259.30714008315397L1000.4,230.40580100055877L1006.5,235.75671706754687L1012.6,278.4682473228978L1018.6999999999999,258.4146057212592L1024.8,282.97545466072216L1030.9,281.0067612655078L1037,288.5681707875712L1043.1000000000001,263.5641924885243L1049.2,225.10069028979115L1055.3,282.97545466072216L1061.3999999999999,278.81378066133516L1067.5,221.72910137209064L1073.6,243.21766778211483L1079.7,291.0309362863878L1085.8,294.21181725147926L1091.9,263.6766408584999L1098,243.9796167167428L1104.1,249.01020460088327L1110.2,258.3031505120945L1116.3,228.70322119727933L1122.4,260.4245760169124L1128.5,228.70322119727933L1134.6000000000001,271.1421046681506L1140.7,263.1147314836887L1146.8,213.5868945634457L1152.8999999999999,258.97226776264563L1159,221.8341688114301L1165.1,249.4495483471319L1171.2,227.2172962303027L1177.3,299.4307338693781L1183.4,231.15215047871718L1189.5,248.3517096501989L1195.6,248.5711302346896L1201.7,258.19167283120896L1207.8,244.7425035957087L1213.9,256.41113319672354L1220,276.97308535156577L1226.1000000000001,314.25744520053695L1232.2,225.94644118402033L1238.3,261.43201102686646L1244.3999999999999,262.89010174222835L1250.5,250.6594465745964L1256.6,224.045112108524L1262.7,243.87072730102443L1268.8,244.52447571718804L1274.9,243.4352778339004L1281,218.3757558212294L1287.1,248.46138930652972L1293.2,246.8179786779446L1299.3,293.62154215130255L1305.4,251.21017066348776L1311.5,249.66935803826564L1317.6000000000001,252.5339591950365L1323.7,303.613717501799L1329.8,255.0790881234057L1335.8999999999999,217.54022697163208" fill="none"></path></g></g></g></g></g></g><g transform="translate(34, 378)" clip-path="url(#clip_1)"><clipPath id="clip_1"><rect width="1464" height="22"></rect></clipPath><g><g><line x1="0" y1="0" x2="0" y2="5" style="visibility: inherit;" fill="rgb(0, 0, 0)" stroke="rgb(204, 204, 204)" stroke-width="1px"></line><line x1="122" y1="0" x2="122" y2="5" style="visibility: inherit;" fill="rgb(0, 0, 0)" stroke="rgb(204, 204, 204)" stroke-width="1px"></line><line x1="244" y1="0" x2="244" y2="5" style="visibility: inherit;" fill="rgb(0, 0, 0)" stroke="rgb(204, 204, 204)" stroke-width="1px"></line><line x1="366" y1="0" x2="366" y2="5" style="visibility: inherit;" fill="rgb(0, 0, 0)" stroke="rgb(204, 204, 204)" stroke-width="1px"></line><line x1="488" y1="0" x2="488" y2="5" style="visibility: inherit;" fill="rgb(0, 0, 0)" stroke="rgb(204, 204, 204)" stroke-width="1px"></line><line x1="610" y1="0" x2="610" y2="5" style="visibility: inherit;" fill="rgb(0, 0, 0)" stroke="rgb(204, 204, 204)" stroke-width="1px"></line><line x1="732" y1="0" x2="732" y2="5" style="visibility: inherit;" fill="rgb(0, 0, 0)" stroke="rgb(204, 204, 204)" stroke-width="1px"></line><line x1="854" y1="0" x2="854" y2="5" style="visibility: inherit;" fill="rgb(0, 0, 0)" stroke="rgb(204, 204, 204)" stroke-width="1px"></line><line x1="976" y1="0" x2="976" y2="5" style="visibility: inherit;" fill="rgb(0, 0, 0)" stroke="rgb(204, 204, 204)" stroke-width="1px"></line><line x1="1098" y1="0" x2="1098" y2="5" style="visibility: inherit;" fill="rgb(0, 0, 0)" stroke="rgb(204, 204, 204)" stroke-width="1px"></line><line x1="1220" y1="0" x2="1220" y2="5" style="visibility: inherit;" fill="rgb(0, 0, 0)" stroke="rgb(204, 204, 204)" stroke-width="1px"></line><line x1="1342" y1="0" x2="1342" y2="5" style="visibility: inherit;" fill="rgb(0, 0, 0)" stroke="rgb(204, 204, 204)" stroke-width="1px"></line><line x1="1464" y1="0" x2="1464" y2="5" style="visibility: inherit;" fill="rgb(0, 0, 0)" stroke="rgb(204, 204, 204)" stroke-width="1px"></line></g><g transform="translate(0, 8)"><text x="0" y="0" dx="0em" dy="0.95em" style="text-anchor: middle; visibility: hidden; font-family: &quot;Helvetica Neue&quot;, sans-serif; font-size: 12px; font-weight: 200;" fill="rgb(50, 49, 63)" stroke="none" stroke-width="1px">-20</text><text x="122" y="0" dx="0em" dy="0.95em" style="text-anchor: middle; visibility: inherit; font-family: &quot;Helvetica Neue&quot;, sans-serif; font-size: 12px; font-weight: 200;" fill="rgb(50, 49, 63)" stroke="none" stroke-width="1px">0</text><text x="244" y="0" dx="0em" dy="0.95em" style="text-anchor: middle; visibility: inherit; font-family: &quot;Helvetica Neue&quot;, sans-serif; font-size: 12px; font-weight: 200;" fill="rgb(50, 49, 63)" stroke="none" stroke-width="1px">20</text><text x="366" y="0" dx="0em" dy="0.95em" style="text-anchor: middle; visibility: inherit; font-family: &quot;Helvetica Neue&quot;, sans-serif; font-size: 12px; font-weight: 200;" fill="rgb(50, 49, 63)" stroke="none" stroke-width="1px">40</text><text x="488" y="0" dx="0em" dy="0.95em" style="text-anchor: middle; visibility: inherit; font-family: &quot;Helvetica Neue&quot;, sans-serif; font-size: 12px; font-weight: 200;" fill="rgb(50, 49, 63)" stroke="none" stroke-width="1px">60</text><text x="610" y="0" dx="0em" dy="0.95em" style="text-anchor: middle; visibility: inherit; font-family: &quot;Helvetica Neue&quot;, sans-serif; font-size: 12px; font-weight: 200;" fill="rgb(50, 49, 63)" stroke="none" stroke-width="1px">80</text><text x="732" y="0" dx="0em" dy="0.95em" style="text-anchor: middle; visibility: inherit; font-family: &quot;Helvetica Neue&quot;, sans-serif; font-size: 12px; font-weight: 200;" fill="rgb(50, 49, 63)" stroke="none" stroke-width="1px">100</text><text x="854" y="0" dx="0em" dy="0.95em" style="text-anchor: middle; visibility: inherit; font-family: &quot;Helvetica Neue&quot;, sans-serif; font-size: 12px; font-weight: 200;" fill="rgb(50, 49, 63)" stroke="none" stroke-width="1px">120</text><text x="976" y="0" dx="0em" dy="0.95em" style="text-anchor: middle; visibility: inherit; font-family: &quot;Helvetica Neue&quot;, sans-serif; font-size: 12px; font-weight: 200;" fill="rgb(50, 49, 63)" stroke="none" stroke-width="1px">140</text><text x="1098" y="0" dx="0em" dy="0.95em" style="text-anchor: middle; visibility: inherit; font-family: &quot;Helvetica Neue&quot;, sans-serif; font-size: 12px; font-weight: 200;" fill="rgb(50, 49, 63)" stroke="none" stroke-width="1px">160</text><text x="1220" y="0" dx="0em" dy="0.95em" style="text-anchor: middle; visibility: inherit; font-family: &quot;Helvetica Neue&quot;, sans-serif; font-size: 12px; font-weight: 200;" fill="rgb(50, 49, 63)" stroke="none" stroke-width="1px">180</text><text x="1342" y="0" dx="0em" dy="0.95em" style="text-anchor: middle; visibility: inherit; font-family: &quot;Helvetica Neue&quot;, sans-serif; font-size: 12px; font-weight: 200;" fill="rgb(50, 49, 63)" stroke="none" stroke-width="1px">200</text><text x="1464" y="0" dx="0em" dy="0.95em" style="text-anchor: middle; visibility: hidden; font-family: &quot;Helvetica Neue&quot;, sans-serif; font-size: 12px; font-weight: 200;" fill="rgb(50, 49, 63)" stroke="none" stroke-width="1px">220</text></g><line x1="0" y1="0" x2="1464" y2="0" fill="rgb(0, 0, 0)" stroke="rgb(204, 204, 204)" stroke-width="1px"></line></g></g></g></g></svg>