<svg viewBox="0 0 1498 400" xmlns="http://www.w3.org/2000/svg"><g><g><g><g><g><line x1="46" y1="378" x2="41" y2="378" style="visibility: inherit;" fill="rgb(0, 0, 0)" stroke="rgb(204, 204, 204)" stroke-width="1px"></line><line x1="46" y1="340.2" x2="41" y2="340.2" style="visibility: inherit;" fill="rgb(0, 0, 0)" stroke="rgb(204, 204, 204)" stroke-width="1px"></line><line x1="46" y1="302.4" x2="41" y2="302.4" style="visibility: inherit;" fill="rgb(0, 0, 0)" stroke="rgb(204, 204, 204)" stroke-width="1px"></line><line x1="46" y1="264.6" x2="41" y2="264.6" style="visibility: inherit;" fill="rgb(0, 0, 0)" stroke="rgb(204, 204, 204)" stroke-width="1px"></line><line x1="46" y1="226.79999999999998" x2="41" y2="226.79999999999998" style="visibility: inherit;" fill="rgb(0, 0, 0)" stroke="rgb(204, 204, 204)" stroke-width="1px"></line><line x1="46" y1="189" x2="41" y2="189" style="visibility: inherit;" fill="rgb(0, 0, 0)" stroke="rgb(204, 204, 204)" stroke-width="1px"></line><line x1="46" y1="151.20000000000002" x2="41" y2="151.20000000000002" style="visibility: inherit;" fill="rgb(0, 0, 0)" stroke="rgb(204, 204, 204)" stroke-width="1px"></line><line x1="46" y1="113.40000000000003" x2="41" y2="113.40000000000003" style="visibility: inherit;" fill="rgb(0, 0, 0)" stroke="rgb(204, 204, 204)" stroke-width="1px"></line><line x1="46" y1="75.59999999999997" x2="41" y2="75.59999999999997" style="visibility: inherit;" fill="rgb(0, 0, 0)" stroke="rgb(204, 204, 204)" stroke-width="1px"></line><line x1="46" y1="37.80000000000001" x2="41" y2="37.80000000000001" style="visibility: inherit;" fill="rgb(0, 0, 0)" stroke="rgb(204, 204, 204)" stroke-width="1px"></line><line x1="46" y1="0" x2="41" y2="0" style="visibility: inherit;" fill="rgb(0, 0, 0)" stroke="rgb(204, 204, 204)" stroke-width="1px"></line></g><g transform="translate(36, 0)"><text x="0" y="378" dx="0em" dy="0.3em" style="text-anchor: end; visibility: hidden; font-family: &quot;Helvetica Neue&quot;, sans-serif; font-size: 12px; font-weight: 200;" fill="rgb(50, 49, 63)" stroke="none" stroke-width="1px">-10</text><text x="0" y="340.2" dx="0em" dy="0.3em" style="text-anchor: end; visibility: inherit; font-family: &quot;Helvetica Neue&quot;, sans-serif; font-size: 12px; font-weight: 200;" fill="rgb(50, 49, 63)" stroke="none" stroke-width="1px">0</text><text x="0" y="302.4" dx="0em" dy="0.3em" style="text-anchor: end; visibility: inherit; font-family: &quot;Helvetica Neue&quot;, sans-serif; font-size: 12px; font-weight: 200;" fill="rgb(50, 49, 63)" stroke="none" stroke-width="1px">10</text><text x="0" y="264.6" dx="0em" dy="0.3em" style="text-anchor: end; visibility: inherit; font-family: &quot;Helvetica Neue&quot;, sans-serif; font-size: 12px; font-weight: 200;" fill="rgb(50, 49, 63)" stroke="none" stroke-width="1px">20</text><text x="0" y="226.79999999999998" dx="0em" dy="0.3em" style="text-anchor: end; visibility: inherit; font-family: &quot;Helvetica Neue&quot;, sans-serif; font-size: 12px; font-weight: 200;" fill="rgb(50, 49, 63)" stroke="none" stroke-width="1px">30</text><text x="0" y="189" dx="0em" dy="0.3em" style="text-anchor: end; visibility: inherit; font-family: &quot;Helvetica Neue&quot;, sans-serif; font-size: 12px; font-weight: 200;" fill="rgb(50, 49, 63)" stroke="none" stroke-width="1px">40</text><text x="0" y="151.20000000000002" dx="0em" dy="0.3em" style="text-anchor: end; visibility: inherit; font-family: &quot;Helvetica Neue&quot;, sans-serif; font-size: 12px; font-weight: 200;" fill="rgb(50, 49, 63)" stroke="none" stroke-width="1px">50</text><text x="0" y="113.40000000000003" dx="0em" dy="0.3em" style="text-anchor: end; visibility: inherit; font-family: &quot;Helvetica Neue&quot;, sans-serif; font-size: 12px; font-weight: 200;" fill="rgb(50, 49, 63)" stroke="none" stroke-width="1px">60</text><text x="0" y="75.59999999999997" dx="0em" dy="0.3em" style="text-anchor: end; visibility: inherit; font-family: &quot;Helvetica Neue&quot;, sans-serif; font-size: 12px; font-weight: 200;" fill="rgb(50, 49, 63)" stroke="none" stroke-width="1px">70</text><text x="0" y="37.80000000000001" dx="0em" dy="0.3em" style="text-anchor: end; visibility: inherit; font-family: &quot;Helvetica Neue&quot;, sans-serif; font-size: 12px; font-weight: 200;" fill="rgb(50, 49, 63)" stroke="none" stroke-width="1px">80</text><text x="0" y="0" dx="0em" dy="0.3em" style="text-anchor: end; visibility: hidden; font-family: &quot;Helvetica Neue&quot;, sans-serif; font-size: 12px; font-weight: 200;" fill="rgb(50, 49, 63)" stroke="none" stroke-width="1px">90</text></g><line x1="46" y1="0" x2="46" y2="378" fill="rgb(0, 0, 0)" stroke="rgb(204, 204, 204)" stroke-width="1px"></line></g></g><g transform="translate(46, 0)" clip-path="url(#clip_0)"><clipPath id="clip_0"><rect width="1452" height="378"></rect></clipPath><g><g><g><line x1="0" y1="0" x2="0" y2="378" fill="rgb(0, 0, 0)" stroke="rgb(60, 60, 60)" stroke-width="1px" opacity="0.25"></line><line x1="121" y1="0" x2="121" y2="378" fill="rgb(0, 0, 0)" stroke="rgb(60, 60, 60)" stroke-width="1px" opacity="0.25"></line><line x1="242" y1="0" x2="242" y2="378" fill="rgb(0, 0, 0)" stroke="rgb(60, 60, 60)" stroke-width="1px" opacity="0.25"></line><line x1="363" y1="0" x2="363" y2="378" fill="rgb(0, 0, 0)" stroke="rgb(60, 60, 60)" stroke-width="1px" opacity="0.25"></line><line x1="484" y1="0" x2="484" y2="378" fill="rgb(0, 0, 0)" stroke="rgb(60, 60, 60)" stroke-width="1px" opacity="0.25"></line><line x1="605" y1="0" x2="605" y2="378" fill="rgb(0, 0, 0)" stroke="rgb(60, 60, 60)" stroke-width="1px" opacity="0.25"></line><line x1="726" y1="0" x2="726" y2="378" fill="rgb(0, 0, 0)" stroke="rgb(60, 60, 60)" stroke-width="1px" opacity="0.25"></line><line x1="847" y1="0" x2="847" y2="378" fill="rgb(0, 0, 0)" stroke="rgb(60, 60, 60)" stroke-width="1px" opacity="0.25"></line><line x1="968" y1="0" x2="968" y2="378" fill="rgb(0, 0, 0)" stroke="rgb(60, 60, 60)" stroke-width="1px" opacity="0.25"></line><line x1="1089" y1="0" x2="1089" y2="378" fill="rgb(0, 0, 0)" stroke="rgb(60, 60, 60)" stroke-width="1px" opacity="0.25"></line><line x1="1210" y1="0" x2="1210" y2="378" fill="rgb(0, 0, 0)" stroke="rgb(60, 60, 60)" stroke-width="1px" opacity="0.25"></line><line x1="1331" y1="0" x2="1331" y2="378" fill="rgb(0, 0, 0)" stroke="rgb(60, 60, 60)" stroke-width="1px" opacity="0.25"></line><line x1="1452" y1="0" x2="1452" y2="378" fill="rgb(0, 0, 0)" stroke="rgb(60, 60, 60)" stroke-width="1px" opacity="0.25"></line></g><g><line x1="0" y1="378" x2="1452" y2="378" fill="rgb(0, 0, 0)" stroke="rgb(60, 60, 60)" stroke-width="1px" opacity="0.25"></line><line x1="0" y1="340.2" x2="1452" y2="340.2" fill="rgb(0, 0, 0)" stroke="rgb(60, 60, 60)" stroke-width="1px" opacity="0.25"></line><line x1="0" y1="302.4" x2="1452" y2="302.4" fill="rgb(0, 0, 0)" stroke="rgb(60, 60, 60)" stroke-width="1px" opacity="0.25"></line><line x1="0" y1="264.6" x2="1452" y2="264.6" fill="rgb(0, 0, 0)" stroke="rgb(60, 60, 60)" stroke-width="1px" opacity="0.25"></line><line x1="0" y1="226.79999999999998" x2="1452" y2="226.79999999999998" fill="rgb(0, 0, 0)" stroke="rgb(60, 60, 60)" stroke-width="1px" opacity="0.25"></line><line x1="0" y1="189" x2="1452" y2="189" fill="rgb(0, 0, 0)" stroke="rgb(60, 60, 60)" stroke-width="1px" opacity="0.25"></line><line x1="0" y1="151.20000000000002" x2="1452" y2="151.20000000000002" fill="rgb(0, 0, 0)" stroke="rgb(60, 60, 60)" stroke-width="1px" opacity="0.25"></line><line x1="0" y1="113.40000000000003" x2="1452" y2="113.40000000000003" fill="rgb(0, 0, 0)" stroke="rgb(60, 60, 60)" stroke-width="1px" opacity="0.25"></line><line x1="0" y1="75.59999999999997" x2="1452" y2="75.59999999999997" fill="rgb(0, 0, 0)" stroke="rgb(60, 60, 60)" stroke-width="1px" opacity="0.25"></line><line x1="0" y1="37.80000000000001" x2="1452" y2="37.80000000000001" fill="rgb(0, 0, 0)" stroke="rgb(60, 60, 60)" stroke-width="1px" opacity="0.25"></line><line x1="0" y1="0" x2="1452" y2="0" fill="rgb(0, 0, 0)" stroke="rgb(60, 60, 60)" stroke-width="1px" opacity="0.25"></line></g></g></g><g><g><line x1="0" y1="340.2" x2="1452" y2="340.2" fill="rgb(0, 0, 0)" stroke="rgb(153, 153, 153)" stroke-width="1.5px"></line></g></g><g><g><line x1="121" y1="0" x2="121" y2="378" fill="rgb(0, 0, 0)" stroke="rgb(153, 153, 153)" stroke-width="1.5px"></line></g></g><g><g><g><g><g><path stroke="rgb(51, 187, 238)" stroke-width="2px" d="M121,218.58228080749512L127.05,177.7280458831787L133.1,159.01704299926757L139.15,148.25160461425781L145.20000000000002,137.81879653930665L151.25,129.9034842681885L157.3,123.09948715209961L163.35,119.3421546936035L169.4,115.92503723144534L175.45,111.94091400146488L181.5,108.25919769287111L187.55,106.74720634460448L193.6,105.37883377075195L199.65,102.74795700073241L205.7,101.1679197692871L211.75,100.61604011535644L217.79999999999998,97.00992553710938L223.85000000000002,96.55631515502927L229.89999999999998,95.65667907714845L235.95000000000002,96.26149291992186L242,94.10689407348633L248.05,92.53441268920898L254.1,91.2113896179199L260.15,91.15091400146486L266.2,90.53857315063476L272.25,89.66916046142575L278.3,87.39361038208011L284.35,87.20459884643554L290.40000000000003,86.54689407348633L296.45,84.74759307861325L302.5,85.1633953857422L308.55,84.87612899780277L314.6,84.72492553710936L320.65,84.08988830566403L326.7,82.38887100219728L332.75,82.4342349243164L338.8,81.17171630859372L344.84999999999997,81.09612899780274L350.9,80.39303146362306L356.95,79.74288253784181L363,80.2947477722168L369.04999999999995,79.00200576782225L375.1,77.55047561645506L381.15000000000003,78.31404876708984L387.2,78.33671630859374L393.25,77.43708023071292L399.3,76.1216418457031L405.35,76.22748138427733L411.4,76.90032669067381L417.45,76.2123696899414L423.5,75.00277084350586L429.55,76.31065338134766L435.59999999999997,74.42820922851564L441.65,74.70791976928712L447.70000000000005,74.0426303100586L453.75,73.09007446289064L459.79999999999995,73.61927215576173L465.85,73.08251861572268L471.90000000000003,73.40003723144531L477.95,72.40211746215817L484,72.47773361206055L490.05,71.88047561645504L496.1,71.7897477722168L502.15,72.0921546936035L508.2,71.45711746215824L514.25,71.28324645996094L520.3,70.83719192504884L526.35,70.14923492431637L532.4,70.22485107421875L538.45,69.84682800292967L544.5,70.62551284790038L550.55,69.67295700073242L556.6,69.69565338134765L562.65,69.84682800292967L568.7,70.08120346069336L574.75,68.57675354003908L580.8000000000001,67.8207650756836L586.85,67.97952438354491L592.9,68.26679077148441L598.9499999999999,67.81320922851563L605,67.66956161499024L611.05,67.7905128479004L617.1,66.44485107421872L623.15,68.00974777221683L629.2,67.20839538574222L635.25,66.15000000000003L641.3,66.99671630859376L647.35,66.85306869506837L653.4,67.16303146362304L659.45,66.05171630859377L665.5,66.34656738281251L671.5500000000001,65.96857315063477L677.6,66.21803146362305L683.65,65.99879653930662L689.6999999999999,65.40912322998048L695.75,65.56032669067383L701.8,65.87784530639647L707.85,65.43934661865234L713.9,64.35072784423829L719.95,64.736277923584L726,64.60777084350588L732.05,64.87992553710939L738.0999999999999,65.57543838500976L744.15,66.23317199707031L750.2,65.72664184570311L756.25,64.78919769287108L762.3000000000001,65.3562034606934L768.35,63.05040115356445L774.4,64.2373324584961L780.4499999999999,64.2373324584961L786.5,64.99332092285158L792.55,63.98784530639648L798.6,64.78164184570312L804.6500000000001,63.80638961791993L810.7,63.21671630859373L816.75,63.70810592651367L822.8,64.41875930786131L828.8499999999999,64.33558731079103L834.9,63.98784530639648L840.95,63.60985107421874L847,62.8991976928711L853.0500000000001,64.01051284790037L859.1,63.42083953857423L865.15,63.60985107421874L871.1999999999999,62.8084698486328L877.25,64.94040115356444L883.3,63.20916046142577L889.35,63.51912322998044L895.4000000000001,62.952117462158185L901.45,64.4414268493652L907.5,62.876530151367206L913.55,63.59471054077147L919.5999999999999,62.97481384277347L925.65,62.891641845703134L931.7,62.02981384277342L937.75,62.551426849365214L943.8000000000001,61.8634698486328L949.85,62.61948715209962L955.9,63.80638961791993L961.9499999999999,61.742518615722645L968,63.783722076415984L974.05,62.370000000000005L980.1,62.24149291992188L986.1500000000001,62.64971054077148L992.2,63.163796539306645L998.25,61.84080230712891L1004.3,62.91430938720703L1010.3499999999999,61.28890823364259L1016.4,61.78032669067386L1022.45,62.34733245849611L1028.5,61.220876770019515L1034.55,59.98102569580078L1040.6,61.372080230712925L1046.65,61.251128997802766L1052.7,61.52328369140622L1058.75,61.78032669067386L1064.8,61.9844499206543L1070.8500000000001,61.59131515502929L1076.9,60.737042999267544L1082.95,61.18306869506836L1089,61.455252227783205L1095.05,61.96175354003907L1101.1,60.60850708007814L1107.1499999999999,60.6463151550293L1113.2,61.58375930786133L1119.25,59.6408395385742L1125.3,61.91638961791989L1131.35,60.95627792358397L1137.4,60.72193130493167L1143.45,61.682042999267594L1149.5,60.65387100219726L1155.55,60.32879653930661L1161.6000000000001,61.765186157226594L1167.65,60.29857315063475L1173.7,60.5631719970703L1179.75,61.99956161499023L1185.8,59.2250372314453L1191.85,59.58036392211915L1197.8999999999999,60.01883377075194L1203.95,61.85591400146484L1210,60.79751861572265L1216.05,61.09992553710936L1222.1,60.714346618652314L1228.15,60.033974304199205L1234.2,60.70679077148441L1240.25,60.517808074951176L1246.3,60.08689407348635L1252.3500000000001,60.26832092285156L1258.4,59.701315155029306L1264.45,60.933610382080076L1270.5,59.75423492431639L1276.55,60.51025222778321L1282.6,60.850438385009795L1288.6499999999999,59.43671630859376L1294.7,60.38171630859375L1300.75,60.260765075683594L1306.8,59.67109176635739L1312.85,59.119197692871126L1318.9,60.38927215576172L1324.95,59.46696853637695" style="fill: none;" fill="none"></path></g><g><path style="fill: none;" stroke="rgb(238, 51, 119)" stroke-width="2px" d="M121,257.49360317230224L127.05,265.8473997116089L133.1,240.21899711608887L139.15,253.71360317230224L145.20000000000002,206.72819480895996L151.25,262.18080230712894L157.3,222.11280086517334L163.35,239.91659740447997L169.4,214.13700576782227L175.45,239.38739971160888L181.5,225.70379653930664L187.55,206.35020057678224L193.6,233.9441976928711L199.65,194.40540115356447L205.7,219.80699855804443L211.75,204.5358023071289L217.79999999999998,220.10939826965333L223.85000000000002,240.18120346069335L229.89999999999998,201.13379653930664L235.95000000000002,253.18439826965334L242,233.79300144195557L248.05,203.43959884643553L254.1,191.98620346069336L260.15,224.00280086517336L266.2,223.02L272.25,200.56680519104003L278.3,223.32239971160888L284.35,196.71120346069335L290.40000000000003,202.87259307861328L296.45,228.0473997116089L302.5,227.06459884643553L308.55,210.50819480895996L314.6,200.18879653930665L320.65,195.35040115356446L326.7,209.29859596252442L332.75,210.6972063446045L338.8,202.8347994232178L344.84999999999997,204.80040115356445L350.9,221.24340259552002L356.95,180.11700576782226L363,198.9414040374756L369.04999999999995,188.3574069213867L375.1,189.18899711608887L381.15000000000003,220.63860317230225L387.2,191.3058023071289L393.25,230.01300144195557L399.3,185.93819480895996L405.35,212.92740692138673L411.4,179.9658023071289L417.45,191.3435959625244L423.5,178.94520057678224L429.55,239.34959884643555L435.59999999999997,184.76640403747558L441.65,179.6633953857422L447.70000000000005,198.29879653930664L453.75,197.05140403747558L459.79999999999995,164.24100288391114L465.85,194.67000000000002L471.90000000000003,192.2885959625244L477.95,188.77319480895994L484,165.375L490.05,163.9008023071289L496.1,192.09959884643555L502.15,178.37819480895996L508.2,202.87259307861328L514.25,182.34720634460447L520.3,176.6016046142578L526.35,204.23339538574217L532.4,185.1822063446045L538.45,199.28160461425782L544.5,186.69419769287111L550.55,176.6016046142578L556.6,211.03740692138672L562.65,193.8383953857422L568.7,154.79100288391115L574.75,196.6733953857422L580.8000000000001,175.08959884643556L586.85,174.3335959625244L592.9,183.7458023071289L598.9499999999999,190.32299423217773L605,210.2814040374756L611.05,178.94520057678224L617.1,195.31259307861328L623.15,161.33040115356445L629.2,199.3193982696533L635.25,192.96899711608887L641.3,194.89680519104004L647.35,175.95899711608885L653.4,180.9108023071289L659.45,158.19299423217774L665.5,166.7735959625244L671.5500000000001,145.9079942321777L677.6,170.28899711608886L683.65,145.5677936553955L689.6999999999999,170.85600288391112L695.75,166.66020057678224L701.8,184.95540115356445L707.85,190.02060173034667L713.9,154.79100288391115L719.95,185.29560173034668L726,160.68779365539552L732.05,191.8727936553955L738.0999999999999,178.71839538574218L744.15,190.32299423217773L750.2,198.4122063446045L756.25,171.68759307861328L762.3000000000001,161.78399711608887L768.35,138.91500000000002L774.4,184.1993982696533L780.4499999999999,164.7324069213867L786.5,162.50220634460447L792.55,146.66399711608886L798.6,161.29259307861327L804.6500000000001,186.2406017303467L810.7,153.27899711608887L816.75,162.72899711608886L822.8,170.85600288391112L828.8499999999999,197.0891976928711L834.9,177.43319480895997L840.95,197.0891976928711L847,175.3164040374756L853.0500000000001,177.1308023071289L859.1,166.3956017303467L865.15,166.32L871.1999999999999,190.66319480895996L877.25,166.47120346069337L883.3,158.15520057678222L889.35,133.6608023071289L895.4000000000001,135.2106017303467L901.45,170.78040115356447L907.5,173.19959884643555L913.55,170.47799423217774L919.5999999999999,147.26879653930663L925.65,172.4058023071289L931.7,186.84540115356444L937.75,150.74640403747557L943.8000000000001,168.36120346069336L949.85,162.72899711608886L955.9,178.98299423217773L961.9499999999999,156.90779365539552L968,169.5329942321777L974.05,144.84959884643553L980.1,181.44L986.1500000000001,191.7216046142578L992.2,141.75L998.25,143.11080230712892L1004.3,162.1241976928711L1010.3499999999999,154.5641976928711L1016.4,155.13120346069334L1022.45,148.02479942321776L1028.5,180.26819480895998L1034.55,165.11040115356445L1040.6,185.7114040374756L1046.65,169.0416046142578L1052.7,164.24100288391114L1058.75,179.0585959625244L1064.8,158.49540115356447L1070.8500000000001,159.10020057678224L1076.9,170.02439826965332L1082.95,167.83200576782227L1089,180.3816046142578L1095.05,171.0072063446045L1101.1,184.04819480895998L1107.1499999999999,172.67040115356446L1113.2,166.3956017303467L1119.25,150.40620346069338L1125.3,144.24479942321776L1131.35,149.61240692138674L1137.4,135.5508023071289L1143.45,168.3233953857422L1149.5,155.35799423217773L1155.55,134.07660461425783L1161.6000000000001,165.7908023071289L1167.65,141.3341976928711L1173.7,166.3577936553955L1179.75,164.05200576782227L1185.8,167.6052005767822L1191.85,160.99020057678223L1197.8999999999999,166.13100288391115L1203.95,157.62600288391113L1210,167.98319480895998L1216.05,164.3166046142578L1222.1,162.76680519104002L1228.15,174.44700576782225L1234.2,159.25140403747557L1240.25,146.89080230712892L1246.3,146.28600288391115L1252.3500000000001,133.7741976928711L1258.4,141.40979942321778L1264.45,139.74660461425782L1270.5,198.10979942321777L1276.55,179.43660461425782L1282.6,140.7293982696533L1288.6499999999999,153.58140403747558L1294.7,146.28600288391115L1300.75,139.74660461425782L1306.8,154.75319480895996L1312.85,181.85580230712893L1318.9,149.08319480895995L1324.95,162.01080230712893" fill="none"></path></g></g></g></g></g></g><g transform="translate(46, 378)" clip-path="url(#clip_1)"><clipPath id="clip_1"><rect width="1452" height="22"></rect></clipPath><g><g><line x1="0" y1="0" x2="0" y2="5" style="visibility: inherit;" fill="rgb(0, 0, 0)" stroke="rgb(204, 204, 204)" stroke-width="1px"></line><line x1="121" y1="0" x2="121" y2="5" style="visibility: inherit;" fill="rgb(0, 0, 0)" stroke="rgb(204, 204, 204)" stroke-width="1px"></line><line x1="242" y1="0" x2="242" y2="5" style="visibility: inherit;" fill="rgb(0, 0, 0)" stroke="rgb(204, 204, 204)" stroke-width="1px"></line><line x1="363" y1="0" x2="363" y2="5" style="visibility: inherit;" fill="rgb(0, 0, 0)" stroke="rgb(204, 204, 204)" stroke-width="1px"></line><line x1="484" y1="0" x2="484" y2="5" style="visibility: inherit;" fill="rgb(0, 0, 0)" stroke="rgb(204, 204, 204)" stroke-width="1px"></line><line x1="605" y1="0" x2="605" y2="5" style="visibility: inherit;" fill="rgb(0, 0, 0)" stroke="rgb(204, 204, 204)" stroke-width="1px"></line><line x1="726" y1="0" x2="726" y2="5" style="visibility: inherit;" fill="rgb(0, 0, 0)" stroke="rgb(204, 204, 204)" stroke-width="1px"></line><line x1="847" y1="0" x2="847" y2="5" style="visibility: inherit;" fill="rgb(0, 0, 0)" stroke="rgb(204, 204, 204)" stroke-width="1px"></line><line x1="968" y1="0" x2="968" y2="5" style="visibility: inherit;" fill="rgb(0, 0, 0)" stroke="rgb(204, 204, 204)" stroke-width="1px"></line><line x1="1089" y1="0" x2="1089" y2="5" style="visibility: inherit;" fill="rgb(0, 0, 0)" stroke="rgb(204, 204, 204)" stroke-width="1px"></line><line x1="1210" y1="0" x2="1210" y2="5" style="visibility: inherit;" fill="rgb(0, 0, 0)" stroke="rgb(204, 204, 204)" stroke-width="1px"></line><line x1="1331" y1="0" x2="1331" y2="5" style="visibility: inherit;" fill="rgb(0, 0, 0)" stroke="rgb(204, 204, 204)" stroke-width="1px"></line><line x1="1452" y1="0" x2="1452" y2="5" style="visibility: inherit;" fill="rgb(0, 0, 0)" stroke="rgb(204, 204, 204)" stroke-width="1px"></line></g><g transform="translate(0, 8)"><text x="0" y="0" dx="0em" dy="0.95em" style="text-anchor: middle; visibility: hidden; font-family: &quot;Helvetica Neue&quot;, sans-serif; font-size: 12px; font-weight: 200;" fill="rgb(50, 49, 63)" stroke="none" stroke-width="1px">-20</text><text x="121" y="0" dx="0em" dy="0.95em" style="text-anchor: middle; visibility: inherit; font-family: &quot;Helvetica Neue&quot;, sans-serif; font-size: 12px; font-weight: 200;" fill="rgb(50, 49, 63)" stroke="none" stroke-width="1px">0</text><text x="242" y="0" dx="0em" dy="0.95em" style="text-anchor: middle; visibility: inherit; font-family: &quot;Helvetica Neue&quot;, sans-serif; font-size: 12px; font-weight: 200;" fill="rgb(50, 49, 63)" stroke="none" stroke-width="1px">20</text><text x="363" y="0" dx="0em" dy="0.95em" style="text-anchor: middle; visibility: inherit; font-family: &quot;Helvetica Neue&quot;, sans-serif; font-size: 12px; font-weight: 200;" fill="rgb(50, 49, 63)" stroke="none" stroke-width="1px">40</text><text x="484" y="0" dx="0em" dy="0.95em" style="text-anchor: middle; visibility: inherit; font-family: &quot;Helvetica Neue&quot;, sans-serif; font-size: 12px; font-weight: 200;" fill="rgb(50, 49, 63)" stroke="none" stroke-width="1px">60</text><text x="605" y="0" dx="0em" dy="0.95em" style="text-anchor: middle; visibility: inherit; font-family: &quot;Helvetica Neue&quot;, sans-serif; font-size: 12px; font-weight: 200;" fill="rgb(50, 49, 63)" stroke="none" stroke-width="1px">80</text><text x="726" y="0" dx="0em" dy="0.95em" style="text-anchor: middle; visibility: inherit; font-family: &quot;Helvetica Neue&quot;, sans-serif; font-size: 12px; font-weight: 200;" fill="rgb(50, 49, 63)" stroke="none" stroke-width="1px">100</text><text x="847" y="0" dx="0em" dy="0.95em" style="text-anchor: middle; visibility: inherit; font-family: &quot;Helvetica Neue&quot;, sans-serif; font-size: 12px; font-weight: 200;" fill="rgb(50, 49, 63)" stroke="none" stroke-width="1px">120</text><text x="968" y="0" dx="0em" dy="0.95em" style="text-anchor: middle; visibility: inherit; font-family: &quot;Helvetica Neue&quot;, sans-serif; font-size: 12px; font-weight: 200;" fill="rgb(50, 49, 63)" stroke="none" stroke-width="1px">140</text><text x="1089" y="0" dx="0em" dy="0.95em" style="text-anchor: middle; visibility: inherit; font-family: &quot;Helvetica Neue&quot;, sans-serif; font-size: 12px; font-weight: 200;" fill="rgb(50, 49, 63)" stroke="none" stroke-width="1px">160</text><text x="1210" y="0" dx="0em" dy="0.95em" style="text-anchor: middle; visibility: inherit; font-family: &quot;Helvetica Neue&quot;, sans-serif; font-size: 12px; font-weight: 200;" fill="rgb(50, 49, 63)" stroke="none" stroke-width="1px">180</text><text x="1331" y="0" dx="0em" dy="0.95em" style="text-anchor: middle; visibility: inherit; font-family: &quot;Helvetica Neue&quot;, sans-serif; font-size: 12px; font-weight: 200;" fill="rgb(50, 49, 63)" stroke="none" stroke-width="1px">200</text><text x="1452" y="0" dx="0em" dy="0.95em" style="text-anchor: middle; visibility: hidden; font-family: &quot;Helvetica Neue&quot;, sans-serif; font-size: 12px; font-weight: 200;" fill="rgb(50, 49, 63)" stroke="none" stroke-width="1px">220</text></g><line x1="0" y1="0" x2="1452" y2="0" fill="rgb(0, 0, 0)" stroke="rgb(204, 204, 204)" stroke-width="1px"></line></g></g></g></g></svg>