<svg viewBox="0 0 1498 400" xmlns="http://www.w3.org/2000/svg"><g><g><g><g><g><line x1="58" y1="378" x2="53" y2="378" style="visibility: inherit;" fill="rgb(0, 0, 0)" stroke="rgb(204, 204, 204)" stroke-width="1px"></line><line x1="58" y1="346.5" x2="53" y2="346.5" style="visibility: inherit;" fill="rgb(0, 0, 0)" stroke="rgb(204, 204, 204)" stroke-width="1px"></line><line x1="58" y1="315" x2="53" y2="315" style="visibility: inherit;" fill="rgb(0, 0, 0)" stroke="rgb(204, 204, 204)" stroke-width="1px"></line><line x1="58" y1="283.5" x2="53" y2="283.5" style="visibility: inherit;" fill="rgb(0, 0, 0)" stroke="rgb(204, 204, 204)" stroke-width="1px"></line><line x1="58" y1="252" x2="53" y2="252" style="visibility: inherit;" fill="rgb(0, 0, 0)" stroke="rgb(204, 204, 204)" stroke-width="1px"></line><line x1="58" y1="220.5" x2="53" y2="220.5" style="visibility: inherit;" fill="rgb(0, 0, 0)" stroke="rgb(204, 204, 204)" stroke-width="1px"></line><line x1="58" y1="189.00000000000003" x2="53" y2="189.00000000000003" style="visibility: inherit;" fill="rgb(0, 0, 0)" stroke="rgb(204, 204, 204)" stroke-width="1px"></line><line x1="58" y1="157.50000000000003" x2="53" y2="157.50000000000003" style="visibility: inherit;" fill="rgb(0, 0, 0)" stroke="rgb(204, 204, 204)" stroke-width="1px"></line><line x1="58" y1="126.00000000000006" x2="53" y2="126.00000000000006" style="visibility: inherit;" fill="rgb(0, 0, 0)" stroke="rgb(204, 204, 204)" stroke-width="1px"></line><line x1="58" y1="94.50000000000006" x2="53" y2="94.50000000000006" style="visibility: inherit;" fill="rgb(0, 0, 0)" stroke="rgb(204, 204, 204)" stroke-width="1px"></line><line x1="58" y1="63" x2="53" y2="63" style="visibility: inherit;" fill="rgb(0, 0, 0)" stroke="rgb(204, 204, 204)" stroke-width="1px"></line><line x1="58" y1="31.5" x2="53" y2="31.5" style="visibility: inherit;" fill="rgb(0, 0, 0)" stroke="rgb(204, 204, 204)" stroke-width="1px"></line><line x1="58" y1="0" x2="53" y2="0" style="visibility: inherit;" fill="rgb(0, 0, 0)" stroke="rgb(204, 204, 204)" stroke-width="1px"></line></g><g transform="translate(48, 0)"><text x="0" y="378" dx="0em" dy="0.3em" style="text-anchor: end; visibility: hidden; font-family: &quot;Helvetica Neue&quot;, sans-serif; font-size: 12px; font-weight: 200;" fill="rgb(50, 49, 63)" stroke="none" stroke-width="1px">-0.2</text><text x="0" y="346.5" dx="0em" dy="0.3em" style="text-anchor: end; visibility: inherit; font-family: &quot;Helvetica Neue&quot;, sans-serif; font-size: 12px; font-weight: 200;" fill="rgb(50, 49, 63)" stroke="none" stroke-width="1px">0</text><text x="0" y="315" dx="0em" dy="0.3em" style="text-anchor: end; visibility: inherit; font-family: &quot;Helvetica Neue&quot;, sans-serif; font-size: 12px; font-weight: 200;" fill="rgb(50, 49, 63)" stroke="none" stroke-width="1px">0.2</text><text x="0" y="283.5" dx="0em" dy="0.3em" style="text-anchor: end; visibility: inherit; font-family: &quot;Helvetica Neue&quot;, sans-serif; font-size: 12px; font-weight: 200;" fill="rgb(50, 49, 63)" stroke="none" stroke-width="1px">0.4</text><text x="0" y="252" dx="0em" dy="0.3em" style="text-anchor: end; visibility: inherit; font-family: &quot;Helvetica Neue&quot;, sans-serif; font-size: 12px; font-weight: 200;" fill="rgb(50, 49, 63)" stroke="none" stroke-width="1px">0.6</text><text x="0" y="220.5" dx="0em" dy="0.3em" style="text-anchor: end; visibility: inherit; font-family: &quot;Helvetica Neue&quot;, sans-serif; font-size: 12px; font-weight: 200;" fill="rgb(50, 49, 63)" stroke="none" stroke-width="1px">0.8</text><text x="0" y="189.00000000000003" dx="0em" dy="0.3em" style="text-anchor: end; visibility: inherit; font-family: &quot;Helvetica Neue&quot;, sans-serif; font-size: 12px; font-weight: 200;" fill="rgb(50, 49, 63)" stroke="none" stroke-width="1px">1</text><text x="0" y="157.50000000000003" dx="0em" dy="0.3em" style="text-anchor: end; visibility: inherit; font-family: &quot;Helvetica Neue&quot;, sans-serif; font-size: 12px; font-weight: 200;" fill="rgb(50, 49, 63)" stroke="none" stroke-width="1px">1.2</text><text x="0" y="126.00000000000006" dx="0em" dy="0.3em" style="text-anchor: end; visibility: inherit; font-family: &quot;Helvetica Neue&quot;, sans-serif; font-size: 12px; font-weight: 200;" fill="rgb(50, 49, 63)" stroke="none" stroke-width="1px">1.4</text><text x="0" y="94.50000000000006" dx="0em" dy="0.3em" style="text-anchor: end; visibility: inherit; font-family: &quot;Helvetica Neue&quot;, sans-serif; font-size: 12px; font-weight: 200;" fill="rgb(50, 49, 63)" stroke="none" stroke-width="1px">1.6</text><text x="0" y="63" dx="0em" dy="0.3em" style="text-anchor: end; visibility: inherit; font-family: &quot;Helvetica Neue&quot;, sans-serif; font-size: 12px; font-weight: 200;" fill="rgb(50, 49, 63)" stroke="none" stroke-width="1px">1.8</text><text x="0" y="31.5" dx="0em" dy="0.3em" style="text-anchor: end; visibility: inherit; font-family: &quot;Helvetica Neue&quot;, sans-serif; font-size: 12px; font-weight: 200;" fill="rgb(50, 49, 63)" stroke="none" stroke-width="1px">2</text><text x="0" y="0" dx="0em" dy="0.3em" style="text-anchor: end; visibility: hidden; font-family: &quot;Helvetica Neue&quot;, sans-serif; font-size: 12px; font-weight: 200;" fill="rgb(50, 49, 63)" stroke="none" stroke-width="1px">2.2</text></g><line x1="58" y1="0" x2="58" y2="378" fill="rgb(0, 0, 0)" stroke="rgb(204, 204, 204)" stroke-width="1px"></line></g></g><g transform="translate(58, 0)" clip-path="url(#clip_0)"><clipPath id="clip_0"><rect width="1440" height="378"></rect></clipPath><g><g><g><line x1="0" y1="0" x2="0" y2="378" fill="rgb(0, 0, 0)" stroke="rgb(60, 60, 60)" stroke-width="1px" opacity="0.25"></line><line x1="120" y1="0" x2="120" y2="378" fill="rgb(0, 0, 0)" stroke="rgb(60, 60, 60)" stroke-width="1px" opacity="0.25"></line><line x1="240" y1="0" x2="240" y2="378" fill="rgb(0, 0, 0)" stroke="rgb(60, 60, 60)" stroke-width="1px" opacity="0.25"></line><line x1="360" y1="0" x2="360" y2="378" fill="rgb(0, 0, 0)" stroke="rgb(60, 60, 60)" stroke-width="1px" opacity="0.25"></line><line x1="480" y1="0" x2="480" y2="378" fill="rgb(0, 0, 0)" stroke="rgb(60, 60, 60)" stroke-width="1px" opacity="0.25"></line><line x1="600" y1="0" x2="600" y2="378" fill="rgb(0, 0, 0)" stroke="rgb(60, 60, 60)" stroke-width="1px" opacity="0.25"></line><line x1="720" y1="0" x2="720" y2="378" fill="rgb(0, 0, 0)" stroke="rgb(60, 60, 60)" stroke-width="1px" opacity="0.25"></line><line x1="840" y1="0" x2="840" y2="378" fill="rgb(0, 0, 0)" stroke="rgb(60, 60, 60)" stroke-width="1px" opacity="0.25"></line><line x1="960" y1="0" x2="960" y2="378" fill="rgb(0, 0, 0)" stroke="rgb(60, 60, 60)" stroke-width="1px" opacity="0.25"></line><line x1="1080" y1="0" x2="1080" y2="378" fill="rgb(0, 0, 0)" stroke="rgb(60, 60, 60)" stroke-width="1px" opacity="0.25"></line><line x1="1200" y1="0" x2="1200" y2="378" fill="rgb(0, 0, 0)" stroke="rgb(60, 60, 60)" stroke-width="1px" opacity="0.25"></line><line x1="1320" y1="0" x2="1320" y2="378" fill="rgb(0, 0, 0)" stroke="rgb(60, 60, 60)" stroke-width="1px" opacity="0.25"></line><line x1="1440" y1="0" x2="1440" y2="378" fill="rgb(0, 0, 0)" stroke="rgb(60, 60, 60)" stroke-width="1px" opacity="0.25"></line></g><g><line x1="0" y1="378" x2="1440" y2="378" fill="rgb(0, 0, 0)" stroke="rgb(60, 60, 60)" stroke-width="1px" opacity="0.25"></line><line x1="0" y1="346.5" x2="1440" y2="346.5" fill="rgb(0, 0, 0)" stroke="rgb(60, 60, 60)" stroke-width="1px" opacity="0.25"></line><line x1="0" y1="315" x2="1440" y2="315" fill="rgb(0, 0, 0)" stroke="rgb(60, 60, 60)" stroke-width="1px" opacity="0.25"></line><line x1="0" y1="283.5" x2="1440" y2="283.5" fill="rgb(0, 0, 0)" stroke="rgb(60, 60, 60)" stroke-width="1px" opacity="0.25"></line><line x1="0" y1="252" x2="1440" y2="252" fill="rgb(0, 0, 0)" stroke="rgb(60, 60, 60)" stroke-width="1px" opacity="0.25"></line><line x1="0" y1="220.5" x2="1440" y2="220.5" fill="rgb(0, 0, 0)" stroke="rgb(60, 60, 60)" stroke-width="1px" opacity="0.25"></line><line x1="0" y1="189.00000000000003" x2="1440" y2="189.00000000000003" fill="rgb(0, 0, 0)" stroke="rgb(60, 60, 60)" stroke-width="1px" opacity="0.25"></line><line x1="0" y1="157.50000000000003" x2="1440" y2="157.50000000000003" fill="rgb(0, 0, 0)" stroke="rgb(60, 60, 60)" stroke-width="1px" opacity="0.25"></line><line x1="0" y1="126.00000000000006" x2="1440" y2="126.00000000000006" fill="rgb(0, 0, 0)" stroke="rgb(60, 60, 60)" stroke-width="1px" opacity="0.25"></line><line x1="0" y1="94.50000000000006" x2="1440" y2="94.50000000000006" fill="rgb(0, 0, 0)" stroke="rgb(60, 60, 60)" stroke-width="1px" opacity="0.25"></line><line x1="0" y1="63" x2="1440" y2="63" fill="rgb(0, 0, 0)" stroke="rgb(60, 60, 60)" stroke-width="1px" opacity="0.25"></line><line x1="0" y1="31.5" x2="1440" y2="31.5" fill="rgb(0, 0, 0)" stroke="rgb(60, 60, 60)" stroke-width="1px" opacity="0.25"></line><line x1="0" y1="0" x2="1440" y2="0" fill="rgb(0, 0, 0)" stroke="rgb(60, 60, 60)" stroke-width="1px" opacity="0.25"></line></g></g></g><g><g><line x1="0" y1="346.5" x2="1440" y2="346.5" fill="rgb(0, 0, 0)" stroke="rgb(153, 153, 153)" stroke-width="1.5px"></line></g></g><g><g><line x1="120" y1="0" x2="120" y2="378" fill="rgb(0, 0, 0)" stroke="rgb(153, 153, 153)" stroke-width="1.5px"></line></g></g><g><g><g><g><g><path stroke="rgb(0, 153, 136)" stroke-width="2px" d="M120,-1.2468860149383545L125.99999999999999,41.14431703090668L132,65.80902332067495L138,80.18973255157476L144,91.97893971204763L150,103.7710570693016L156,114.65194487571722L162,122.90182703733447L168,130.36749565601352L174,136.15045094490054L180,142.1439918279648L186.00000000000003,144.67034304142L192,149.0846046209336L198.00000000000003,152.7598264217377L204,155.34372442960742L210,158.84478503465658L216,161.97672003507617L222,164.98680227994922L228,166.3938730359078L234,168.12896990776065L240,170.23542666435245L246,172.42935830354696L251.99999999999997,173.40359830856326L258,176.62926042079928L264,177.3634749054909L270,179.42051464319232L276,180.49077236652377L282,182.30943882465365L288,183.00182157754904L294,184.5836543440819L300,185.89793676137927L306,186.9524418711663L312,188.3430653214455L318,189.8222244679928L324,190.45411267876628L330,190.87620386481288L336,192.57682898640635L342,193.23335999250415L348,194.081804394722L354,194.6153748929501L360,195.5806777775288L366,195.6885052621365L372.00000000000006,197.50405499339107L378,197.17154154181483L384,198.24049437046054L390,198.67864796519282L396.00000000000006,199.8082737028599L402,200.2857806682587L408,201.13866546750072L413.99999999999994,201.45223447680476L420,202.76845076680186L426,203.0810810029507L432,203.95230004191401L437.99999999999994,204.19353657960895L444,204.6013396382332L450,205.71150460839274L456,205.35743692517283L462.00000000000006,206.3587886989117L468,207.6657486855984L474,207.78562062978747L480,207.59090030193332L486.00000000000006,208.32191357016566L492,208.9673764407635L498,209.77248707413676L503.99999999999994,210.2281206250191L510,210.70200392603877L516,211.4495302140713L522,211.1608950197697L528,211.76906043291095L534,212.30715581774714L540,212.5779355466366L546,213.05361190438273L552,213.77860763669017L558,214.70880040526393L564,214.33215522766116L570,214.82572460174563L576,215.11751407384875L582,215.1526241898537L588,216.26429119706157L594,216.4540360271931L600,216.8496350347996L606,216.74269938468936L612,216.5274480879307L618,217.7366066873074L624,218.46245670318606L630,218.6773606538773L636,218.9197988212109L642,219.09641960263255L648,219.9646533429623L654,219.43328896164897L660,220.87606126070025L666,220.47375941276553L672,220.82901933789256L678,221.6209589838982L684,221.3290099203587L690,221.96476587653163L696,221.55745097994807L702,222.89027416706088L708,222.74973982572558L714,223.2372822761536L720,224.00127464532855L726,222.72181132435801L732,223.772983789444L737.9999999999999,223.88224759697917L744.0000000000001,224.83167582750323L750,225.1607909202576L756,225.5548597276211L762,224.99312603473666L768,225.76621511578563L774,225.69106632471087L780,225.91469147801402L785.9999999999999,226.2648069262505L792.0000000000001,226.60728076100352L798,226.78949663043025L804,227.08299466967586L810,227.6278867721558L816,226.82322674989703L822,227.6636728048325L827.9999999999999,227.29463168978694L834.0000000000001,228.2730210721493L840,228.35380250215533L846,229.01887634396556L852,229.40847659111026L858,229.29343932867053L864,228.92160066962245L870,229.12702301144603L875.9999999999999,228.97107401490214L882.0000000000001,230.06145903468135L888,229.8910529315472L894,230.46595761179927L900,230.5246778726578L906,230.8955120444298L912,230.44729480147365L917.9999999999999,230.799822896719L924.0000000000001,231.17557623982432L930,231.23919689655307L936,231.14286938309672L942,231.5007109344006L948,232.0035272240639L954,231.86816552281383L960,232.47863093018535L965.9999999999999,232.55816379189494L972.0000000000001,232.63015830516818L978,232.392301350832L984,233.28717747330668L990,233.24536451697352L996,232.77619385719302L1002,233.49024349451068L1007.9999999999999,233.3749621510506L1014.0000000000001,233.7736778855324L1020,234.02187073230746L1026,233.8516617715359L1032,234.47349572181705L1038,235.75039619207385L1044,233.93572890758517L1050,234.51475480198863L1056,235.0027760267258L1062,234.45339658856395L1068,234.61004966497424L1074,235.21020734310153L1080,236.1603584289551L1086,235.81234583258632L1092,236.083707600832L1098,236.86650359630588L1104,236.04487055540088L1110,236.38526031374934L1116,236.60105609893802L1122,236.96619191765788L1128,236.27420344948771L1134,236.3720329999924L1140,237.54152843356135L1146,236.82448410987857L1152,237.62338006496432L1158,237.67921829223636L1164,237.65198448300364L1170,238.01932641863826L1176,237.74516710639003L1182,238.0907295048237L1188,237.58162343502048L1194,238.2323058843613L1200,237.95947962999347L1206,239.10649144649508L1212,237.67642074823382L1218,238.46685835719111L1224,238.80696648359302L1230,238.45339635014537L1236,238.93031188845637L1242,239.26250615715983L1248,240.24142125248912L1254,239.0029541552067L1260,240.0892648994923L1266,238.94933143258098L1272,239.55192053318027L1278,239.40211111307147L1284,239.500090867281L1290,239.99499329924586L1296,239.80877825617793L1302,240.03552952408793L1308,240.13582804799083L1314,240.45072072744372" style="fill: none;" fill="none"></path></g><g><path stroke="rgb(187, 187, 187)" stroke-width="2px" d="M120,23.619112014770508L125.99999999999999,63.60084110498434L132,79.8305767178536L138,94.17784684896475L144,108.22985404729843L150,121.2907984256745L156,128.00666892528537L162,136.53052264451986L168,147.16832453012472L174,153.49845314025885L180,148.21447455883032L186.00000000000003,160.20149999856952L192,161.76574015617373L198.00000000000003,167.90071660280233L204,168.8929435014725L210,173.95420753955844L216,175.9736963510514L222,177.5697609186173L228,178.14900273084643L234,183.64135140180593L240,184.276055932045L246,187.42931985855105L251.99999999999997,188.62753236293798L258,189.1047952473164L264,191.07360908389094L270,193.11759048700335L276,184.9822010993958L282,193.70085963606837L288,191.98212558031085L294,198.68060061335567L300,194.71542933583262L306,197.13766121864322L312,200.16193771362308L318,199.31550228595736L324,200.8167789280415L330,203.89575773477557L336,203.67828154563907L342,200.1125206947327L348,206.3931008577347L354,205.68362304568294L360,205.90147474408153L366,206.14441984891894L372.00000000000006,208.3828868865967L378,205.08646944165233L384,210.65067180991176L390,207.0779452621937L396.00000000000006,205.27666488289836L402,205.64952680468562L408,209.44086545705798L413.99999999999994,209.55740475654605L420,211.0192435383797L426,211.31489136815074L432,213.7803255915642L437.99999999999994,214.64241975545886L444,210.7350393533707L450,215.10841736197474L456,214.94200104475024L462.00000000000006,215.57304435968402L468,218.67960432171824L474,216.46854946017268L480,219.79196602106097L486.00000000000006,219.0088414549828L492,221.28691533207896L498,219.6647998094559L503.99999999999994,217.39156061410907L510,221.90038481354716L516,220.35028257966044L522,217.26897561550143L528,220.90921872854236L534,219.24258658289912L540,219.6064456701279L546,217.40738832950595L552,221.78167694807055L558,223.0452374517918L564,222.63566949963572L570,221.1969433128834L576,223.5957809686661L582,217.88530835509303L588,220.66476219892505L594,223.25931528210643L600,223.48599144816401L606,225.85929447412494L612,224.508259087801L618,225.79143995046618L624,226.83863201737407L630,228.867217540741L636,225.8721650540829L642,227.09881299734118L648,226.94847786426547L654,229.52710935473445L660,227.26298564672473L666,228.88912850618365L672,229.62816828489306L678,229.83216369152072L684,228.1187055408955L690,224.0306582450867L696,230.66861996054652L702,232.38684707880023L708,226.2207221388817L714,231.9485057294369L720,231.4026091396809L726,232.20890262722972L732,232.87944951653483L737.9999999999999,230.93280011415484L744.0000000000001,230.8410632014275L750,233.09218490123752L756,231.57860094308856L762,231.74070829153064L768,233.3219590187073L774,233.97900635004046L780,232.33694189786914L785.9999999999999,233.08965021371844L792.0000000000001,233.9716088175774L798,232.12713548541072L804,234.05522534251216L810,235.17186784744266L816,233.2384082078934L822,235.89336195588115L827.9999999999999,235.5135531127453L834.0000000000001,235.21397182345393L840,229.18603429198268L846,234.28365701437L852,235.84663921594623L858,236.51018285751346L864,228.79934424161914L870,235.5351261198521L875.9999999999999,236.74123370647433L882.0000000000001,235.42089620232585L888,237.0201525986195L894,236.23402395844462L900,236.14852049946788L906,231.00384646654132L912,237.3278448879719L917.9999999999999,238.43800047039988L924.0000000000001,237.70832026004794L930,239.01734554767611L936,236.18394041061404L942,236.87925213575366L948,236.44023486971858L954,237.09196874499324L960,235.9642768800259L965.9999999999999,236.70642399787906L972.0000000000001,235.17796048521998L978,239.95793992280963L984,237.9163711667061L990,235.84122249484065L996,237.43450829386714L1002,238.10266131162646L1007.9999999999999,238.44676861166957L1014.0000000000001,237.2979825139046L1020,235.68996736407283L1026,238.52434882521632L1032,238.99422356486323L1038,241.0037238299847L1044,240.10447302460673L1050,240.5885138511658L1056,237.6794435977936L1062,238.24594625830653L1068,240.14863291382792L1074,239.29315710067752L1080,239.94873994588855L1086,236.17586696147922L1092,240.56356126070025L1098,241.50912174582484L1104,240.5474706888199L1110,240.61222726106647L1116,241.14996591210368L1122,241.68445640802386L1128,238.89631891250613L1134,241.49207362532619L1140,240.02399200201037L1146,239.12753874063495L1152,241.29166433215144L1158,241.7438244223595L1164,241.91099175810817L1170,242.65639641880992L1176,242.719988912344L1182,241.345437258482L1188,241.43872314691546L1194,240.21076092123988L1200,243.95383724570277L1206,243.14234295487407L1212,240.74488529562953L1218,241.99414828419688L1224,241.0658800005913L1230,244.15648081898692L1236,242.60325247049335L1242,242.45004469156268L1248,240.90980896353724L1254,242.14880177378657L1260,242.09019416570666L1266,241.00902789831164L1272,241.88332611322406L1278,242.17239314317706L1284,242.7637732923031L1290,243.3241645395756L1296,243.51985180377963L1302,242.25561538338664L1308,241.5690530240536L1314,242.0088119208813" style="fill: none;" fill="none"></path></g></g></g></g></g></g><g transform="translate(58, 378)" clip-path="url(#clip_1)"><clipPath id="clip_1"><rect width="1440" height="22"></rect></clipPath><g><g><line x1="0" y1="0" x2="0" y2="5" style="visibility: inherit;" fill="rgb(0, 0, 0)" stroke="rgb(204, 204, 204)" stroke-width="1px"></line><line x1="120" y1="0" x2="120" y2="5" style="visibility: inherit;" fill="rgb(0, 0, 0)" stroke="rgb(204, 204, 204)" stroke-width="1px"></line><line x1="240" y1="0" x2="240" y2="5" style="visibility: inherit;" fill="rgb(0, 0, 0)" stroke="rgb(204, 204, 204)" stroke-width="1px"></line><line x1="360" y1="0" x2="360" y2="5" style="visibility: inherit;" fill="rgb(0, 0, 0)" stroke="rgb(204, 204, 204)" stroke-width="1px"></line><line x1="480" y1="0" x2="480" y2="5" style="visibility: inherit;" fill="rgb(0, 0, 0)" stroke="rgb(204, 204, 204)" stroke-width="1px"></line><line x1="600" y1="0" x2="600" y2="5" style="visibility: inherit;" fill="rgb(0, 0, 0)" stroke="rgb(204, 204, 204)" stroke-width="1px"></line><line x1="720" y1="0" x2="720" y2="5" style="visibility: inherit;" fill="rgb(0, 0, 0)" stroke="rgb(204, 204, 204)" stroke-width="1px"></line><line x1="840" y1="0" x2="840" y2="5" style="visibility: inherit;" fill="rgb(0, 0, 0)" stroke="rgb(204, 204, 204)" stroke-width="1px"></line><line x1="960" y1="0" x2="960" y2="5" style="visibility: inherit;" fill="rgb(0, 0, 0)" stroke="rgb(204, 204, 204)" stroke-width="1px"></line><line x1="1080" y1="0" x2="1080" y2="5" style="visibility: inherit;" fill="rgb(0, 0, 0)" stroke="rgb(204, 204, 204)" stroke-width="1px"></line><line x1="1200" y1="0" x2="1200" y2="5" style="visibility: inherit;" fill="rgb(0, 0, 0)" stroke="rgb(204, 204, 204)" stroke-width="1px"></line><line x1="1320" y1="0" x2="1320" y2="5" style="visibility: inherit;" fill="rgb(0, 0, 0)" stroke="rgb(204, 204, 204)" stroke-width="1px"></line><line x1="1440" y1="0" x2="1440" y2="5" style="visibility: inherit;" fill="rgb(0, 0, 0)" stroke="rgb(204, 204, 204)" stroke-width="1px"></line></g><g transform="translate(0, 8)"><text x="0" y="0" dx="0em" dy="0.95em" style="text-anchor: middle; visibility: hidden; font-family: &quot;Helvetica Neue&quot;, sans-serif; font-size: 12px; font-weight: 200;" fill="rgb(50, 49, 63)" stroke="none" stroke-width="1px">-20</text><text x="120" y="0" dx="0em" dy="0.95em" style="text-anchor: middle; visibility: inherit; font-family: &quot;Helvetica Neue&quot;, sans-serif; font-size: 12px; font-weight: 200;" fill="rgb(50, 49, 63)" stroke="none" stroke-width="1px">0</text><text x="240" y="0" dx="0em" dy="0.95em" style="text-anchor: middle; visibility: inherit; font-family: &quot;Helvetica Neue&quot;, sans-serif; font-size: 12px; font-weight: 200;" fill="rgb(50, 49, 63)" stroke="none" stroke-width="1px">20</text><text x="360" y="0" dx="0em" dy="0.95em" style="text-anchor: middle; visibility: inherit; font-family: &quot;Helvetica Neue&quot;, sans-serif; font-size: 12px; font-weight: 200;" fill="rgb(50, 49, 63)" stroke="none" stroke-width="1px">40</text><text x="480" y="0" dx="0em" dy="0.95em" style="text-anchor: middle; visibility: inherit; font-family: &quot;Helvetica Neue&quot;, sans-serif; font-size: 12px; font-weight: 200;" fill="rgb(50, 49, 63)" stroke="none" stroke-width="1px">60</text><text x="600" y="0" dx="0em" dy="0.95em" style="text-anchor: middle; visibility: inherit; font-family: &quot;Helvetica Neue&quot;, sans-serif; font-size: 12px; font-weight: 200;" fill="rgb(50, 49, 63)" stroke="none" stroke-width="1px">80</text><text x="720" y="0" dx="0em" dy="0.95em" style="text-anchor: middle; visibility: inherit; font-family: &quot;Helvetica Neue&quot;, sans-serif; font-size: 12px; font-weight: 200;" fill="rgb(50, 49, 63)" stroke="none" stroke-width="1px">100</text><text x="840" y="0" dx="0em" dy="0.95em" style="text-anchor: middle; visibility: inherit; font-family: &quot;Helvetica Neue&quot;, sans-serif; font-size: 12px; font-weight: 200;" fill="rgb(50, 49, 63)" stroke="none" stroke-width="1px">120</text><text x="960" y="0" dx="0em" dy="0.95em" style="text-anchor: middle; visibility: inherit; font-family: &quot;Helvetica Neue&quot;, sans-serif; font-size: 12px; font-weight: 200;" fill="rgb(50, 49, 63)" stroke="none" stroke-width="1px">140</text><text x="1080" y="0" dx="0em" dy="0.95em" style="text-anchor: middle; visibility: inherit; font-family: &quot;Helvetica Neue&quot;, sans-serif; font-size: 12px; font-weight: 200;" fill="rgb(50, 49, 63)" stroke="none" stroke-width="1px">160</text><text x="1200" y="0" dx="0em" dy="0.95em" style="text-anchor: middle; visibility: inherit; font-family: &quot;Helvetica Neue&quot;, sans-serif; font-size: 12px; font-weight: 200;" fill="rgb(50, 49, 63)" stroke="none" stroke-width="1px">180</text><text x="1320" y="0" dx="0em" dy="0.95em" style="text-anchor: middle; visibility: inherit; font-family: &quot;Helvetica Neue&quot;, sans-serif; font-size: 12px; font-weight: 200;" fill="rgb(50, 49, 63)" stroke="none" stroke-width="1px">200</text><text x="1440" y="0" dx="0em" dy="0.95em" style="text-anchor: middle; visibility: hidden; font-family: &quot;Helvetica Neue&quot;, sans-serif; font-size: 12px; font-weight: 200;" fill="rgb(50, 49, 63)" stroke="none" stroke-width="1px">220</text></g><line x1="0" y1="0" x2="1440" y2="0" fill="rgb(0, 0, 0)" stroke="rgb(204, 204, 204)" stroke-width="1px"></line></g></g></g></g></svg>