<svg viewBox="0 0 1498 400" xmlns="http://www.w3.org/2000/svg"><g><g><g><g><g><line x1="46" y1="378" x2="41" y2="378" style="visibility: inherit;" fill="rgb(0, 0, 0)" stroke="rgb(204, 204, 204)" stroke-width="1px"></line><line x1="46" y1="340.2" x2="41" y2="340.2" style="visibility: inherit;" fill="rgb(0, 0, 0)" stroke="rgb(204, 204, 204)" stroke-width="1px"></line><line x1="46" y1="302.4" x2="41" y2="302.4" style="visibility: inherit;" fill="rgb(0, 0, 0)" stroke="rgb(204, 204, 204)" stroke-width="1px"></line><line x1="46" y1="264.6" x2="41" y2="264.6" style="visibility: inherit;" fill="rgb(0, 0, 0)" stroke="rgb(204, 204, 204)" stroke-width="1px"></line><line x1="46" y1="226.79999999999998" x2="41" y2="226.79999999999998" style="visibility: inherit;" fill="rgb(0, 0, 0)" stroke="rgb(204, 204, 204)" stroke-width="1px"></line><line x1="46" y1="189" x2="41" y2="189" style="visibility: inherit;" fill="rgb(0, 0, 0)" stroke="rgb(204, 204, 204)" stroke-width="1px"></line><line x1="46" y1="151.20000000000002" x2="41" y2="151.20000000000002" style="visibility: inherit;" fill="rgb(0, 0, 0)" stroke="rgb(204, 204, 204)" stroke-width="1px"></line><line x1="46" y1="113.40000000000003" x2="41" y2="113.40000000000003" style="visibility: inherit;" fill="rgb(0, 0, 0)" stroke="rgb(204, 204, 204)" stroke-width="1px"></line><line x1="46" y1="75.59999999999997" x2="41" y2="75.59999999999997" style="visibility: inherit;" fill="rgb(0, 0, 0)" stroke="rgb(204, 204, 204)" stroke-width="1px"></line><line x1="46" y1="37.80000000000001" x2="41" y2="37.80000000000001" style="visibility: inherit;" fill="rgb(0, 0, 0)" stroke="rgb(204, 204, 204)" stroke-width="1px"></line><line x1="46" y1="0" x2="41" y2="0" style="visibility: inherit;" fill="rgb(0, 0, 0)" stroke="rgb(204, 204, 204)" stroke-width="1px"></line></g><g transform="translate(36, 0)"><text x="0" y="378" dx="0em" dy="0.3em" style="text-anchor: end; visibility: hidden; font-family: &quot;Helvetica Neue&quot;, sans-serif; font-size: 12px; font-weight: 200;" fill="rgb(50, 49, 63)" stroke="none" stroke-width="1px">-10</text><text x="0" y="340.2" dx="0em" dy="0.3em" style="text-anchor: end; visibility: inherit; font-family: &quot;Helvetica Neue&quot;, sans-serif; font-size: 12px; font-weight: 200;" fill="rgb(50, 49, 63)" stroke="none" stroke-width="1px">0</text><text x="0" y="302.4" dx="0em" dy="0.3em" style="text-anchor: end; visibility: inherit; font-family: &quot;Helvetica Neue&quot;, sans-serif; font-size: 12px; font-weight: 200;" fill="rgb(50, 49, 63)" stroke="none" stroke-width="1px">10</text><text x="0" y="264.6" dx="0em" dy="0.3em" style="text-anchor: end; visibility: inherit; font-family: &quot;Helvetica Neue&quot;, sans-serif; font-size: 12px; font-weight: 200;" fill="rgb(50, 49, 63)" stroke="none" stroke-width="1px">20</text><text x="0" y="226.79999999999998" dx="0em" dy="0.3em" style="text-anchor: end; visibility: inherit; font-family: &quot;Helvetica Neue&quot;, sans-serif; font-size: 12px; font-weight: 200;" fill="rgb(50, 49, 63)" stroke="none" stroke-width="1px">30</text><text x="0" y="189" dx="0em" dy="0.3em" style="text-anchor: end; visibility: inherit; font-family: &quot;Helvetica Neue&quot;, sans-serif; font-size: 12px; font-weight: 200;" fill="rgb(50, 49, 63)" stroke="none" stroke-width="1px">40</text><text x="0" y="151.20000000000002" dx="0em" dy="0.3em" style="text-anchor: end; visibility: inherit; font-family: &quot;Helvetica Neue&quot;, sans-serif; font-size: 12px; font-weight: 200;" fill="rgb(50, 49, 63)" stroke="none" stroke-width="1px">50</text><text x="0" y="113.40000000000003" dx="0em" dy="0.3em" style="text-anchor: end; visibility: inherit; font-family: &quot;Helvetica Neue&quot;, sans-serif; font-size: 12px; font-weight: 200;" fill="rgb(50, 49, 63)" stroke="none" stroke-width="1px">60</text><text x="0" y="75.59999999999997" dx="0em" dy="0.3em" style="text-anchor: end; visibility: inherit; font-family: &quot;Helvetica Neue&quot;, sans-serif; font-size: 12px; font-weight: 200;" fill="rgb(50, 49, 63)" stroke="none" stroke-width="1px">70</text><text x="0" y="37.80000000000001" dx="0em" dy="0.3em" style="text-anchor: end; visibility: inherit; font-family: &quot;Helvetica Neue&quot;, sans-serif; font-size: 12px; font-weight: 200;" fill="rgb(50, 49, 63)" stroke="none" stroke-width="1px">80</text><text x="0" y="0" dx="0em" dy="0.3em" style="text-anchor: end; visibility: hidden; font-family: &quot;Helvetica Neue&quot;, sans-serif; font-size: 12px; font-weight: 200;" fill="rgb(50, 49, 63)" stroke="none" stroke-width="1px">90</text></g><line x1="46" y1="0" x2="46" y2="378" fill="rgb(0, 0, 0)" stroke="rgb(204, 204, 204)" stroke-width="1px"></line></g></g><g transform="translate(46, 0)" clip-path="url(#clip_0)"><clipPath id="clip_0"><rect width="1452" height="378"></rect></clipPath><g><g><g><line x1="0" y1="0" x2="0" y2="378" fill="rgb(0, 0, 0)" stroke="rgb(60, 60, 60)" stroke-width="1px" opacity="0.25"></line><line x1="121" y1="0" x2="121" y2="378" fill="rgb(0, 0, 0)" stroke="rgb(60, 60, 60)" stroke-width="1px" opacity="0.25"></line><line x1="242" y1="0" x2="242" y2="378" fill="rgb(0, 0, 0)" stroke="rgb(60, 60, 60)" stroke-width="1px" opacity="0.25"></line><line x1="363" y1="0" x2="363" y2="378" fill="rgb(0, 0, 0)" stroke="rgb(60, 60, 60)" stroke-width="1px" opacity="0.25"></line><line x1="484" y1="0" x2="484" y2="378" fill="rgb(0, 0, 0)" stroke="rgb(60, 60, 60)" stroke-width="1px" opacity="0.25"></line><line x1="605" y1="0" x2="605" y2="378" fill="rgb(0, 0, 0)" stroke="rgb(60, 60, 60)" stroke-width="1px" opacity="0.25"></line><line x1="726" y1="0" x2="726" y2="378" fill="rgb(0, 0, 0)" stroke="rgb(60, 60, 60)" stroke-width="1px" opacity="0.25"></line><line x1="847" y1="0" x2="847" y2="378" fill="rgb(0, 0, 0)" stroke="rgb(60, 60, 60)" stroke-width="1px" opacity="0.25"></line><line x1="968" y1="0" x2="968" y2="378" fill="rgb(0, 0, 0)" stroke="rgb(60, 60, 60)" stroke-width="1px" opacity="0.25"></line><line x1="1089" y1="0" x2="1089" y2="378" fill="rgb(0, 0, 0)" stroke="rgb(60, 60, 60)" stroke-width="1px" opacity="0.25"></line><line x1="1210" y1="0" x2="1210" y2="378" fill="rgb(0, 0, 0)" stroke="rgb(60, 60, 60)" stroke-width="1px" opacity="0.25"></line><line x1="1331" y1="0" x2="1331" y2="378" fill="rgb(0, 0, 0)" stroke="rgb(60, 60, 60)" stroke-width="1px" opacity="0.25"></line><line x1="1452" y1="0" x2="1452" y2="378" fill="rgb(0, 0, 0)" stroke="rgb(60, 60, 60)" stroke-width="1px" opacity="0.25"></line></g><g><line x1="0" y1="378" x2="1452" y2="378" fill="rgb(0, 0, 0)" stroke="rgb(60, 60, 60)" stroke-width="1px" opacity="0.25"></line><line x1="0" y1="340.2" x2="1452" y2="340.2" fill="rgb(0, 0, 0)" stroke="rgb(60, 60, 60)" stroke-width="1px" opacity="0.25"></line><line x1="0" y1="302.4" x2="1452" y2="302.4" fill="rgb(0, 0, 0)" stroke="rgb(60, 60, 60)" stroke-width="1px" opacity="0.25"></line><line x1="0" y1="264.6" x2="1452" y2="264.6" fill="rgb(0, 0, 0)" stroke="rgb(60, 60, 60)" stroke-width="1px" opacity="0.25"></line><line x1="0" y1="226.79999999999998" x2="1452" y2="226.79999999999998" fill="rgb(0, 0, 0)" stroke="rgb(60, 60, 60)" stroke-width="1px" opacity="0.25"></line><line x1="0" y1="189" x2="1452" y2="189" fill="rgb(0, 0, 0)" stroke="rgb(60, 60, 60)" stroke-width="1px" opacity="0.25"></line><line x1="0" y1="151.20000000000002" x2="1452" y2="151.20000000000002" fill="rgb(0, 0, 0)" stroke="rgb(60, 60, 60)" stroke-width="1px" opacity="0.25"></line><line x1="0" y1="113.40000000000003" x2="1452" y2="113.40000000000003" fill="rgb(0, 0, 0)" stroke="rgb(60, 60, 60)" stroke-width="1px" opacity="0.25"></line><line x1="0" y1="75.59999999999997" x2="1452" y2="75.59999999999997" fill="rgb(0, 0, 0)" stroke="rgb(60, 60, 60)" stroke-width="1px" opacity="0.25"></line><line x1="0" y1="37.80000000000001" x2="1452" y2="37.80000000000001" fill="rgb(0, 0, 0)" stroke="rgb(60, 60, 60)" stroke-width="1px" opacity="0.25"></line><line x1="0" y1="0" x2="1452" y2="0" fill="rgb(0, 0, 0)" stroke="rgb(60, 60, 60)" stroke-width="1px" opacity="0.25"></line></g></g></g><g><g><line x1="0" y1="340.2" x2="1452" y2="340.2" fill="rgb(0, 0, 0)" stroke="rgb(153, 153, 153)" stroke-width="1.5px"></line></g></g><g><g><line x1="121" y1="0" x2="121" y2="378" fill="rgb(0, 0, 0)" stroke="rgb(153, 153, 153)" stroke-width="1.5px"></line></g></g><g><g><g><g><g><path stroke="rgb(0, 153, 136)" stroke-width="2px" d="M121,272.8328380966186L127.05,239.37983665466308L133.1,218.99808311462402L139.15,205.1330458831787L145.20000000000002,191.77452438354493L151.25,178.8091232299805L157.3,167.84711746215822L163.35,160.06032669067383L169.4,153.35459884643555L175.45,146.95883377075194L181.5,141.06959884643555L187.55,138.75624069213868L193.6,134.12195411682129L199.65,129.82788253784182L205.7,127.34819480895996L211.75,124.08983665466309L217.79999999999998,121.94279365539552L223.85000000000002,118.16279365539549L229.89999999999998,117.14220634460446L235.95000000000002,115.33536392211914L242,112.71204299926757L248.05,111.38903434753416L254.1,110.42136680603028L260.15,107.23104011535645L266.2,106.62624069213865L272.25,105.15204299926756L278.3,103.54932380676269L284.35,101.26620346069336L290.40000000000003,102.11291976928709L296.45,99.54251861572266L302.5,98.990638961792L308.55,98.18927215576173L314.6,96.89653015136719L320.65,95.2182092285156L326.7,94.34879653930665L332.75,94.14467330932615L338.8,93.6986476135254L344.84999999999997,92.05810592651369L350.9,91.68766754150391L356.95,91.19627792358398L363,89.88839538574217L369.04999999999995,89.41211746215822L375.1,88.17985107421873L381.15000000000003,88.38397430419923L387.2,88.21763031005861L393.25,86.78124069213868L399.3,86.78124069213868L405.35,86.39569061279298L411.4,85.41288253784177L417.45,84.6644499206543L423.5,83.90087677001952L429.55,83.3263151550293L435.59999999999997,82.68372207641602L441.65,82.32839538574217L447.70000000000005,82.29058731079101L453.75,82.5476303100586L459.79999999999995,81.76138961791992L465.85,81.1036848449707L471.90000000000003,79.3497477722168L477.95,79.25904876708984L484,79.78069061279297L490.05,78.72985107421874L496.1,78.12503723144533L502.15,77.61850708007813L508.2,77.31612899780276L514.25,77.69412322998045L520.3,76.42404876708986L526.35,76.23503723144535L532.4,76.57525222778321L538.45,75.90996276855469L544.5,76.42404876708986L550.55,74.80620346069333L556.6,74.55671630859376L562.65,74.11824645996097L568.7,73.88387100219728L574.75,73.1278825378418L580.8000000000001,73.0976303100586L586.85,73.6570802307129L592.9,72.16777084350588L598.9499999999999,72.53065338134769L605,72.3265301513672L611.05,72.25091400146488L617.1,72.14507446289059L623.15,71.27569061279297L629.2,70.0736476135254L635.25,70.16434661865236L641.3,70.37602569580076L647.35,69.81660461425781L653.4,69.40080230712891L659.45,68.61456161499024L665.5,68.76576507568359L671.5500000000001,68.84135238647463L677.6,68.46335815429688L683.65,67.92660461425783L689.6999999999999,67.84343261718749L695.75,67.2235070800781L701.8,67.95682800292968L707.85,66.26339538574217L713.9,66.13488830566405L719.95,66.17266754150393L726,65.03112899780274L732.05,66.98160461425783L738.0999999999999,65.48471054077152L744.15,65.40912322998048L750.2,65.07649291992186L756.25,64.01051284790037L762.3000000000001,64.51704299926757L768.35,64.37339538574219L774.4,64.33558731079103L780.4499999999999,64.17682800292965L786.5,63.92736968994137L792.55,63.791277923584005L798.6,64.03320922851566L804.6500000000001,64.12390823364257L810.7,63.64763031005856L816.75,62.642154693603516L822.8,63.09576507568357L828.8499999999999,62.831166229248026L834.9,63.05040115356445L840.95,61.77277084350584L847,61.92397430419925L853.0500000000001,60.79751861572265L859.1,61.54595123291017L865.15,61.09992553710936L871.1999999999999,61.40233245849606L877.25,61.19820922851562L883.3,61.80299423217775L889.35,60.54803146362303L895.4000000000001,60.79751861572265L901.45,59.716426849365234L907.5,60.38927215576172L913.55,60.16248138427733L919.5999999999999,60.32879653930661L925.65,59.78448715209964L931.7,60.07175354003908L937.75,59.25528945922855L943.8000000000001,59.34598846435546L949.85,59.42160461425783L955.9,58.3102894592285L961.9499999999999,59.512332458496076L968,59.34598846435546L974.05,57.36528945922851L980.1,58.8999627685547L986.1500000000001,58.55974777221678L992.2,57.73572784423828L998.25,57.607191925048824L1004.3,57.970074462890636L1010.3499999999999,57.607191925048824L1016.4,57.486240692138665L1022.45,56.71511169433592L1028.5,57.380401153564435L1034.55,57.781091766357406L1040.6,57.070438385009766L1046.65,55.73988830566407L1052.7,57.531604614257844L1058.75,56.17835815429686L1064.8,56.359813842773406L1070.8500000000001,56.92679077148438L1076.9,57.87179077148437L1082.95,56.79072784423829L1089,55.66427215576175L1095.05,55.69452438354489L1101.1,55.339197692871096L1107.1499999999999,54.90828369140627L1113.2,55.11240692138671L1119.25,55.38456161499022L1125.3,55.256025695800815L1131.35,54.462229156494175L1137.4,54.99901153564451L1143.45,55.30138961791994L1149.5,54.61343261718747L1155.55,54.840252227783196L1161.6000000000001,53.373610382080074L1167.65,53.41138961791995L1173.7,53.668432617187534L1179.75,54.129598846435556L1185.8,53.75916046142578L1191.85,53.388722076416L1197.8999999999999,53.66087677001951L1203.95,53.21485107421876L1210,53.27532669067381L1216.05,52.957808074951174L1222.1,53.47189407348634L1228.15,52.40591400146485L1234.2,53.02583953857419L1240.25,53.42653015136722L1246.3,52.66295700073243L1252.3500000000001,52.68565338134766L1258.4,52.54956161499024L1264.45,52.04303146362304L1270.5,51.80112899780272L1276.55,52.398358154296886L1282.6,52.4663896179199L1288.6499999999999,52.57222915649413L1294.7,52.3454383850098L1300.75,52.11109176635739L1306.8,52.48908599853519L1312.85,52.38324645996096L1318.9,51.370186157226556L1324.95,52.01280807495118" style="fill: none;" fill="none"></path></g><g><path stroke="rgb(187, 187, 187)" stroke-width="2px" d="M121,249.29100288391115L127.05,222.3773997116089L133.1,208.39140403747558L139.15,189.30240692138673L145.20000000000002,179.6633953857422L151.25,163.29600288391111L157.3,154.5641976928711L163.35,148.55399711608885L169.4,135.43740692138672L175.45,128.17979942321776L181.5,136.23120346069337L187.55,124.32419769287111L193.6,122.01839538574217L199.65,114.34499999999997L205.7,114.19379653930667L211.75,110.18700576782226L217.79999999999998,107.50319480895996L223.85000000000002,105.61319480895997L229.89999999999998,104.5170057678223L235.95000000000002,101.5685959625244L242,101.07720634460446L248.05,98.58240692138673L254.1,96.23879653930663L260.15,95.93638961791993L266.2,94.72679077148439L272.25,92.98799423217775L278.3,100.0187965393066L284.35,92.5721919250488L290.40000000000003,91.92959884643557L296.45,88.64098846435547L302.5,91.2113896179199L308.55,87.9228080749512L314.6,86.75098846435549L320.65,87.84719192504883L326.7,85.91941268920897L332.75,82.139412689209L338.8,83.57580230712892L344.84999999999997,87.16679077148439L350.9,82.44179077148436L356.95,81.00540115356443L363,80.28719192504883L369.04999999999995,81.30780807495114L375.1,79.64459884643554L381.15000000000003,82.02598846435546L387.2,77.86799423217775L393.25,80.28719192504883L399.3,80.09820922851566L405.35,80.40058731079102L411.4,77.52780807495117L417.45,77.64120346069336L423.5,77.79240692138671L429.55,76.31820922851563L435.59999999999997,74.54160461425778L441.65,74.01240692138668L447.70000000000005,75.71339538574222L453.75,74.27700576782223L459.79999999999995,72.76499999999999L465.85,72.27361038208011L471.90000000000003,70.1567907714844L477.95,72.27361038208011L484,68.64481384277343L490.05,68.64481384277343L496.1,68.15339538574216L502.15,69.28740692138672L508.2,70.79941268920896L514.25,66.75481384277344L520.3,68.45580230712892L526.35,70.00558731079099L532.4,67.47299423217777L538.45,68.30459884643557L544.5,67.88879653930661L550.55,70.08120346069336L556.6,67.69981384277344L562.65,66.94379653930667L568.7,65.88540115356449L574.75,68.45580230712892L580.8000000000001,65.20499999999998L586.85,68.115587310791L592.9,68.64481384277343L598.9499999999999,66.71700576782229L605,64.78919769287108L611.05,64.9782092285156L617.1,63.91981384277341L623.15,63.69299423217774L629.2,61.538395385742206L635.25,61.65179077148434L641.3,63.163796539306645L647.35,60.63120346069337L653.4,61.19820922851562L659.45,60.48000000000002L665.5,61.50058731079105L671.5500000000001,61.00919769287111L677.6,60.78240692138672L683.65,59.27040115356442L689.6999999999999,60.70679077148441L695.75,64.22219192504883L701.8,58.93018615722656L707.85,57.68280807495114L713.9,61.08481384277343L719.95,57.2670057678223L726,59.27040115356442L732.05,57.94740692138669L738.0999999999999,58.514412689208996L744.15,59.119197692871126L750.2,60.026389617919904L756.25,56.85120346069334L762.3000000000001,58.325401153564485L768.35,57.985186157226565L774.4,56.66219192504883L780.4499999999999,56.170802307128895L786.5,58.400988464355464L792.55,56.51098846435548L798.6,55.339197692871096L804.6500000000001,57.45598846435547L810.7,56.13299423217774L816.75,55.339197692871096L822.8,57.531604614257844L828.8499999999999,54.583209228515614L834.9,55.03679077148439L840.95,54.69660461425781L847,59.87518615722655L853.0500000000001,54.69660461425781L859.1,54.167406921386714L865.15,54.20518615722659L871.1999999999999,61.160401153564464L877.25,55.6416046142578L883.3,53.44919769287111L889.35,54.46981384277342L895.4000000000001,54.43200576782226L901.45,53.524813842773426L907.5,53.41138961791995L913.55,57.569412689209L919.5999999999999,52.57981384277343L925.65,51.785988464355455L931.7,52.88219192504886L937.75,52.4663896179199L943.8000000000001,54.5075930786133L949.85,54.734412689208966L955.9,53.44919769287111L961.9499999999999,52.4663896179199L968,54.9233953857422L974.05,54.129598846435556L980.1,55.377005767822254L986.1500000000001,50.76540115356448L992.2,51.82379653930667L998.25,53.63820922851562L1004.3,53.2979942321777L1010.3499999999999,53.86500000000001L1016.4,53.07120346069337L1022.45,53.78941268920897L1028.5,56.01959884643554L1034.55,52.4663896179199L1040.6,51.14339538574217L1046.65,50.27401153564455L1052.7,50.349598846435526L1058.75,51.332406921386735L1064.8,52.27740692138673L1070.8500000000001,52.23959884643551L1076.9,50.538610382080094L1082.95,51.748209228515634L1089,50.04719192504882L1095.05,53.78941268920897L1101.1,51.67259307861326L1107.1499999999999,48.988796539306634L1113.2,51.25679077148436L1119.25,51.14339538574217L1125.3,50.009412689209L1131.35,49.63138961791992L1137.4,51.332406921386735L1143.45,50.68981384277345L1149.5,50.84098846435546L1155.55,51.25679077148436L1161.6000000000001,49.89598846435547L1167.65,49.66919769287108L1173.7,49.782593078613274L1179.75,47.779197692871094L1185.8,48.572994232177734L1191.85,50.23620346069339L1197.8999999999999,49.06441268920895L1203.95,51.25679077148436L1210,47.59018615722658L1216.05,46.8341976928711L1222.1,49.85820922851559L1228.15,49.139999999999986L1234.2,49.85820922851559L1240.25,46.26719192504885L1246.3,47.552406921386705L1252.3500000000001,48.42179077148438L1258.4,49.366790771484375L1264.45,50.31179077148437L1270.5,48.00598846435548L1276.55,49.3290115356445L1282.6,49.51799423217773L1288.6499999999999,48.42179077148438L1294.7,48.38401153564456L1300.75,49.1778080749512L1306.8,48.157191925048835L1312.85,49.82040115356443L1318.9,48.68638961791993L1324.95,49.89598846435547" style="fill: none;" fill="none"></path></g></g></g></g></g></g><g transform="translate(46, 378)" clip-path="url(#clip_1)"><clipPath id="clip_1"><rect width="1452" height="22"></rect></clipPath><g><g><line x1="0" y1="0" x2="0" y2="5" style="visibility: inherit;" fill="rgb(0, 0, 0)" stroke="rgb(204, 204, 204)" stroke-width="1px"></line><line x1="121" y1="0" x2="121" y2="5" style="visibility: inherit;" fill="rgb(0, 0, 0)" stroke="rgb(204, 204, 204)" stroke-width="1px"></line><line x1="242" y1="0" x2="242" y2="5" style="visibility: inherit;" fill="rgb(0, 0, 0)" stroke="rgb(204, 204, 204)" stroke-width="1px"></line><line x1="363" y1="0" x2="363" y2="5" style="visibility: inherit;" fill="rgb(0, 0, 0)" stroke="rgb(204, 204, 204)" stroke-width="1px"></line><line x1="484" y1="0" x2="484" y2="5" style="visibility: inherit;" fill="rgb(0, 0, 0)" stroke="rgb(204, 204, 204)" stroke-width="1px"></line><line x1="605" y1="0" x2="605" y2="5" style="visibility: inherit;" fill="rgb(0, 0, 0)" stroke="rgb(204, 204, 204)" stroke-width="1px"></line><line x1="726" y1="0" x2="726" y2="5" style="visibility: inherit;" fill="rgb(0, 0, 0)" stroke="rgb(204, 204, 204)" stroke-width="1px"></line><line x1="847" y1="0" x2="847" y2="5" style="visibility: inherit;" fill="rgb(0, 0, 0)" stroke="rgb(204, 204, 204)" stroke-width="1px"></line><line x1="968" y1="0" x2="968" y2="5" style="visibility: inherit;" fill="rgb(0, 0, 0)" stroke="rgb(204, 204, 204)" stroke-width="1px"></line><line x1="1089" y1="0" x2="1089" y2="5" style="visibility: inherit;" fill="rgb(0, 0, 0)" stroke="rgb(204, 204, 204)" stroke-width="1px"></line><line x1="1210" y1="0" x2="1210" y2="5" style="visibility: inherit;" fill="rgb(0, 0, 0)" stroke="rgb(204, 204, 204)" stroke-width="1px"></line><line x1="1331" y1="0" x2="1331" y2="5" style="visibility: inherit;" fill="rgb(0, 0, 0)" stroke="rgb(204, 204, 204)" stroke-width="1px"></line><line x1="1452" y1="0" x2="1452" y2="5" style="visibility: inherit;" fill="rgb(0, 0, 0)" stroke="rgb(204, 204, 204)" stroke-width="1px"></line></g><g transform="translate(0, 8)"><text x="0" y="0" dx="0em" dy="0.95em" style="text-anchor: middle; visibility: hidden; font-family: &quot;Helvetica Neue&quot;, sans-serif; font-size: 12px; font-weight: 200;" fill="rgb(50, 49, 63)" stroke="none" stroke-width="1px">-20</text><text x="121" y="0" dx="0em" dy="0.95em" style="text-anchor: middle; visibility: inherit; font-family: &quot;Helvetica Neue&quot;, sans-serif; font-size: 12px; font-weight: 200;" fill="rgb(50, 49, 63)" stroke="none" stroke-width="1px">0</text><text x="242" y="0" dx="0em" dy="0.95em" style="text-anchor: middle; visibility: inherit; font-family: &quot;Helvetica Neue&quot;, sans-serif; font-size: 12px; font-weight: 200;" fill="rgb(50, 49, 63)" stroke="none" stroke-width="1px">20</text><text x="363" y="0" dx="0em" dy="0.95em" style="text-anchor: middle; visibility: inherit; font-family: &quot;Helvetica Neue&quot;, sans-serif; font-size: 12px; font-weight: 200;" fill="rgb(50, 49, 63)" stroke="none" stroke-width="1px">40</text><text x="484" y="0" dx="0em" dy="0.95em" style="text-anchor: middle; visibility: inherit; font-family: &quot;Helvetica Neue&quot;, sans-serif; font-size: 12px; font-weight: 200;" fill="rgb(50, 49, 63)" stroke="none" stroke-width="1px">60</text><text x="605" y="0" dx="0em" dy="0.95em" style="text-anchor: middle; visibility: inherit; font-family: &quot;Helvetica Neue&quot;, sans-serif; font-size: 12px; font-weight: 200;" fill="rgb(50, 49, 63)" stroke="none" stroke-width="1px">80</text><text x="726" y="0" dx="0em" dy="0.95em" style="text-anchor: middle; visibility: inherit; font-family: &quot;Helvetica Neue&quot;, sans-serif; font-size: 12px; font-weight: 200;" fill="rgb(50, 49, 63)" stroke="none" stroke-width="1px">100</text><text x="847" y="0" dx="0em" dy="0.95em" style="text-anchor: middle; visibility: inherit; font-family: &quot;Helvetica Neue&quot;, sans-serif; font-size: 12px; font-weight: 200;" fill="rgb(50, 49, 63)" stroke="none" stroke-width="1px">120</text><text x="968" y="0" dx="0em" dy="0.95em" style="text-anchor: middle; visibility: inherit; font-family: &quot;Helvetica Neue&quot;, sans-serif; font-size: 12px; font-weight: 200;" fill="rgb(50, 49, 63)" stroke="none" stroke-width="1px">140</text><text x="1089" y="0" dx="0em" dy="0.95em" style="text-anchor: middle; visibility: inherit; font-family: &quot;Helvetica Neue&quot;, sans-serif; font-size: 12px; font-weight: 200;" fill="rgb(50, 49, 63)" stroke="none" stroke-width="1px">160</text><text x="1210" y="0" dx="0em" dy="0.95em" style="text-anchor: middle; visibility: inherit; font-family: &quot;Helvetica Neue&quot;, sans-serif; font-size: 12px; font-weight: 200;" fill="rgb(50, 49, 63)" stroke="none" stroke-width="1px">180</text><text x="1331" y="0" dx="0em" dy="0.95em" style="text-anchor: middle; visibility: inherit; font-family: &quot;Helvetica Neue&quot;, sans-serif; font-size: 12px; font-weight: 200;" fill="rgb(50, 49, 63)" stroke="none" stroke-width="1px">200</text><text x="1452" y="0" dx="0em" dy="0.95em" style="text-anchor: middle; visibility: hidden; font-family: &quot;Helvetica Neue&quot;, sans-serif; font-size: 12px; font-weight: 200;" fill="rgb(50, 49, 63)" stroke="none" stroke-width="1px">220</text></g><line x1="0" y1="0" x2="1452" y2="0" fill="rgb(0, 0, 0)" stroke="rgb(204, 204, 204)" stroke-width="1px"></line></g></g></g></g></svg>