<svg viewBox="0 0 1498 400" xmlns="http://www.w3.org/2000/svg"><g><g><g><g><g><line x1="58" y1="378" x2="53" y2="378" style="visibility: inherit;" fill="rgb(0, 0, 0)" stroke="rgb(204, 204, 204)" stroke-width="1px"></line><line x1="58" y1="340.2" x2="53" y2="340.2" style="visibility: inherit;" fill="rgb(0, 0, 0)" stroke="rgb(204, 204, 204)" stroke-width="1px"></line><line x1="58" y1="302.4" x2="53" y2="302.4" style="visibility: inherit;" fill="rgb(0, 0, 0)" stroke="rgb(204, 204, 204)" stroke-width="1px"></line><line x1="58" y1="264.59999999999997" x2="53" y2="264.59999999999997" style="visibility: inherit;" fill="rgb(0, 0, 0)" stroke="rgb(204, 204, 204)" stroke-width="1px"></line><line x1="58" y1="226.79999999999998" x2="53" y2="226.79999999999998" style="visibility: inherit;" fill="rgb(0, 0, 0)" stroke="rgb(204, 204, 204)" stroke-width="1px"></line><line x1="58" y1="189" x2="53" y2="189" style="visibility: inherit;" fill="rgb(0, 0, 0)" stroke="rgb(204, 204, 204)" stroke-width="1px"></line><line x1="58" y1="151.20000000000002" x2="53" y2="151.20000000000002" style="visibility: inherit;" fill="rgb(0, 0, 0)" stroke="rgb(204, 204, 204)" stroke-width="1px"></line><line x1="58" y1="113.40000000000003" x2="53" y2="113.40000000000003" style="visibility: inherit;" fill="rgb(0, 0, 0)" stroke="rgb(204, 204, 204)" stroke-width="1px"></line><line x1="58" y1="75.60000000000002" x2="53" y2="75.60000000000002" style="visibility: inherit;" fill="rgb(0, 0, 0)" stroke="rgb(204, 204, 204)" stroke-width="1px"></line><line x1="58" y1="37.80000000000001" x2="53" y2="37.80000000000001" style="visibility: inherit;" fill="rgb(0, 0, 0)" stroke="rgb(204, 204, 204)" stroke-width="1px"></line><line x1="58" y1="0" x2="53" y2="0" style="visibility: inherit;" fill="rgb(0, 0, 0)" stroke="rgb(204, 204, 204)" stroke-width="1px"></line></g><g transform="translate(48, 0)"><text x="0" y="378" dx="0em" dy="0.3em" style="text-anchor: end; visibility: hidden; font-family: &quot;Helvetica Neue&quot;, sans-serif; font-size: 12px; font-weight: 200;" fill="rgb(50, 49, 63)" stroke="none" stroke-width="1px">-0.2</text><text x="0" y="340.2" dx="0em" dy="0.3em" style="text-anchor: end; visibility: inherit; font-family: &quot;Helvetica Neue&quot;, sans-serif; font-size: 12px; font-weight: 200;" fill="rgb(50, 49, 63)" stroke="none" stroke-width="1px">0</text><text x="0" y="302.4" dx="0em" dy="0.3em" style="text-anchor: end; visibility: inherit; font-family: &quot;Helvetica Neue&quot;, sans-serif; font-size: 12px; font-weight: 200;" fill="rgb(50, 49, 63)" stroke="none" stroke-width="1px">0.2</text><text x="0" y="264.59999999999997" dx="0em" dy="0.3em" style="text-anchor: end; visibility: inherit; font-family: &quot;Helvetica Neue&quot;, sans-serif; font-size: 12px; font-weight: 200;" fill="rgb(50, 49, 63)" stroke="none" stroke-width="1px">0.4</text><text x="0" y="226.79999999999998" dx="0em" dy="0.3em" style="text-anchor: end; visibility: inherit; font-family: &quot;Helvetica Neue&quot;, sans-serif; font-size: 12px; font-weight: 200;" fill="rgb(50, 49, 63)" stroke="none" stroke-width="1px">0.6</text><text x="0" y="189" dx="0em" dy="0.3em" style="text-anchor: end; visibility: inherit; font-family: &quot;Helvetica Neue&quot;, sans-serif; font-size: 12px; font-weight: 200;" fill="rgb(50, 49, 63)" stroke="none" stroke-width="1px">0.8</text><text x="0" y="151.20000000000002" dx="0em" dy="0.3em" style="text-anchor: end; visibility: inherit; font-family: &quot;Helvetica Neue&quot;, sans-serif; font-size: 12px; font-weight: 200;" fill="rgb(50, 49, 63)" stroke="none" stroke-width="1px">1</text><text x="0" y="113.40000000000003" dx="0em" dy="0.3em" style="text-anchor: end; visibility: inherit; font-family: &quot;Helvetica Neue&quot;, sans-serif; font-size: 12px; font-weight: 200;" fill="rgb(50, 49, 63)" stroke="none" stroke-width="1px">1.2</text><text x="0" y="75.60000000000002" dx="0em" dy="0.3em" style="text-anchor: end; visibility: inherit; font-family: &quot;Helvetica Neue&quot;, sans-serif; font-size: 12px; font-weight: 200;" fill="rgb(50, 49, 63)" stroke="none" stroke-width="1px">1.4</text><text x="0" y="37.80000000000001" dx="0em" dy="0.3em" style="text-anchor: end; visibility: inherit; font-family: &quot;Helvetica Neue&quot;, sans-serif; font-size: 12px; font-weight: 200;" fill="rgb(50, 49, 63)" stroke="none" stroke-width="1px">1.6</text><text x="0" y="0" dx="0em" dy="0.3em" style="text-anchor: end; visibility: hidden; font-family: &quot;Helvetica Neue&quot;, sans-serif; font-size: 12px; font-weight: 200;" fill="rgb(50, 49, 63)" stroke="none" stroke-width="1px">1.8</text></g><line x1="58" y1="0" x2="58" y2="378" fill="rgb(0, 0, 0)" stroke="rgb(204, 204, 204)" stroke-width="1px"></line></g></g><g transform="translate(58, 0)" clip-path="url(#clip_0)"><clipPath id="clip_0"><rect width="1440" height="378"></rect></clipPath><g><g><g><line x1="0" y1="0" x2="0" y2="378" fill="rgb(0, 0, 0)" stroke="rgb(60, 60, 60)" stroke-width="1px" opacity="0.25"></line><line x1="120" y1="0" x2="120" y2="378" fill="rgb(0, 0, 0)" stroke="rgb(60, 60, 60)" stroke-width="1px" opacity="0.25"></line><line x1="240" y1="0" x2="240" y2="378" fill="rgb(0, 0, 0)" stroke="rgb(60, 60, 60)" stroke-width="1px" opacity="0.25"></line><line x1="360" y1="0" x2="360" y2="378" fill="rgb(0, 0, 0)" stroke="rgb(60, 60, 60)" stroke-width="1px" opacity="0.25"></line><line x1="480" y1="0" x2="480" y2="378" fill="rgb(0, 0, 0)" stroke="rgb(60, 60, 60)" stroke-width="1px" opacity="0.25"></line><line x1="600" y1="0" x2="600" y2="378" fill="rgb(0, 0, 0)" stroke="rgb(60, 60, 60)" stroke-width="1px" opacity="0.25"></line><line x1="720" y1="0" x2="720" y2="378" fill="rgb(0, 0, 0)" stroke="rgb(60, 60, 60)" stroke-width="1px" opacity="0.25"></line><line x1="840" y1="0" x2="840" y2="378" fill="rgb(0, 0, 0)" stroke="rgb(60, 60, 60)" stroke-width="1px" opacity="0.25"></line><line x1="960" y1="0" x2="960" y2="378" fill="rgb(0, 0, 0)" stroke="rgb(60, 60, 60)" stroke-width="1px" opacity="0.25"></line><line x1="1080" y1="0" x2="1080" y2="378" fill="rgb(0, 0, 0)" stroke="rgb(60, 60, 60)" stroke-width="1px" opacity="0.25"></line><line x1="1200" y1="0" x2="1200" y2="378" fill="rgb(0, 0, 0)" stroke="rgb(60, 60, 60)" stroke-width="1px" opacity="0.25"></line><line x1="1320" y1="0" x2="1320" y2="378" fill="rgb(0, 0, 0)" stroke="rgb(60, 60, 60)" stroke-width="1px" opacity="0.25"></line><line x1="1440" y1="0" x2="1440" y2="378" fill="rgb(0, 0, 0)" stroke="rgb(60, 60, 60)" stroke-width="1px" opacity="0.25"></line></g><g><line x1="0" y1="378" x2="1440" y2="378" fill="rgb(0, 0, 0)" stroke="rgb(60, 60, 60)" stroke-width="1px" opacity="0.25"></line><line x1="0" y1="340.2" x2="1440" y2="340.2" fill="rgb(0, 0, 0)" stroke="rgb(60, 60, 60)" stroke-width="1px" opacity="0.25"></line><line x1="0" y1="302.4" x2="1440" y2="302.4" fill="rgb(0, 0, 0)" stroke="rgb(60, 60, 60)" stroke-width="1px" opacity="0.25"></line><line x1="0" y1="264.59999999999997" x2="1440" y2="264.59999999999997" fill="rgb(0, 0, 0)" stroke="rgb(60, 60, 60)" stroke-width="1px" opacity="0.25"></line><line x1="0" y1="226.79999999999998" x2="1440" y2="226.79999999999998" fill="rgb(0, 0, 0)" stroke="rgb(60, 60, 60)" stroke-width="1px" opacity="0.25"></line><line x1="0" y1="189" x2="1440" y2="189" fill="rgb(0, 0, 0)" stroke="rgb(60, 60, 60)" stroke-width="1px" opacity="0.25"></line><line x1="0" y1="151.20000000000002" x2="1440" y2="151.20000000000002" fill="rgb(0, 0, 0)" stroke="rgb(60, 60, 60)" stroke-width="1px" opacity="0.25"></line><line x1="0" y1="113.40000000000003" x2="1440" y2="113.40000000000003" fill="rgb(0, 0, 0)" stroke="rgb(60, 60, 60)" stroke-width="1px" opacity="0.25"></line><line x1="0" y1="75.60000000000002" x2="1440" y2="75.60000000000002" fill="rgb(0, 0, 0)" stroke="rgb(60, 60, 60)" stroke-width="1px" opacity="0.25"></line><line x1="0" y1="37.80000000000001" x2="1440" y2="37.80000000000001" fill="rgb(0, 0, 0)" stroke="rgb(60, 60, 60)" stroke-width="1px" opacity="0.25"></line><line x1="0" y1="0" x2="1440" y2="0" fill="rgb(0, 0, 0)" stroke="rgb(60, 60, 60)" stroke-width="1px" opacity="0.25"></line></g></g></g><g><g><line x1="0" y1="340.2" x2="1440" y2="340.2" fill="rgb(0, 0, 0)" stroke="rgb(153, 153, 153)" stroke-width="1.5px"></line></g></g><g><g><line x1="120" y1="0" x2="120" y2="378" fill="rgb(0, 0, 0)" stroke="rgb(153, 153, 153)" stroke-width="1.5px"></line></g></g><g><g><g><g><g><path stroke="rgb(187, 187, 187)" stroke-width="2px" d="M120,-22.806027817726147L125.99999999999999,47.669838208674435L132,79.54879945708342L138,101.74055901200876L144,115.84448030034372L150,125.32914661950659L156,133.16474697025072L162,140.17823492893555L168,143.83688975075646L174,151.33285345914956L180,154.50094209034737L186.00000000000003,158.06261284209242L192,162.03343473849122L198.00000000000003,165.67557570608452L204,167.6469269238839L210,168.98020876894523L216,171.12931464175884L222,173.87999324885496L228,174.54602981073037L234,177.3147720568053L240,177.9540748821843L246,181.44830160875406L251.99999999999997,181.69485736233102L258,183.74982983371177L264,184.78893828486812L270,186.5595112525634L276,186.48356641309837L282,187.20476890536142L288,188.49937469418026L294,190.25913654746805L300,191.28051907928864L306,192.56227497909882L312,193.02774713721055L318,193.15081060321683L324,194.71255102393476L330,193.38562743856386L336,196.0181263135303L342,196.49224734114367L348,197.06184953974608L354,196.14510888957864L360,197.54003911040496L366,197.1302587419073L372.00000000000006,199.50983893759727L378,198.23636629069227L384,199.4869480499061L390,200.80312973114567L396.00000000000006,199.59932568394885L402,200.99449832752774L408,200.14125977044978L413.99999999999994,202.62437881008728L420,202.68330133148L426,203.07235709970973L432,203.18966431956517L437.99999999999994,203.20874572891134L444,203.86036086271375L450,202.9558491981608L456,205.08994154433594L462.00000000000006,205.01861517818574L468,204.15748720621914L474,204.29009169102713L480,206.48752251444355L486.00000000000006,205.45857124292456L492,205.3643162254507L498,204.842770500691L503.99999999999994,205.81215974328L510,207.23357311274478L516,207.4466569143866L522,207.94907942676247L528,207.6033817527408L534,206.06802261163782L540,208.6312353796524L546,207.77258216297645L552,207.9295908246796L558,209.5569455257315L564,207.85813115092145L570,208.5711186219785L576,208.78092025989804L582,209.25605887378595L588,209.5351891263137L594,208.9403603157231L600,210.12954776995332L606,209.8923782022559L612,211.21579755590875L618,211.4860584805095L624,208.8343516151005L630,210.0252118993519L636,211.87097579378255L642,210.43847322731108L648,211.09225773186722L654,211.43327912560187L660,211.68384351140338L666,209.96270278655402L672,211.67308189136318L678,211.55506698926612L684,212.0585654767943L690,211.3497383889066L696,210.65644751282304L702,212.2899248902366L708,212.8948873818833L714,210.90909450284408L720,214.31737287172646L726,212.86422099068085L732,213.03772030845778L737.9999999999999,212.6694529501275L744.0000000000001,212.05470729290425L750,213.73644818387373L756,212.6806029890159L762,212.96565066664368L768,214.27397754937812L774,214.56297218941756L780,213.84807153170283L785.9999999999999,213.02730873592347L792.0000000000001,213.55755133405347L798,214.11064071639328L804,214.60762301373194L810,214.67102939666884L816,214.37541907231477L822,214.4671936740876L827.9999999999999,214.05841569827268L834.0000000000001,214.2385339306938L840,214.3238155800947L846,214.26654238457473L852,214.6645027577439L858,213.29447293828648L864,214.4175028233559L870,215.36244303794294L875.9999999999999,213.89356976502148L882.0000000000001,215.5664742980992L888,215.1849619107388L894,214.10645897311616L900,214.99158252917337L906,214.21712104876804L912,215.6834321249485L917.9999999999999,215.69098628194743L924.0000000000001,214.5728912800726L930,215.58709852504165L936,215.9008668943776L942,216.62543359845495L948,216.19094224588568L954,215.46618271612223L960,215.6104900852817L965.9999999999999,216.89657026236532L972.0000000000001,216.0033794060657L978,214.56207547705526L984,215.78152645342132L990,216.02868700424062L996,216.45796919152724L1002,216.61444268436773L1007.9999999999999,217.2773476904532L1014.0000000000001,215.97524270322185L1020,216.78795302969925L1026,216.8373623245709L1032,215.51515422469453L1038,217.80329588931906L1044,216.6315896255998L1050,216.56482183853964L1056,215.242790364275L1062,216.14693866272657L1068,216.95071972326636L1074,218.15783621580294L1080,216.69524192878796L1086,216.2353757444982L1092,216.72964553315154L1098,216.5403023380778L1104,216.81851229589952L1110,215.82088119083437L1116,217.41321493490227L1122,217.0104946432299L1128,216.30200468412244L1134,216.86408163852298L1140,217.47615405438185L1146,215.97759327995502L1152,216.40534336611768L1158,217.52560984290454L1164,217.13115203225559L1170,217.78474871253562L1176,217.71271499360842L1182,216.80344133934352L1188,217.88138825908203L1194,217.49040563500193L1200,218.95660570378237L1206,216.65791364119917L1212,217.5688084928524L1218,218.35042004808483L1224,218.26554603049004L1230,217.02905579128304L1236,217.0337140364382L1242,217.78343732872534L1248,218.78629622885924L1254,217.58171987286138L1260,218.0762028194459L1266,217.40392989881693L1272,217.9172093721213L1278,218.04628849613425L1284,219.66172396255513L1290,218.24746599017018L1296,217.86592950457666L1302,219.32365978911537L1308,219.34649168335585L1314,219.03205276352466" style="fill: none;" fill="none"></path></g><g><path stroke="rgb(255, 112, 67)" stroke-width="2px" d="M120,42.434237909317005L125.99999999999999,88.35341384424919L132,112.03293933619693L138,124.07733909019865L144,137.6465780002925L150,151.8237147538889L156,151.35743996588386L162,155.10722261665254L168,160.03418858613932L174,165.80382319281694L180,163.4898670529348L186.00000000000003,168.93755144958797L192,174.71675811300608L198.00000000000003,163.20288801578698L204,172.85097877785947L210,177.48626244045593L216,176.89450874676297L222,181.9386576750666L228,183.80542656508467L234,185.82460385612146L240,185.41265218142001L246,185.4960270122558L251.99999999999997,192.67317599000194L258,191.24540589393527L264,196.51294771366264L270,189.63568741327518L276,193.45623212296593L282,192.9611240319083L288,188.1419814047307L294,192.52308305543139L300,192.24023222909716L306,198.72748046829457L312,196.7970241571392L318,197.61739635219263L324,200.36512119601073L330,197.86367770847613L336,199.06175623469653L342,201.2603005236864L348,201.6331322195765L354,201.82652292588227L360,200.02630711711743L366,206.4925262882562L372.00000000000006,200.50196309143467L378,199.71824721659198L384,203.65821072846026L390,200.14357376936485L396.00000000000006,198.694333570655L402,205.30141246257048L408,198.69981408203918L413.99999999999994,207.81407101158234L420,205.95614548838208L426,202.66194161065508L432,198.2469845643797L437.99999999999994,187.3215941575369L444,201.5194216029654L450,196.2384210650983L456,197.42224369866526L462.00000000000006,202.98306762621812L468,203.91594767229188L474,203.24315839727936L480,206.34858318409684L486.00000000000006,201.638267847605L492,210.92212778199985L498,204.78743825602578L503.99999999999994,202.53124228961133L510,206.70885160314683L516,209.8276417954351L522,202.72761285564349L528,209.22505679817098L534,209.06594603023964L540,208.41656724421298L546,208.32198709212685L552,203.2855294097834L558,206.5813486723233L564,206.78918751995826L570,200.2787406219937L576,205.05557065603836L582,203.67724328044613L588,206.8774516592509L594,209.94504075102228L600,205.65261629277208L606,210.21717885300882L612,211.64701932763433L618,201.24375888399396L624,210.47376550653433L630,208.2413337554131L636,212.06724029625462L642,203.81638539981452L648,204.36817069279283L654,209.85578961972482L660,205.09202150284125L666,209.2046594500385L672,208.90668814938041L678,212.63734206969036L684,208.82528339950105L690,208.76799434636732L696,206.39843703085447L702,203.85364597706337L708,208.07840834256444L714,209.9617462200516L720,206.40225774751173L726,213.33872682800998L732,205.35697011239844L737.9999999999999,212.2506322490372L744.0000000000001,209.37302970368955L750,211.67760127978553L756,211.48743475824543L762,210.09865452757177L768,213.3036086312611L774,207.72914528602064L780,212.80085690842037L785.9999999999999,206.19645723596082L792.0000000000001,208.2393570384434L798,211.09431290123652L804,213.52943916075714L810,210.5552436528957L816,208.33782726162377L822,211.36452805967932L827.9999999999999,210.44070729603263L834.0000000000001,213.87299078925665L840,199.4342201419516L846,210.991509076502L852,206.49870668657803L858,208.43420970254093L864,210.14412187754147L870,213.08977023804528L875.9999999999999,206.55012651601632L882.0000000000001,213.91528898926722L888,208.07041549287777L894,211.89268391068026L900,210.3368676970366L906,214.55885535433882L912,214.53171541799696L917.9999999999999,216.93488752078585L924.0000000000001,210.85410897231665L930,213.29238255484637L936,214.0330321595306L942,203.47133017996296L948,204.66108977619754L954,207.9197809736652L960,213.00269433961043L965.9999999999999,211.4385947270225L972.0000000000001,210.01294813507144L978,209.8979789108193L984,212.96552169615654L990,213.01767315300012L996,210.57960656093925L1002,212.20819479482307L1007.9999999999999,199.85812618143385L1014.0000000000001,210.80571152268774L1020,208.1348695046244L1026,214.26998119741654L1032,210.61406242132009L1038,210.3064185083055L1044,209.1775280023458L1050,212.2170741395918L1056,212.90006975755114L1062,205.2483501965806L1068,211.7523247121841L1074,208.13073491155933L1080,213.744183451277L1086,210.6849339576663L1092,213.98675077245016L1098,215.87679538605548L1104,209.22871046095094L1110,213.01684088044684L1116,215.04690679788587L1122,213.2000458098078L1128,211.3235238353073L1134,214.9620659520143L1140,215.7717785275875L1146,214.03732740160865L1152,209.2505585514445L1158,208.45288971562908L1164,211.58691999083157L1170,211.8236734574256L1176,211.45713098642565L1182,213.16286485229682L1188,211.91497504370832L1194,214.47144794412685L1200,208.86648355735807L1206,213.20268665843253L1212,214.1066094653415L1218,211.0459223425924L1224,214.11780128309104L1230,215.3448575320653L1236,215.43089687358642L1242,207.6722989497777L1248,213.9522035348979L1254,215.05484907336572L1260,213.71197334062595L1266,209.548279381859L1272,216.80252866110325L1278,212.29935457473297L1284,213.92719969564055L1290,210.4591459408188L1296,214.92178245601914L1302,209.46714148181997L1308,211.38977852941605L1314,210.12356840985075" style="fill: none;" fill="none"></path></g><g><path stroke="rgb(238, 51, 119)" stroke-width="2px" d="M120,-13.432190108299267L125.99999999999999,19.34855120200774L132,27.639614183284266L138,32.90503608938815L144,37.98278480426336L150,40.441781133936104L156,44.743447293853876L162,48.51254511448184L168,55.18755720902186L174,55.74607016509452L180,57.053290358781624L186.00000000000003,60.323664911978256L192,57.97497703128562L198.00000000000003,60.34038802211768L204,60.18213674301364L210,60.93102953940769L216,61.511816881461755L222,63.734793750829056L228,58.748714034611965L234,63.68036739837265L240,63.1980686362287L246,66.36027670357652L251.99999999999997,69.58078464196694L258,71.34468022605063L264,68.38880232389334L270,61.07914776996654L276,67.59799670795132L282,73.21023603494518L288,73.26789133161589L294,64.77646693060586L300,70.82209651945891L306,66.58120810212114L312,66.86050945258523L318,68.42200890443382L324,71.6642154758087L330,71.15360854694535L336,75.38777246965697L342,73.58340618390326L348,70.29857387462471L354,73.74338404925811L360,71.89022801209546L366,72.40085871911452L372.00000000000006,71.08035935295158L378,75.20047118606556L384,68.67310674175184L390,74.51033822178567L396.00000000000006,73.26180053835151L402,74.07428032598824L408,75.91990406070505L413.99999999999994,73.55700929323814L420,71.61533307126047L426,74.43884513853033L432,76.65851629165616L437.99999999999994,75.0727249519565L444,79.20551815906146L450,75.6381546199463L456,72.25266896728306L462.00000000000006,73.70364249155108L468,71.08345445559121L474,77.96500211287122L480,73.48516515507612L486.00000000000006,72.82963194115422L492,76.55813093563262L498,72.84098293883449L503.99999999999994,74.96128596555644L510,73.15212406727517L516,76.74412184050311L522,76.18221976337867L528,76.07997700216379L534,75.77509042908707L540,75.79130710138503L546,78.28597214658981L552,73.0039269897294L558,77.56981450734071L564,80.01911059484797L570,75.30225069313036L576,75.20577583690681L582,76.39615672280434L588,74.37071079938113L594,76.79636765952023L600,74.65876941887774L606,72.90290545638948L612,77.18335289526283L618,69.87741928975021L624,74.34269217368609L630,76.38416121778192L636,77.9209609235246L642,74.34693788674758L648,75.1183996882416L654,74.92287282150932L660,77.43587361373937L666,77.54639851988526L672,73.30735624636554L678,79.57365100078681L684,79.01342375730746L690,74.15721116360226L696,77.84914856434398L702,78.09567885912901L708,77.05501963414861L714,75.50663124749389L720,75.54168377280763L726,74.65948273994218L732,77.49779523451167L737.9999999999999,73.22919874224169L744.0000000000001,74.24664466338749L750,74.78336969904137L756,71.78500347173667L762,72.04726558643046L768,75.36102428528977L774,72.55532882582423L780,73.93764167811361L785.9999999999999,73.5157309439038L792.0000000000001,74.98548955776619L798,71.73578499052377L804,75.17815208871843L810,72.49847248743288L816,77.49978406054083L822,72.07453049247664L827.9999999999999,75.06315935143681L834.0000000000001,77.44085464691318L840,73.61516228674924L846,76.47888083270061L852,76.81108346411185L858,72.69612592070615L864,72.2398472110765L870,73.18117306487619L875.9999999999999,79.8579206526262L882.0000000000001,77.19513038946383L888,71.84310616796375L894,72.41346252939917L900,74.31970918424997L906,74.4746692802396L912,72.21809722764351L917.9999999999999,73.36667586325103L924.0000000000001,77.14484000046707L930,75.80784271656984L936,74.6209085897147L942,77.00787277328175L948,71.63629610325825L954,75.92358910699835L960,73.2527682953704L965.9999999999999,76.05477038285784L972.0000000000001,79.42201027823597L978,74.11060283202289L984,72.34980319233267L990,78.12267042501423L996,75.0154472047276L1002,78.74313654029527L1007.9999999999999,78.37319971030786L1014.0000000000001,77.27723831564884L1020,74.94162028660134L1026,76.06350933809813L1032,73.85991901590228L1038,77.63604350195533L1044,74.17903570606228L1050,75.7052079765333L1056,77.4530752723366L1062,78.81553297788793L1068,73.22988589066586L1074,76.31357506661266L1080,69.55630545983587L1086,73.90408063780723L1092,80.10260392385447L1098,80.19326921259602L1104,77.42938609756624L1110,80.04797826659166L1116,76.7547016867253L1122,74.16184405304483L1128,79.93446949564532L1134,75.9363343177277L1140,77.624721839794L1146,78.836145620634L1152,75.98238638000055L1158,71.55860870786125L1164,79.90918314001101L1170,76.00581630641364L1176,80.64882354737057L1182,77.88679006676688L1188,76.63767690392393L1194,58.17251822228411L1200,66.51783811026962L1206,68.94664183254974L1212,73.39631181403325L1218,77.10368993680078L1224,78.59157823555478L1230,78.5648398360907L1236,74.90587822373146L1242,75.48403158126632L1248,74.78002190693707L1254,79.23830451409304L1260,82.74669048761854L1266,72.62025854987661L1272,74.30559875800662L1278,74.51050117689988L1284,78.1163173520348L1290,81.44211601153097L1296,74.237323258591L1302,82.09573755494847L1308,78.39383214330059L1314,77.97567575497902" style="fill: none;" fill="none"></path></g><g><path stroke="rgb(0, 153, 136)" stroke-width="2px" d="M120,20.036026668548573L125.99999999999999,29.062502080284048L132,52.06827001283358L138,54.92992934941634L144,61.86072270930981L150,64.71068030659018L156,68.41008323673185L162,68.45010035759992L168,88.1619218885291L174,64.25974127765784L180,69.30442319260533L186.00000000000003,64.49064469863413L192,76.86537515854769L198.00000000000003,73.70863630781224L204,84.02140694031891L210,74.92572966134009L216,57.75739182252562L222,81.65840587771277L228,78.48140744779522L234,77.83658132407919L240,90.64132651846177L246,82.81777884899861L251.99999999999997,98.57777622827399L258,78.4848347862283L264,36.018236075949176L270,90.96194670658906L276,97.18141760066658L282,67.95187136336006L288,97.85237927513191L294,84.14261573268357L300,76.07104409024362L306,64.69910752220488L312,80.89333415512624L318,75.71519694494327L324,66.08715288422712L330,89.08503470874706L336,93.06050300267759L342,79.85747837384957L348,69.38760615923889L354,92.20742865985733L360,95.07027772403711L366,89.3841755233056L372.00000000000006,87.0819584897551L378,90.2505914133514L384,90.35227506752324L390,80.30145414844668L396.00000000000006,87.06237054222385L402,106.62236693951252L408,79.62993105273L413.99999999999994,86.74079854646101L420,94.84421709897975L426,102.59442097458651L432,97.55260230433589L437.99999999999994,86.13853713979694L444,91.26649359618017L450,90.79058241544146L456,102.23852097710932L462.00000000000006,92.53408580813192L468,97.59668245457294L474,92.82785256231L480,71.83985696846082L486.00000000000006,69.83705775250445L492,98.9224045230942L498,81.11652402454735L503.99999999999994,83.12179877707501L510,96.14823683222818L516,106.5891991068579L522,104.1466059974843L528,93.01663970441587L534,94.68876167040304L540,92.80405124557637L546,85.68111974954593L552,106.62934230847839L558,91.66243122122592L564,89.711039636654L570,98.8059751993797L576,90.47237646690559L582,110.78309023134318L588,91.76560719118459L594,99.53443021919242L600,84.71935816600546L606,101.24328733649156L612,78.87546394979353L618,78.01096150937951L624,96.7397495631808L630,96.74667416275344L636,84.82228359658615L642,79.77954794273603L648,89.87061783422934L654,69.14771093586978L660,85.28971000786896L666,99.48618608756243L672,78.48375165918645L678,98.12208989118204L684,74.99393528145339L690,84.53658032409703L696,64.92770781912668L702,106.19391937773202L708,88.38728338846937L714,94.80617343363218L720,101.06633641858883L726,89.61870386254907L732,95.47392454412915L737.9999999999999,54.8676264873983L744.0000000000001,87.44805536247225L750,92.3669995777089L756,90.12918472193292L762,99.82833157337353L768,85.77279841145696L774,98.27028473711744L780,88.27229209708514L785.9999999999999,77.81282932104483L792.0000000000001,105.4063976761118L798,83.04213211912469L804,98.58931496407604L810,91.32095305314056L816,71.10975497048923L822,81.77841050825396L827.9999999999999,44.42811709860598L834.0000000000001,79.41090016347522L840,92.41262795834228L846,81.52472843225752L852,87.64550174944924L858,89.92622723051431L864,83.73617067766224L870,91.83832615893465L875.9999999999999,97.21739256103302L882.0000000000001,95.3283416176771L888,94.93653310815978L894,89.9471062664295L900,89.40087984023825L906,102.61131393363809L912,99.68838980488493L917.9999999999999,99.48503950658306L924.0000000000001,99.50715483287985L930,103.38246003589512L936,85.72017394362717L942,110.34536474484065L948,95.23909778279148L954,98.86943861168902L960,93.54444747754138L965.9999999999999,98.30302301759508L972.0000000000001,95.67650567588481L978,84.50590386198115L984,103.48526598984114L990,102.78985123993886L996,84.1643629606894L1002,92.58317243567052L1007.9999999999999,81.4428382108768L1014.0000000000001,79.5119597473207L1020,81.51480633694854L1026,87.29048230996352L1032,103.43783925167634L1038,82.37412202888584L1044,85.51019602799425L1050,111.20375236533596L1056,98.93052996065546L1062,69.72839883714914L1068,74.30587092171015L1074,88.20508811758691L1080,89.71659847832086L1086,95.7476250925427L1092,84.59765315987846L1098,105.79307319862932L1104,92.1349471283454L1110,104.91940172902196L1116,84.74761163542121L1122,93.9404863851338L1128,110.7647378139801L1134,83.54249634606799L1140,102.59520380384862L1146,90.1792591133393L1152,103.78235193478827L1158,74.84509943339606L1164,100.90337438736202L1170,97.01346533420457L1176,102.10600730640698L1182,100.31954770117937L1188,95.01840981560292L1194,85.58039591744853L1200,85.06354732754863L1206,67.12095341496047L1212,106.52111137286647L1218,93.79227161571549L1224,84.99458028405286L1230,96.69827815788915L1236,110.05347699410282L1242,95.22972855221394L1248,97.95032997787916L1254,94.85164261448278L1260,105.67205442977928L1266,88.52776460816739L1272,95.68646744759747L1278,78.69433092081641L1284,97.98494403144196L1290,96.37789543701064L1296,89.11424656624189L1302,69.75530003870392L1308,85.72484934642881L1314,109.96684580417548" style="fill: none;" fill="none"></path></g></g></g></g><g opacity="0.2"><g><g><g><path stroke="rgb(187, 187, 187)" stroke-width="2px" d="M120,-22.806027817726147L125.99999999999999,48.93840379714965L132,80.13294954299926L138,102.14733023643493L144,116.10300428867339L150,125.50299997329714L156,133.30837304592134L162,140.30679173469545L168,143.90395267009737L174,151.47025401592256L180,154.55901296138765L186.00000000000003,158.12789804935457L192,162.10621966123583L198.00000000000003,165.74233592748644L204,167.68306167125704L210,169.00464774370195L216,171.16870762109758L222,173.93041301965715L228,174.55823822021486L234,177.3655229330063L240,177.96579326391222L246,181.51235057115557L251.99999999999997,181.6993767142296L258,183.7874973535538L264,184.8079850792885L270,186.5919657468796L276,186.4821743488312L282,187.2179885029793L288,188.52310473918917L294,190.29139287471773L300,191.29924095869066L306,192.58576948642732L312,193.03627921342851L318,193.15306634902956L324,194.74117763042452L330,193.36130501031877L336,196.0663798570633L342,196.50093795061113L348,197.07229031324388L354,196.12830508947374L360,197.56560809612276L366,197.12274749279024L372.00000000000006,199.5534564971924L378,198.21302361488344L384,199.5098711371422L390,200.82725526094438L396.00000000000006,199.57726002931597L402,201.02007175683977L408,200.12561995983125L413.99999999999994,202.66989423036577L420,202.684381377697L426,203.07948846817018L432,203.19181455373766L437.99999999999994,203.2090954899788L444,203.87230492830278L450,202.93926955461504L456,205.12905932664873L462.00000000000006,205.01730777025224L468,204.14170278310777L474,204.29252232313158L480,206.52780128717424L486.00000000000006,205.43971062898638L492,205.36258853673937L498,204.83321059942247L503.99999999999994,205.8299285888672L510,207.259627532959L516,207.45056272745134L522,207.95828880071642L528,207.59704513549806L534,206.03987957239153L540,208.67821891307833L546,207.75684310197832L552,207.93246878385546L558,209.58677483797075L564,207.8269919872284L570,208.58418763875963L576,208.7847659111023L582,209.26476813554765L588,209.54030556678774L594,208.9294571399689L600,210.15134550333025L606,209.88803089857103L612,211.24005575180055L618,211.49101234674455L624,208.78574599027635L630,210.0470402956009L636,211.9048085331917L642,210.4122155427933L648,211.10424156188967L654,211.4395300269127L660,211.68843634128572L666,209.93115438222887L672,211.70443303585054L678,211.5529037833214L684,212.06779457330705L690,211.3367456316948L696,210.6437395334244L702,212.31986643075945L708,212.90597630739214L714,210.87269504070284L720,214.379846405983L726,212.8375848054886L732,213.04090054035188L737.9999999999999,212.6627026319504L744.0000000000001,212.04343904256822L750,213.76727439165117L756,212.66124941110613L762,212.97087557315828L768,214.29795910120012L774,214.56826944351198L780,213.83496744632723L785.9999999999999,213.01226420402529L792.0000000000001,213.56727064847948L798,214.12077881097795L804,214.61673266887667L810,214.672191631794L816,214.37000055313112L822,214.4688758969307L827.9999999999999,214.0509228229523L834.0000000000001,214.2418354868889L840,214.32537878751756L846,214.26549257040026L852,214.6717973470688L858,213.26936037540437L864,214.43808789253237L870,215.37976373434068L875.9999999999999,213.8666454076767L882.0000000000001,215.59713853597643L888,215.17796881198885L894,214.08669008016588L900,215.00780678987505L906,214.20292521715166L912,215.7103095173836L917.9999999999999,215.69112474918367L924.0000000000001,214.55239666700365L930,215.6056888818741L936,215.90661824941637L942,216.63871486186983L948,216.18297804594042L954,215.45289791822435L960,215.61313523054125L965.9999999999999,216.92014403343202L972.0000000000001,215.98700727224352L978,214.5356564640999L984,215.80387891530992L990,216.0332174420357L996,216.46583790779115L1002,216.617310833931L1007.9999999999999,217.2894986987114L1014.0000000000001,215.95137519836427L1020,216.80284996032717L1026,216.83826799392702L1032,215.49091823101045L1038,217.84523738622667L1044,216.61011232137682L1050,216.56359798908235L1056,215.2185576081276L1062,216.16351164579393L1068,216.9654529809952L1074,218.17996258735658L1080,216.66843266487123L1086,216.22694642543794L1092,216.7387054681778L1098,216.53683168888094L1104,216.82361186742784L1110,215.8025946736336L1116,217.4424023151398L1122,217.0031128048897L1128,216.2890181064606L1134,216.87438447475435L1140,217.48737330436708L1146,215.95012475252153L1152,216.4131839990616L1158,217.546144258976L1164,217.12392164468767L1170,217.79672909975054L1176,217.71139461994173L1182,216.7867744088173L1188,217.9011469602585L1194,217.48323894739153L1200,218.9834810614586L1206,216.61577875614168L1212,217.58550513982775L1218,218.36474694013597L1224,218.26399029493334L1230,217.0063910007477L1236,217.03379942178728L1242,217.79717971086504L1248,218.80467857122423L1254,217.55964006185533L1260,218.085266661644L1266,217.39160717725755L1272,217.92661775350572L1278,218.04865450859072L1284,219.69133479595186L1290,218.22154272794725L1296,217.85893596410753L1302,219.35037989616396L1308,219.3469101905823L1314,219.0262891173363" style="fill: none;" fill="none"></path></g><g><path stroke="rgb(255, 112, 67)" stroke-width="2px" d="M120,42.434237909317005L125.99999999999999,89.17995901107787L132,112.46684296131133L138,124.29811091423036L144,137.8953012943268L150,152.08358080387117L156,151.34889317750932L162,155.17595590353014L168,160.1244995713234L174,165.90958024263384L180,163.44745237827303L186.00000000000003,169.03740717172624L192,174.8226906180382L198.00000000000003,162.9918394804001L204,173.02782769203188L210,177.57122690677645L216,176.88366193771364L222,182.03111661672594L228,183.83964432477953L234,185.86161525249483L240,185.4051011323929L246,185.49755526781084L251.99999999999997,192.80473269224169L258,191.21923495531084L264,196.60950143337251L270,189.5096276521683L276,193.52626247406008L282,192.95204873085024L288,188.05364681482317L294,192.60338838100435L300,192.2350475907326L306,198.84639133214952L312,196.76163901090624L318,197.6324337244034L324,200.4154868245125L330,197.81782640218736L336,199.08371694087984L342,201.30059970617296L348,201.63996620178224L354,201.83006776571276L360,199.99330927133562L366,206.61105169057848L372.00000000000006,200.39215643405916L378,199.70388175249101L384,203.73043001890184L390,200.07915068864824L396.00000000000006,198.66776908636095L402,205.42251981496813L408,198.5788071870804L413.99999999999994,207.98113478422167L420,205.92208982706072L426,202.60155905485155L432,198.16605867147447L437.99999999999994,187.12133241891863L444,201.7796669125557L450,196.14162064790727L456,197.44394309520723L462.00000000000006,203.08499718904497L468,203.93304730653765L474,203.23082621097566L480,206.4055054306984L486.00000000000006,201.55192805528642L492,211.09230036735536L498,204.67498977184297L503.99999999999994,202.4898863554001L510,206.78542692661287L516,209.88480902910234L522,202.59746975898744L528,209.34415454864504L534,209.06302953958513L540,208.40466417074205L546,208.32025344371797L552,203.1932114481926L558,206.6417608380318L564,206.7929971933365L570,200.15940452814104L576,205.14312965869905L582,203.65197862386705L588,206.93611128330232L594,210.00126947164537L600,205.57393641471864L606,210.30084700584413L612,211.67322821617128L618,201.05306775569917L624,210.64295096397402L630,208.20041341781618L636,212.13736892938616L642,203.66514773368837L648,204.37828488349916L654,209.95637733936312L660,205.00470192432405L666,209.28004385232927L672,208.90122635364534L678,212.70572472810747L684,208.7554085969925L690,208.76694424152376L696,206.3550031900406L702,203.8070001125336L708,208.15584797859194L714,209.9962676882744L720,206.33701254129411L726,213.46587188243868L732,205.21066499948503L737.9999999999999,212.37699265480043L744.0000000000001,209.3202834248543L750,211.7198439359665L756,211.48394901752474L762,210.07319827079775L768,213.36235524415972L774,207.626965713501L780,212.89382107257845L785.9999999999999,206.07539899349214L792.0000000000001,208.27680326700212L798,211.1466440677643L804,213.57407487630846L810,210.50072683095934L816,208.29718215465547L822,211.4200073003769L827.9999999999999,210.42377371788027L834.0000000000001,213.93590433597566L840,199.16955835819246L846,211.20335347652437L852,206.41635389328005L858,208.46968735456468L864,210.17546446323396L870,213.14376379251482L875.9999999999999,206.43025524616243L882.0000000000001,214.05029196739198L888,207.96327931880953L894,211.9627458572388L900,210.3083496809006L906,214.6362441301346L912,214.53121794462206L917.9999999999999,216.97893751859667L924.0000000000001,210.74264867305757L930,213.33707596063616L936,214.04660822153093L942,203.27773482799532L948,204.68289799690248L954,207.97951258420946L960,213.09586383104326L965.9999999999999,211.40992487668993L972.0000000000001,209.98681612014772L978,209.89587153196337L984,213.02174956798555L990,213.01862908601763L996,210.53491694927217L1002,212.23804671764375L1007.9999999999999,199.63175017833711L1014.0000000000001,211.0063800930977L1020,208.08591313362123L1026,214.38243741989137L1032,210.54704965353014L1038,210.30077941417696L1044,209.15683550834657L1050,212.27278883457186L1056,212.91258902549745L1062,205.10809464454653L1068,211.8715421676636L1074,208.06435139179231L1080,213.84707762002947L1086,210.62885810136797L1092,214.04727287292482L1098,215.91143978834154L1104,209.10685147047045L1110,213.08627707958223L1116,215.08411778211595L1122,213.16619296073915L1128,211.28912730216982L1134,215.0287602066994L1140,215.7866205096245L1146,214.00553501844408L1152,209.1628173708916L1158,208.43826849460604L1164,211.64436657428743L1170,211.8280131340027L1176,211.45041228532793L1182,213.19413084983827L1188,211.89210129976274L1194,214.51830793619158L1200,208.7637449026108L1206,213.2821689963341L1212,214.12317831516268L1218,210.98982013463976L1224,214.17410863637926L1230,215.36734939813616L1236,215.43247396945955L1242,207.53008432388307L1248,214.0673138022423L1254,215.07506049871446L1260,213.68735851049425L1266,209.47195912599565L1272,216.93549860715868L1278,212.21681166887285L1284,213.9570379972458L1290,210.3955767273903L1296,215.0035823106766L1302,209.36715824604036L1308,211.42502034902574L1314,210.10035885572435" style="fill: none;" fill="none"></path></g><g><path stroke="rgb(238, 51, 119)" stroke-width="2px" d="M120,-13.432190108299267L125.99999999999999,19.93860454559325L132,27.791539621353138L138,33.00155038833617L144,38.07585961818694L150,40.48685438632964L156,44.822296571731556L162,48.581632447242725L168,55.30990977287291L174,55.75630767345427L180,57.077251625061024L186.00000000000003,60.383610677719105L192,57.93192572593688L198.00000000000003,60.383745861053455L204,60.179236006736744L210,60.94475669860839L216,61.522462677955616L222,63.77554078102111L228,58.65731949806212L234,63.770764303207386L240,63.18922812938689L246,66.41823978424071L251.99999999999997,69.63981635570525L258,71.37701232433318L264,68.33462126255034L270,60.94516224861144L276,67.71748681068419L282,73.31310803890227L288,73.26894814968108L294,64.6208196401596L300,70.93291254043578L306,66.50347287654876L312,66.86562902927398L318,68.45063109397887L324,71.7236449241638L330,71.1442491531372L336,75.46538443565368L342,73.55033226013182L348,70.2383630990982L354,73.80652720928191L360,71.85625977516173L366,72.41021854877471L372.00000000000006,71.05615468025206L378,75.2759925842285L384,68.55346055030822L390,74.617334318161L396.00000000000006,73.23891491889952L402,74.08917303085326L408,75.95373423099517L413.99999999999994,73.51369757652282L420,71.57974226474761L426,74.49059994220733L432,76.69920272827147L437.99999999999994,75.0436574935913L444,79.28127200603484L450,75.57276506423949L456,72.19061322212218L462.00000000000006,73.73023874759673L468,71.03542656898497L474,78.091140460968L480,73.40305001735686L486.00000000000006,72.81761605739592L492,76.62647409439086L498,72.77284784317015L503.99999999999994,75.00015099048613L510,73.1189622402191L516,76.80996294021605L522,76.17192013263701L528,76.0781028985977L534,75.76950187683104L540,75.79160435199736L546,78.33169920444487L552,72.90710742473601L558,77.65350694656371L564,80.06400604248046L570,75.21579093933104L576,75.20400745868682L582,76.4179763317108L588,74.33358449935912L594,76.84082980155944L600,74.61958737373351L606,72.87072057723998L612,77.26181323528289L618,69.74350197315215L624,74.42454035282134L630,76.42158122062682L636,77.94913036823272L642,74.28142626285552L648,75.13254053592681L654,74.91928882598876L660,77.48193676471709L666,77.54842443466185L672,73.22965486049651L678,79.68851180076598L684,79.00315482616423L690,74.0681970834732L696,77.91682155132293L702,78.1001977443695L708,77.03594441413878L714,75.4782493829727L720,75.54232628345488L726,74.64331204891204L732,77.54982132911681L737.9999999999999,73.15095562934874L744.0000000000001,74.26529438495635L750,74.79320783615111L756,71.73004360198973L762,72.05207283496856L768,75.42176527976989L774,72.50390059947966L780,73.96297938823699L785.9999999999999,73.50799734592437L792.0000000000001,75.01243014335631L798,71.67621810436248L804,75.2412504673004L810,72.4493541240692L816,77.59145779609679L822,71.9750859260559L827.9999999999999,75.11794073581694L834.0000000000001,77.48443765640258L840,73.54503757953643L846,76.53137261867522L852,76.81717271804808L858,72.62069900035857L864,72.23148365020751L870,73.19842751026152L875.9999999999999,79.98030502796172L882.0000000000001,77.14632160663604L888,71.7450038909912L894,72.42391712665557L900,74.35465056896209L906,74.47750968933104L912,72.17673439979552L917.9999999999999,73.3877292394638L924.0000000000001,77.21409351825713L930,75.78333563804625L936,74.59915215969085L942,77.05162568092345L948,71.53783543109893L954,76.00217492580413L960,73.20381231307982L965.9999999999999,76.10613090991973L972.0000000000001,79.48373157978057L978,74.01324505805968L984,72.31752784252166L990,78.2284867286682L996,74.95849199295043L1002,78.8114648580551L1007.9999999999999,78.36641879081725L1014.0000000000001,77.25714941024779L1020,74.89880855083464L1026,76.08407349586486L1032,73.81952733993529L1038,77.70525963306426L1044,74.11566896438597L1050,75.73318262100219L1056,77.48511357307433L1062,78.84050674438475L1068,73.12750132083892L1074,76.37009890079497L1080,69.43244512081145L1086,73.98377509117125L1092,80.21622247695922L1098,80.194931101799L1104,77.37872428894042L1110,80.09597690105437L1116,76.69433612823485L1122,74.11431713104247L1128,80.04028136730193L1134,75.86304874420165L1140,77.65566987991332L1146,78.85835094451903L1152,75.93007714748381L1158,71.47752113342284L1164,80.0622486591339L1170,75.93426783084868L1176,80.73392958641051L1182,77.83616216182708L1188,76.61478073596953L1194,57.834052991867054L1200,66.67080731391906L1206,68.99116165637969L1212,73.47787399291991L1218,77.17164595127105L1224,78.61885113716124L1230,78.56434972286223L1236,74.83880968093871L1242,75.49462909698485L1248,74.76711745262145L1254,79.32002456188201L1260,82.81099898815154L1266,72.43464167118071L1272,74.33649094104766L1278,74.51425702571868L1284,78.18241174221038L1290,81.5030776977539L1296,74.10525984764098L1302,82.23978180885314L1308,78.3259764432907L1314,77.96801097393035" style="fill: none;" fill="none"></path></g><g><path stroke="rgb(0, 153, 136)" stroke-width="2px" d="M120,20.036026668548573L125.99999999999999,29.2249786376953L132,52.489827704429615L138,54.98238308429717L144,61.98776371479033L150,64.76291985511779L156,68.47789306640624L162,68.4508338689804L168,88.52323837280272L174,63.82161576747893L180,69.39689190387725L186.00000000000003,64.4024084329605L192,77.09220321178435L198.00000000000003,73.65077347755431L204,84.21043939590453L210,74.75900645256041L216,57.44269723892211L222,82.09651000499724L228,78.42317326068877L234,77.82476170063018L240,90.8760367155075L246,82.67437369823455L251.99999999999997,98.86665601730346L258,78.11653239727019L264,35.23982591629027L270,91.96906156539916L276,97.2954201221466L282,67.41609556674956L288,98.40045375823973L294,83.89131660461425L300,75.92309267520903L306,64.4906606197357L312,81.19017333984374L318,75.62028200626372L324,65.91067142486571L330,89.50658447742461L336,93.13337309360503L342,79.61546773910521L348,69.19569404125212L354,92.62571461200713L360,95.12275357246398L366,89.27994961738585L372.00000000000006,87.03975899219512L378,90.30867226123809L384,90.35413892269133L390,80.11722321510314L396.00000000000006,87.18629772663115L402,106.98090047836303L408,79.13516135215758L413.99999999999994,86.87114031314849L420,94.99275226593016L426,102.7364817380905L432,97.46018607616423L437.99999999999994,85.92931802272795L444,91.36048872470855L450,90.78185899257659L456,102.44836099147795L462.00000000000006,92.35620410442351L468,97.68947954177855L474,92.74044020175933L480,71.45514829158782L486.00000000000006,69.80034656524657L492,99.45553715229033L498,80.79014332294463L503.99999999999994,83.1585553407669L510,96.38701064586638L516,106.78058130741118L522,104.10183341503142L528,92.81262810230254L534,94.71941156387328L540,92.7695046186447L546,85.55055685043334L552,107.01332194805144L558,91.38808865547179L564,89.67527074813842L570,98.97268481254576L576,90.31962211132048L582,111.15538437366484L588,91.41701788902282L594,99.67683227062224L600,84.44779880046843L606,101.54616994857787L612,78.46546311378478L618,77.99511523246764L624,97.08304710388182L630,96.74680109024047L636,84.60371024608611L642,79.68711490631102L648,90.05558652877806L654,68.76786131858825L660,85.58559186458587L666,99.74640662670134L672,78.09877831935881L678,98.48205943107604L684,74.56999762058257L690,84.71149642467498L696,64.56827838420867L702,106.95032651424407L708,88.060888838768L714,94.92383129596709L720,101.18108482360839L726,89.40886945724486L732,95.58125038146972L737.9999999999999,54.12331552505492L744.0000000000001,88.04525263309478L750,92.45716352462767L756,90.08816571235656L762,100.00611634254454L768,85.51516134738921L774,98.49936289787291L780,88.08902950286864L785.9999999999999,77.62110800743102L792.0000000000001,105.91218609809874L798,82.63219649791716L804,98.87429387569426L810,91.1877244234085L816,70.73928494453429L822,81.97396631240844L827.9999999999999,43.74348850250243L834.0000000000001,80.05213243961333L840,92.65094883441924L846,81.3251538991928L852,87.75769515037535L858,89.96803278923034L864,83.62270731925963L870,91.98683817386626L875.9999999999999,97.31599051952361L882.0000000000001,95.29371542930602L888,94.92935128211974L894,89.85565037727355L900,89.39086754322051L906,102.85346038341521L912,99.63481278419493L917.9999999999999,99.48131210803984L924.0000000000001,99.50756020545958L930,103.45349414348601L936,85.39642531871795L942,110.79674298763274L948,94.96220083236693L954,98.93598253726958L960,93.44684071540831L965.9999999999999,98.39024741649627L972.0000000000001,95.6283617734909L978,84.30114741325377L984,103.83315653800963L990,102.77710433006285L996,83.8229588985443L1002,92.73748869895934L1007.9999999999999,81.23863656520842L1014.0000000000001,79.47656686305999L1020,81.55151839256285L1026,87.39635009765624L1032,103.73381931781768L1038,81.9880253791809L1044,85.56768007278441L1050,111.67471368312835L1056,98.70556254386901L1062,69.19312555789946L1068,74.38977570533751L1074,88.45985991954802L1080,89.74430437088012L1086,95.85817344188689L1092,84.3932748556137L1098,106.18158395290374L1104,91.88459451198577L1110,105.15374000072478L1116,84.37786395549773L1122,94.10899121761321L1128,111.07312531471251L1134,83.04351432323455L1140,102.94443876743316L1146,89.95167560577391L1152,104.03169579505919L1158,74.31468136310576L1164,101.3810209751129L1170,96.94216353893279L1176,102.19935328960418L1182,100.28680200576781L1188,94.9212402820587L1194,85.40739769935607L1200,85.05407352447509L1206,66.79206676483153L1212,107.24331386089324L1218,93.5589527606964L1224,84.83331913948058L1230,96.91280622482299L1236,110.29827697277068L1242,94.95801014900206L1248,98.00019843578337L1254,94.7948438644409L1260,105.87039191722869L1266,88.2135108232498L1272,95.81768603324889L1278,78.38286609649657L1284,98.33853979110717L1290,96.34843833446502L1296,88.98110432624816L1302,69.40045173168181L1308,86.01757020950316L1314,110.41120011806487" style="fill: none;" fill="none"></path></g></g></g></g></g></g><g transform="translate(58, 378)" clip-path="url(#clip_1)"><clipPath id="clip_1"><rect width="1440" height="22"></rect></clipPath><g><g><line x1="0" y1="0" x2="0" y2="5" style="visibility: inherit;" fill="rgb(0, 0, 0)" stroke="rgb(204, 204, 204)" stroke-width="1px"></line><line x1="120" y1="0" x2="120" y2="5" style="visibility: inherit;" fill="rgb(0, 0, 0)" stroke="rgb(204, 204, 204)" stroke-width="1px"></line><line x1="240" y1="0" x2="240" y2="5" style="visibility: inherit;" fill="rgb(0, 0, 0)" stroke="rgb(204, 204, 204)" stroke-width="1px"></line><line x1="360" y1="0" x2="360" y2="5" style="visibility: inherit;" fill="rgb(0, 0, 0)" stroke="rgb(204, 204, 204)" stroke-width="1px"></line><line x1="480" y1="0" x2="480" y2="5" style="visibility: inherit;" fill="rgb(0, 0, 0)" stroke="rgb(204, 204, 204)" stroke-width="1px"></line><line x1="600" y1="0" x2="600" y2="5" style="visibility: inherit;" fill="rgb(0, 0, 0)" stroke="rgb(204, 204, 204)" stroke-width="1px"></line><line x1="720" y1="0" x2="720" y2="5" style="visibility: inherit;" fill="rgb(0, 0, 0)" stroke="rgb(204, 204, 204)" stroke-width="1px"></line><line x1="840" y1="0" x2="840" y2="5" style="visibility: inherit;" fill="rgb(0, 0, 0)" stroke="rgb(204, 204, 204)" stroke-width="1px"></line><line x1="960" y1="0" x2="960" y2="5" style="visibility: inherit;" fill="rgb(0, 0, 0)" stroke="rgb(204, 204, 204)" stroke-width="1px"></line><line x1="1080" y1="0" x2="1080" y2="5" style="visibility: inherit;" fill="rgb(0, 0, 0)" stroke="rgb(204, 204, 204)" stroke-width="1px"></line><line x1="1200" y1="0" x2="1200" y2="5" style="visibility: inherit;" fill="rgb(0, 0, 0)" stroke="rgb(204, 204, 204)" stroke-width="1px"></line><line x1="1320" y1="0" x2="1320" y2="5" style="visibility: inherit;" fill="rgb(0, 0, 0)" stroke="rgb(204, 204, 204)" stroke-width="1px"></line><line x1="1440" y1="0" x2="1440" y2="5" style="visibility: inherit;" fill="rgb(0, 0, 0)" stroke="rgb(204, 204, 204)" stroke-width="1px"></line></g><g transform="translate(0, 8)"><text x="0" y="0" dx="0em" dy="0.95em" style="text-anchor: middle; visibility: hidden; font-family: &quot;Helvetica Neue&quot;, sans-serif; font-size: 12px; font-weight: 200;" fill="rgb(50, 49, 63)" stroke="none" stroke-width="1px">-20</text><text x="120" y="0" dx="0em" dy="0.95em" style="text-anchor: middle; visibility: inherit; font-family: &quot;Helvetica Neue&quot;, sans-serif; font-size: 12px; font-weight: 200;" fill="rgb(50, 49, 63)" stroke="none" stroke-width="1px">0</text><text x="240" y="0" dx="0em" dy="0.95em" style="text-anchor: middle; visibility: inherit; font-family: &quot;Helvetica Neue&quot;, sans-serif; font-size: 12px; font-weight: 200;" fill="rgb(50, 49, 63)" stroke="none" stroke-width="1px">20</text><text x="360" y="0" dx="0em" dy="0.95em" style="text-anchor: middle; visibility: inherit; font-family: &quot;Helvetica Neue&quot;, sans-serif; font-size: 12px; font-weight: 200;" fill="rgb(50, 49, 63)" stroke="none" stroke-width="1px">40</text><text x="480" y="0" dx="0em" dy="0.95em" style="text-anchor: middle; visibility: inherit; font-family: &quot;Helvetica Neue&quot;, sans-serif; font-size: 12px; font-weight: 200;" fill="rgb(50, 49, 63)" stroke="none" stroke-width="1px">60</text><text x="600" y="0" dx="0em" dy="0.95em" style="text-anchor: middle; visibility: inherit; font-family: &quot;Helvetica Neue&quot;, sans-serif; font-size: 12px; font-weight: 200;" fill="rgb(50, 49, 63)" stroke="none" stroke-width="1px">80</text><text x="720" y="0" dx="0em" dy="0.95em" style="text-anchor: middle; visibility: inherit; font-family: &quot;Helvetica Neue&quot;, sans-serif; font-size: 12px; font-weight: 200;" fill="rgb(50, 49, 63)" stroke="none" stroke-width="1px">100</text><text x="840" y="0" dx="0em" dy="0.95em" style="text-anchor: middle; visibility: inherit; font-family: &quot;Helvetica Neue&quot;, sans-serif; font-size: 12px; font-weight: 200;" fill="rgb(50, 49, 63)" stroke="none" stroke-width="1px">120</text><text x="960" y="0" dx="0em" dy="0.95em" style="text-anchor: middle; visibility: inherit; font-family: &quot;Helvetica Neue&quot;, sans-serif; font-size: 12px; font-weight: 200;" fill="rgb(50, 49, 63)" stroke="none" stroke-width="1px">140</text><text x="1080" y="0" dx="0em" dy="0.95em" style="text-anchor: middle; visibility: inherit; font-family: &quot;Helvetica Neue&quot;, sans-serif; font-size: 12px; font-weight: 200;" fill="rgb(50, 49, 63)" stroke="none" stroke-width="1px">160</text><text x="1200" y="0" dx="0em" dy="0.95em" style="text-anchor: middle; visibility: inherit; font-family: &quot;Helvetica Neue&quot;, sans-serif; font-size: 12px; font-weight: 200;" fill="rgb(50, 49, 63)" stroke="none" stroke-width="1px">180</text><text x="1320" y="0" dx="0em" dy="0.95em" style="text-anchor: middle; visibility: inherit; font-family: &quot;Helvetica Neue&quot;, sans-serif; font-size: 12px; font-weight: 200;" fill="rgb(50, 49, 63)" stroke="none" stroke-width="1px">200</text><text x="1440" y="0" dx="0em" dy="0.95em" style="text-anchor: middle; visibility: hidden; font-family: &quot;Helvetica Neue&quot;, sans-serif; font-size: 12px; font-weight: 200;" fill="rgb(50, 49, 63)" stroke="none" stroke-width="1px">220</text></g><line x1="0" y1="0" x2="1440" y2="0" fill="rgb(0, 0, 0)" stroke="rgb(204, 204, 204)" stroke-width="1px"></line></g></g></g></g></svg>