<svg viewBox="0 0 1498 400" xmlns="http://www.w3.org/2000/svg"><g><g><g><g><g><line x1="58" y1="378" x2="53" y2="378" style="visibility: inherit;" fill="rgb(0, 0, 0)" stroke="rgb(204, 204, 204)" stroke-width="1px"></line><line x1="58" y1="352.79999999999995" x2="53" y2="352.79999999999995" style="visibility: inherit;" fill="rgb(0, 0, 0)" stroke="rgb(204, 204, 204)" stroke-width="1px"></line><line x1="58" y1="327.59999999999997" x2="53" y2="327.59999999999997" style="visibility: inherit;" fill="rgb(0, 0, 0)" stroke="rgb(204, 204, 204)" stroke-width="1px"></line><line x1="58" y1="302.4" x2="53" y2="302.4" style="visibility: inherit;" fill="rgb(0, 0, 0)" stroke="rgb(204, 204, 204)" stroke-width="1px"></line><line x1="58" y1="277.19999999999993" x2="53" y2="277.19999999999993" style="visibility: inherit;" fill="rgb(0, 0, 0)" stroke="rgb(204, 204, 204)" stroke-width="1px"></line><line x1="58" y1="251.9999999999999" x2="53" y2="251.9999999999999" style="visibility: inherit;" fill="rgb(0, 0, 0)" stroke="rgb(204, 204, 204)" stroke-width="1px"></line><line x1="58" y1="226.7999999999999" x2="53" y2="226.7999999999999" style="visibility: inherit;" fill="rgb(0, 0, 0)" stroke="rgb(204, 204, 204)" stroke-width="1px"></line><line x1="58" y1="201.60000000000014" x2="53" y2="201.60000000000014" style="visibility: inherit;" fill="rgb(0, 0, 0)" stroke="rgb(204, 204, 204)" stroke-width="1px"></line><line x1="58" y1="176.40000000000012" x2="53" y2="176.40000000000012" style="visibility: inherit;" fill="rgb(0, 0, 0)" stroke="rgb(204, 204, 204)" stroke-width="1px"></line><line x1="58" y1="151.2000000000001" x2="53" y2="151.2000000000001" style="visibility: inherit;" fill="rgb(0, 0, 0)" stroke="rgb(204, 204, 204)" stroke-width="1px"></line><line x1="58" y1="126.00000000000009" x2="53" y2="126.00000000000009" style="visibility: inherit;" fill="rgb(0, 0, 0)" stroke="rgb(204, 204, 204)" stroke-width="1px"></line><line x1="58" y1="100.80000000000007" x2="53" y2="100.80000000000007" style="visibility: inherit;" fill="rgb(0, 0, 0)" stroke="rgb(204, 204, 204)" stroke-width="1px"></line><line x1="58" y1="75.60000000000008" x2="53" y2="75.60000000000008" style="visibility: inherit;" fill="rgb(0, 0, 0)" stroke="rgb(204, 204, 204)" stroke-width="1px"></line><line x1="58" y1="50.400000000000034" x2="53" y2="50.400000000000034" style="visibility: inherit;" fill="rgb(0, 0, 0)" stroke="rgb(204, 204, 204)" stroke-width="1px"></line><line x1="58" y1="25.200000000000045" x2="53" y2="25.200000000000045" style="visibility: inherit;" fill="rgb(0, 0, 0)" stroke="rgb(204, 204, 204)" stroke-width="1px"></line><line x1="58" y1="0" x2="53" y2="0" style="visibility: inherit;" fill="rgb(0, 0, 0)" stroke="rgb(204, 204, 204)" stroke-width="1px"></line></g><g transform="translate(48, 0)"><text x="0" y="378" dx="0em" dy="0.3em" style="text-anchor: end; visibility: hidden; font-family: &quot;Helvetica Neue&quot;, sans-serif; font-size: 12px; font-weight: 200;" fill="rgb(50, 49, 63)" stroke="none" stroke-width="1px">1.24</text><text x="0" y="352.79999999999995" dx="0em" dy="0.3em" style="text-anchor: end; visibility: inherit; font-family: &quot;Helvetica Neue&quot;, sans-serif; font-size: 12px; font-weight: 200;" fill="rgb(50, 49, 63)" stroke="none" stroke-width="1px">1.26</text><text x="0" y="327.59999999999997" dx="0em" dy="0.3em" style="text-anchor: end; visibility: inherit; font-family: &quot;Helvetica Neue&quot;, sans-serif; font-size: 12px; font-weight: 200;" fill="rgb(50, 49, 63)" stroke="none" stroke-width="1px">1.28</text><text x="0" y="302.4" dx="0em" dy="0.3em" style="text-anchor: end; visibility: inherit; font-family: &quot;Helvetica Neue&quot;, sans-serif; font-size: 12px; font-weight: 200;" fill="rgb(50, 49, 63)" stroke="none" stroke-width="1px">1.3</text><text x="0" y="277.19999999999993" dx="0em" dy="0.3em" style="text-anchor: end; visibility: inherit; font-family: &quot;Helvetica Neue&quot;, sans-serif; font-size: 12px; font-weight: 200;" fill="rgb(50, 49, 63)" stroke="none" stroke-width="1px">1.32</text><text x="0" y="251.9999999999999" dx="0em" dy="0.3em" style="text-anchor: end; visibility: inherit; font-family: &quot;Helvetica Neue&quot;, sans-serif; font-size: 12px; font-weight: 200;" fill="rgb(50, 49, 63)" stroke="none" stroke-width="1px">1.34</text><text x="0" y="226.7999999999999" dx="0em" dy="0.3em" style="text-anchor: end; visibility: inherit; font-family: &quot;Helvetica Neue&quot;, sans-serif; font-size: 12px; font-weight: 200;" fill="rgb(50, 49, 63)" stroke="none" stroke-width="1px">1.36</text><text x="0" y="201.60000000000014" dx="0em" dy="0.3em" style="text-anchor: end; visibility: inherit; font-family: &quot;Helvetica Neue&quot;, sans-serif; font-size: 12px; font-weight: 200;" fill="rgb(50, 49, 63)" stroke="none" stroke-width="1px">1.38</text><text x="0" y="176.40000000000012" dx="0em" dy="0.3em" style="text-anchor: end; visibility: inherit; font-family: &quot;Helvetica Neue&quot;, sans-serif; font-size: 12px; font-weight: 200;" fill="rgb(50, 49, 63)" stroke="none" stroke-width="1px">1.4</text><text x="0" y="151.2000000000001" dx="0em" dy="0.3em" style="text-anchor: end; visibility: inherit; font-family: &quot;Helvetica Neue&quot;, sans-serif; font-size: 12px; font-weight: 200;" fill="rgb(50, 49, 63)" stroke="none" stroke-width="1px">1.42</text><text x="0" y="126.00000000000009" dx="0em" dy="0.3em" style="text-anchor: end; visibility: inherit; font-family: &quot;Helvetica Neue&quot;, sans-serif; font-size: 12px; font-weight: 200;" fill="rgb(50, 49, 63)" stroke="none" stroke-width="1px">1.44</text><text x="0" y="100.80000000000007" dx="0em" dy="0.3em" style="text-anchor: end; visibility: inherit; font-family: &quot;Helvetica Neue&quot;, sans-serif; font-size: 12px; font-weight: 200;" fill="rgb(50, 49, 63)" stroke="none" stroke-width="1px">1.46</text><text x="0" y="75.60000000000008" dx="0em" dy="0.3em" style="text-anchor: end; visibility: inherit; font-family: &quot;Helvetica Neue&quot;, sans-serif; font-size: 12px; font-weight: 200;" fill="rgb(50, 49, 63)" stroke="none" stroke-width="1px">1.48</text><text x="0" y="50.400000000000034" dx="0em" dy="0.3em" style="text-anchor: end; visibility: inherit; font-family: &quot;Helvetica Neue&quot;, sans-serif; font-size: 12px; font-weight: 200;" fill="rgb(50, 49, 63)" stroke="none" stroke-width="1px">1.5</text><text x="0" y="25.200000000000045" dx="0em" dy="0.3em" style="text-anchor: end; visibility: inherit; font-family: &quot;Helvetica Neue&quot;, sans-serif; font-size: 12px; font-weight: 200;" fill="rgb(50, 49, 63)" stroke="none" stroke-width="1px">1.52</text><text x="0" y="0" dx="0em" dy="0.3em" style="text-anchor: end; visibility: hidden; font-family: &quot;Helvetica Neue&quot;, sans-serif; font-size: 12px; font-weight: 200;" fill="rgb(50, 49, 63)" stroke="none" stroke-width="1px">1.54</text></g><line x1="58" y1="0" x2="58" y2="378" fill="rgb(0, 0, 0)" stroke="rgb(204, 204, 204)" stroke-width="1px"></line></g></g><g transform="translate(58, 0)" clip-path="url(#clip_0)"><clipPath id="clip_0"><rect width="1440" height="378"></rect></clipPath><g><g><g><line x1="0" y1="0" x2="0" y2="378" fill="rgb(0, 0, 0)" stroke="rgb(60, 60, 60)" stroke-width="1px" opacity="0.25"></line><line x1="120" y1="0" x2="120" y2="378" fill="rgb(0, 0, 0)" stroke="rgb(60, 60, 60)" stroke-width="1px" opacity="0.25"></line><line x1="240" y1="0" x2="240" y2="378" fill="rgb(0, 0, 0)" stroke="rgb(60, 60, 60)" stroke-width="1px" opacity="0.25"></line><line x1="360" y1="0" x2="360" y2="378" fill="rgb(0, 0, 0)" stroke="rgb(60, 60, 60)" stroke-width="1px" opacity="0.25"></line><line x1="480" y1="0" x2="480" y2="378" fill="rgb(0, 0, 0)" stroke="rgb(60, 60, 60)" stroke-width="1px" opacity="0.25"></line><line x1="600" y1="0" x2="600" y2="378" fill="rgb(0, 0, 0)" stroke="rgb(60, 60, 60)" stroke-width="1px" opacity="0.25"></line><line x1="720" y1="0" x2="720" y2="378" fill="rgb(0, 0, 0)" stroke="rgb(60, 60, 60)" stroke-width="1px" opacity="0.25"></line><line x1="840" y1="0" x2="840" y2="378" fill="rgb(0, 0, 0)" stroke="rgb(60, 60, 60)" stroke-width="1px" opacity="0.25"></line><line x1="960" y1="0" x2="960" y2="378" fill="rgb(0, 0, 0)" stroke="rgb(60, 60, 60)" stroke-width="1px" opacity="0.25"></line><line x1="1080" y1="0" x2="1080" y2="378" fill="rgb(0, 0, 0)" stroke="rgb(60, 60, 60)" stroke-width="1px" opacity="0.25"></line><line x1="1200" y1="0" x2="1200" y2="378" fill="rgb(0, 0, 0)" stroke="rgb(60, 60, 60)" stroke-width="1px" opacity="0.25"></line><line x1="1320" y1="0" x2="1320" y2="378" fill="rgb(0, 0, 0)" stroke="rgb(60, 60, 60)" stroke-width="1px" opacity="0.25"></line><line x1="1440" y1="0" x2="1440" y2="378" fill="rgb(0, 0, 0)" stroke="rgb(60, 60, 60)" stroke-width="1px" opacity="0.25"></line></g><g><line x1="0" y1="378" x2="1440" y2="378" fill="rgb(0, 0, 0)" stroke="rgb(60, 60, 60)" stroke-width="1px" opacity="0.25"></line><line x1="0" y1="352.79999999999995" x2="1440" y2="352.79999999999995" fill="rgb(0, 0, 0)" stroke="rgb(60, 60, 60)" stroke-width="1px" opacity="0.25"></line><line x1="0" y1="327.59999999999997" x2="1440" y2="327.59999999999997" fill="rgb(0, 0, 0)" stroke="rgb(60, 60, 60)" stroke-width="1px" opacity="0.25"></line><line x1="0" y1="302.4" x2="1440" y2="302.4" fill="rgb(0, 0, 0)" stroke="rgb(60, 60, 60)" stroke-width="1px" opacity="0.25"></line><line x1="0" y1="277.19999999999993" x2="1440" y2="277.19999999999993" fill="rgb(0, 0, 0)" stroke="rgb(60, 60, 60)" stroke-width="1px" opacity="0.25"></line><line x1="0" y1="251.9999999999999" x2="1440" y2="251.9999999999999" fill="rgb(0, 0, 0)" stroke="rgb(60, 60, 60)" stroke-width="1px" opacity="0.25"></line><line x1="0" y1="226.7999999999999" x2="1440" y2="226.7999999999999" fill="rgb(0, 0, 0)" stroke="rgb(60, 60, 60)" stroke-width="1px" opacity="0.25"></line><line x1="0" y1="201.60000000000014" x2="1440" y2="201.60000000000014" fill="rgb(0, 0, 0)" stroke="rgb(60, 60, 60)" stroke-width="1px" opacity="0.25"></line><line x1="0" y1="176.40000000000012" x2="1440" y2="176.40000000000012" fill="rgb(0, 0, 0)" stroke="rgb(60, 60, 60)" stroke-width="1px" opacity="0.25"></line><line x1="0" y1="151.2000000000001" x2="1440" y2="151.2000000000001" fill="rgb(0, 0, 0)" stroke="rgb(60, 60, 60)" stroke-width="1px" opacity="0.25"></line><line x1="0" y1="126.00000000000009" x2="1440" y2="126.00000000000009" fill="rgb(0, 0, 0)" stroke="rgb(60, 60, 60)" stroke-width="1px" opacity="0.25"></line><line x1="0" y1="100.80000000000007" x2="1440" y2="100.80000000000007" fill="rgb(0, 0, 0)" stroke="rgb(60, 60, 60)" stroke-width="1px" opacity="0.25"></line><line x1="0" y1="75.60000000000008" x2="1440" y2="75.60000000000008" fill="rgb(0, 0, 0)" stroke="rgb(60, 60, 60)" stroke-width="1px" opacity="0.25"></line><line x1="0" y1="50.400000000000034" x2="1440" y2="50.400000000000034" fill="rgb(0, 0, 0)" stroke="rgb(60, 60, 60)" stroke-width="1px" opacity="0.25"></line><line x1="0" y1="25.200000000000045" x2="1440" y2="25.200000000000045" fill="rgb(0, 0, 0)" stroke="rgb(60, 60, 60)" stroke-width="1px" opacity="0.25"></line><line x1="0" y1="0" x2="1440" y2="0" fill="rgb(0, 0, 0)" stroke="rgb(60, 60, 60)" stroke-width="1px" opacity="0.25"></line></g></g></g><g><g><line x1="0" y1="1940.3999999999999" x2="1440" y2="1940.3999999999999" fill="rgb(0, 0, 0)" stroke="rgb(153, 153, 153)" stroke-width="1.5px"></line></g></g><g><g><line x1="120" y1="0" x2="120" y2="378" fill="rgb(0, 0, 0)" stroke="rgb(153, 153, 153)" stroke-width="1.5px"></line></g></g><g><g><g><g><g><path style="fill: none;" stroke="rgb(238, 51, 119)" stroke-width="2px" d="M168,-8.463587727183551L174,12.693261872048652L180,28.840543318437085L186.00000000000003,47.32752994424601L192,51.84755670435851L198.00000000000003,61.09910621820012L204,66.09977765617413L210,71.14063987262779L216,75.70505700146794L222,84.45203129260034L228,76.05022546483792L234,84.64582102271498L240,88.25218007118133L246,99.02675595082064L251.99999999999997,114.08234941761174L258,127.74817393601029L264,127.83456130734214L270,108.18113592221647L276,114.44865279656398L282,133.13082458762491L288,144.2223605718068L294,127.81559842306899L300,134.80379342194848L306,127.18486978426802L312,123.5792657764498L318,125.64257577559641L324,135.60859876778446L330,140.04315704810972L336,154.22691947838695L342,157.63037106002136L348,150.84052421848097L354,156.28172042978062L360,154.34572499008007L366,154.6613511242656L372.00000000000006,151.23988982091035L378,160.43991411874956L384,148.03317660411554L390,156.759464144776L396.00000000000006,158.31945160398936L402,161.5227990447408L408,168.41697070959103L413.99999999999994,166.04670929646286L420,159.46733828383955L426,163.28200281620104L432,171.46040896512545L437.99999999999994,171.9526653619861L444,183.54832456662507L450,180.61636824461283L456,169.83812287242432L462.00000000000006,167.47684371704545L468,158.87391041418618L474,172.52738747776036L480,168.2178991996079L486.00000000000006,164.07104900615406L492,171.7398936554012L498,166.0648637750278L503.99999999999994,168.59932090631304L510,165.10349185103888L516,172.84866295119988L522,175.79431812441882L528,177.31153193757845L534,177.39892416742978L540,177.51029943911772L546,184.35071087532367L552,173.98937965782355L558,180.42964631886434L564,190.7218039045999L570,183.96852484764264L576,179.88513479841708L582,180.67235109694565L588,175.5863026564585L594,179.22066106470032L600,175.4779629687762L606,168.56869932057234L612,176.13272155309784L618,160.62230486026448L624,163.79882385701578L630,171.03017756921423L636,179.4424541901492L642,174.70927588170437L648,174.13900695816076L654,173.22817437753304L660,179.5154026657653L666,183.4650400918908L672,174.31810368312546L678,186.05356034525116L684,191.26721574358868L690,181.23552166874842L696,185.47950380477667L702,188.51489626785124L708,187.49812286508077L714,182.73420540697578L720,180.04672666673204L726,176.0368681304713L732,181.38164442259446L737.9999999999999,172.8582016651535L744.0000000000001,170.71570602564216L750,170.83797784512169L756,162.74290297904568L762,158.74460268067708L768,165.3314690211262L774,161.50261634462132L780,163.09618150873789L785.9999999999999,162.83903516104098L792.0000000000001,166.696568145575L798,160.11452249897832L804,165.67204807885474L810,161.56150651149764L816,172.80745802982352L822,164.5780372873768L827.9999999999999,168.02133100127148L834.0000000000001,176.39796568450302L840,170.9188796227991L846,175.59498809014687L852,179.16278676888314L858,170.11286939561967L864,163.64501137125876L870,162.34281351678612L875.9999999999999,179.64650151796954L882.0000000000001,182.47142519514463L888,169.76286549306334L894,163.9481649669193L900,165.6079671640505L906,166.931472803313L912,161.59017541477613L917.9999999999999,161.6147165541023L924.0000000000001,171.83307931448056L930,174.14874262347848L936,172.3803179999293L942,177.85919261575344L948,166.44307671904923L954,171.49831250024047L960,167.06915366835705L965.9999999999999,172.15117462746701L972.0000000000001,184.20732232256162L978,176.85304688169623L984,167.9185690424089L990,178.32043936856053L996,175.84157560233749L1002,184.6288516495495L1007.9999999999999,188.71442776524233L1014.0000000000001,188.20772175313942L1020,181.61478918744274L1026,180.8197361681054L1032,174.3039146073575L1038,180.7563744525858L1044,175.055608576581L1050,175.94851880195455L1056,181.1560808093709L1062,187.89499980398182L1068,176.70367007129286L1074,178.63579911156248L1080,161.294666455768L1086,163.02686678325085L1092,180.68604667517505L1098,191.2247776099022L1104,190.03813133644903L1110,196.57215053801443L1116,191.42151999810176L1122,181.45109101497457L1128,191.2714049217898L1134,186.02430627094486L1140,187.65637010900252L1146,191.84275791745225L1152,186.5458604770948L1158,171.49423930871794L1164,185.35587334292129L1170,182.66490488801622L1176,193.84942182990434L1182,192.83275219614796L1188,188.96573328027418L1194,136.5635812798102L1200,128.6869682716703L1206,130.1486120466815L1212,142.99016454246225L1218,160.54515459553352L1224,174.937362456417L1230,183.4273500681493L1236,178.58656919005963L1242,177.4309524393288L1248,174.79755133725436L1254,185.35859630070456L1260,201.00448841549365L1266,182.72173750577804L1272,176.82368501292703L1278,173.75889640967276L1284,181.7017691583647L1290,195.3226020223625L1296,183.76758747379333L1302,198.5266373078846L1308,196.94525290017268L1314,195.0418476705845" fill="none"></path></g><g><path style="fill: none;" stroke="rgb(0, 153, 136)" stroke-width="2px" d="M138,-17.16784994812599L144,27.427746879913343L150,59.619716265237116L156,88.13787040255085L162,104.655715596206L168,168.45838223019086L174,140.05425582743894L180,138.04363744249488L186.00000000000003,123.49426747518027L192,148.66864853867767L198.00000000000003,154.56787460921646L204,186.27680555114802L210,180.08168615958073L216,130.18109116243136L222,165.99631877041548L228,177.68696567170846L234,183.10507536604706L240,221.15997793616782L246,222.12099593940872L251.99999999999997,265.87735916701314L258,236.79703076590962L264,105.01071289735535L270,177.21738175086148L276,234.7449415884777L282,189.5831920641828L288,245.1111457201194L294,239.73686385626272L300,215.2636955347542L306,170.09330871185665L312,187.52311496567143L318,183.1279542035128L324,154.5985624979759L330,200.40336324436788L336,237.55767975950272L342,223.80252177557364L348,187.7633637617244L354,228.61992394366874L360,259.7926305844407L366,262.91544399852955L372.00000000000006,258.81529037712085L378,265.07230025732486L384,268.94775061530805L390,243.9745789412357L396.00000000000006,247.8415413025691L402,302.94732605841324L408,261.75549257358006L413.99999999999994,257.66966971251077L420,276.87580787007994L426,309.0494360237162L432,314.2834911506769L437.99999999999994,286.6749427509852L444,284.5929355831458L450,281.80071866342416L456,311.2360605086688L462.00000000000006,301.98484725032927L468,310.6561871282744L474,302.6615528149894L480,241.10399379989298L486.00000000000006,199.75665378725938L492,254.02875801179707L498,236.81763700159712L503.99999999999994,232.80672977633677L510,265.67606625477913L516,313.11385657263077L522,334.43320305032904L528,317.12026343633727L534,311.8172555654645L540,303.43569898899807L546,279.156237661221L552,321.8226011248696L558,305.755130422847L564,291.5471335820774L570,307.81543964936856L576,294.50158941980925L582,342.0753119816584L588,317.9839015597225L594,325.555226990826L600,289.48726632907807L606,313.442146326988L612,266.2665227662858L618,236.7068876130187L624,269.8722581781628L630,288.8748244808722L636,267.89478867808623L642,242.1958462903478L648,254.425738517617L654,204.99640662680542L660,220.18608894831215L666,267.0620710401909L672,237.460651475738L678,274.05521603497897L684,232.2464566092077L690,234.20519776465778L696,181.6651943500179L702,263.1599873146616L708,261.6850292921781L714,279.1012343645526L720,306.2369668150206L726,291.1258319749985L732,298.51883353558526L737.9999999999999,192.4001415214976L744.0000000000001,219.18742526781793L750,247.0248912263646L756,257.4100433021029L762,290.0890028947138L768,271.0538319965328L774,294.2572669255808L780,280.4184388296648L785.9999999999999,244.20068465094826L792.0000000000001,297.91290705216585L798,268.0602682257454L804,293.46094460396546L810,288.20383189146855L816,230.52039232030597L822,225.86947889193962L827.9999999999999,121.13099000850377L834.0000000000001,155.11094717740448L840,209.0957651982273L846,211.2845361834507L852,229.75124211107146L858,246.7254993712573L864,239.98918580744683L870,258.2517466147782L875.9999999999999,283.42035602092983L882.0000000000001,293.1287880907074L888,297.98220960674377L894,287.36439343677574L900,279.7542828439869L906,311.0884640621661L912,321.3059125284863L917.9999999999999,327.0270464718648L924.0000000000001,330.5297217643444L930,343.1538174412361L936,302.57609131465625L942,345.96363608914777L948,329.77071720646717L954,330.6517170899326L960,316.5426054950485L965.9999999999999,321.2595564076857L972.0000000000001,316.7246985739203L978,283.79787891302897L984,316.1271447825097L990,332.7085650830068L996,292.11302944592217L1002,291.527787531445L1007.9999999999999,260.5130366927562L1014.0000000000001,237.20533365048027L1020,228.75391590378916L1026,239.26928313602355L1032,289.1450880624611L1038,261.0817871819591L1044,253.78955250326737L1050,319.0329679903027L1056,323.594614244499L1062,247.63177003443138L1068,215.91179723489208L1074,234.40003812639668L1080,248.91816786485168L1086,273.9326965639427L1092,258.36835088666885L1098,307.1319010730781L1104,298.2647260091424L1110,328.3288089407516L1116,290.96492257911154L1122,294.49626346110233L1128,341.85275891589475L1134,295.52102687816256L1140,320.7911195067193L1146,301.30580665276193L1152,327.1613394451484L1158,263.4292873020378L1164,297.3669616481906L1170,305.8926130927351L1176,325.02717662791883L1182,331.40777799213214L1188,320.9279742141024L1194,289.2698450600775L1200,269.33276976798L1206,208.67183990033868L1212,280.1452742359185L1218,286.53770523674154L1224,267.10480751399325L1230,287.6570344412574L1236,335.6829592588096L1242,323.59113595262465L1248,324.44854406699704L1254,316.4153767453739L1260,341.1302711598344L1266,308.8741915579001L1272,309.79834435673723L1278,263.8599828713666L1284,289.51209583243906L1290,299.5964263913703L1296,286.0008007048174L1302,225.62835170737523L1308,233.71719824976688L1314,303.62018593136656" fill="none"></path></g></g></g></g><g opacity="0.2"><g><g><g><path style="fill: none;" stroke="rgb(238, 51, 119)" stroke-width="2px" d="M162,-3.722450351714997L168,41.132731819152866L174,44.1087178230286L180,52.91501083374027L186.00000000000003,74.95740451812748L192,58.61283817291263L198.00000000000003,74.95830574035648L204,73.5949067115784L210,78.69837799072269L216,82.54975118637088L222,97.57027187347416L228,63.44879665374759L234,97.53842868804935L240,93.66152086257938L246,115.18826522827152L251.99999999999997,136.66544237136844L258,148.24674882888795L264,127.96414175033573L270,78.7010816574097L276,123.84991207122806L282,161.1540535926819L288,160.8596543312073L294,103.20546426773075L300,145.2860836029053L306,115.75648584365848L312,118.17086019515995L318,128.73754062652588L324,150.5576328277588L330,146.69499435424805L336,175.50256290435792L342,162.73554840087894L348,140.65575399398804L354,164.44351472854615L360,151.44173183441163L366,155.1347903251648L372.00000000000006,146.10769786834717L378,174.23995056152344L384,129.42307033538822L390,169.84889545440677L396.00000000000006,160.65943279266358L402,166.3278202056885L408,178.75822820663453L413.99999999999994,162.49131717681888L420,149.59828176498414L426,169.0039996147156L432,183.72801818847657L437.99999999999994,172.6910499572754L444,200.9418133735657L450,176.21843376159669L456,153.67075481414795L462.00000000000006,163.93492498397828L468,145.9695104598999L474,193.00760307312012L480,161.75366678237918L486.00000000000006,157.8507737159729L492,183.24316062927247L498,157.55231895446778L503.99999999999994,172.40100660324097L510,159.85974826812748L516,184.46641960144044L522,180.21280088424683L528,179.58735265731812L534,177.53001251220707L540,177.6773623466492L546,194.61132802963257L552,158.4473828315735L558,190.0900463104248L564,206.16004028320313L570,173.83860626220707L576,173.76004972457886L582,181.8531755447388L588,167.95722999572757L594,184.67219867706302L600,169.86391582489014L606,158.2048038482666L612,187.478754901886L618,137.35667982101444L624,168.56360235214234L630,181.8772081375122L636,192.06086912155152L642,167.60950841903687L648,173.28360357284546L654,171.8619255065918L660,188.94624509811405L666,189.38949623107914L672,160.5976990699768L678,203.65674533843998L684,199.08769884109498L690,166.18798055648804L696,191.84547700881959L702,193.06798496246338L708,185.9729627609253L714,175.58832921981815L720,176.015508556366L726,170.02208032608033L732,189.39880886077881L737.9999999999999,160.0730375289917L744.0000000000001,167.50196256637574L750,171.02138557434085L756,150.60029067993165L762,152.74715223312378L768,175.21176853179932L774,155.7593373298645L780,165.48652925491336L785.9999999999999,162.45331563949586L792.0000000000001,172.4828676223755L798,150.2414540290833L804,174.00833644866944L810,155.39569416046143L816,189.67638530731202L822,152.23390617370606L827.9999999999999,173.18627157211304L834.0000000000001,188.96291770935062L840,162.70025053024293L846,182.60915079116822L852,184.51448478698734L858,156.53799333572388L864,153.94322433471683L870,160.3895167350769L875.9999999999999,205.6020335197449L882.0000000000001,186.708810710907L888,150.7000259399414L894,155.2261141777039L900,168.09767045974732L906,168.91673126220704L912,153.57822933197025L917.9999999999999,161.65152826309205L924.0000000000001,187.1606234550476L930,177.6222375869751L936,169.72768106460575L942,186.07750453948975L948,149.31890287399293L954,179.0811661720276L960,160.42541542053223L965.9999999999999,179.7742060661316L972.0000000000001,202.29154386520386L978,165.82163372039795L984,154.51685228347782L990,193.9232448577881L996,172.12327995300294L1002,197.80976572036744L1007.9999999999999,194.84279193878177L1014.0000000000001,187.44766273498536L1020,171.7253903388977L1026,179.62715663909916L1032,164.53018226623536L1038,190.43506422042847L1044,166.50445976257328L1050,177.28788414001465L1056,188.96742382049564L1062,198.00337829589847L1068,159.91667547225953L1074,181.53399267196656L1080,135.28296747207645L1086,165.6251672744751L1092,207.17481651306153L1098,207.0328740119934L1104,188.25816192626957L1110,206.37317934036255L1116,183.69557418823243L1122,166.49544754028324L1128,206.00187578201295L1134,178.15365829467777L1140,190.10446586608887L1146,198.122339630127L1152,178.60051431655884L1158,148.91680755615235L1164,206.14832439422608L1170,178.62845220565796L1176,210.62619724273682L1182,191.30774774551395L1188,183.16520490646363L1194,57.960353279113804L1200,116.87204875946048L1206,132.341077709198L1212,162.25249328613285L1218,186.8776396751404L1224,196.5256742477417L1230,196.1623314857483L1236,171.3253978729248L1242,175.69752731323243L1248,170.8474496841431L1254,201.20016374588013L1260,224.473326587677L1266,155.29761114120484L1272,167.97660627365116L1278,169.1617135047913L1284,193.6160782814026L1290,215.75385131835938L1296,166.43506565093998L1302,220.665212059021L1308,194.57317628860474L1314,192.1867398262024" fill="none"></path></g><g><path style="fill: none;" stroke="rgb(0, 153, 136)" stroke-width="2px" d="M125.99999999999999,-132.76680908203122L132,22.332184696197544L138,38.949220561981235L144,85.65175809860233L150,104.15279903411869L156,128.91928710937503L162,128.7388924598694L168,262.55492248535154L174,97.87743844985965L180,135.04594602584842L186.00000000000003,101.7493895530701L192,186.3480214118958L198.00000000000003,163.40515651702884L204,233.80292930603028L210,170.79337635040287L216,55.351314926147495L222,219.7100666999817L228,195.22115507125855L234,191.23174467086793L240,278.24024477005L246,223.56249132156373L251.99999999999997,331.5110401153564L258,193.17688264846805L264,-92.66782722473141L270,285.5270771026611L276,321.036134147644L282,121.84063711166385L288,328.4030250549316L294,231.67544403076172L300,178.5539511680603L306,102.33773746490482L312,213.667822265625L318,176.53521337509156L324,111.80447616577152L330,269.1105631828308L336,293.2891539573669L342,203.16978492736817L348,133.7046269416809L354,289.9047640800476L360,306.55169048309324L366,267.59966411590574L372.00000000000006,252.66505994796756L378,274.45781507492063L384,274.7609261512756L390,206.514821434021L396.00000000000006,253.6419848442078L402,385.6060031890869L408,199.9677423477173L413.99999999999994,251.54093542099L420,305.68501510620115L426,357.30987825393674L432,322.13457384109495L437.99999999999994,245.26212015151978L444,281.46992483139036L450,277.61239328384397L456,355.38907327651975L462.00000000000006,288.10802736282346L468,323.6631969451904L474,290.66960134506223L480,148.7676552772522L486.00000000000006,137.73564376831058L492,335.4369143486023L498,211.0009554862976L503.99999999999994,226.79036893844605L510,314.9800709724426L516,384.27054204940794L522,366.4122227668762L528,291.1508540153503L534,303.86274375915525L540,290.8633641242981L546,242.73704566955567L552,385.822146320343L558,281.653924369812L564,270.23513832092283L570,332.21789875030515L576,274.53081407546995L582,413.43589582443235L588,281.8467859268188L594,336.91221513748167L600,235.3853253364563L606,349.3744663238525L612,195.50308742523194L618,192.36743488311768L624,319.6203140258789L630,317.3786739349365L636,236.42473497390748L642,203.64743270874024L648,272.7705768585205L654,130.8524087905884L660,242.97061243057252L666,337.376044178009L672,193.05852212905884L678,328.9470628738403L684,169.53331747055054L690,237.14330949783326L696,102.8551892280579L702,385.4021767616272L708,259.47259225845335L714,305.225541973114L720,346.94056549072263L726,268.4591297149658L732,309.6083358764648L737.9999999999999,33.222103500366245L744.0000000000001,259.3683508872986L750,288.78109016418455L756,272.9877714157104L762,339.10744228363035L768,242.50107564926148L774,329.0624193191528L780,259.660196685791L785.9999999999999,189.87405338287354L792.0000000000001,378.4812406539917L798,223.2813099861145L804,331.56195917129514L810,280.31816282272337L816,143.99523296356202L822,218.89310874938965L827.9999999999999,-35.9767433166503L834.0000000000001,206.08088293075562L840,290.07299222946165L846,214.5676926612854L852,257.4513010025024L858,272.1868852615356L864,229.88471546173096L870,285.6455878257751L875.9999999999999,321.17327013015745L882.0000000000001,307.6914361953735L888,305.2623418807983L894,271.4376691818237L900,268.33911695480344L906,358.0897358894348L912,336.6320852279663L917.9999999999999,335.60874738693235L924.0000000000001,335.78373470306394L930,362.08996095657346L936,241.70950212478638L942,411.044953250885L948,305.48133888244627L954,331.9732169151306L960,295.37893810272215L965.9999999999999,328.3349827766418L972.0000000000001,309.9224118232727L978,234.4076494216919L984,364.62104358673093L990,357.5806955337524L996,231.21972599029542L1002,290.649924659729L1007.9999999999999,213.9909104347229L1014.0000000000001,202.24377908706666L1020,216.07678928375245L1026,255.042333984375L1032,363.9587954521179L1038,218.98683586120606L1044,242.8512004852295L1050,416.8980912208557L1056,330.43708362579343L1062,133.68750371932984L1068,168.3318380355835L1074,262.13239946365354L1080,270.69536247253416L1086,311.4544896125793L1092,235.02183237075806L1098,380.2772263526916L1104,284.9639634132385L1110,373.42493333816526L1116,234.91909303665162L1122,299.7932747840881L1128,412.8875020980835L1134,226.02342882156373L1140,358.6962584495544L1146,272.07783737182615L1152,365.944638633728L1158,167.83120908737183L1164,348.2734731674194L1170,318.681090259552L1176,353.72902193069456L1182,340.9786800384521L1188,305.2082685470581L1194,241.78265132904053L1200,239.427156829834L1206,117.68044509887699L1212,387.3554257392883L1218,296.12635173797605L1224,237.9554609298706L1230,318.4853748321533L1236,407.7218464851379L1242,305.45340099334715L1248,325.7346562385559L1254,304.36562576293943L1260,378.20261278152464L1266,260.49007215499876L1272,311.18457355499265L1278,194.95244064331055L1284,327.99026527404783L1290,314.7229222297668L1296,265.60736217498777L1302,135.0696782112122L1308,245.8504680633545L1314,408.47466745376585" fill="none"></path></g></g></g></g></g></g><g transform="translate(58, 378)" clip-path="url(#clip_1)"><clipPath id="clip_1"><rect width="1440" height="22"></rect></clipPath><g><g><line x1="0" y1="0" x2="0" y2="5" style="visibility: inherit;" fill="rgb(0, 0, 0)" stroke="rgb(204, 204, 204)" stroke-width="1px"></line><line x1="120" y1="0" x2="120" y2="5" style="visibility: inherit;" fill="rgb(0, 0, 0)" stroke="rgb(204, 204, 204)" stroke-width="1px"></line><line x1="240" y1="0" x2="240" y2="5" style="visibility: inherit;" fill="rgb(0, 0, 0)" stroke="rgb(204, 204, 204)" stroke-width="1px"></line><line x1="360" y1="0" x2="360" y2="5" style="visibility: inherit;" fill="rgb(0, 0, 0)" stroke="rgb(204, 204, 204)" stroke-width="1px"></line><line x1="480" y1="0" x2="480" y2="5" style="visibility: inherit;" fill="rgb(0, 0, 0)" stroke="rgb(204, 204, 204)" stroke-width="1px"></line><line x1="600" y1="0" x2="600" y2="5" style="visibility: inherit;" fill="rgb(0, 0, 0)" stroke="rgb(204, 204, 204)" stroke-width="1px"></line><line x1="720" y1="0" x2="720" y2="5" style="visibility: inherit;" fill="rgb(0, 0, 0)" stroke="rgb(204, 204, 204)" stroke-width="1px"></line><line x1="840" y1="0" x2="840" y2="5" style="visibility: inherit;" fill="rgb(0, 0, 0)" stroke="rgb(204, 204, 204)" stroke-width="1px"></line><line x1="960" y1="0" x2="960" y2="5" style="visibility: inherit;" fill="rgb(0, 0, 0)" stroke="rgb(204, 204, 204)" stroke-width="1px"></line><line x1="1080" y1="0" x2="1080" y2="5" style="visibility: inherit;" fill="rgb(0, 0, 0)" stroke="rgb(204, 204, 204)" stroke-width="1px"></line><line x1="1200" y1="0" x2="1200" y2="5" style="visibility: inherit;" fill="rgb(0, 0, 0)" stroke="rgb(204, 204, 204)" stroke-width="1px"></line><line x1="1320" y1="0" x2="1320" y2="5" style="visibility: inherit;" fill="rgb(0, 0, 0)" stroke="rgb(204, 204, 204)" stroke-width="1px"></line><line x1="1440" y1="0" x2="1440" y2="5" style="visibility: inherit;" fill="rgb(0, 0, 0)" stroke="rgb(204, 204, 204)" stroke-width="1px"></line></g><g transform="translate(0, 8)"><text x="0" y="0" dx="0em" dy="0.95em" style="text-anchor: middle; visibility: hidden; font-family: &quot;Helvetica Neue&quot;, sans-serif; font-size: 12px; font-weight: 200;" fill="rgb(50, 49, 63)" stroke="none" stroke-width="1px">-20</text><text x="120" y="0" dx="0em" dy="0.95em" style="text-anchor: middle; visibility: inherit; font-family: &quot;Helvetica Neue&quot;, sans-serif; font-size: 12px; font-weight: 200;" fill="rgb(50, 49, 63)" stroke="none" stroke-width="1px">0</text><text x="240" y="0" dx="0em" dy="0.95em" style="text-anchor: middle; visibility: inherit; font-family: &quot;Helvetica Neue&quot;, sans-serif; font-size: 12px; font-weight: 200;" fill="rgb(50, 49, 63)" stroke="none" stroke-width="1px">20</text><text x="360" y="0" dx="0em" dy="0.95em" style="text-anchor: middle; visibility: inherit; font-family: &quot;Helvetica Neue&quot;, sans-serif; font-size: 12px; font-weight: 200;" fill="rgb(50, 49, 63)" stroke="none" stroke-width="1px">40</text><text x="480" y="0" dx="0em" dy="0.95em" style="text-anchor: middle; visibility: inherit; font-family: &quot;Helvetica Neue&quot;, sans-serif; font-size: 12px; font-weight: 200;" fill="rgb(50, 49, 63)" stroke="none" stroke-width="1px">60</text><text x="600" y="0" dx="0em" dy="0.95em" style="text-anchor: middle; visibility: inherit; font-family: &quot;Helvetica Neue&quot;, sans-serif; font-size: 12px; font-weight: 200;" fill="rgb(50, 49, 63)" stroke="none" stroke-width="1px">80</text><text x="720" y="0" dx="0em" dy="0.95em" style="text-anchor: middle; visibility: inherit; font-family: &quot;Helvetica Neue&quot;, sans-serif; font-size: 12px; font-weight: 200;" fill="rgb(50, 49, 63)" stroke="none" stroke-width="1px">100</text><text x="840" y="0" dx="0em" dy="0.95em" style="text-anchor: middle; visibility: inherit; font-family: &quot;Helvetica Neue&quot;, sans-serif; font-size: 12px; font-weight: 200;" fill="rgb(50, 49, 63)" stroke="none" stroke-width="1px">120</text><text x="960" y="0" dx="0em" dy="0.95em" style="text-anchor: middle; visibility: inherit; font-family: &quot;Helvetica Neue&quot;, sans-serif; font-size: 12px; font-weight: 200;" fill="rgb(50, 49, 63)" stroke="none" stroke-width="1px">140</text><text x="1080" y="0" dx="0em" dy="0.95em" style="text-anchor: middle; visibility: inherit; font-family: &quot;Helvetica Neue&quot;, sans-serif; font-size: 12px; font-weight: 200;" fill="rgb(50, 49, 63)" stroke="none" stroke-width="1px">160</text><text x="1200" y="0" dx="0em" dy="0.95em" style="text-anchor: middle; visibility: inherit; font-family: &quot;Helvetica Neue&quot;, sans-serif; font-size: 12px; font-weight: 200;" fill="rgb(50, 49, 63)" stroke="none" stroke-width="1px">180</text><text x="1320" y="0" dx="0em" dy="0.95em" style="text-anchor: middle; visibility: inherit; font-family: &quot;Helvetica Neue&quot;, sans-serif; font-size: 12px; font-weight: 200;" fill="rgb(50, 49, 63)" stroke="none" stroke-width="1px">200</text><text x="1440" y="0" dx="0em" dy="0.95em" style="text-anchor: middle; visibility: hidden; font-family: &quot;Helvetica Neue&quot;, sans-serif; font-size: 12px; font-weight: 200;" fill="rgb(50, 49, 63)" stroke="none" stroke-width="1px">220</text></g><line x1="0" y1="0" x2="1440" y2="0" fill="rgb(0, 0, 0)" stroke="rgb(204, 204, 204)" stroke-width="1px"></line></g></g></g></g></svg>