<svg viewBox="0 0 1498 400" xmlns="http://www.w3.org/2000/svg"><g><g><g><g><g><line x1="58" y1="378" x2="53" y2="378" style="visibility: inherit;" fill="rgb(0, 0, 0)" stroke="rgb(204, 204, 204)" stroke-width="1px"></line><line x1="58" y1="346.5" x2="53" y2="346.5" style="visibility: inherit;" fill="rgb(0, 0, 0)" stroke="rgb(204, 204, 204)" stroke-width="1px"></line><line x1="58" y1="315" x2="53" y2="315" style="visibility: inherit;" fill="rgb(0, 0, 0)" stroke="rgb(204, 204, 204)" stroke-width="1px"></line><line x1="58" y1="283.5" x2="53" y2="283.5" style="visibility: inherit;" fill="rgb(0, 0, 0)" stroke="rgb(204, 204, 204)" stroke-width="1px"></line><line x1="58" y1="252" x2="53" y2="252" style="visibility: inherit;" fill="rgb(0, 0, 0)" stroke="rgb(204, 204, 204)" stroke-width="1px"></line><line x1="58" y1="220.5" x2="53" y2="220.5" style="visibility: inherit;" fill="rgb(0, 0, 0)" stroke="rgb(204, 204, 204)" stroke-width="1px"></line><line x1="58" y1="189.00000000000003" x2="53" y2="189.00000000000003" style="visibility: inherit;" fill="rgb(0, 0, 0)" stroke="rgb(204, 204, 204)" stroke-width="1px"></line><line x1="58" y1="157.50000000000003" x2="53" y2="157.50000000000003" style="visibility: inherit;" fill="rgb(0, 0, 0)" stroke="rgb(204, 204, 204)" stroke-width="1px"></line><line x1="58" y1="126.00000000000006" x2="53" y2="126.00000000000006" style="visibility: inherit;" fill="rgb(0, 0, 0)" stroke="rgb(204, 204, 204)" stroke-width="1px"></line><line x1="58" y1="94.50000000000006" x2="53" y2="94.50000000000006" style="visibility: inherit;" fill="rgb(0, 0, 0)" stroke="rgb(204, 204, 204)" stroke-width="1px"></line><line x1="58" y1="63" x2="53" y2="63" style="visibility: inherit;" fill="rgb(0, 0, 0)" stroke="rgb(204, 204, 204)" stroke-width="1px"></line><line x1="58" y1="31.5" x2="53" y2="31.5" style="visibility: inherit;" fill="rgb(0, 0, 0)" stroke="rgb(204, 204, 204)" stroke-width="1px"></line><line x1="58" y1="0" x2="53" y2="0" style="visibility: inherit;" fill="rgb(0, 0, 0)" stroke="rgb(204, 204, 204)" stroke-width="1px"></line></g><g transform="translate(48, 0)"><text x="0" y="378" dx="0em" dy="0.3em" style="text-anchor: end; visibility: hidden; font-family: &quot;Helvetica Neue&quot;, sans-serif; font-size: 12px; font-weight: 200;" fill="rgb(50, 49, 63)" stroke="none" stroke-width="1px">-0.2</text><text x="0" y="346.5" dx="0em" dy="0.3em" style="text-anchor: end; visibility: inherit; font-family: &quot;Helvetica Neue&quot;, sans-serif; font-size: 12px; font-weight: 200;" fill="rgb(50, 49, 63)" stroke="none" stroke-width="1px">0</text><text x="0" y="315" dx="0em" dy="0.3em" style="text-anchor: end; visibility: inherit; font-family: &quot;Helvetica Neue&quot;, sans-serif; font-size: 12px; font-weight: 200;" fill="rgb(50, 49, 63)" stroke="none" stroke-width="1px">0.2</text><text x="0" y="283.5" dx="0em" dy="0.3em" style="text-anchor: end; visibility: inherit; font-family: &quot;Helvetica Neue&quot;, sans-serif; font-size: 12px; font-weight: 200;" fill="rgb(50, 49, 63)" stroke="none" stroke-width="1px">0.4</text><text x="0" y="252" dx="0em" dy="0.3em" style="text-anchor: end; visibility: inherit; font-family: &quot;Helvetica Neue&quot;, sans-serif; font-size: 12px; font-weight: 200;" fill="rgb(50, 49, 63)" stroke="none" stroke-width="1px">0.6</text><text x="0" y="220.5" dx="0em" dy="0.3em" style="text-anchor: end; visibility: inherit; font-family: &quot;Helvetica Neue&quot;, sans-serif; font-size: 12px; font-weight: 200;" fill="rgb(50, 49, 63)" stroke="none" stroke-width="1px">0.8</text><text x="0" y="189.00000000000003" dx="0em" dy="0.3em" style="text-anchor: end; visibility: inherit; font-family: &quot;Helvetica Neue&quot;, sans-serif; font-size: 12px; font-weight: 200;" fill="rgb(50, 49, 63)" stroke="none" stroke-width="1px">1</text><text x="0" y="157.50000000000003" dx="0em" dy="0.3em" style="text-anchor: end; visibility: inherit; font-family: &quot;Helvetica Neue&quot;, sans-serif; font-size: 12px; font-weight: 200;" fill="rgb(50, 49, 63)" stroke="none" stroke-width="1px">1.2</text><text x="0" y="126.00000000000006" dx="0em" dy="0.3em" style="text-anchor: end; visibility: inherit; font-family: &quot;Helvetica Neue&quot;, sans-serif; font-size: 12px; font-weight: 200;" fill="rgb(50, 49, 63)" stroke="none" stroke-width="1px">1.4</text><text x="0" y="94.50000000000006" dx="0em" dy="0.3em" style="text-anchor: end; visibility: inherit; font-family: &quot;Helvetica Neue&quot;, sans-serif; font-size: 12px; font-weight: 200;" fill="rgb(50, 49, 63)" stroke="none" stroke-width="1px">1.6</text><text x="0" y="63" dx="0em" dy="0.3em" style="text-anchor: end; visibility: inherit; font-family: &quot;Helvetica Neue&quot;, sans-serif; font-size: 12px; font-weight: 200;" fill="rgb(50, 49, 63)" stroke="none" stroke-width="1px">1.8</text><text x="0" y="31.5" dx="0em" dy="0.3em" style="text-anchor: end; visibility: inherit; font-family: &quot;Helvetica Neue&quot;, sans-serif; font-size: 12px; font-weight: 200;" fill="rgb(50, 49, 63)" stroke="none" stroke-width="1px">2</text><text x="0" y="0" dx="0em" dy="0.3em" style="text-anchor: end; visibility: hidden; font-family: &quot;Helvetica Neue&quot;, sans-serif; font-size: 12px; font-weight: 200;" fill="rgb(50, 49, 63)" stroke="none" stroke-width="1px">2.2</text></g><line x1="58" y1="0" x2="58" y2="378" fill="rgb(0, 0, 0)" stroke="rgb(204, 204, 204)" stroke-width="1px"></line></g></g><g transform="translate(58, 0)" clip-path="url(#clip_0)"><clipPath id="clip_0"><rect width="1440" height="378"></rect></clipPath><g><g><g><line x1="0" y1="0" x2="0" y2="378" fill="rgb(0, 0, 0)" stroke="rgb(60, 60, 60)" stroke-width="1px" opacity="0.25"></line><line x1="120" y1="0" x2="120" y2="378" fill="rgb(0, 0, 0)" stroke="rgb(60, 60, 60)" stroke-width="1px" opacity="0.25"></line><line x1="240" y1="0" x2="240" y2="378" fill="rgb(0, 0, 0)" stroke="rgb(60, 60, 60)" stroke-width="1px" opacity="0.25"></line><line x1="360" y1="0" x2="360" y2="378" fill="rgb(0, 0, 0)" stroke="rgb(60, 60, 60)" stroke-width="1px" opacity="0.25"></line><line x1="480" y1="0" x2="480" y2="378" fill="rgb(0, 0, 0)" stroke="rgb(60, 60, 60)" stroke-width="1px" opacity="0.25"></line><line x1="600" y1="0" x2="600" y2="378" fill="rgb(0, 0, 0)" stroke="rgb(60, 60, 60)" stroke-width="1px" opacity="0.25"></line><line x1="720" y1="0" x2="720" y2="378" fill="rgb(0, 0, 0)" stroke="rgb(60, 60, 60)" stroke-width="1px" opacity="0.25"></line><line x1="840" y1="0" x2="840" y2="378" fill="rgb(0, 0, 0)" stroke="rgb(60, 60, 60)" stroke-width="1px" opacity="0.25"></line><line x1="960" y1="0" x2="960" y2="378" fill="rgb(0, 0, 0)" stroke="rgb(60, 60, 60)" stroke-width="1px" opacity="0.25"></line><line x1="1080" y1="0" x2="1080" y2="378" fill="rgb(0, 0, 0)" stroke="rgb(60, 60, 60)" stroke-width="1px" opacity="0.25"></line><line x1="1200" y1="0" x2="1200" y2="378" fill="rgb(0, 0, 0)" stroke="rgb(60, 60, 60)" stroke-width="1px" opacity="0.25"></line><line x1="1320" y1="0" x2="1320" y2="378" fill="rgb(0, 0, 0)" stroke="rgb(60, 60, 60)" stroke-width="1px" opacity="0.25"></line><line x1="1440" y1="0" x2="1440" y2="378" fill="rgb(0, 0, 0)" stroke="rgb(60, 60, 60)" stroke-width="1px" opacity="0.25"></line></g><g><line x1="0" y1="378" x2="1440" y2="378" fill="rgb(0, 0, 0)" stroke="rgb(60, 60, 60)" stroke-width="1px" opacity="0.25"></line><line x1="0" y1="346.5" x2="1440" y2="346.5" fill="rgb(0, 0, 0)" stroke="rgb(60, 60, 60)" stroke-width="1px" opacity="0.25"></line><line x1="0" y1="315" x2="1440" y2="315" fill="rgb(0, 0, 0)" stroke="rgb(60, 60, 60)" stroke-width="1px" opacity="0.25"></line><line x1="0" y1="283.5" x2="1440" y2="283.5" fill="rgb(0, 0, 0)" stroke="rgb(60, 60, 60)" stroke-width="1px" opacity="0.25"></line><line x1="0" y1="252" x2="1440" y2="252" fill="rgb(0, 0, 0)" stroke="rgb(60, 60, 60)" stroke-width="1px" opacity="0.25"></line><line x1="0" y1="220.5" x2="1440" y2="220.5" fill="rgb(0, 0, 0)" stroke="rgb(60, 60, 60)" stroke-width="1px" opacity="0.25"></line><line x1="0" y1="189.00000000000003" x2="1440" y2="189.00000000000003" fill="rgb(0, 0, 0)" stroke="rgb(60, 60, 60)" stroke-width="1px" opacity="0.25"></line><line x1="0" y1="157.50000000000003" x2="1440" y2="157.50000000000003" fill="rgb(0, 0, 0)" stroke="rgb(60, 60, 60)" stroke-width="1px" opacity="0.25"></line><line x1="0" y1="126.00000000000006" x2="1440" y2="126.00000000000006" fill="rgb(0, 0, 0)" stroke="rgb(60, 60, 60)" stroke-width="1px" opacity="0.25"></line><line x1="0" y1="94.50000000000006" x2="1440" y2="94.50000000000006" fill="rgb(0, 0, 0)" stroke="rgb(60, 60, 60)" stroke-width="1px" opacity="0.25"></line><line x1="0" y1="63" x2="1440" y2="63" fill="rgb(0, 0, 0)" stroke="rgb(60, 60, 60)" stroke-width="1px" opacity="0.25"></line><line x1="0" y1="31.5" x2="1440" y2="31.5" fill="rgb(0, 0, 0)" stroke="rgb(60, 60, 60)" stroke-width="1px" opacity="0.25"></line><line x1="0" y1="0" x2="1440" y2="0" fill="rgb(0, 0, 0)" stroke="rgb(60, 60, 60)" stroke-width="1px" opacity="0.25"></line></g></g></g><g><g><line x1="0" y1="346.5" x2="1440" y2="346.5" fill="rgb(0, 0, 0)" stroke="rgb(153, 153, 153)" stroke-width="1.5px"></line></g></g><g><g><line x1="120" y1="0" x2="120" y2="378" fill="rgb(0, 0, 0)" stroke="rgb(153, 153, 153)" stroke-width="1.5px"></line></g></g><g><g><g><g><g><path stroke="rgb(51, 187, 238)" stroke-width="2px" d="M120,62.16157042980194L125.99999999999999,104.64178794622427L132,122.44999551773077L138,133.9273985624314L144,144.04301726818088L150,153.0541881322861L156,159.16378015279773L162,164.46131461858755L168,168.42173570394522L174,172.5454282164574L180,176.60862618684772L186.00000000000003,178.56307679414755L192,180.2208563089371L198.00000000000003,182.4523013234139L204,184.15161216259008L210,184.92412859201437L216,188.92551773786548L222,189.59644013643268L228,190.82161420583728L234,191.4449220299721L240,192.35588872432712L246,194.80748543143275L251.99999999999997,195.61861360073092L258,196.2697184979916L264,197.22874099016192L270,198.48905333876613L276,200.5131609141827L282,199.21894007921222L288,201.24581703543666L294,202.451042175293L300,201.85371959209445L306,203.46548983454707L312,203.58466708660129L318,204.28868123888972L324,205.2222254276276L330,206.1177211403847L336,207.08645054697993L342,207.81288260221484L348,208.33812618255618L354,209.00258982181552L360,208.83218371868136L366,209.29192909598353L372.00000000000006,210.39220878481868L378,210.08961403369906L384,210.62300616502765L390,212.05906623601916L396.00000000000006,213.37884047627452L402,212.91037389636043L408,212.63477826118472L413.99999999999994,212.8530617952347L420,213.46821168065074L426,214.05667224526408L432,215.6050471365452L437.99999999999994,214.15840709209445L444,214.9672822058201L450,215.68374449014667L456,216.46433436870578L462.00000000000006,216.77119114995006L468,216.40307942032817L474,217.60692456364634L480,217.32418486475947L486.00000000000006,217.7545466423035L492,218.27125677466395L498,217.588402569294L503.99999999999994,218.65925171971324L510,217.90093892812732L516,218.4521959125996L522,219.5064006149769L528,219.4842831194401L534,219.79552397131923L540,219.4756557941437L546,220.76164358854297L552,220.77160397171977L558,220.42577871680263L564,220.31341695785525L570,221.1432736515999L576,221.78761938214305L582,221.995989471674L588,221.31133282184604L594,222.061910122633L600,222.52303549647334L606,222.2070350646973L612,222.64542335271838L618,221.9872213304043L624,223.03507053852084L630,224.05588307976726L636,223.56120595335963L642,223.455368667841L648,222.96519765257838L654,224.45013025403026L660,224.58929398655894L666,223.3734231591225L672,224.33312156796458L678,224.4377290606499L684,224.84731578826907L690,224.64366772770884L696,223.98966202139857L702,224.9450796246529L708,225.68014839291575L714,226.04862624406817L720,226.26300448179248L726,225.80136278271678L732,224.8001518249512L737.9999999999999,224.58654338121417L744.0000000000001,224.93909025192264L750,225.5495087206364L756,225.58809229731563L762,227.16895812749866L768,226.09692612290385L774,226.62170970439914L780,225.40247806906703L785.9999999999999,226.32998594641688L792.0000000000001,226.70050093531611L798,227.1218880414963L804,226.89058372378352L810,226.764684855938L816,226.33220145106318L822,226.547574788332L827.9999999999999,227.36574375629428L834.0000000000001,227.64813610911372L840,227.54365065693858L846,226.89659187197688L852,227.91825869679454L858,227.52261275053027L864,227.59187543392184L870,226.2063119709492L875.9999999999999,227.55191186070445L882.0000000000001,227.2124984264374L888,227.49618628621104L894,227.11303541064265L900,227.9651879668236L906,227.29906269907954L912,228.57947418093684L917.9999999999999,227.69572252035144L924.0000000000001,228.85715389251712L930,228.31620463728908L936,229.37312239408496L942,228.3821252882481L948,228.1048023104668L954,229.05366727709773L960,227.71960490942004L965.9999999999999,228.4561851024628L972.0000000000001,229.0568872690201L978,228.80923891067508L984,227.75949338078502L990,228.65937316417697L996,228.90379214286807L1002,229.7982082664967L1007.9999999999999,228.9487499892712L1014.0000000000001,229.00199720263484L1020,229.88949456810954L1026,230.89291164278987L1032,229.0872847437859L1038,229.98933309316638L1044,229.3786611557007L1050,229.6492812931538L1056,229.49627065658572L1062,229.70710033178332L1068,229.8373457193375L1074,229.17034739255908L1080,229.95775276422503L1086,229.50578042864802L1092,230.00031673908236L1098,230.15817144513133L1104,229.59531122446063L1110,230.8684753775597L1116,228.913414567709L1122,230.403144299984L1128,230.7801180481911L1134,229.98953023552897L1140,230.80493921041491L1146,230.72193288803103L1152,229.52541017532351L1158,231.51134723424914L1164,230.69306561350825L1170,229.18129348754886L1176,232.2580661773682L1182,230.767942160368L1188,231.33644440770152L1194,228.91542354226115L1200,230.6989986598492L1206,229.72585701942447L1212,230.7120569944382L1218,231.44323924183848L1224,230.78086906671527L1230,231.285919636488L1236,231.50200644135478L1242,230.91191241145137L1248,231.30282694101336L1254,230.77006378769877L1260,231.81253382563594L1266,231.6145747303963L1272,231.09716051816943L1278,231.7644404768944L1284,231.43540048599246L1290,231.6528485119343L1296,231.3832516372204L1302,231.73315116763118L1308,231.776794731617L1314,231.8678181767464" style="fill: none;" fill="none"></path></g><g><path style="fill: none;" stroke="rgb(238, 51, 119)" stroke-width="2px" d="M120,10.71161949634552L125.99999999999999,22.7463533878327L132,37.5696941614151L138,16.285491228103695L144,72.72119128704077L150,16.125073671341L156,66.0390602946282L162,60.42202377319336L168,73.79507267475134L174,54.51056921482086L180,62.12253624200821L186.00000000000003,82.84756833314901L192,45.319285333156586L198.00000000000003,90.51569277048117L204,71.45720833539968L210,83.53871190547949L216,71.08111703395849L222,42.07974815368652L228,85.46513074636465L234,32.10789316892624L240,61.2164323925972L246,78.73570436239248L251.99999999999997,99.17696410417557L258,71.52508163452154L264,68.15511131286627L270,96.86217480897903L276,49.73696404695511L282,95.94780975580221L288,72.87650191783911L294,55.59954607486725L300,55.54019683599472L306,78.25912678241735L312,87.28678250312811L318,90.64764672517782L324,78.61969077587133L330,75.95665419101721L336,86.04767704010015L342,85.97058498859411L348,59.04535049200058L354,104.20112782716757L360,76.31149166822439L366,88.40587520599371L372.00000000000006,85.71540766954428L378,47.56137603521347L384,102.90738576650625L390,48.58963304758072L396.00000000000006,91.77481287717825L402,60.124995946884155L408,103.19299811124807L413.99999999999994,94.35647660493856L420,102.18468064069748L426,36.436388432979584L432,90.53056293725973L437.99999999999994,103.30307865142828L444,81.54473894834524L450,83.39693838357931L456,118.22735631465918L462.00000000000006,80.6535240411759L468,94.16860932111746L474,95.46541178226477L480,109.85806220769888L486.00000000000006,109.9867680072785L492,88.40001726150518L498,103.9489170312882L503.99999999999994,79.32900899648672L510,91.7294889092446L516,104.95364838838583L522,81.77768611907965L528,97.89880567789078L534,86.93158829212194L540,98.71529424190527L546,112.5032245516777L552,57.235377073287964L558,88.85584795475012L564,112.37455630302435L570,89.22148132324224L576,105.58281415700918L582,101.96153426170355L588,98.11810308694845L594,89.13513296842581L600,80.01651012897497L606,96.25711673498154L612,89.77520728111273L618,126.62226015329367L624,80.60023927688604L630,76.4560627341271L636,92.48683476448065L642,105.8779456615448L648,100.54625862836838L654,118.1624683141709L660,107.67517054080969L666,129.89591234922412L672,118.5459195971489L678,129.54466098546985L684,109.64175009727484L690,117.26083302497864L696,89.03102302551275L702,105.89779132604605L708,125.82094216346744L714,99.83327919244766L720,123.3947392702103L726,85.40818476676947L732,100.56871408224112L737.9999999999999,90.11748397350317L744.0000000000001,86.75008589029318L750,110.50468915700918L756,125.35255068540579L762,138.27603989839557L768,99.5744594335556L774,112.90396803617483L780,116.57596045732498L785.9999999999999,135.49297177791598L792.0000000000001,121.31370449066168L798,102.82099986076355L804,128.76930946111685L810,126.52941548824313L816,114.79184085130697L822,92.97475272417074L827.9999999999999,107.63564819097525L834.0000000000001,91.00503766536718L840,112.08541417121893L846,108.2425274848938L852,113.48533147573471L858,119.43841123580933L864,97.51475358009344L870,115.07180178165441L875.9999999999999,129.15018850564962L882.0000000000001,139.3227531909943L888,141.1587681770325L894,116.81850188970566L900,112.45938384532934L906,116.96237826347357L912,133.63343113660818L917.9999999999999,111.72766649723053L924.0000000000001,106.6186940073967L930,131.23272532224658L936,113.41524267196661L942,119.78748464584356L948,111.7273097634316L954,119.15798091888433L960,106.6816293597222L965.9999999999999,134.7182586193085L972.0000000000001,105.3650000095368L978,102.70271444320679L984,137.66613775491717L990,133.1301736235619L996,121.53955453634262L1002,126.63868868350986L1007.9999999999999,128.3975740671158L1014.0000000000001,133.24981087446216L1020,94.99533051252371L1026,112.4439691901207L1032,97.20373803377151L1038,104.27390152215963L1044,115.99837088584906L1050,110.0749939084053L1056,121.57847607135773L1062,120.67282283306128L1068,119.33289313316351L1074,109.37130832672119L1080,106.91887611150747L1086,115.72484993934637L1092,102.75460982322699L1098,114.4414907097817L1104,117.46497863531118L1110,128.68286722898486L1116,128.3637594580651L1122,126.50070780515676L1128,140.78952991962439L1134,113.8616293072701L1140,125.34605437517169L1146,145.20074987411502L1152,119.86902648210526L1158,138.52333152294162L1164,105.47399157285696L1170,120.20129585266113L1176,119.64084827899933L1182,122.73921275138858L1188,114.51632970571518L1194,127.31190168857577L1200,112.15739929676062L1206,117.21438252925878L1212,122.10570985078814L1218,114.01851707696915L1224,121.34438359737396L1230,128.11763191223147L1236,133.98971432447436L1242,143.9559178948403L1248,127.44537645578387L1254,142.81819993257525L1260,83.53005641698843L1266,112.34370821714401L1272,141.7333161234856L1278,126.76951611042026L1284,130.92255467176443L1290,136.75549024343496L1296,125.33783072233203L1302,110.8959322571755L1308,132.60083699226382L1314,120.33110940456396" fill="none"></path></g></g></g></g></g></g><g transform="translate(58, 378)" clip-path="url(#clip_1)"><clipPath id="clip_1"><rect width="1440" height="22"></rect></clipPath><g><g><line x1="0" y1="0" x2="0" y2="5" style="visibility: inherit;" fill="rgb(0, 0, 0)" stroke="rgb(204, 204, 204)" stroke-width="1px"></line><line x1="120" y1="0" x2="120" y2="5" style="visibility: inherit;" fill="rgb(0, 0, 0)" stroke="rgb(204, 204, 204)" stroke-width="1px"></line><line x1="240" y1="0" x2="240" y2="5" style="visibility: inherit;" fill="rgb(0, 0, 0)" stroke="rgb(204, 204, 204)" stroke-width="1px"></line><line x1="360" y1="0" x2="360" y2="5" style="visibility: inherit;" fill="rgb(0, 0, 0)" stroke="rgb(204, 204, 204)" stroke-width="1px"></line><line x1="480" y1="0" x2="480" y2="5" style="visibility: inherit;" fill="rgb(0, 0, 0)" stroke="rgb(204, 204, 204)" stroke-width="1px"></line><line x1="600" y1="0" x2="600" y2="5" style="visibility: inherit;" fill="rgb(0, 0, 0)" stroke="rgb(204, 204, 204)" stroke-width="1px"></line><line x1="720" y1="0" x2="720" y2="5" style="visibility: inherit;" fill="rgb(0, 0, 0)" stroke="rgb(204, 204, 204)" stroke-width="1px"></line><line x1="840" y1="0" x2="840" y2="5" style="visibility: inherit;" fill="rgb(0, 0, 0)" stroke="rgb(204, 204, 204)" stroke-width="1px"></line><line x1="960" y1="0" x2="960" y2="5" style="visibility: inherit;" fill="rgb(0, 0, 0)" stroke="rgb(204, 204, 204)" stroke-width="1px"></line><line x1="1080" y1="0" x2="1080" y2="5" style="visibility: inherit;" fill="rgb(0, 0, 0)" stroke="rgb(204, 204, 204)" stroke-width="1px"></line><line x1="1200" y1="0" x2="1200" y2="5" style="visibility: inherit;" fill="rgb(0, 0, 0)" stroke="rgb(204, 204, 204)" stroke-width="1px"></line><line x1="1320" y1="0" x2="1320" y2="5" style="visibility: inherit;" fill="rgb(0, 0, 0)" stroke="rgb(204, 204, 204)" stroke-width="1px"></line><line x1="1440" y1="0" x2="1440" y2="5" style="visibility: inherit;" fill="rgb(0, 0, 0)" stroke="rgb(204, 204, 204)" stroke-width="1px"></line></g><g transform="translate(0, 8)"><text x="0" y="0" dx="0em" dy="0.95em" style="text-anchor: middle; visibility: hidden; font-family: &quot;Helvetica Neue&quot;, sans-serif; font-size: 12px; font-weight: 200;" fill="rgb(50, 49, 63)" stroke="none" stroke-width="1px">-20</text><text x="120" y="0" dx="0em" dy="0.95em" style="text-anchor: middle; visibility: inherit; font-family: &quot;Helvetica Neue&quot;, sans-serif; font-size: 12px; font-weight: 200;" fill="rgb(50, 49, 63)" stroke="none" stroke-width="1px">0</text><text x="240" y="0" dx="0em" dy="0.95em" style="text-anchor: middle; visibility: inherit; font-family: &quot;Helvetica Neue&quot;, sans-serif; font-size: 12px; font-weight: 200;" fill="rgb(50, 49, 63)" stroke="none" stroke-width="1px">20</text><text x="360" y="0" dx="0em" dy="0.95em" style="text-anchor: middle; visibility: inherit; font-family: &quot;Helvetica Neue&quot;, sans-serif; font-size: 12px; font-weight: 200;" fill="rgb(50, 49, 63)" stroke="none" stroke-width="1px">40</text><text x="480" y="0" dx="0em" dy="0.95em" style="text-anchor: middle; visibility: inherit; font-family: &quot;Helvetica Neue&quot;, sans-serif; font-size: 12px; font-weight: 200;" fill="rgb(50, 49, 63)" stroke="none" stroke-width="1px">60</text><text x="600" y="0" dx="0em" dy="0.95em" style="text-anchor: middle; visibility: inherit; font-family: &quot;Helvetica Neue&quot;, sans-serif; font-size: 12px; font-weight: 200;" fill="rgb(50, 49, 63)" stroke="none" stroke-width="1px">80</text><text x="720" y="0" dx="0em" dy="0.95em" style="text-anchor: middle; visibility: inherit; font-family: &quot;Helvetica Neue&quot;, sans-serif; font-size: 12px; font-weight: 200;" fill="rgb(50, 49, 63)" stroke="none" stroke-width="1px">100</text><text x="840" y="0" dx="0em" dy="0.95em" style="text-anchor: middle; visibility: inherit; font-family: &quot;Helvetica Neue&quot;, sans-serif; font-size: 12px; font-weight: 200;" fill="rgb(50, 49, 63)" stroke="none" stroke-width="1px">120</text><text x="960" y="0" dx="0em" dy="0.95em" style="text-anchor: middle; visibility: inherit; font-family: &quot;Helvetica Neue&quot;, sans-serif; font-size: 12px; font-weight: 200;" fill="rgb(50, 49, 63)" stroke="none" stroke-width="1px">140</text><text x="1080" y="0" dx="0em" dy="0.95em" style="text-anchor: middle; visibility: inherit; font-family: &quot;Helvetica Neue&quot;, sans-serif; font-size: 12px; font-weight: 200;" fill="rgb(50, 49, 63)" stroke="none" stroke-width="1px">160</text><text x="1200" y="0" dx="0em" dy="0.95em" style="text-anchor: middle; visibility: inherit; font-family: &quot;Helvetica Neue&quot;, sans-serif; font-size: 12px; font-weight: 200;" fill="rgb(50, 49, 63)" stroke="none" stroke-width="1px">180</text><text x="1320" y="0" dx="0em" dy="0.95em" style="text-anchor: middle; visibility: inherit; font-family: &quot;Helvetica Neue&quot;, sans-serif; font-size: 12px; font-weight: 200;" fill="rgb(50, 49, 63)" stroke="none" stroke-width="1px">200</text><text x="1440" y="0" dx="0em" dy="0.95em" style="text-anchor: middle; visibility: hidden; font-family: &quot;Helvetica Neue&quot;, sans-serif; font-size: 12px; font-weight: 200;" fill="rgb(50, 49, 63)" stroke="none" stroke-width="1px">220</text></g><line x1="0" y1="0" x2="1440" y2="0" fill="rgb(0, 0, 0)" stroke="rgb(204, 204, 204)" stroke-width="1px"></line></g></g></g></g></svg>