<svg viewBox="0 0 1498 400" xmlns="http://www.w3.org/2000/svg"><g><g><g><g><g><line x1="34" y1="361.605765239002" x2="29" y2="361.605765239002" style="visibility: inherit;" fill="rgb(0, 0, 0)" stroke="rgb(204, 204, 204)" stroke-width="1px"></line><line x1="34" y1="320.812971096361" x2="29" y2="320.812971096361" style="visibility: inherit;" fill="rgb(0, 0, 0)" stroke="rgb(204, 204, 204)" stroke-width="1px"></line><line x1="34" y1="280.02017695372007" x2="29" y2="280.02017695372007" style="visibility: inherit;" fill="rgb(0, 0, 0)" stroke="rgb(204, 204, 204)" stroke-width="1px"></line><line x1="34" y1="239.2273828110791" x2="29" y2="239.2273828110791" style="visibility: inherit;" fill="rgb(0, 0, 0)" stroke="rgb(204, 204, 204)" stroke-width="1px"></line><line x1="34" y1="198.43458866843815" x2="29" y2="198.43458866843815" style="visibility: inherit;" fill="rgb(0, 0, 0)" stroke="rgb(204, 204, 204)" stroke-width="1px"></line><line x1="34" y1="157.6417945257972" x2="29" y2="157.6417945257972" style="visibility: inherit;" fill="rgb(0, 0, 0)" stroke="rgb(204, 204, 204)" stroke-width="1px"></line><line x1="34" y1="116.84900038315624" x2="29" y2="116.84900038315624" style="visibility: inherit;" fill="rgb(0, 0, 0)" stroke="rgb(204, 204, 204)" stroke-width="1px"></line><line x1="34" y1="76.05620624051528" x2="29" y2="76.05620624051528" style="visibility: inherit;" fill="rgb(0, 0, 0)" stroke="rgb(204, 204, 204)" stroke-width="1px"></line><line x1="34" y1="35.26341209787432" x2="29" y2="35.26341209787432" style="visibility: inherit;" fill="rgb(0, 0, 0)" stroke="rgb(204, 204, 204)" stroke-width="1px"></line></g><g transform="translate(24, 0)"><text x="0" y="361.605765239002" dx="0em" dy="0.3em" style="text-anchor: end; visibility: inherit; font-family: &quot;Helvetica Neue&quot;, sans-serif; font-size: 12px; font-weight: 200;" fill="rgb(50, 49, 63)" stroke="none" stroke-width="1px">45</text><text x="0" y="320.812971096361" dx="0em" dy="0.3em" style="text-anchor: end; visibility: inherit; font-family: &quot;Helvetica Neue&quot;, sans-serif; font-size: 12px; font-weight: 200;" fill="rgb(50, 49, 63)" stroke="none" stroke-width="1px">50</text><text x="0" y="280.02017695372007" dx="0em" dy="0.3em" style="text-anchor: end; visibility: inherit; font-family: &quot;Helvetica Neue&quot;, sans-serif; font-size: 12px; font-weight: 200;" fill="rgb(50, 49, 63)" stroke="none" stroke-width="1px">55</text><text x="0" y="239.2273828110791" dx="0em" dy="0.3em" style="text-anchor: end; visibility: inherit; font-family: &quot;Helvetica Neue&quot;, sans-serif; font-size: 12px; font-weight: 200;" fill="rgb(50, 49, 63)" stroke="none" stroke-width="1px">60</text><text x="0" y="198.43458866843815" dx="0em" dy="0.3em" style="text-anchor: end; visibility: inherit; font-family: &quot;Helvetica Neue&quot;, sans-serif; font-size: 12px; font-weight: 200;" fill="rgb(50, 49, 63)" stroke="none" stroke-width="1px">65</text><text x="0" y="157.6417945257972" dx="0em" dy="0.3em" style="text-anchor: end; visibility: inherit; font-family: &quot;Helvetica Neue&quot;, sans-serif; font-size: 12px; font-weight: 200;" fill="rgb(50, 49, 63)" stroke="none" stroke-width="1px">70</text><text x="0" y="116.84900038315624" dx="0em" dy="0.3em" style="text-anchor: end; visibility: inherit; font-family: &quot;Helvetica Neue&quot;, sans-serif; font-size: 12px; font-weight: 200;" fill="rgb(50, 49, 63)" stroke="none" stroke-width="1px">75</text><text x="0" y="76.05620624051528" dx="0em" dy="0.3em" style="text-anchor: end; visibility: inherit; font-family: &quot;Helvetica Neue&quot;, sans-serif; font-size: 12px; font-weight: 200;" fill="rgb(50, 49, 63)" stroke="none" stroke-width="1px">80</text><text x="0" y="35.26341209787432" dx="0em" dy="0.3em" style="text-anchor: end; visibility: inherit; font-family: &quot;Helvetica Neue&quot;, sans-serif; font-size: 12px; font-weight: 200;" fill="rgb(50, 49, 63)" stroke="none" stroke-width="1px">85</text></g><line x1="34" y1="0" x2="34" y2="378" fill="rgb(0, 0, 0)" stroke="rgb(204, 204, 204)" stroke-width="1px"></line></g></g><g transform="translate(34, 0)" clip-path="url(#clip_0)"><clipPath id="clip_0"><rect width="1464" height="378"></rect></clipPath><g><g><g><line x1="18.626550099193558" y1="0" x2="18.626550099193558" y2="378" fill="rgb(0, 0, 0)" stroke="rgb(60, 60, 60)" stroke-width="1px" opacity="0.25"></line><line x1="123.95397624527178" y1="0" x2="123.95397624527178" y2="378" fill="rgb(0, 0, 0)" stroke="rgb(60, 60, 60)" stroke-width="1px" opacity="0.25"></line><line x1="229.28140239134999" y1="0" x2="229.28140239134999" y2="378" fill="rgb(0, 0, 0)" stroke="rgb(60, 60, 60)" stroke-width="1px" opacity="0.25"></line><line x1="334.6088285374282" y1="0" x2="334.6088285374282" y2="378" fill="rgb(0, 0, 0)" stroke="rgb(60, 60, 60)" stroke-width="1px" opacity="0.25"></line><line x1="439.9362546835064" y1="0" x2="439.9362546835064" y2="378" fill="rgb(0, 0, 0)" stroke="rgb(60, 60, 60)" stroke-width="1px" opacity="0.25"></line><line x1="545.2636808295847" y1="0" x2="545.2636808295847" y2="378" fill="rgb(0, 0, 0)" stroke="rgb(60, 60, 60)" stroke-width="1px" opacity="0.25"></line><line x1="650.5911069756629" y1="0" x2="650.5911069756629" y2="378" fill="rgb(0, 0, 0)" stroke="rgb(60, 60, 60)" stroke-width="1px" opacity="0.25"></line><line x1="755.9185331217411" y1="0" x2="755.9185331217411" y2="378" fill="rgb(0, 0, 0)" stroke="rgb(60, 60, 60)" stroke-width="1px" opacity="0.25"></line><line x1="861.2459592678193" y1="0" x2="861.2459592678193" y2="378" fill="rgb(0, 0, 0)" stroke="rgb(60, 60, 60)" stroke-width="1px" opacity="0.25"></line><line x1="966.5733854138977" y1="0" x2="966.5733854138977" y2="378" fill="rgb(0, 0, 0)" stroke="rgb(60, 60, 60)" stroke-width="1px" opacity="0.25"></line><line x1="1071.9008115599756" y1="0" x2="1071.9008115599756" y2="378" fill="rgb(0, 0, 0)" stroke="rgb(60, 60, 60)" stroke-width="1px" opacity="0.25"></line><line x1="1177.228237706054" y1="0" x2="1177.228237706054" y2="378" fill="rgb(0, 0, 0)" stroke="rgb(60, 60, 60)" stroke-width="1px" opacity="0.25"></line><line x1="1282.5556638521323" y1="0" x2="1282.5556638521323" y2="378" fill="rgb(0, 0, 0)" stroke="rgb(60, 60, 60)" stroke-width="1px" opacity="0.25"></line><line x1="1387.8830899982106" y1="0" x2="1387.8830899982106" y2="378" fill="rgb(0, 0, 0)" stroke="rgb(60, 60, 60)" stroke-width="1px" opacity="0.25"></line></g><g><line x1="0" y1="361.605765239002" x2="1464" y2="361.605765239002" fill="rgb(0, 0, 0)" stroke="rgb(60, 60, 60)" stroke-width="1px" opacity="0.25"></line><line x1="0" y1="320.812971096361" x2="1464" y2="320.812971096361" fill="rgb(0, 0, 0)" stroke="rgb(60, 60, 60)" stroke-width="1px" opacity="0.25"></line><line x1="0" y1="280.02017695372007" x2="1464" y2="280.02017695372007" fill="rgb(0, 0, 0)" stroke="rgb(60, 60, 60)" stroke-width="1px" opacity="0.25"></line><line x1="0" y1="239.2273828110791" x2="1464" y2="239.2273828110791" fill="rgb(0, 0, 0)" stroke="rgb(60, 60, 60)" stroke-width="1px" opacity="0.25"></line><line x1="0" y1="198.43458866843815" x2="1464" y2="198.43458866843815" fill="rgb(0, 0, 0)" stroke="rgb(60, 60, 60)" stroke-width="1px" opacity="0.25"></line><line x1="0" y1="157.6417945257972" x2="1464" y2="157.6417945257972" fill="rgb(0, 0, 0)" stroke="rgb(60, 60, 60)" stroke-width="1px" opacity="0.25"></line><line x1="0" y1="116.84900038315624" x2="1464" y2="116.84900038315624" fill="rgb(0, 0, 0)" stroke="rgb(60, 60, 60)" stroke-width="1px" opacity="0.25"></line><line x1="0" y1="76.05620624051528" x2="1464" y2="76.05620624051528" fill="rgb(0, 0, 0)" stroke="rgb(60, 60, 60)" stroke-width="1px" opacity="0.25"></line><line x1="0" y1="35.26341209787432" x2="1464" y2="35.26341209787432" fill="rgb(0, 0, 0)" stroke="rgb(60, 60, 60)" stroke-width="1px" opacity="0.25"></line></g></g></g><g><g><line x1="0" y1="728.7409125227707" x2="1464" y2="728.7409125227707" fill="rgb(0, 0, 0)" stroke="rgb(153, 153, 153)" stroke-width="1.5px"></line></g></g><g><g><line x1="123.95397624527178" y1="0" x2="123.95397624527178" y2="378" fill="rgb(0, 0, 0)" stroke="rgb(153, 153, 153)" stroke-width="1.5px"></line></g></g><g><g><g><g><g><path stroke="rgb(0, 153, 136)" stroke-width="2px" d="M126.58716189892374,354.68731083812247L127.11379902965413,344.24436549678467L129.2203475525757,312.0180518996119L129.7469846833061,301.37928421578636L130.80025894476688,290.0388924237213L131.32689607549725,282.5003858090174L131.85353320622764,279.0411586085777L132.90680746768842,269.724067246816L133.43344459841882,259.93379042809573L133.9600817291492,258.67737784605043L134.4867188598796,255.07131501117692L136.59326738280114,241.93603031765744L141.33300155937468,220.98484477253118L141.85963869010507,216.77503787822997L142.91291295156586,214.16430154289552L144.492824343757,209.48127806920368L145.0194614744874,212.35310048704443L146.07273573594819,203.60713687591718L147.12600999740897,202.6117792539461L147.65264712813936,198.45089682283478L148.70592138960015,197.45553920086368L149.75919565106094,193.68630145472778L150.28583278179133,192.72362238641406L151.86574417398248,189.19906920109165L152.39238130471287,188.38322576721166L152.91901843544326,186.14782596245598L153.44565556617368,185.07086532363766L153.97229269690408,184.17341887291045L155.55220408909523,178.42977403722898L156.07884121982562,182.75386250203476L157.1321154812864,174.95426980482463L158.18538974274716,175.46007157057647L158.71202687347758,175.01950242241114L159.23866400420798,173.19199321216345L159.76530113493837,172.849335235242L161.34521252712955,168.2642540552261L161.8718496578599,167.41573206768877L162.3984867885903,167.5626299469866L162.9251239193207,164.4949540642261L163.97839818078148,166.51828561696155L165.55830957297266,162.79803457887962L168.19149522662462,161.90058812815235L168.71813235735502,161.68845763126805L169.24476948808538,160.05670851864394L169.77140661881577,159.43668742725163L170.29804374954617,158.0333769659085L170.82468088027656,159.02873458787957L173.45786653392852,155.04736634485934L177.67096357977164,149.54853055971958L179.25087497196284,149.23848889159143L179.77751210269324,151.78393036447525L183.46397201780596,145.24081249417452L185.04388340999714,144.32699564418658L186.09715767145792,144.66971586597214L186.62379480218829,143.65805008960444L187.1504319329187,144.42490681543043L189.25698045584028,139.0729066647244L189.78361758657064,143.4459195927201L190.31025471730104,140.94940258302609L191.8901661094922,139.36664017845598L192.4168032402226,138.24075507644778L193.99671463241376,138.3712825564849L196.10326315533533,137.83280223707573L197.1565374167961,138.64864567095572L198.20981167825693,133.67191980596442L198.7364488089873,138.8118517046502L199.2630859397177,137.2617056088733L199.78972307044808,137.58805543139815L201.89627159336965,135.14046288489405L202.94954585483043,135.8421492379977L204.5294572470216,133.45985155394416L205.05609437775198,133.05189871457213L205.5827315084824,131.15909464187382L206.63600576994318,133.55770048032394L207.16264290067355,132.105527800655L207.68928003140397,130.18010741916348L209.26919142359512,129.80477088858464L210.3224656850559,133.21504250340246L210.8491028157863,132.61132956640682L211.90237707724708,131.19177319553117L212.42901420797745,130.57168985927478L214.00892560016865,127.22671310690754L216.64211125382062,129.11945493474178L217.16874838455098,128.61365316898997L217.6953855152814,126.50871859940733L218.7486597767422,127.5040762213784L219.27529690747255,127.89565866148973L220.32857116893334,126.41080742816348L221.38184543039412,123.84905780088297L221.90848256112452,129.03791416275865L222.4351196918549,128.45044713529552L222.9617568225853,126.91667143877939L224.0150310840461,127.7651311814526L224.54166821477645,126.68823278749841L228.2281281298892,126.14975246808922L230.33467665281077,126.86768473072536L232.44122517573234,126.55770530746128L232.9678623064627,125.36652534300251L233.49449943719313,123.89798226407288L235.60104796011467,122.95161135015576L237.18095935230588,123.26165301828397L238.76087074449703,122.90262464210176L239.2875078752274,120.14505267233358L240.8674192674186,123.34319379026707L241.394056398149,121.2872459287384L242.44733065960978,121.14041029430462L242.97396779034014,120.76513600858999L243.50060492107056,119.36182554724684L244.55387918253135,120.52032695804826L245.0805163132617,124.71382569795287L246.1337905747225,120.61823812929214L246.6604277054529,121.0261909686642L247.18706483618328,120.2103475347842L248.76697622837446,121.76043138569696L250.3468876205656,118.26861899889599L252.98007327421757,119.42712040969741L254.03334753567836,118.28492715329259L255.08662179713914,118.35015977087909L255.61325892786957,118.64389328461067L258.24644458152153,115.4620603210738L259.8263559737127,119.45973671849072L260.35299310444304,118.62758513021402L260.87963023517347,116.47372609744156L261.40626736590383,117.06113088004054L262.4595416273646,117.94226917637116L264.5660901502862,117.92596102197456L265.619364411747,116.31052006374705L266.67263867320776,113.78138674525985L267.7259129346685,116.27790375495385L270.3590985883205,116.17999258370992L271.41237284978126,114.23826404782176L273.51892137270283,115.8699509155818L276.15210702635477,115.73942343554467L277.20538128781556,113.17767380826416L277.732018418546,113.71609188280922L279.3119298107371,114.64621688719382L280.3652040721979,114.53199756155334L280.8918412029283,114.53199756155334L281.4184783336587,116.24528744616055L282.4717525951195,116.3268282181437L282.9983897258499,111.07273923868149L283.52502685658027,114.69514135038366L285.63157537950184,111.61121955809068L286.1582125102322,114.93988815606127L287.211486771693,113.68347557401597L288.7913981638842,110.66478639930949L290.8979466868057,111.36647275241307L291.42458381753613,115.29885428737936L291.9512209482665,113.19398196266081L292.4778580789969,112.5086660088179L293.5311323404577,112.65550164325163L295.11104373264885,113.21029011705747L295.6376808633793,113.19398196266081L296.16431799410964,110.90959544985117L297.74422938630084,112.13332947823915L298.2708665170312,112.93286475772248L299.324140778492,109.06571584034276L302.48396356287435,110.63217009051624L303.53723782433514,108.64151709143812L305.1171492165263,108.13565308082224L305.64378634725665,109.45736052531817L306.69706060871744,108.67413340023143L307.22369773944786,109.31046264602031L309.85688339309985,108.69044155462802L310.3835205238302,109.39206566286754L311.436794785291,107.45033712697938L312.4900690467518,107.38504226452875L313.01670617748215,108.72305786342127L313.54334330821257,109.37575750847094L315.1232547004037,110.09368977110711L315.6498918311341,109.00048322275626L317.2298032233253,106.68341815628924L317.75644035405566,109.2615381828304L318.80971461551644,108.8535853434584L319.33635174624686,109.09839439400008L320.38962600770765,106.99345982441741L322.4961745306292,105.98179404804972L323.0228116613596,107.5971727614131L323.54944879209,109.11470254839668L324.6027230535508,109.21261371964056L325.12936018428115,105.11696390611576L326.7092715764723,108.31516726891334L327.2359087072027,108.26618056085937L327.7625458379331,105.44331372864053L328.2891829686635,106.91185680757019L329.3424572301243,107.5482482982232L329.86909436085466,107.77668694950421L330.395731491585,106.0797052192936L330.92236862231545,105.80234210482274L335.662102798889,104.69276515721117L336.1887399296194,104.74168962040108L337.24201419108016,106.79763748192971L338.8219255832713,102.5878305876285L342.50838549838403,103.97477064971093L343.03502262911445,104.35010718028974L345.141571152036,104.2358878546492L345.66820828276644,105.73704724237211L346.1948454134968,105.96548589365312L347.2481196749576,104.92120380849212L348.3013939364184,104.67645700281457L350.40794245933995,104.43164795227284L355.14767663591346,105.019114979736L355.6743137666438,102.79996108451286L356.20095089737424,106.3570683337644L356.7275880281046,107.36873411013215L357.7808622895654,104.77430592919427L358.3074994202958,103.14261906143429L359.88741081248696,104.87221710043815L361.46732220467817,105.28016993981021L365.1537821197909,103.15892721583094L365.68041925052125,103.15892721583094L366.2070563812516,101.20089052554613L366.7336935119821,102.83257739330611L367.7869677734428,104.5785458315707L368.3136049041732,102.3267756275543L368.8402420349036,102.3920082451408L369.8935162963644,105.21487507735958L370.4201534270948,103.86055132407046L370.9467905578252,100.49926641730656L372.00006481928597,103.25683838707477L373.05333908074675,100.76032137738076L373.5799762114771,101.39671286803383L375.6865247343987,101.0866711999056L379.37298464951147,102.5878305876285L380.9528960417026,101.55985665686416L381.47953317243304,102.79996108451286L382.53280743389377,102.19624814751717L383.58608169535455,101.73937084495526L385.16599308754576,103.87692172333118L390.95900152558,99.25916198965791L392.5389129177712,102.24517261070707L393.06555004850156,100.53188272609987L393.592187179232,100.25451961162901L394.64546144069277,101.33141800558326L395.69873570215356,101.070363045509L396.225372832884,102.34308378195095L397.27864709434476,99.83025861786035L399.9118327479967,101.85359017059574L400.43846987872706,101.10297935430225L403.5982926631095,101.36403431437645L404.6515669245702,98.10066057885649L405.17820405530057,98.8838254590791L405.704841186031,102.81626923890951L406.2314783167614,98.67175720705887L406.7581154474918,99.22648343600059L407.28475257822214,100.20553290357503L407.81138970895256,99.09595595596346L408.3380268396829,99.74865560101307L408.86466397041335,99.99340240669068L409.39130110114377,100.97245187426512L410.4445753626045,97.21952228252587L412.0244867547957,100.12392988672781L412.55112388552607,98.50855117336442L413.07776101625643,99.83025861786035L414.1310352777173,97.00739178564152L416.23758380063884,98.10066057885649L417.2908580620996,100.48295826290996L418.3441323235604,101.0540548911124L420.45068084648193,98.65538680779815L420.97731797721235,98.24749621329016L421.5039551079427,99.8791830810502L422.5572293694035,99.19386712720728L423.61050363086434,101.38034246877305L424.6637778923251,98.5575378814184L425.7170521537859,99.66705258416584L426.2436892845163,97.98644125321596L427.8236006767074,96.50152777502564L428.8768749381682,94.86984090726565L429.4035120688986,99.19386712720728L429.93014919962894,98.90019585833983L430.45678633035936,97.64378327629453L430.9834234610898,99.04703149277356L431.51006059182015,97.44796093380683L432.56333485328094,100.14030028598853L433.08997198401136,98.59015419021165L435.7231576376633,98.47593486457117L436.2497947683937,99.07964780156681L437.30306902985444,99.60181996657934L437.8297061605848,98.68806536145553L438.3563432913153,97.35004976256295L439.9362546835064,101.28249354239335L440.9895289449672,97.41528238014945L442.04280320642795,96.68104196311668L443.0960774678888,97.31743345376975L444.1493517293495,98.72068167024872L445.2026259908103,97.66009143069118L445.7292631215407,99.56920365778615L446.2559002522711,96.25678096934803L447.8358116444623,97.48057724260008L449.9423601673838,96.89317246000104L450.4689972981143,98.19850950523625L451.522271559575,98.11696873325309L452.0489086903054,95.68568434114565L453.1021829517662,97.04000809443477L455.2087314746878,96.61574710066611L457.84191712833973,96.07732902612105L461.52837704345245,96.71365827190999L462.0550141741828,94.55979923913742L463.10828843564366,97.18684372886855L463.634925566374,96.51789817428636L464.1615626971044,97.44796093380683L464.68819982783475,96.89317246000104L465.21483695856523,96.64842565432349L465.7414740892956,95.01667654169938L466.7947483507563,96.0936371805177L467.3213854814867,97.69270773948443L469.4279340044083,96.07732902612105L469.95457113513874,95.48992424352201L471.00784539659946,95.8488903748401L472.06111965806025,94.49456662155092L473.64103105025146,95.32671820982756L474.6943053117122,94.75562158162518L475.22094244244266,96.27308912374463L475.747579573173,96.64842565432349L477.32749096536423,95.48992424352201L477.8541280960946,92.7975848913403L478.38076522682496,94.96775207850948L478.9074023575553,93.76026395965403L479.4340394882857,95.17988257539383L480.48731374974653,97.33374160816635L481.0139508804769,95.88150668363335L481.54058801120726,96.92578876879429L482.5938622726681,95.01667654169938L483.12049940339847,96.02834231806708L483.6471365341289,94.10292193657551L484.17377366485925,95.35933451862081L484.7004107955897,95.70199249554224L485.22704792632004,95.62045172355914L486.2803221877808,94.33136058785647L486.8069593185112,94.70669711843527L488.3868707107024,95.42462938107144L490.49341923362397,94.93513576971623L492.0733306258152,94.26612797026996L492.59996775654554,96.43629515743913L493.1266048872759,96.14256164370755L494.1798791487367,95.37564267301741L494.7065162794671,94.60878594719145L495.2331534101975,96.40367884864588L495.75979054092784,93.6134283252203L496.8130648023887,93.95608630214178L497.33970193311904,93.20547548584824L497.86633906384947,93.8581751308979L499.97288758677104,94.38034729591044L502.0794361096926,93.401297828336L502.606073240423,96.43629515743913L503.6593475018837,94.49456662155092L504.1859846326142,94.80454604481503L504.71262176334454,94.67401856477795L505.2392588940749,93.30338665709212L505.7658960248053,94.96775207850948L506.29253315553564,95.1308958673398L507.87244454772684,96.30576767740206L508.39908167845726,94.23344941661259L511.5589044628396,96.77895313436056L512.6121787243004,93.27077034829887L513.1388158550308,92.78127673694371L513.6654529857611,93.77657211405068L514.1920901164916,93.84186697650125L515.2453643779523,92.6180707032492L516.8252757701435,93.23815403950562L517.3519129008739,93.6623527884102L518.9318242930651,92.92811237137744L519.4584614237955,93.23815403950562L519.9850985545258,92.81389304573696L521.0383728159866,92.01435776625357L522.0916470774474,94.90245721605885L523.6715584696385,94.29874427906321L524.198195600369,95.55515686110851L525.2514698618297,91.91644659500975L526.8313812540209,91.06792460747238L527.3580183847513,92.24279641753458L527.8846555154818,92.6180707032492L528.9379297769425,94.00501076533163L529.4645669076729,94.16821679902608L529.9912040384033,91.42695298365453L531.0444782998641,93.82555882210465L531.5711154305945,92.37332389757165L532.0977525613249,94.49456662155092L534.7309382149768,94.00501076533163L536.8374867378984,93.56450386203045L537.3641238686288,94.70669711843527L538.4173981300895,90.43159536168343L539.4706723915505,90.9373971274353L540.5239466530112,93.56450386203045L541.0505837837416,92.66705741130323L541.5772209144719,92.92811237137744L542.1038580452024,94.29874427906321L542.6304951759328,92.65068701204251L543.1571323066631,92.37332389757165L544.210406568124,92.76490633768299L545.2636808295847,93.17285917705505L546.3169550910454,92.35701574317505L547.8968664832366,91.57378861808826L548.9501407446974,91.93275474940634L549.4767778754278,91.37796627560056L550.0034150061582,91.21482248677023L552.1099635290798,92.4222483607615L553.1632377905405,93.10756431460442L553.6898749212709,90.59473915051382L554.7431491827317,91.05161645307572L556.3230605749229,93.07494800581117L557.3763348363836,92.30802903512102L557.9029719671141,90.66003401296445L558.4296090978445,89.97471805912153L560.0095204900357,93.02602354262126L561.5894318822269,93.89079143969116L562.1160690129573,92.73229002888974L563.169343274418,92.5528380856627L564.2226175358788,91.72062425252199L565.2758917973396,92.65068701204251L567.9090774509915,92.97703683456734L568.9623517124523,91.31273365801405L569.4889888431827,92.53646768640198L570.0156259739131,92.43861876002228L570.5422631046434,91.21482248677023L572.1221744968346,91.67169978933214L575.281997281217,91.541172309295L576.3352715426778,94.4618880678936L576.8619086734082,92.47123506881547L577.3885458041385,88.97936043715043L577.9151829348689,93.45028453638997L578.4418200655992,90.44790351608009L580.5483685885208,90.97007568109262L581.6016428499817,92.21018010874127L582.128279980712,93.51551715397648L583.7081913729032,92.52015953200538L584.2348285036336,89.66467639099335L584.7614656343641,90.80686964739817L585.2881027650944,90.088937384762L585.8147398958248,91.45956929244778L586.8680141572856,91.44326113805118L587.394651288016,91.37796627560056L587.9212884187464,91.1495276243196L588.4479255494768,94.26612797026996L589.5011998109376,89.69729269978654L591.0811112031288,90.57843099611716L592.1343854645895,89.55045706535282L592.6610225953199,91.21482248677023L593.7142968567807,93.15655102265839L594.2409339875111,91.47587744684444L595.8208453797023,89.77889571663383L596.3474825104327,88.8325248027167L597.4007567718934,90.31737603604296L597.9273939026237,90.34999234483621L601.6138538177365,89.30571025967527L602.1404909484669,89.84419057908445L602.6671280791973,92.65068701204251L603.1937652099277,92.11226893749745L603.7204023406581,88.91406557469986L604.2470394713885,90.1052455391586L604.7736766021188,89.2404153972247L605.8269508635797,87.86978348953886L606.35358799431,89.27309395088201L606.8802251250404,89.40362143091915L608.4601365172316,90.00733436791478L608.986773647962,90.13786184795191L609.5134107786924,91.75330280617936L610.0400479094228,89.69729269978654L611.0933221708837,92.30802903512102L614.253144955266,91.0842950067331L614.7797820859963,92.12857709189404L615.3064192167267,88.94674412835718L616.3596934781875,89.76258756223717L618.4662420011091,90.54581468732397L620.0461533933002,90.18684855600588L621.6260647854914,92.32439943438175L623.732613308413,88.636702460229L625.3125247006042,90.2847597272497L625.8391618313345,89.87680688787765L626.3657989620649,89.14250422598076L627.4190732235256,89.56676521974947L627.9457103542561,88.31035263770417L628.4723474849865,90.41528720728684L630.0522588771776,88.70199732267963L630.578896007908,89.28940210527861L631.6321702693688,89.56676521974947L632.6854445308296,88.73461363147283L633.21208166156,89.48522444776631L634.2653559230208,88.96305228275384L635.3186301844815,90.44790351608009L635.845267315212,86.43391896426658L636.8985415766728,89.06096345399766L637.9518158381336,89.66467639099335L638.478452968864,92.63437885764586L639.0050900995943,90.12155369355526L639.5317272303247,89.19149093403479L641.1116386225159,91.1006031611297L641.6382757532463,87.3802898781837L642.1649128839766,90.26838932798898L643.7448242761678,88.70199732267963L644.2714614068982,89.17518277963819L648.4845584527413,90.44790351608009L650.0644698449325,89.71366309904732L650.5911069756629,87.07024821005552L651.6443812371236,88.13090069447719L652.6976554985845,90.59473915051382L653.2242926293148,90.49682797926994L654.804204021506,88.55509944338178L655.3308411522364,88.01668136883671L656.3841154136971,87.86978348953886L656.9107525444276,89.09357976279091L657.437389675158,89.77889571663383L657.9640268058884,89.66467639099335L659.5439381980796,89.74627940784058L663.7570352439227,88.4408801177413L664.2836723746531,88.89775742030321L664.8103095053835,91.1006031611297L665.8635837668443,88.03298952323337L666.9168580283051,89.59944377340685L667.4434951590355,91.39427442999715L667.9701322897658,90.7089584761543L669.0234065512266,86.51545973624974L670.0766808126874,88.24512002011767L670.6033179434178,89.30571025967527L671.1299550741481,89.04465529960106L672.7098664663393,87.18446753569594L673.2365035970697,88.97936043715043L673.7631407278001,86.9886451932083L676.396326381452,88.14720884887384L677.4496006429129,87.41290618697695L677.9762377736432,89.02828490034034L679.029512035104,89.32201841407192L679.5561491658344,86.9886451932083L680.6094234272952,90.7089584761543L683.7692462116776,87.00501559246902L684.2958833424079,88.4245719633447L685.3491576038688,87.90246204319624L686.4024318653295,87.90246204319624L688.5089803882511,85.78121931921697L689.5622546497119,88.53879128898512L690.6155289111726,88.16351700327044L691.6688031726335,87.67402339191528L692.7220774340942,87.90246204319624L693.775351695555,88.93043597396058L694.3019888262854,88.94674412835718L694.8286259570158,85.04691665732008L695.3552630877462,85.9117467992541L695.8819002184765,86.30332923936538L697.9884487413981,89.8278824246878L699.0417230028589,88.3593393457582L699.5683601335893,87.88609164393552L702.7281829179716,86.82550140437792L703.7814571794324,88.93043597396058L704.8347314408932,89.95840990472487L705.3613685716235,87.88609164393552L705.8880057023539,88.27773632891092L709.0478284867363,88.73461363147283L710.6277398789275,86.76020654192729L711.6810141403882,84.91638917728295L713.2609255325794,87.34767356939045L714.8408369247707,89.66467639099335L715.367474055501,89.74627940784058L716.4207483169619,88.11453029521647L716.9473854476922,90.00733436791478L717.4740225784226,87.03763190126222L718.000659709153,88.24512002011767L719.0539339706138,88.1961333120637L719.5805711013442,88.91406557469986L720.6338453628049,87.54343366701409L721.1604824935354,87.18446753569594L721.6871196242657,88.06560583202656L723.2670310164568,89.74627940784058L723.7936681471873,88.34296894649742L724.846942408648,85.19381453661794L729.0600394544912,88.86514111150996L729.5866765852215,89.99102621351818L730.1133137159519,88.68562692341885L730.6399508466823,85.65069183917984L732.2198622388736,90.3663004992328L732.7464993696038,86.48284342745649L733.2731365003343,86.58075459870031L734.8530478925255,87.75556416389838L735.3796850232559,89.12619607158416L735.9063221539863,87.05394005565887L737.4862335461775,86.20548031298563L743.8058791149422,87.46189289503093L745.3857905071334,85.24273899980778L746.4390647685941,85.61801328552247L746.9657018993246,86.05858243368777L748.0189761607853,88.34296894649742L748.5456132915156,86.53176789064634L750.1255246837068,86.74389838753069L751.705436075898,87.83716718074561L752.2320732066285,89.12619607158416L752.7587103373587,86.61337090749356L753.2853474680892,88.81621664832005L753.8119845988194,86.82550140437792L754.3386217295499,85.38957463424151L754.8652588602804,85.78121931921697L755.3918959910106,84.50849858277502L756.4451702524715,87.51081735822078L757.4984445139323,88.01668136883671L758.0250816446627,85.42225318789889L759.0783559061235,89.30571025967527L760.1316301675843,87.78824271755576L761.184904429045,86.09126098734515L761.7115415597755,88.4245719633447L762.2381786905058,87.33136541499385L762.7648158212362,89.09357976279091L763.2914529519666,86.10756914174175L763.818090082697,86.51545973624974L765.9246386056185,86.77657694118801L768.5578242592704,84.80216985164247L769.0844613900009,87.88609164393552L770.1377356514616,86.38493225621261L770.6643727821921,86.22178846738223L772.7709213051136,88.4245719633447L773.297558435844,85.0795952109774L773.8241955665745,88.96305228275384L774.8774698280353,84.96537588533698L776.4573812202265,88.57140759777838L778.0372926124174,87.02132374686562L779.0905668738784,86.45022711866324L780.1438411353391,87.6576529926545L780.6704782660695,86.90710442122514L781.7237525275303,84.60634750915477L782.2503896582607,85.76491116482032L783.8303010504518,85.89543864485739L784.3569381811823,85.9280549536507L784.8835753119126,85.12851967416731L785.9368495733734,85.16113598296056L786.4634867041038,88.00031096957599L786.9901238348342,88.14720884887384L788.043398096295,87.72294785510513L788.5700352270254,84.31267624028732L789.0966723577558,85.06322481171668L789.6233094884863,86.82550140437792L790.1499466192165,85.69961630236975L790.676583749947,84.9326973316796L793.3097694035989,86.90710442122514L793.8364065343294,85.50379395988205L794.8896807957901,86.00965797049793L796.9962293187116,87.44558474063427L797.5228664494421,85.84645193680348L798.5761407109028,86.95602888441499L800.6826892338242,85.37326647984492L801.7359634952852,87.00501559246902L802.7892377567459,85.81383562801017L803.8425120182067,84.83478616043573L804.3691491489371,84.62271790841555L804.8957862796674,86.02596612489452L805.4224234103979,85.03060850292349L806.4756976718586,86.45022711866324L808.0556090640498,85.84645193680348L808.5822461947803,86.41754856500586L809.635520456241,86.1238772961384L810.1621575869714,83.95371010896923L810.6887947177019,86.84180955877451L811.7420689791626,87.16815938129935L813.8486175020842,83.6925929040309L814.901891763545,85.9117467992541L815.4285288942752,88.01668136883671L816.4818031557362,85.53647251353937L817.0084402864665,85.84645193680348L818.5883516786577,87.1192349181095L819.1149888093881,85.9606712624439L821.7481744630401,86.04227427929118L822.2748115937703,85.81383562801017L822.8014487245008,85.40594503350223L823.3280858552313,84.91638917728295L824.381360116692,83.87210709212201L825.4346343781527,87.15185122690275L825.9612715088832,85.06322481171668L826.4879086396135,86.22178846738223L827.014545770344,84.37790885787382L827.5411829010742,86.56444644430371L828.0678200318047,86.40124041060926L829.6477314239959,85.9606712624439L831.2276428161871,86.1891099137249L832.2809170776478,83.80681222967144L833.3341913391085,86.69497392434079L833.860828469839,85.50379395988205L834.3874656005694,83.25208600072972L834.9141027312997,86.17280175932825L835.4407398620302,84.72056683479525L837.5472883849518,85.06322481171668L839.6538369078733,85.6833081479731L840.7071111693341,88.5877779970391L841.2337483000645,83.87210709212201L842.8136596922557,84.36160070347722L843.3402968229861,85.19381453661794L843.8669339537164,84.13316205219621L845.4468453459076,83.57837357839043L847.0267567380988,85.76491116482032L847.5533938688293,84.62271790841555L848.0800309995595,85.53647251353937L849.1333052610203,84.68795052600206L849.6599423917507,87.86978348953886L850.1865795224812,86.79288509558467L851.7664909146722,85.58539697672927L852.8197651761332,88.32666079210077L853.3464023068634,84.65533421720875L853.8730394375939,87.54343366701409L854.3996765683241,84.70425868039865L854.9263136990546,86.10756914174175L855.4529508297851,86.49915158185308L856.5062250912458,86.35231594741936L857.0328622219762,84.2147650690435L858.6127736141674,85.8791304904608L861.2459592678193,85.24273899980778L867.5656048365842,83.85579893772535L868.0922419673144,85.25904715420444L868.6188790980449,86.54813828990706L869.1455162287751,85.89543864485739L871.2520647516968,85.17744413735721L872.831976143888,88.01668136883671L873.3586132746183,85.71592445676634L874.4118875360792,87.90246204319624L874.9385246668095,85.9117467992541L875.46516179754,83.56206542399383L875.9917989282702,84.60634750915477L877.0450731897312,82.17512536191146L878.0983474511919,82.50147518443623L878.6249845819221,84.57373120036152L879.1516217126526,85.09590336537406L880.2048959741134,82.20774167070465L880.7315331048438,85.24273899980778L881.2581702355742,84.83478616043573L882.311444497035,83.90472340091526L883.3647187584958,85.1448278285639L886.5245415428781,85.9280549536507L887.5778158043389,86.84180955877451L890.2110014579908,86.67866576994419L890.7376385887212,85.78121931921697L892.8441871116429,84.39427925713454L895.4773727652948,82.94204433260154L896.0040098960251,84.83478616043573L898.1105584189468,86.9234125756218L900.2171069418682,84.44320372032439L901.7970183340594,86.04227427929118L903.3769297262506,85.76491116482032L903.9035668569811,86.89079626682854L904.4302039877114,84.11685389779956L906.0101153799026,87.18446753569594L906.536752510633,83.80681222967144L908.1166639028241,85.61801328552247L909.169938164285,85.83014378240682L909.6965752950154,85.65069183917984L910.2232124257457,86.90710442122514L913.9096723408585,84.57373120036152L914.4363094715889,84.52480673717162L914.9629466023192,83.87210709212201L915.4895837330497,85.50379395988205L916.5428579945104,84.23107322344009L917.0694951252409,85.1448278285639L917.5961322559712,85.32434201665501L918.1227693867016,86.3196996386261L918.649406517432,85.89543864485739L919.1760436481624,85.40594503350223L919.7026807788928,82.20774167070465L920.2293179096231,86.1891099137249L920.7559550403536,81.86508369378322L922.3358664325448,83.49683280640733L923.3891406940055,82.56670780202273L926.0223263476574,84.32898439468391L926.5489634783879,81.21244629359768L927.0756006091182,84.9490054860762L928.1288748705789,84.83478616043573L931.8153347856918,83.56206542399383L932.8686090471525,85.9443631080473L935.5017947008045,86.1238772961384L936.0284318315349,87.67402339191528L938.1349803544565,84.9490054860762L939.1882546159172,86.58075459870031L939.7148917466476,84.14947020659287L940.7681660081084,83.02358510458464L941.2948031388388,82.48516703003958L942.3480774002996,84.01894272655574L942.8747145310299,84.80216985164247L946.0345373154123,84.91638917728295L946.5611744461428,84.4758200291177L947.087811576873,85.55278066793596L949.720997230525,85.8791304904608L950.2476343612555,84.37790885787382L954.9873685378288,87.08655636445212L955.5140056685593,85.34065017105166L957.0939170607505,84.23107322344009L957.6205541914809,82.72991383571718L958.1471913222113,84.45951187472104L959.2004655836721,83.12149627582852L960.2537398451328,84.52480673717162L961.3070141065937,83.92103155531186L962.8869254987849,82.20774167070465L963.4135626295152,83.70896330329163L964.466836890976,85.16113598296056L964.9934740217064,82.69729752692393L966.0467482831672,81.83246738498997L967.1000225446279,85.74860301042366L967.6266596753584,85.47117765108874L968.6799339368191,83.83949078332876L969.2065710675496,81.63664504250227L971.313119590471,82.30565284194853L971.8397567212015,83.6273602864444L972.8930309826623,82.72991383571718L973.4196681133927,82.419872167589L973.946305244123,83.80681222967144L974.4729423748535,86.28702108496873L975.5262166363142,85.37326647984492L976.0528537670447,81.81615923059331L976.5794908977749,84.18214876025019L977.1061280285054,84.62271790841555L979.2126765514269,84.78586169724588L980.2659508128878,82.84413316135766L980.7925879436181,82.82782500696106L981.3192250743485,84.4921281835143L982.3724993358093,82.3709477043991L983.42577359727,84.83478616043573L984.4790478587308,83.33362677271288L985.5323221201917,86.28702108496873L986.058959250922,84.08423758900636L986.5855963816524,84.05162128021311L987.6388706431133,85.78121931921697L988.1655077738436,83.90472340091526L988.692144904574,83.97001826336589L989.2187820353045,81.31029521997743L989.7454191660347,85.60170513112587L990.2720562967652,83.6110521320478L991.3253305582259,86.59706275309696L991.8519676889564,83.21940744707234L993.4318790811476,83.28470230952297L993.9585162118778,83.80681222967144L995.0117904733388,83.59474397765115L995.538427604069,81.55510427051911L997.1183389962603,84.68795052600206L997.6449761269907,82.24042022436203L998.171613257721,83.3663053263702L998.6982503884515,82.68092712766321L999.2248875191817,83.79050407527478L1000.2781617806427,85.27535530860104L1002.3847103035641,84.36160070347722L1003.4379845650249,83.20309929267574L1003.9646216957553,86.20548031298563L1004.4912588264856,82.77883829890709L1006.0711702186768,83.4478460983533L1006.5978073494073,82.6320026644733L1007.651081610868,85.76491116482032L1009.7576301337897,83.03995550384536L1010.2842672645199,84.45951187472104L1010.8109043952504,84.4921281835143L1011.3375415259808,85.63438368478324L1012.3908157874416,83.21940744707234L1014.4973643103632,85.25904715420444L1015.0240014410936,83.88841524651866L1016.0772757025544,82.09352234506417L1016.6039128332847,84.2147650690435L1017.1305499640151,85.8791304904608L1017.6571870947456,84.52480673717162L1018.7104613562063,80.29862944360974L1020.2903727483975,84.37790885787382L1020.8170098791278,83.79050407527478L1021.3436470098583,83.48052465201067L1021.8702841405888,82.55039964762608L1022.396921271319,82.56670780202273L1023.9768326635102,83.83949078332876L1024.5034697942406,83.83949078332876L1026.6100183171623,82.92573617820494L1027.1366554478925,83.28470230952297L1028.1899297093535,85.21012269101453L1028.7165668400837,83.31731861831622L1029.2432039708142,81.06554841429983L1031.3497524937357,82.87674947015091L1032.9296638859269,84.08423758900636L1033.9829381473876,85.32434201665501L1035.5628495395788,83.85579893772535L1036.0894866703093,83.48052465201067L1036.6161238010397,84.76955354284922L1037.14276093177,82.24042022436203L1037.6693980625005,81.93037855623379L1038.7226723239612,84.10054574340296L1039.2493094546917,83.93740195457264L1039.775946585422,82.68092712766321L1041.3558579776131,82.94204433260154L1041.8824951083436,83.65997659523765L1042.9357693698043,83.95371010896923L1043.4624065005346,84.4268955659278L1043.989043631265,82.64831081886996L1045.5689550234563,82.97466064139479L1046.622229284917,84.52480673717162L1047.1488664156475,84.16584060585359L1047.6755035463777,83.70896330329163L1048.2021406771082,84.99799219413018L1051.8886005922209,81.84877553938662L1052.4152377229514,81.9140704018372L1053.9951491151426,82.17512536191146L1056.6283347687945,82.86044131575431L1058.734883291716,83.51314096080392L1059.7881575531767,81.1145351223538L1060.8414318146374,83.4315379439567L1061.8947060760984,82.50147518443623L1062.4213432068286,83.56206542399383L1062.947980337559,81.9956111738203L1063.4746174682896,82.97466064139479L1065.581165991211,82.33826915074178L1066.1078031219415,83.95371010896923L1066.6344402526718,82.58307820128346L1067.6877145141325,84.81847800603913L1068.214351644863,81.60402873370896L1068.7409887755935,83.30101046391957L1070.847537298515,81.32666561923816L1071.9008115599756,84.26368953223334L1072.9540858214366,81.44088494487863L1074.0073600828973,81.7671725225394L1074.5339972136278,82.99096879579145L1075.5872714750885,84.00263457215914L1077.6938199980102,82.68092712766321L1078.747094259471,83.4315379439567L1079.2737313902012,85.8628223360642L1080.8536427823924,80.967637243056L1082.4335541745836,82.55039964762608L1084.5401026975053,80.02126632913888L1085.593376958966,81.65295319689886L1086.1200140896965,84.75324538845263L1087.6999254818875,84.26368953223334L1089.8064740048092,83.4315379439567L1090.3331111355394,83.30101046391957L1090.85974826627,81.57141242491576L1091.3863853970004,83.07257181263867L1092.9662967891916,81.71824805934949L1093.4929339199218,81.22875444799433L1094.0195710506523,84.18214876025019L1095.072845312113,82.72991383571718L1095.5994824428435,81.44088494487863L1096.1261195735738,81.68563175055624L1097.1793938350345,82.77883829890709L1097.706030965765,82.77883829890709L1099.2859423579562,83.12149627582852L1099.8125794886864,85.27535530860104L1100.8658537501474,83.08887996703527L1101.919128011608,84.2147650690435L1102.4457651423384,82.06090603627092L1102.9724022730688,84.01894272655574L1106.6588621881815,82.99096879579145L1107.185499318912,80.95132908865935L1107.7121364496425,83.6925929040309L1108.2387735803727,80.33130799726706L1111.3985963647551,84.28005993149407L1111.9252334954854,82.48516703003958L1112.4518706262159,84.73693723405597L1112.9785077569463,84.29636808589072L1113.5051448876766,82.419872167589L1114.5584191491373,82.74622199011384L1116.1383305413285,85.76491116482032L1117.7182419335197,81.71824805934949L1119.8247904564414,82.4361803219856L1120.3514275871717,82.69729752692393L1120.8780647179021,82.32196099634513L1121.4047018486324,81.9629948650271L1121.9313389793629,82.71360568132059L1122.9846132408236,83.3989216351635L1123.511250371554,82.25672837875862L1125.6177988944758,84.28005993149407L1127.197710286667,80.82080160862228L1127.7243474173972,81.45719309927529L1129.3042588095884,83.3663053263702L1129.830895940319,82.15881720751474L1130.3575330710491,81.31029521997743L1130.8841702017796,83.1541748294859L1131.41080733251,83.10518812143187L1132.4640815939708,81.14715143114705L1132.9907187247013,81.47350125367188L1133.5173558554316,83.57837357839043L1134.043992986162,81.42451454561791L1134.5706301168923,80.9024046254695L1136.677178639814,83.02358510458464L1137.2038157705445,83.3989216351635L1137.7304529012747,84.26368953223334L1139.310364293466,82.76253014451044L1140.3636385549266,83.25208600072972L1140.8902756856571,79.71122466101065L1141.4169128163874,83.52944911520058L1142.4701870778483,83.90472340091526L1142.9968242085786,81.47350125367188L1143.523461339309,84.00263457215914L1144.5767356007698,81.19607589433696L1145.1033727315003,82.33826915074178L1146.6832841236912,82.94204433260154L1147.7365583851522,81.7671725225394L1148.789832646613,80.85341791741547L1149.3164697773432,82.30565284194853L1150.3697440388041,83.80681222967144L1151.9496554309953,82.46885887564298L1153.002929692456,81.78354292180012L1153.5295668231863,81.65295319689886L1154.0562039539168,83.20309929267574L1155.1094782153775,82.24042022436203L1156.1627524768383,83.98632641776248L1156.6893896075687,80.9024046254695L1157.2160267382992,84.00263457215914L1159.3225752612207,80.52706809489064L1159.8492123919511,82.15881720751474L1160.9024866534119,82.4361803219856L1161.9557609148726,82.06090603627092L1164.5889465685245,81.26137075678753L1166.6954950914462,82.46885887564298L1167.2221322221765,82.25672837875862L1167.748769352907,81.50611756246514L1168.2754064836372,81.32666561923816L1174.595052052402,81.73455621374609L1175.6483263138628,82.58307820128346L1176.7016005753237,79.77651952346127" style="fill: none;" fill="none"></path></g><g><path stroke="rgb(187, 187, 187)" stroke-width="2px" d="M131.85353320622764,400.93001630271334L132.90680746768842,375.4753214719863L133.43344459841882,403.4591807436326L133.9600817291492,347.4098591834928L134.4867188598796,458.44784981935067L136.59326738280114,297.5610908840285L141.33300155937468,383.38910237240486L141.85963869010507,437.3987842254126L142.91291295156586,360.30039707133477L144.492824343757,457.71357827988584L145.0194614744874,392.7714574741851L146.07273573594819,253.34168584974105L147.12600999740897,449.9629722907297L147.65264712813936,473.4595993087398L148.70592138960015,275.85932564504077L149.75919565106094,437.72513404793744L150.28583278179133,337.374835559095L151.86574417398248,246.48849518888008L152.39238130471287,371.4776139521374L152.91901843544326,311.51221901142804L153.44565556617368,353.6919532161514L153.97229269690408,310.7779474719632L155.55220408909523,336.151070408275L156.07884121982562,371.39604205772224L157.1321154812864,422.223859824761L158.18538974274716,358.26075736420273L158.71202687347758,378.41240762984563L159.23866400420798,266.64014545452295L159.76530113493837,311.92014072836804L161.34521252712955,288.50508560477306L161.8718496578599,361.605765239002L162.3984867885903,453.4711239543593L162.9251239193207,401.99063766470294L163.97839818078148,242.65396258029358L165.55830957297266,320.1602714513114L168.19149522662462,341.20936816768153L168.71813235735502,314.12295534676247L169.24476948808538,305.47487178444703L169.77140661881577,387.3052379978386L170.29804374954617,409.0885751312415L170.82468088027656,360.05565026565716L173.45786653392852,409.00700323682634L177.67096357977164,206.02205086876393L179.25087497196284,325.3001722275651L179.77751210269324,256.9314405302179L183.46397201780596,385.9998698301714L185.04388340999714,293.2370335416548L186.09715767145792,371.55921696898463L186.62379480218829,286.1390960751162L187.1504319329187,487.4107429973553L189.25698045584028,370.09067389005503L189.78361758657064,273.1669862928591L190.31025471730104,314.2861302580249L191.8901661094922,296.17411969951405L192.4168032402226,385.9182668133242L193.99671463241376,292.66593691345236L196.10326315533533,251.13887123134657L197.1565374167961,251.709967859549L198.20981167825693,310.4515976494384L198.7364488089873,307.4329395971639L199.2630859397177,230.3345524430861L199.78972307044808,225.60260450620441L201.89627159336965,356.05794274580825L202.94954585483043,241.9197221632608L204.5294572470216,262.8056128459365L205.05609437775198,348.14413072295764L205.5827315084824,310.7779474719632L206.63600576994318,309.7989291268208L207.16264290067355,401.74585973659333L207.68928003140397,278.388458963528L209.26919142359512,374.7410499325215L210.3224656850559,326.27919057270753L210.8491028157863,330.84799472075883L211.90237707724708,356.30268955148586L212.42901420797745,327.5029868459596L214.00892560016865,308.7383077648312L216.64211125382062,309.472579304296L217.16874838455098,342.1883865128239L217.6953855152814,251.4652210538714L218.7486597767422,321.54724263582585L219.27529690747255,194.5184530430044L220.32857116893334,338.2722820098222L221.38184543039412,297.3979159727661L221.90848256112452,226.82636965702443L222.4351196918549,293.726558275442L222.9617568225853,197.86349204023574L224.0150310840461,360.6267468938596L224.54166821477645,257.74731508652997L228.2281281298892,299.7638743799909L230.33467665281077,327.7477336516372L232.44122517573234,234.1690850516726L232.9678623064627,209.12231193788563L233.49449943719313,225.60260450620441L235.60104796011467,285.1600777299738L237.18095935230588,269.3324536842726L238.76087074449703,263.7030592966637L239.2875078752274,252.77058922153861L240.8674192674186,342.10681461840875L241.394056398149,198.51619168528538L242.44733065960978,264.92685556991574L242.97396779034014,304.9853781730919L243.50060492107056,228.29491273595406L244.55387918253135,368.2142090941854L245.0805163132617,274.39078256611117L246.1337905747225,232.94528877842055L246.6604277054529,289.40253205550033L247.18706483618328,209.4486306379784L248.76697622837446,321.54724263582585L250.3468876205656,279.77543014804246L252.98007327421757,381.26789077085766L254.03334753567836,267.2112420827254L255.08662179713914,244.61203039301043L255.61325892786957,264.8452525530685L258.24644458152153,351.1628198976642L259.8263559737127,334.35617750682053L260.35299310444304,276.6751690789208L260.87963023517347,295.76619798257406L261.40626736590383,216.79134603262656L262.4595416273646,249.99667797494175L264.5660901502862,281.5702919270649L265.619364411747,249.99667797494175L266.67263867320776,235.2296752912302L267.7259129346685,281.81506985517456L270.3590985883205,276.756740973336L271.41237284978126,275.45137280566877L273.51892137270283,263.6214874022485L276.15210702635477,362.0952899727892L277.20538128781556,350.1021985356745L277.732018418546,232.70054197274297L279.3119298107371,273.9828297267391L280.3652040721979,215.73072467063693L280.8918412029283,376.04641810018876L281.4184783336587,308.81987965924634L282.4717525951195,250.15985288620416L282.9983897258499,186.3598942144762L283.52502685658027,275.0434510887288L285.63157537950184,237.02456819268465L286.1582125102322,260.194876510602L287.211486771693,286.1390960751162L288.7913981638842,299.3559526630509L290.8979466868057,191.49982611316202L291.42458381753613,244.04093376480805L291.9512209482665,235.06653150239984L292.4778580789969,213.03841644088732L293.5311323404577,259.86852668807717L295.11104373264885,245.75422364941525L295.6376808633793,244.93838021553526L296.16431799410964,283.12043802284177L297.74422938630084,313.06233398477286L298.2708665170312,212.54889170710007L299.324140778492,234.08748203482537L302.48396356287435,260.11330461618684L303.53723782433514,324.4027257768379L305.1171492165263,271.6168713195143L305.64378634725665,273.7380829210615L306.69706060871744,277.6541874240632L307.22369773944786,221.27854716383067L309.85688339309985,256.44194691886275L310.3835205238302,246.08057347194008L311.436794785291,299.7638743799909L312.4900690467518,178.28293840279525L313.01670617748215,253.50486076100344L313.54334330821257,226.90797267387165L315.1232547004037,250.5677746031442L315.6498918311341,222.82869325960755L317.2298032233253,299.9270492912533L317.75644035405566,201.20846879260296L318.80971461551644,301.1508455645054L319.33635174624686,224.8683329667396L320.38962600770765,187.0941968763731L322.4961745306292,221.0338003581531L323.0228116613596,241.51176932388873L323.54944879209,311.67539392269043L324.6027230535508,280.3465267762449L325.12936018428115,220.6258786412131L326.7092715764723,272.67746155907184L327.2359087072027,327.0950651290196L327.7625458379331,251.0572993369314L328.2891829686635,196.72129878383092L329.3424572301243,327.9109085628996L329.86909436085466,281.3255451213873L330.395731491585,226.17370113440683L330.92236862231545,259.9501297049244L335.662102798889,252.19949259333623L336.1887399296194,330.68481980949645L337.24201419108016,254.81022892867068L338.8219255832713,336.151070408275L342.50838549838403,255.95242218507548L343.03502262911445,238.57468316602947L345.141571152036,190.3576328567572L345.66820828276644,167.02414962757746L346.1948454134968,261.010719944482L347.2481196749576,323.8316291486355L348.3013939364184,236.12712174195744L350.40794245933995,248.3649599847497L355.14767663591346,229.68188392046852L355.6743137666438,173.87730916600634L356.20095089737424,249.34400945232417L356.7275880281046,271.5352683026671L357.7808622895654,254.81022892867068L358.3074994202958,302.619388643435L359.88741081248696,202.59547109954948L361.46732220467817,218.0151423058786L365.1537821197909,237.59566482088707L365.68041925052125,267.6191637996654L366.2070563812516,261.3370697670068L366.7336935119821,260.11330461618684L367.7869677734428,271.37209339140463L368.3136049041732,231.23199889381334L368.8402420349036,175.1011054392584L369.8935162963644,230.98725208813573L370.4201534270948,246.5700982057273L370.9467905578252,257.1762184583275L372.00006481928597,215.81232768748416L373.05333908074675,244.85677719868804L373.5799762114771,246.4069232944649L375.6865247343987,208.63278720409838L379.37298464951147,202.75861488837984L380.9528960417026,306.1275714294967L381.47953317243304,206.83789430264392L382.53280743389377,203.81926737280153L383.58608169535455,211.08034862817044L385.16599308754576,216.22024940442418L390.95900152558,268.43503835597744L392.5389129177712,267.455988888403L393.06555004850156,270.96417167446464L393.592187179232,225.92892320629718L394.64546144069277,261.010719944482L395.69873570215356,228.86600936415647L396.225372832884,259.5422079879844L397.27864709434476,249.75193116926417L399.9118327479967,221.76807189761792L400.43846987872706,247.4675135340225L403.5982926631095,293.97130508111957L404.6515669245702,239.71690754486633L405.17820405530057,293.4818114697644L405.704841186031,276.6751690789208L406.2314783167614,230.66090226561093L406.7581154474918,258.2368398203172L407.28475257822214,200.06627553619816L407.81138970895256,333.54033407294054L408.3380268396829,230.66090226561093L408.86466397041335,251.79157087639624L409.39130110114377,263.2135345628765L410.4445753626045,185.05455716924106L412.0244867547957,269.495628595535L412.55112388552607,197.94509505708297L413.07776101625643,229.60028090362127L414.1310352777173,258.15523680346996L416.23758380063884,179.8330844985721L417.2908580620996,220.87062544689067L418.3441323235604,233.19003558409815L420.45068084648193,300.7429238475654L420.97731797721235,232.94528877842055L421.5039551079427,247.14119483392972L422.5572293694035,217.60718946650658L423.61050363086434,217.770364377769L424.6637778923251,209.85658347735043L425.7170521537859,250.32302779746658L426.2436892845163,334.35617750682053L427.8236006767074,214.75170632549452L428.8768749381682,220.7890535524755L429.4035120688986,207.89851566463355L429.93014919962894,192.23406653019478L430.45678633035936,200.2294815698926L430.9834234610898,232.29262025580297L431.51006059182015,173.63256236032873L432.56333485328094,210.26450519429045L433.08997198401136,212.95681342404006L435.7231576376633,213.03841644088732L436.2497947683937,231.55834871633814L437.30306902985444,250.48620270872897L437.8297061605848,256.19720011318515L438.3563432913153,195.41589949373164L439.9362546835064,263.78463119107886L440.9895289449672,257.74731508652997L442.04280320642795,205.77730406308635L443.0960774678888,194.84480286552923L444.1493517293495,192.8051631583972L445.2026259908103,252.4442393990138L445.7292631215407,255.05497573434826L446.2559002522711,261.5002446782692L447.8358116444623,221.0338003581531L449.9423601673838,228.53965954163164L450.4689972981143,252.03631768207381L451.522271559575,229.02918427541888L452.0489086903054,265.4163491812709L453.1021829517662,232.86371688400538L455.2087314746878,216.7097741382114L457.84191712833973,235.3928502024926L461.52837704345245,202.18751826017743L462.0550141741828,222.82869325960755L463.10828843564366,195.33435872174852L463.634925566374,212.05936697331285L464.1615626971044,257.66571206968274L464.68819982783475,214.50695951981695L465.21483695856523,322.9341826979083L465.7414740892956,244.36728358733285L466.7947483507563,238.90103298855428L467.3213854814867,282.9572631115793L469.4279340044083,244.61203039301043L469.95457113513874,171.91927247572153L471.00784539659946,175.9985518899856L472.06111965806025,202.51386808270226L473.64103105025146,280.7544484931849L474.6943053117122,212.71206661836248L475.22094244244266,208.87753400977599L475.747579573173,239.88008245612875L477.32749096536423,206.75632240822875L477.8541280960946,252.2810644877514L478.38076522682496,197.94509505708297L478.9074023575553,174.53000881105598L479.4340394882857,213.4463381578273L480.48731374974653,279.36747730867046L481.0139508804769,172.1640192813991L481.54058801120726,185.38090699176587L482.5938622726681,188.07324634394755L483.12049940339847,276.2672473619808L483.6471365341289,227.64224421333648L484.17377366485925,212.05936697331285L484.7004107955897,204.8798576123591L485.22704792632004,240.6143228731615L486.2803221877808,209.693408566088L486.8069593185112,210.0197272661808L488.3868707107024,205.85890707993357L490.49341923362397,189.8680770005379L492.0733306258152,263.6214874022485L492.59996775654554,229.19235918668127L493.1266048872759,248.52813489601212L494.1798791487367,184.9729541523938L494.7065162794671,212.8752415296249L495.2331534101975,288.26030767666344L495.75979054092784,223.39978988780996L496.8130648023887,285.1600777299738L497.33970193311904,200.96372198692538L497.86633906384947,249.83350306367933L499.97288758677104,263.2135345628765L502.0794361096926,205.61409802939187L502.606073240423,191.7445729188396L503.6593475018837,270.7194248687871L504.1859846326142,222.5839153314979L504.71262176334454,226.0920981175596L505.2392588940749,198.67933547411573L505.7658960248053,207.00106921390633L506.29253315553564,193.94735641480202L507.87244454772684,246.24374838320247L508.39908167845726,224.70515805547717L511.5589044628396,266.47697054326056L512.6121787243004,218.58623893408105L513.1388158550308,218.0151423058786L513.6654529857611,216.62817112136418L514.1920901164916,316.1625950538945L515.2453643779523,242.40921577461597L516.8252757701435,228.45808764721647L517.3519129008739,303.7615818998398L518.9318242930651,241.9197221632608L519.4584614237955,255.7892472738131L519.9850985545258,195.66070854427335L521.0383728159866,231.3135707882285L522.0916470774474,290.7894721175827L523.6715584696385,201.37167482629744L524.198195600369,221.6048969863555L525.2514698618297,225.11307977241717L526.8313812540209,275.940897539456L527.3580183847513,221.84964379203308L527.8846555154818,218.178286094709L528.9379297769425,191.33662007946754L529.4645669076729,243.38823411975838L529.9912040384033,219.23890745669863L531.0444782998641,200.96372198692538L531.5711154305945,232.70054197274297L532.0977525613249,211.48827034511044L534.7309382149768,259.7053517768148L536.8374867378984,260.2764795274492L537.3641238686288,191.49982611316202L538.4173981300895,215.64915277622177L539.4706723915505,206.5115444801191L540.5239466530112,212.14096999016007L541.0505837837416,212.63049472394732L541.5772209144719,235.2296752912302L542.1038580452024,230.98725208813573L542.6304951759328,242.817137491556L543.1571323066631,243.30666222534322L544.210406568124,219.48368538480827L545.2636808295847,225.68417640061958L546.3169550910454,234.1690850516726L547.8968664832366,296.58204141645405L548.9501407446974,165.96349714315573L549.4767778754278,234.8217535742902L550.0034150061582,183.91236391283624L552.1099635290798,229.9266307261461L553.1632377905405,207.65376885895597L553.6898749212709,244.1225056592232L554.7431491827317,242.00129405767598L556.3230605749229,214.67013443107936L557.3763348363836,281.7334668383273L557.9029719671141,220.6258786412131L558.4296090978445,265.17160237559335L560.0095204900357,215.81232768748416L561.5894318822269,205.1246044180367L562.1160690129573,253.99438549479066L563.169343274418,259.379033076722L564.2226175358788,299.43755567989814L565.2758917973396,278.22528405226564L567.9090774509915,193.04990996407477L568.9623517124523,208.06169057589597L569.4889888431827,180.73053094929935L570.0156259739131,246.5700982057273L570.5422631046434,243.7145839422832L572.1221744968346,304.9853781730919L575.281997281217,222.5839153314979L576.3352715426778,231.96627043327814L576.8619086734082,276.756740973336L577.3885458041385,230.4977273543485L577.9151829348689,228.86600936415647L578.4418200655992,253.58643265541863L580.5483685885208,184.9729541523938L581.6016428499817,191.09187327378996L582.128279980712,177.3039511800849L583.7081913729032,279.69382713119523L584.2348285036336,297.23474106150366L584.7614656343641,238.81946109413911L585.2881027650944,223.48136178222512L585.8147398958248,203.1665677277519L586.8680141572856,203.08496471090467L587.394651288016,214.67013443107936L587.9212884187464,243.79618695913044L588.4479255494768,252.4442393990138L589.5011998109376,177.8750478082873L591.0811112031288,220.46270372995068L592.1343854645895,198.43458866843815L592.6610225953199,202.02437447134707L593.7142968567807,222.25756550897307L594.2409339875111,224.2972052161051L595.8208453797023,223.31818687096273L596.3474825104327,189.8680770005379L597.4007567718934,228.86600936415647L597.9273939026237,320.0786995568962L601.6138538177365,302.619388643435L602.1404909484669,355.48684611760586L602.6671280791973,285.3232526412362L603.1937652099277,228.70283445289405L603.7204023406581,243.46983713660563L604.2470394713885,225.11307977241717L604.7736766021188,187.9100403102531L605.8269508635797,229.60028090362127L606.35358799431,163.1080140021437L606.8802251250404,230.3345524430861L608.4601365172316,294.86875153184684L608.986773647962,276.4304222732432L609.5134107786924,200.55583139241742L610.0400479094228,168.08473986713503L611.0933221708837,256.76829674138753L614.253144955266,259.7053517768148L614.7797820859963,241.34859441262634L615.3064192167267,217.03609283830417L616.3596934781875,233.02689179526777L618.4662420011091,192.5604163527196L620.0461533933002,242.08286595209117L621.6260647854914,233.19003558409815L623.732613308413,192.23406653019478L625.3125247006042,266.5585424376757L625.8391618313345,263.53988438540125L626.3657989620649,174.93796165042804L627.4190732235256,241.59337234073598L627.9457103542561,223.80771160474995L628.4723474849865,191.58142913000924L630.0522588771776,289.3209290386531L630.578896007908,317.22321641588417L631.6321702693688,252.4442393990138L632.6854445308296,289.64727886117794L633.21208166156,168.49269270650709L634.2653559230208,252.03631768207381L635.3186301844815,192.0709227413644L635.845267315212,184.72820734671623L636.8985415766728,192.23406653019478L637.9518158381336,229.84502770929888L638.478452968864,225.03147675556997L639.0050900995943,235.31127830807742L639.5317272303247,180.2409750930801L641.1116386225159,221.36015018067792L641.6382757532463,212.4673198126849L642.1649128839766,231.47674569949092L643.7448242761678,248.85448471853692L644.2714614068982,220.21792580184103L648.4845584527413,215.32280295369694L650.0644698449325,264.6005057473909L650.5911069756629,195.57910552742612L651.6443812371236,200.800578198095L652.6976554985845,199.25043210231814L653.2242926293148,214.0990066804449L654.804204021506,265.8242708982109L655.3308411522364,286.2206679695314L656.3841154136971,253.83121058352828L656.9107525444276,273.1669862928591L657.437389675158,293.2370335416548L657.9640268058884,167.35049945010226L659.5439381980796,296.5004695220389L663.7570352439227,255.54450046813548L664.2836723746531,213.77268798035212L664.8103095053835,247.22276672834488L665.8635837668443,226.33684492323718L666.9168580283051,240.69592589000874L667.4434951590355,229.3555340979437L667.9701322897658,225.439429594942L669.0234065512266,233.59798842347018L670.0766808126874,222.25756550897307L670.6033179434178,196.06859913878128L671.1299550741481,209.77498046050323L672.7098664663393,247.5491165508697L673.2365035970697,232.21101723895572L673.7631407278001,221.1969752694155L676.396326381452,209.85658347735043L677.4496006429129,231.63992061075334L677.9762377736432,162.29217056826369L679.029512035104,267.9455136221902L679.5561491658344,192.23406653019478L680.6094234272952,227.15271947954923L683.7692462116776,216.54659922694898L684.2958833424079,200.31108458673984L685.3491576038688,199.6583849416902L686.4024318653295,242.65396258029358L688.5089803882511,255.3813255568731L689.5622546497119,165.31085974297022L690.6155289111726,201.0453250037726L691.6688031726335,227.80538800216684L692.7220774340942,265.0084274643309L693.775351695555,216.30182129883934L694.3019888262854,212.3041449014225L694.8286259570158,266.9664952770478L695.3552630877462,264.4373308361285L695.8819002184765,164.73976311476778L697.9884487413981,283.69153465104415L699.0417230028589,241.59337234073598L699.5683601335893,175.83540810115525L702.7281829179716,254.9734038399331L703.7814571794324,253.1785109384786L704.8347314408932,219.48368538480827L705.3613685716235,246.73324199455766L705.8880057023539,289.0761822329755L709.0478284867363,225.60260450620441L710.6277398789275,217.6887924833538L711.6810141403882,229.76345581488368L713.2609255325794,189.6233301948603L714.8408369247707,251.4652210538714L715.367474055501,174.20365898853115L716.4207483169619,276.756740973336L716.9473854476922,240.36957606748393L717.4740225784226,229.84502770929888L718.000659709153,249.50715324115453L719.0539339706138,159.51829044409888L719.5805711013442,207.08267223075356L720.6338453628049,176.40650472935766L721.1604824935354,321.79198944150346L721.6871196242657,248.28338809033454L723.2670310164568,239.79847943928152L723.7936681471873,323.6684542373731L724.846942408648,246.6516701001425L729.0600394544912,214.83327821990972L729.5866765852215,293.318636558502L730.1133137159519,198.51619168528538L730.6399508466823,188.56273995530273L732.2198622388736,217.1992677495666L732.7464993696038,171.18503205868876L733.2731365003343,210.10133028302803L734.8530478925255,279.69382713119523L735.3796850232559,192.8051631583972L735.9063221539863,233.67956031788538L737.4862335461775,254.32070419488343L743.8058791149422,206.43000370813598L745.3857905071334,238.6562861828767L746.4390647685941,238.41153937719912L746.9657018993246,178.1197946139649L748.0189761607853,208.46961229283596L748.5456132915156,226.0920981175596L750.1255246837068,218.0151423058786L751.705436075898,284.7521560130338L752.2320732066285,190.1128860510796L752.7587103373587,233.51638540662296L753.2853474680892,258.31841171473235L753.8119845988194,219.72843219048588L754.3386217295499,207.57216584210875L754.8652588602804,238.41153937719912L755.3918959910106,293.8897331867044L756.4451702524715,160.82362748933403L757.4984445139323,234.00591014041018L758.0250816446627,188.2363901327779L759.0783559061235,264.6820776418061L760.1316301675843,236.12712174195744L761.184904429045,201.69802464882224L761.7115415597755,261.9897694120565L762.2381786905058,269.4140567011198L762.7648158212362,212.22254188457526L763.2914529519666,210.59085501681528L763.818090082697,242.32764388020078L765.9246386056185,214.5885314142321L768.5578242592704,210.42768010555287L769.0844613900009,199.6583849416902L770.1377356514616,202.1059152433302L770.6643727821921,198.67933547411573L772.7709213051136,179.66987846487768L773.297558435844,239.6353045280191L773.8241955665745,179.99622828740252L774.8774698280353,219.0757325454362L776.4573812202265,206.5115444801191L778.0372926124174,261.5818476951165L779.0905668738784,235.96394683069502L780.1438411353391,211.81462016763527L780.6704782660695,293.97130508111957L781.7237525275303,208.3880403984208L782.2503896582607,271.37209339140463L783.8303010504518,244.1225056592232L784.3569381811823,202.51386808270226L784.8835753119126,230.57929924876368L785.9368495733734,184.15711071851382L786.4634867041038,242.40921577461597L786.9901238348342,223.56296479907238L788.043398096295,244.61203039301043L788.5700352270254,221.11537225256828L789.0966723577558,326.850318323342L789.6233094884863,174.44840579420875L790.1499466192165,207.16424412516875L790.676583749947,259.5422079879844L793.3097694035989,210.3460770887056L793.8364065343294,217.03609283830417L794.8896807957901,179.09878183667527L796.9962293187116,218.178286094709L797.5228664494421,224.62355503862995L798.5761407109028,224.1340614272748L800.6826892338242,222.09442172014272L801.7359634952852,191.01027025694273L802.7892377567459,293.4002084529172L803.8425120182067,189.78653622855478L804.3691491489371,238.16676144908948L804.8957862796674,232.61893895589571L805.4224234103979,240.28800417306874L806.4756976718586,293.318636558502L808.0556090640498,191.82617593568682L808.5822461947803,202.26912127702465L809.635520456241,204.0640141784791L810.1621575869714,250.48620270872897L810.6887947177019,215.97550259874657L811.7420689791626,211.16195164501767L813.8486175020842,237.51409292647187L814.901891763545,187.82843729340584L815.4285288942752,241.83811914641356L816.4818031557362,243.46983713660563L817.0084402864665,178.9356380478449L818.5883516786577,205.85890707993357L819.1149888093881,208.06169057589597L821.7481744630401,253.91278247794344L822.2748115937703,212.71206661836248L822.8014487245008,235.96394683069502L823.3280858552313,214.5885314142321L824.381360116692,214.83327821990972L825.4346343781527,249.01765962979934L825.9612715088832,182.93331444526177L826.4879086396135,221.76807189761792L827.014545770344,239.96165435054394L827.5411829010742,250.40459969188177L828.0678200318047,237.10617120953188L829.6477314239959,218.09671420029383L831.2276428161871,199.33203511916537L832.2809170776478,199.16882908547092L833.3341913391085,150.21747611430177L833.860828469839,204.0640141784791L834.3874656005694,215.07805614801936L834.9141027312997,283.8547095623066L835.4407398620302,208.22486548715838L837.5472883849518,242.24604086335358L839.6538369078733,226.17370113440683L840.7071111693341,231.3135707882285L841.2337483000645,290.2999473837955L842.8136596922557,259.0526832541972L843.3402968229861,242.817137491556L843.8669339537164,185.7887975862738L845.4468453459076,230.25298054867093L847.0267567380988,207.16424412516875L847.5533938688293,261.82659450079404L848.0800309995595,280.59127358192245L849.1333052610203,201.2900718094502L849.6599423917507,202.92182092207432L850.1865795224812,205.77730406308635L851.7664909146722,191.01027025694273L852.8197651761332,213.2831632465649L853.3464023068634,219.48368538480827L853.8730394375939,272.1879679477167L854.3996765683241,290.70790022316754L854.9263136990546,311.67539392269043L855.4529508297851,200.14787855304536L856.5062250912458,189.37858338918272L857.0328622219762,215.48597786495935L858.6127736141674,252.2810644877514L861.2459592678193,219.15733556228346L867.5656048365842,199.33203511916537L868.0922419673144,301.39559237018295L868.6188790980449,217.1176958551514L869.1455162287751,195.98699612193406L871.2520647516968,219.15733556228346L872.831976143888,279.0411586085777L873.3586132746183,233.02689179526777L874.4118875360792,230.98725208813573L874.9385246668095,203.65606133910705L875.46516179754,272.1879679477167L875.9917989282702,286.79179572016585L877.0450731897312,195.17115268805406L878.0983474511919,207.16424412516875L878.6249845819221,218.25988911155622L879.1516217126526,152.90981546648345L880.2048959741134,211.32512655628008L880.7315331048438,274.55395747737356L881.2581702355742,206.10365388561115L882.311444497035,275.12505410557594L883.3647187584958,265.4979521981181L886.5245415428781,219.0757325454362L887.5778158043389,277.7357904409105L890.2110014579908,177.5486979857625L890.7376385887212,279.36747730867046L892.8441871116429,175.75380508430803L895.4773727652948,225.847351311882L896.0040098960251,256.19720011318515L898.1105584189468,205.45095424056152L900.2171069418682,197.45553920086368L901.7970183340594,256.1155970963379L903.3769297262506,190.03128303423236L903.9035668569811,208.14326247031116L904.4302039877114,214.01743478602972L906.0101153799026,245.42787382689045L906.536752510633,190.9287294849596L908.1166639028241,278.6332368916377L909.169938164285,249.75193116926417L909.6965752950154,232.86371688400538L910.2232124257457,197.29239541203333L913.9096723408585,227.64224421333648L914.4363094715889,245.18312702121284L914.9629466023192,195.2527557049013L915.4895837330497,207.8169437702184L916.5428579945104,225.35782657809477L917.0694951252409,296.0925478050989L917.5961322559712,237.51409292647187L918.1227693867016,240.12482926180633L918.649406517432,217.1992677495666L919.1760436481624,176.32490171251044L919.7026807788928,251.54679294828657L920.2293179096231,208.7959621153608L920.7559550403536,266.39539864884534L922.3358664325448,231.3135707882285L923.3891406940055,218.50463591723383L926.0223263476574,174.93796165042804L926.5489634783879,240.28800417306874L927.0756006091182,205.28774820686706L928.1288748705789,211.08034862817044L931.8153347856918,193.29471901461645L932.8686090471525,247.5491165508697L935.5017947008045,225.439429594942L936.0284318315349,243.06191541966564L938.1349803544565,246.6516701001425L939.1882546159172,307.59611450842635L939.7148917466476,208.55121530968322L940.7681660081084,161.39472411753644L941.2948031388388,250.07828099178897L942.3480774002996,255.87085029066031L942.8747145310299,199.0872883134878L946.0345373154123,238.0851895546743L946.5611744461428,256.9314405302179L947.087811576873,200.96372198692538L949.720997230525,230.4161243375013L950.2476343612555,231.47674569949092L954.9873685378288,204.5535077898343L955.5140056685593,199.984734764215L957.0939170607505,258.39998360914757L957.6205541914809,182.11747101138178L958.1471913222113,159.8445780217596L959.2004655836721,243.5514090310208L960.2537398451328,227.64224421333648L961.3070141065937,213.93586289161453L962.8869254987849,242.08286595209117L963.4135626295152,235.55602511375503L964.466836890976,243.5514090310208L964.9934740217064,197.94509505708297L966.0467482831672,192.47881333587236L967.1000225446279,230.4977273543485L967.6266596753584,268.679785161655L968.6799339368191,213.2831632465649L969.2065710675496,222.0128187032955L971.313119590471,237.43248990962465L971.8397567212015,260.4396233162796L972.8930309826623,209.93815537176562L973.4196681133927,213.6910849635049L973.946305244123,204.5535077898343L974.4729423748535,258.6447615372572L975.5262166363142,249.91510608052658L976.0528537670447,188.2363901327779L976.5794908977749,215.32280295369694L977.1061280285054,226.25527302882202L979.2126765514269,274.55395747737356L980.2659508128878,201.77962766566947L980.7925879436181,185.95200361996828L981.3192250743485,298.6216811235861L982.3724993358093,192.0709227413644L983.42577359727,226.663194745762L984.4790478587308,218.74941384534347L985.5323221201917,276.2672473619808L986.058959250922,183.83076089598902L986.5855963816524,188.72588374413309L987.6388706431133,221.0338003581531L988.1655077738436,248.93605661295211L988.692144904574,185.38090699176587L989.2187820353045,226.663194745762L989.7454191660347,213.8542598747673L990.2720562967652,200.88218121494225L991.3253305582259,183.2596642677866L991.8519676889564,241.10384760694873L993.4318790811476,196.88444257266127L993.9585162118778,230.98725208813573L995.0117904733388,217.770364377769L995.538427604069,220.29952881868826L997.1183389962603,168.0031368502878L997.6449761269907,203.08496471090467L998.171613257721,195.74224931625645L998.6982503884515,160.41567464996197L999.2248875191817,178.77243201415047L1000.2781617806427,220.6258786412131L1002.3847103035641,201.5348186151278L1003.4379845650249,186.0336066368155L1003.9646216957553,221.6048969863555L1004.4912588264856,246.24374838320247L1006.0711702186768,169.6348859629119L1006.5978073494073,173.87730916600634L1007.651081610868,187.4205466988979L1009.7576301337897,200.06627553619816L1010.2842672645199,265.0084274643309L1010.8109043952504,217.6887924833538L1011.3375415259808,228.86600936415647L1012.3908157874416,196.9660455895085L1014.4973643103632,197.61874523455816L1015.0240014410936,230.4977273543485L1016.0772757025544,270.0667252237374L1016.6039128332847,230.57929924876368L1017.1305499640151,235.63762813060225L1017.6571870947456,171.67452567004395L1018.7104613562063,244.44885548174804L1020.2903727483975,210.18290217744322L1020.8170098791278,158.13128813715235L1021.3436470098583,220.21792580184103L1021.8702841405888,230.7424741600261L1022.396921271319,239.2273828110791L1023.9768326635102,245.42787382689045L1024.5034697942406,246.89641690582008L1026.6100183171623,160.66048370050368L1027.1366554478925,219.15733556228346L1028.1899297093535,227.88699101901406L1028.7165668400837,251.62839596513382L1029.2432039708142,223.31818687096273L1031.3497524937357,225.52100148935716L1032.9296638859269,185.87040060312106L1033.9829381473876,245.9990015775249L1035.5628495395788,198.18984186276057L1036.0894866703093,223.88928349916512L1036.6161238010397,189.21543960035237L1037.14276093177,318.6917594948138L1037.6693980625005,246.24374838320247L1038.7226723239612,221.6048969863555L1039.2493094546917,241.67494423515114L1039.775946585422,169.30853614038708L1041.3558579776131,300.57974893630296L1041.8824951083436,208.71435909851357L1042.9357693698043,170.53233241363912L1043.4624065005346,222.1759936145579L1043.989043631265,253.50486076100344L1045.5689550234563,214.9964531311721L1046.622229284917,237.8404427489967L1047.1488664156475,206.75632240822875L1047.6755035463777,247.7938633565473L1048.2021406771082,192.39727256388923L1051.8886005922209,228.29491273595406L1052.4152377229514,253.91278247794344L1053.9951491151426,201.94277145449985L1056.6283347687945,200.4742283755702L1058.734883291716,218.0151423058786L1059.7881575531767,210.99877673375528L1060.8414318146374,191.7445729188396L1061.8947060760984,224.94990486115478L1062.4213432068286,205.85890707993357L1062.947980337559,219.23890745669863L1063.4746174682896,245.75422364941525L1065.581165991211,245.9990015775249L1066.1078031219415,219.48368538480827L1066.6344402526718,178.36454141964248L1067.6877145141325,202.84021790522706L1068.214351644863,205.1246044180367L1068.7409887755935,187.74689652142274L1070.847537298515,269.82197841805987L1071.9008115599756,233.67956031788538L1072.9540858214366,265.6611271093806L1074.0073600828973,231.06882398255092L1074.5339972136278,238.49311127161428L1075.5872714750885,235.80080304186467L1077.6938199980102,196.55809275013647L1078.747094259471,263.37670947413886L1079.2737313902012,203.9824111616319L1080.8536427823924,244.61203039301043L1082.4335541745836,226.0105262231444L1084.5401026975053,203.9824111616319L1085.593376958966,200.55583139241742L1086.1200140896965,281.81506985517456L1087.6999254818875,237.75883973214948L1089.8064740048092,258.6447615372572L1090.3331111355394,259.86852668807717L1090.85974826627,228.05016593027648L1091.3863853970004,239.30895470549427L1092.9662967891916,222.0128187032955L1093.4929339199218,248.7728817016897L1094.0195710506523,224.70515805547717L1095.072845312113,169.30853614038708L1095.5994824428435,179.34359088721695L1096.1261195735738,266.3137956319981L1097.1793938350345,172.1640192813991L1097.706030965765,203.9824111616319L1099.2859423579562,185.54405078059622L1099.8125794886864,220.87062544689067L1100.8658537501474,216.13864638757693L1101.919128011608,196.9660455895085L1102.4457651423384,252.60741431027623L1102.9724022730688,184.9729541523938L1106.6588621881815,229.11075616983405L1107.185499318912,199.33203511916537L1107.7121364496425,236.29029665321983L1108.2387735803727,253.66803567226586L1111.3985963647551,228.9476123810037L1111.9252334954854,207.65376885895597L1112.4518706262159,292.25801519651236L1112.9785077569463,240.53275097874632L1113.5051448876766,225.52100148935716L1114.5584191491373,182.77017065643142L1116.1383305413285,195.74224931625645L1117.7182419335197,224.54198314421478L1119.8247904564414,209.53023365482562L1120.3514275871717,216.87291792704178L1120.8780647179021,207.73534075337116L1121.4047018486324,173.87730916600634L1121.9313389793629,237.6772678377343L1122.9846132408236,185.05455716924106L1123.511250371554,242.24604086335358L1125.6177988944758,192.23406653019478L1127.197710286667,217.1992677495666L1127.7243474173972,212.8752415296249L1129.3042588095884,205.3693512237143L1129.830895940319,266.15062072073573L1130.3575330710491,217.1992677495666L1130.8841702017796,234.8217535742902L1131.41080733251,196.72129878383092L1132.4640815939708,184.72820734671623L1132.9907187247013,185.95200361996828L1133.5173558554316,215.64915277622177L1134.043992986162,238.2483644659367L1134.5706301168923,209.85658347735043L1136.677178639814,226.82636965702443L1137.2038157705445,231.06882398255092L1137.7304529012747,192.23406653019478L1139.310364293466,285.89434926943864L1140.3636385549266,258.48158662599474L1140.8902756856571,185.7072568142907L1141.4169128163874,198.0266358290661L1142.4701870778483,203.41131453342948L1142.9968242085786,214.5885314142321L1143.523461339309,177.8750478082873L1144.5767356007698,199.57678192484295L1145.1033727315003,277.8173623353256L1146.6832841236912,225.27625468367958L1147.7365583851522,263.37670947413886L1148.789832646613,211.24352353943286L1149.3164697773432,274.79870428305117L1150.3697440388041,209.20388383230082L1151.9496554309953,208.71435909851357L1153.002929692456,145.97505291120729L1153.5295668231863,245.75422364941525L1154.0562039539168,247.7938633565473L1155.1094782153775,165.14765370927574L1156.1627524768383,205.77730406308635L1156.6893896075687,237.43248990962465L1157.2160267382992,176.16169567881596L1159.3225752612207,155.35740801298755L1159.8492123919511,183.014917462109L1160.9024866534119,222.25756550897307L1161.9557609148726,235.80080304186467L1164.5889465685245,250.48620270872897L1166.6954950914462,218.91255763417382L1167.2221322221765,215.07805614801936L1167.748769352907,158.04974736516925L1168.2754064836372,216.38342431568657L1174.595052052402,195.17115268805406L1175.6483263138628,255.62607236255067L1176.7016005753237,225.11307977241717" style="fill: none;" fill="none"></path></g></g></g></g></g></g><g transform="translate(34, 378)" clip-path="url(#clip_1)"><clipPath id="clip_1"><rect width="1464" height="22"></rect></clipPath><g><g><line x1="18.626550099193558" y1="0" x2="18.626550099193558" y2="5" style="visibility: inherit;" fill="rgb(0, 0, 0)" stroke="rgb(204, 204, 204)" stroke-width="1px"></line><line x1="123.95397624527178" y1="0" x2="123.95397624527178" y2="5" style="visibility: inherit;" fill="rgb(0, 0, 0)" stroke="rgb(204, 204, 204)" stroke-width="1px"></line><line x1="229.28140239134999" y1="0" x2="229.28140239134999" y2="5" style="visibility: inherit;" fill="rgb(0, 0, 0)" stroke="rgb(204, 204, 204)" stroke-width="1px"></line><line x1="334.6088285374282" y1="0" x2="334.6088285374282" y2="5" style="visibility: inherit;" fill="rgb(0, 0, 0)" stroke="rgb(204, 204, 204)" stroke-width="1px"></line><line x1="439.9362546835064" y1="0" x2="439.9362546835064" y2="5" style="visibility: inherit;" fill="rgb(0, 0, 0)" stroke="rgb(204, 204, 204)" stroke-width="1px"></line><line x1="545.2636808295847" y1="0" x2="545.2636808295847" y2="5" style="visibility: inherit;" fill="rgb(0, 0, 0)" stroke="rgb(204, 204, 204)" stroke-width="1px"></line><line x1="650.5911069756629" y1="0" x2="650.5911069756629" y2="5" style="visibility: inherit;" fill="rgb(0, 0, 0)" stroke="rgb(204, 204, 204)" stroke-width="1px"></line><line x1="755.9185331217411" y1="0" x2="755.9185331217411" y2="5" style="visibility: inherit;" fill="rgb(0, 0, 0)" stroke="rgb(204, 204, 204)" stroke-width="1px"></line><line x1="861.2459592678193" y1="0" x2="861.2459592678193" y2="5" style="visibility: inherit;" fill="rgb(0, 0, 0)" stroke="rgb(204, 204, 204)" stroke-width="1px"></line><line x1="966.5733854138977" y1="0" x2="966.5733854138977" y2="5" style="visibility: inherit;" fill="rgb(0, 0, 0)" stroke="rgb(204, 204, 204)" stroke-width="1px"></line><line x1="1071.9008115599756" y1="0" x2="1071.9008115599756" y2="5" style="visibility: inherit;" fill="rgb(0, 0, 0)" stroke="rgb(204, 204, 204)" stroke-width="1px"></line><line x1="1177.228237706054" y1="0" x2="1177.228237706054" y2="5" style="visibility: inherit;" fill="rgb(0, 0, 0)" stroke="rgb(204, 204, 204)" stroke-width="1px"></line><line x1="1282.5556638521323" y1="0" x2="1282.5556638521323" y2="5" style="visibility: inherit;" fill="rgb(0, 0, 0)" stroke="rgb(204, 204, 204)" stroke-width="1px"></line><line x1="1387.8830899982106" y1="0" x2="1387.8830899982106" y2="5" style="visibility: inherit;" fill="rgb(0, 0, 0)" stroke="rgb(204, 204, 204)" stroke-width="1px"></line></g><g transform="translate(0, 8)"><text x="18.626550099193558" y="0" dx="0em" dy="0.95em" style="text-anchor: middle; visibility: inherit; font-family: &quot;Helvetica Neue&quot;, sans-serif; font-size: 12px; font-weight: 200;" fill="rgb(50, 49, 63)" stroke="none" stroke-width="1px">-200</text><text x="123.95397624527178" y="0" dx="0em" dy="0.95em" style="text-anchor: middle; visibility: inherit; font-family: &quot;Helvetica Neue&quot;, sans-serif; font-size: 12px; font-weight: 200;" fill="rgb(50, 49, 63)" stroke="none" stroke-width="1px">0</text><text x="229.28140239134999" y="0" dx="0em" dy="0.95em" style="text-anchor: middle; visibility: inherit; font-family: &quot;Helvetica Neue&quot;, sans-serif; font-size: 12px; font-weight: 200;" fill="rgb(50, 49, 63)" stroke="none" stroke-width="1px">200</text><text x="334.6088285374282" y="0" dx="0em" dy="0.95em" style="text-anchor: middle; visibility: inherit; font-family: &quot;Helvetica Neue&quot;, sans-serif; font-size: 12px; font-weight: 200;" fill="rgb(50, 49, 63)" stroke="none" stroke-width="1px">400</text><text x="439.9362546835064" y="0" dx="0em" dy="0.95em" style="text-anchor: middle; visibility: inherit; font-family: &quot;Helvetica Neue&quot;, sans-serif; font-size: 12px; font-weight: 200;" fill="rgb(50, 49, 63)" stroke="none" stroke-width="1px">600</text><text x="545.2636808295847" y="0" dx="0em" dy="0.95em" style="text-anchor: middle; visibility: inherit; font-family: &quot;Helvetica Neue&quot;, sans-serif; font-size: 12px; font-weight: 200;" fill="rgb(50, 49, 63)" stroke="none" stroke-width="1px">800</text><text x="650.5911069756629" y="0" dx="0em" dy="0.95em" style="text-anchor: middle; visibility: inherit; font-family: &quot;Helvetica Neue&quot;, sans-serif; font-size: 12px; font-weight: 200;" fill="rgb(50, 49, 63)" stroke="none" stroke-width="1px">1k</text><text x="755.9185331217411" y="0" dx="0em" dy="0.95em" style="text-anchor: middle; visibility: inherit; font-family: &quot;Helvetica Neue&quot;, sans-serif; font-size: 12px; font-weight: 200;" fill="rgb(50, 49, 63)" stroke="none" stroke-width="1px">1.2k</text><text x="861.2459592678193" y="0" dx="0em" dy="0.95em" style="text-anchor: middle; visibility: inherit; font-family: &quot;Helvetica Neue&quot;, sans-serif; font-size: 12px; font-weight: 200;" fill="rgb(50, 49, 63)" stroke="none" stroke-width="1px">1.4k</text><text x="966.5733854138977" y="0" dx="0em" dy="0.95em" style="text-anchor: middle; visibility: inherit; font-family: &quot;Helvetica Neue&quot;, sans-serif; font-size: 12px; font-weight: 200;" fill="rgb(50, 49, 63)" stroke="none" stroke-width="1px">1.6k</text><text x="1071.9008115599756" y="0" dx="0em" dy="0.95em" style="text-anchor: middle; visibility: inherit; font-family: &quot;Helvetica Neue&quot;, sans-serif; font-size: 12px; font-weight: 200;" fill="rgb(50, 49, 63)" stroke="none" stroke-width="1px">1.8k</text><text x="1177.228237706054" y="0" dx="0em" dy="0.95em" style="text-anchor: middle; visibility: inherit; font-family: &quot;Helvetica Neue&quot;, sans-serif; font-size: 12px; font-weight: 200;" fill="rgb(50, 49, 63)" stroke="none" stroke-width="1px">2k</text><text x="1282.5556638521323" y="0" dx="0em" dy="0.95em" style="text-anchor: middle; visibility: inherit; font-family: &quot;Helvetica Neue&quot;, sans-serif; font-size: 12px; font-weight: 200;" fill="rgb(50, 49, 63)" stroke="none" stroke-width="1px">2.2k</text><text x="1387.8830899982106" y="0" dx="0em" dy="0.95em" style="text-anchor: middle; visibility: inherit; font-family: &quot;Helvetica Neue&quot;, sans-serif; font-size: 12px; font-weight: 200;" fill="rgb(50, 49, 63)" stroke="none" stroke-width="1px">2.4k</text></g><line x1="0" y1="0" x2="1464" y2="0" fill="rgb(0, 0, 0)" stroke="rgb(204, 204, 204)" stroke-width="1px"></line></g></g></g></g></svg>