<svg viewBox="0 0 1498 400" xmlns="http://www.w3.org/2000/svg"><g><g><g><g><g><line x1="58" y1="378" x2="53" y2="378" style="visibility: inherit;" fill="rgb(0, 0, 0)" stroke="rgb(204, 204, 204)" stroke-width="1px"></line><line x1="58" y1="340.2" x2="53" y2="340.2" style="visibility: inherit;" fill="rgb(0, 0, 0)" stroke="rgb(204, 204, 204)" stroke-width="1px"></line><line x1="58" y1="302.4" x2="53" y2="302.4" style="visibility: inherit;" fill="rgb(0, 0, 0)" stroke="rgb(204, 204, 204)" stroke-width="1px"></line><line x1="58" y1="264.59999999999997" x2="53" y2="264.59999999999997" style="visibility: inherit;" fill="rgb(0, 0, 0)" stroke="rgb(204, 204, 204)" stroke-width="1px"></line><line x1="58" y1="226.79999999999998" x2="53" y2="226.79999999999998" style="visibility: inherit;" fill="rgb(0, 0, 0)" stroke="rgb(204, 204, 204)" stroke-width="1px"></line><line x1="58" y1="189" x2="53" y2="189" style="visibility: inherit;" fill="rgb(0, 0, 0)" stroke="rgb(204, 204, 204)" stroke-width="1px"></line><line x1="58" y1="151.20000000000002" x2="53" y2="151.20000000000002" style="visibility: inherit;" fill="rgb(0, 0, 0)" stroke="rgb(204, 204, 204)" stroke-width="1px"></line><line x1="58" y1="113.40000000000003" x2="53" y2="113.40000000000003" style="visibility: inherit;" fill="rgb(0, 0, 0)" stroke="rgb(204, 204, 204)" stroke-width="1px"></line><line x1="58" y1="75.60000000000002" x2="53" y2="75.60000000000002" style="visibility: inherit;" fill="rgb(0, 0, 0)" stroke="rgb(204, 204, 204)" stroke-width="1px"></line><line x1="58" y1="37.80000000000001" x2="53" y2="37.80000000000001" style="visibility: inherit;" fill="rgb(0, 0, 0)" stroke="rgb(204, 204, 204)" stroke-width="1px"></line><line x1="58" y1="0" x2="53" y2="0" style="visibility: inherit;" fill="rgb(0, 0, 0)" stroke="rgb(204, 204, 204)" stroke-width="1px"></line></g><g transform="translate(48, 0)"><text x="0" y="378" dx="0em" dy="0.3em" style="text-anchor: end; visibility: hidden; font-family: &quot;Helvetica Neue&quot;, sans-serif; font-size: 12px; font-weight: 200;" fill="rgb(50, 49, 63)" stroke="none" stroke-width="1px">-0.2</text><text x="0" y="340.2" dx="0em" dy="0.3em" style="text-anchor: end; visibility: inherit; font-family: &quot;Helvetica Neue&quot;, sans-serif; font-size: 12px; font-weight: 200;" fill="rgb(50, 49, 63)" stroke="none" stroke-width="1px">0</text><text x="0" y="302.4" dx="0em" dy="0.3em" style="text-anchor: end; visibility: inherit; font-family: &quot;Helvetica Neue&quot;, sans-serif; font-size: 12px; font-weight: 200;" fill="rgb(50, 49, 63)" stroke="none" stroke-width="1px">0.2</text><text x="0" y="264.59999999999997" dx="0em" dy="0.3em" style="text-anchor: end; visibility: inherit; font-family: &quot;Helvetica Neue&quot;, sans-serif; font-size: 12px; font-weight: 200;" fill="rgb(50, 49, 63)" stroke="none" stroke-width="1px">0.4</text><text x="0" y="226.79999999999998" dx="0em" dy="0.3em" style="text-anchor: end; visibility: inherit; font-family: &quot;Helvetica Neue&quot;, sans-serif; font-size: 12px; font-weight: 200;" fill="rgb(50, 49, 63)" stroke="none" stroke-width="1px">0.6</text><text x="0" y="189" dx="0em" dy="0.3em" style="text-anchor: end; visibility: inherit; font-family: &quot;Helvetica Neue&quot;, sans-serif; font-size: 12px; font-weight: 200;" fill="rgb(50, 49, 63)" stroke="none" stroke-width="1px">0.8</text><text x="0" y="151.20000000000002" dx="0em" dy="0.3em" style="text-anchor: end; visibility: inherit; font-family: &quot;Helvetica Neue&quot;, sans-serif; font-size: 12px; font-weight: 200;" fill="rgb(50, 49, 63)" stroke="none" stroke-width="1px">1</text><text x="0" y="113.40000000000003" dx="0em" dy="0.3em" style="text-anchor: end; visibility: inherit; font-family: &quot;Helvetica Neue&quot;, sans-serif; font-size: 12px; font-weight: 200;" fill="rgb(50, 49, 63)" stroke="none" stroke-width="1px">1.2</text><text x="0" y="75.60000000000002" dx="0em" dy="0.3em" style="text-anchor: end; visibility: inherit; font-family: &quot;Helvetica Neue&quot;, sans-serif; font-size: 12px; font-weight: 200;" fill="rgb(50, 49, 63)" stroke="none" stroke-width="1px">1.4</text><text x="0" y="37.80000000000001" dx="0em" dy="0.3em" style="text-anchor: end; visibility: inherit; font-family: &quot;Helvetica Neue&quot;, sans-serif; font-size: 12px; font-weight: 200;" fill="rgb(50, 49, 63)" stroke="none" stroke-width="1px">1.6</text><text x="0" y="0" dx="0em" dy="0.3em" style="text-anchor: end; visibility: hidden; font-family: &quot;Helvetica Neue&quot;, sans-serif; font-size: 12px; font-weight: 200;" fill="rgb(50, 49, 63)" stroke="none" stroke-width="1px">1.8</text></g><line x1="58" y1="0" x2="58" y2="378" fill="rgb(0, 0, 0)" stroke="rgb(204, 204, 204)" stroke-width="1px"></line></g></g><g transform="translate(58, 0)" clip-path="url(#clip_0)"><clipPath id="clip_0"><rect width="1440" height="378"></rect></clipPath><g><g><g><line x1="0" y1="0" x2="0" y2="378" fill="rgb(0, 0, 0)" stroke="rgb(60, 60, 60)" stroke-width="1px" opacity="0.25"></line><line x1="120" y1="0" x2="120" y2="378" fill="rgb(0, 0, 0)" stroke="rgb(60, 60, 60)" stroke-width="1px" opacity="0.25"></line><line x1="240" y1="0" x2="240" y2="378" fill="rgb(0, 0, 0)" stroke="rgb(60, 60, 60)" stroke-width="1px" opacity="0.25"></line><line x1="360" y1="0" x2="360" y2="378" fill="rgb(0, 0, 0)" stroke="rgb(60, 60, 60)" stroke-width="1px" opacity="0.25"></line><line x1="480" y1="0" x2="480" y2="378" fill="rgb(0, 0, 0)" stroke="rgb(60, 60, 60)" stroke-width="1px" opacity="0.25"></line><line x1="600" y1="0" x2="600" y2="378" fill="rgb(0, 0, 0)" stroke="rgb(60, 60, 60)" stroke-width="1px" opacity="0.25"></line><line x1="720" y1="0" x2="720" y2="378" fill="rgb(0, 0, 0)" stroke="rgb(60, 60, 60)" stroke-width="1px" opacity="0.25"></line><line x1="840" y1="0" x2="840" y2="378" fill="rgb(0, 0, 0)" stroke="rgb(60, 60, 60)" stroke-width="1px" opacity="0.25"></line><line x1="960" y1="0" x2="960" y2="378" fill="rgb(0, 0, 0)" stroke="rgb(60, 60, 60)" stroke-width="1px" opacity="0.25"></line><line x1="1080" y1="0" x2="1080" y2="378" fill="rgb(0, 0, 0)" stroke="rgb(60, 60, 60)" stroke-width="1px" opacity="0.25"></line><line x1="1200" y1="0" x2="1200" y2="378" fill="rgb(0, 0, 0)" stroke="rgb(60, 60, 60)" stroke-width="1px" opacity="0.25"></line><line x1="1320" y1="0" x2="1320" y2="378" fill="rgb(0, 0, 0)" stroke="rgb(60, 60, 60)" stroke-width="1px" opacity="0.25"></line><line x1="1440" y1="0" x2="1440" y2="378" fill="rgb(0, 0, 0)" stroke="rgb(60, 60, 60)" stroke-width="1px" opacity="0.25"></line></g><g><line x1="0" y1="378" x2="1440" y2="378" fill="rgb(0, 0, 0)" stroke="rgb(60, 60, 60)" stroke-width="1px" opacity="0.25"></line><line x1="0" y1="340.2" x2="1440" y2="340.2" fill="rgb(0, 0, 0)" stroke="rgb(60, 60, 60)" stroke-width="1px" opacity="0.25"></line><line x1="0" y1="302.4" x2="1440" y2="302.4" fill="rgb(0, 0, 0)" stroke="rgb(60, 60, 60)" stroke-width="1px" opacity="0.25"></line><line x1="0" y1="264.59999999999997" x2="1440" y2="264.59999999999997" fill="rgb(0, 0, 0)" stroke="rgb(60, 60, 60)" stroke-width="1px" opacity="0.25"></line><line x1="0" y1="226.79999999999998" x2="1440" y2="226.79999999999998" fill="rgb(0, 0, 0)" stroke="rgb(60, 60, 60)" stroke-width="1px" opacity="0.25"></line><line x1="0" y1="189" x2="1440" y2="189" fill="rgb(0, 0, 0)" stroke="rgb(60, 60, 60)" stroke-width="1px" opacity="0.25"></line><line x1="0" y1="151.20000000000002" x2="1440" y2="151.20000000000002" fill="rgb(0, 0, 0)" stroke="rgb(60, 60, 60)" stroke-width="1px" opacity="0.25"></line><line x1="0" y1="113.40000000000003" x2="1440" y2="113.40000000000003" fill="rgb(0, 0, 0)" stroke="rgb(60, 60, 60)" stroke-width="1px" opacity="0.25"></line><line x1="0" y1="75.60000000000002" x2="1440" y2="75.60000000000002" fill="rgb(0, 0, 0)" stroke="rgb(60, 60, 60)" stroke-width="1px" opacity="0.25"></line><line x1="0" y1="37.80000000000001" x2="1440" y2="37.80000000000001" fill="rgb(0, 0, 0)" stroke="rgb(60, 60, 60)" stroke-width="1px" opacity="0.25"></line><line x1="0" y1="0" x2="1440" y2="0" fill="rgb(0, 0, 0)" stroke="rgb(60, 60, 60)" stroke-width="1px" opacity="0.25"></line></g></g></g><g><g><line x1="0" y1="340.2" x2="1440" y2="340.2" fill="rgb(0, 0, 0)" stroke="rgb(153, 153, 153)" stroke-width="1.5px"></line></g></g><g><g><line x1="120" y1="0" x2="120" y2="378" fill="rgb(0, 0, 0)" stroke="rgb(153, 153, 153)" stroke-width="1.5px"></line></g></g><g><g><g><g><g><path stroke="rgb(0, 153, 136)" stroke-width="2px" d="M123,63.079819750785816L123.6,69.75071175098418L125.99999999999999,87.492014837265L126.60000000000001,92.79692430496215L127.8,99.41912777423858L128.4,104.06783480644225L129,106.76212878227233L130.20000000000002,111.19406933784484L130.8,115.6432007074356L131.4,117.50007898807524L132,119.71544094085692L134.4,127.51103575229646L139.79999999999998,139.93291969299318L140.4,142.18714685440065L141.6,144.28620607852937L143.4,148.16943747997286L144,147.23401386737825L145.2,151.65188409090044L146.4,152.58039082288744L147,154.6513093829155L148.20000000000002,155.63630021810533L149.4,157.48591239452364L150,158.56815637350084L151.8,161.27681357860567L152.4,161.49663294553758L153,162.3252391934395L153.60000000000002,163.69232572317125L154.20000000000002,163.77377368211748L156,167.87935913801195L156.6,165.53141613006594L157.8,168.8321876049042L159,169.3280851364136L159.60000000000002,169.48773665428163L160.2,171.13327832221987L160.79999999999998,171.06675685644151L162.6,173.37164397239687L163.2,173.4251427769661L163.8,174.21649475097658L164.4,175.25537867546083L165.6,174.8915439963341L167.4,176.4567529678345L170.4,178.37785459756853L171,178.61240894794466L171.6,179.79502655267717L172.2,179.4735831141472L172.79999999999998,180.78586406707765L173.4,180.17057712078096L176.4,182.11405159235002L181.2,185.55665291547777L183,185.16344965696337L183.6,185.60428251028063L187.79999999999998,188.15298403501512L189.6,188.40920151472093L190.8,189.30180580616L191.39999999999998,189.11913932561876L192,189.68286509513857L194.4,191.80754156112673L195,190.83275706768038L195.6,191.0635262846947L197.4,192.16319764852526L198.00000000000003,192.8714456677437L199.8,192.9434533238411L202.2,193.46571160554888L203.39999999999998,193.25740535259249L204.60000000000002,194.9552291750908L205.2,193.2780320763588L205.79999999999998,193.22433049678804L206.4,193.137294960022L208.79999999999998,194.7425970554352L210,194.83207715749742L211.8,195.02934343814852L212.39999999999998,195.7987055897713L213,197.40927983522417L214.2,195.74614180326463L214.8,196.51603342294695L215.4,196.7851158499718L217.20000000000002,198.24027432203295L218.4,196.1591494202614L218.99999999999997,196.50324733257295L220.20000000000002,197.74563850164415L220.79999999999998,197.9215908765793L222.6,198.99078966379167L225.60000000000002,198.39196128845217L226.2,199.56917155981066L226.8,200.16459782123567L228,199.48071659803392L228.6,198.19750006198885L229.79999999999998,200.38653506040575L231.00000000000003,200.86116374731066L231.6,199.11912370920183L232.20000000000002,199.7234946012497L232.79999999999998,200.56842423677446L234,199.22007186412813L234.6,200.81445790529253L238.8,200.9690175175667L241.20000000000002,200.79057551622392L243.6,201.2087538957596L244.20000000000002,201.14454181194307L244.8,202.3512783765793L247.2,202.15162385702135L249,202.42158497571947L250.79999999999998,202.70891715288164L251.4,204.24915100336077L253.20000000000002,202.60053391456606L253.79999999999998,202.66850860118868L255,204.01194931268694L255.6,203.72610415220262L256.2,204.32622803449632L257.4,204.39483357667925L258,202.22508473396303L259.2,204.29965324401857L259.8,204.75422973632814L260.40000000000003,204.3085190176964L262.20000000000005,203.3308280825615L264,205.4368154525757L267,204.424686563015L268.2,206.50767023563387L269.4,205.50460989475252L270,204.8722785830498L273,206.71531183719637L274.8,205.33236379623415L275.4,206.81217069625856L276,206.65972895622255L276.59999999999997,206.0569464683533L277.79999999999995,205.88375408649446L280.2,206.13395590782167L281.4,207.3981791853905L282.6,208.35039932727815L283.8,207.74868704080583L286.8,206.97058303356172L288,207.9684613466263L290.4,208.18252415657045L293.4,207.445099067688L294.6,208.3997750401497L295.2,208.7965043306351L297,208.22882444858553L298.2,208.3701811552048L298.8,207.82285763025286L299.4,207.98253167867662L300.59999999999997,207.16620458364488L301.2,209.21980841159822L301.8,207.95672292709352L304.2,209.99568189382555L304.8,208.31792153120043L306,208.80326349735262L307.8,209.8605436205864L310.2,210.2036952495575L310.79999999999995,208.78545309305193L311.4,209.95929504632952L312,209.8101315021515L313.2,209.30050159692766L315,209.5919343352318L315.6,208.89108760356905L316.2,210.94407184123995L318,209.67936415672304L318.6,209.36656118631365L319.8,211.1736582040787L323.4,210.85750944614412L324.59999999999997,211.3495655179024L326.4,211.5332008123398L327,212.13538624048235L328.2,211.48866916894914L328.8,212.11152638196947L331.8,211.7447514653206L332.4,211.33608098030092L333.59999999999997,212.1822047352791L334.8,211.63744969367983L335.4,211.39758939743044L336,210.8430786252022L337.8,212.09977669715883L338.4,212.2784890651703L340.2,212.9940595149994L340.8,211.08805335760118L342,212.41211779117586L342.6,211.47513957023622L343.8,212.33349741697313L346.2,213.11494721174242L346.8,212.09685899019243L347.4,211.69979174137117L348.6,211.56926096677782L349.2,214.17249770164491L351,212.04277439117433L351.6,212.61394650936128L352.20000000000005,213.67912359237673L352.8,212.85859454870226L354,213.22280098199846L354.6,212.58520878553392L355.2,213.8572952270508L355.79999999999995,213.47364492416384L361.20000000000005,214.45013047456743L361.79999999999995,214.03766359090807L363,213.18501724004747L364.8,214.14920110702516L368.99999999999994,214.57404853105547L369.59999999999997,213.93365128040315L372.00000000000006,214.38603104352953L372.59999999999997,214.28101612329485L373.2,213.86398680210115L374.40000000000003,215.13368500471117L375.59999999999997,214.16920824050905L378,214.31127465963365L383.4,215.1226675629616L384,215.22893292903902L384.6,213.79371399879457L385.20000000000005,213.08339316844942L386.4,214.13426334857942L387,215.2254519581795L388.8,215.15838975906374L390.59999999999997,214.26685566902162L394.8,215.4421170473099L395.40000000000003,215.77582837343218L396.00000000000006,215.227705013752L396.59999999999997,215.54530699253084L397.8,215.48155678510668L398.40000000000003,215.07421560287477L399,216.10335506200792L400.2,214.1194382429123L400.79999999999995,216.358648788929L401.4,216.7612360239029L402.6,215.4323725819588L403.79999999999995,216.32205916643144L404.4,215.84274412393572L406.79999999999995,216.1392124414444L411,216.31282163858415L412.8,216.5898460865021L413.40000000000003,216.59217799901964L414.59999999999997,215.97027833461763L415.8,216.52843905687334L417.59999999999997,215.28255565166475L424.2,216.76815290451052L426,216.30699748992922L426.6,216.32738764286043L427.20000000000005,217.8026996970177L428.4,216.22788144350054L429.6,215.85469658374788L430.20000000000005,216.59729243516924L431.4,217.58279020786287L434.40000000000003,216.5212292790413L435,216.84495956897737L438.59999999999997,216.46924002170564L439.8,217.74581004381182L440.40000000000003,217.67303634881975L441.00000000000006,216.98068363666536L441.59999999999997,217.665229511261L442.2,218.375809442997L442.8,216.9983588576317L443.40000000000003,217.86942393779756L444,217.6206190109253L444.6,217.41281969547273L445.2,217.62174553871156L446.4,218.72204775810243L448.20000000000005,217.86868042945864L448.79999999999995,218.4034544348717L449.4,218.01200855970384L450.6,218.3771049499512L453,218.87712557315828L454.20000000000005,217.95368821620943L455.4,217.3430425643921L457.8,218.330894780159L458.40000000000003,218.3518369317055L458.99999999999994,218.00063062906267L460.2,217.7449088215828L461.40000000000003,217.78823508024217L462.59999999999997,218.4979926466942L463.8,218.70685089826586L464.40000000000003,219.06465865373613L466.2,219.9398468255997L467.4,220.00269581079485L468,218.05853415727617L468.6,218.0085050582886L469.2,218.81538058519365L469.79999999999995,218.36974872350694L470.4,218.54327906370165L471.6,218.33763141632082L472.20000000000005,218.64626623392107L475.20000000000005,219.2561571121216L475.8,218.11484928131105L477,219.03808386325838L477.6,218.46995337009432L478.2,219.1893765449524L480,218.00987942218782L481.2,218.84739650487901L482.40000000000003,219.83759189844133L483.59999999999997,219.49227733612062L484.8,219.47666366100313L486.00000000000006,218.52865673303606L486.59999999999997,218.5816148042679L487.2,220.55556185245516L489,219.31419582366945L491.4,219.41703654527666L492,220.27564222812654L493.20000000000005,219.15324879884722L493.79999999999995,220.053333234787L495,220.33980925083162L497.4,220.32463492155077L500.4,220.0461121916771L504.59999999999997,220.07732827663423L505.2,221.40249670743944L506.40000000000003,219.62123097181322L507.00000000000006,219.65464378595354L507.59999999999997,219.70755679607393L508.2,219.94954622983934L508.8,220.0417525291443L509.40000000000003,220.13508535623552L510.59999999999997,220.33796174526216L511.2,219.62598491907121L513.6,220.00934232473375L514.1999999999999,220.7454155802727L515.4,220.20958263874056L516.6,220.9750470042229L518.4,220.0531867861748L519.6,220.98995096683504L520.2,221.0524394631386L520.8000000000001,220.27178950309755L522.6,220.06866527795793L523.2,221.85573263168337L523.8000000000001,220.24304051399233L524.4000000000001,221.25014508962633L525,220.3737177371979L526.2,219.28489483594896L526.8000000000001,220.1012557268143L527.4,220.04435480833055L528.6,220.41972513198854L529.2,220.27635194063188L529.8,221.16715378761293L530.4,220.75078911781313L531,220.18179119825365L531.5999999999999,220.998478782177L532.8,220.92274231910707L533.4,220.69022698402406L535.1999999999999,220.5799399137497L537.6,221.29847313165666L539.4,221.41573340892793L540,221.38820106983187L540.6,220.22136611938478L541.8,220.72680534124376L542.4,221.31113530397417L543,220.43815512657167L543.6,221.0480798006058L544.8000000000001,221.19105870723726L545.4,221.28385080099108L546,221.39183975458147L548.4000000000001,220.9783252000809L550.8,221.57650018930437L551.4,220.53139783144L552.6,220.6009721875191L553.1999999999999,222.09941185712816L553.8,221.1338648915291L554.4,221.893955719471L555,220.42147125005724L555.5999999999999,220.91906983852388L557.4,220.54097331762316L558,221.44127179384233L561.6,220.16929800510408L562.8,222.27928454875948L563.4,222.718292427063L564,221.79994697570802L564.6,221.50845791101457L565.8000000000001,221.9702329158783L567.6,221.31346721649172L568.2,221.4758111357689L570,221.49862332344057L570.6,221.90381283760073L571.2,222.21962363719942L572.4,222.73271198272707L573.6,221.48201830387117L575.4,221.13931728601457L576,220.5535904288292L577.1999999999999,221.93652720451357L579,222.76832152605058L579.6,222.39901192188265L580.1999999999999,220.98872305154802L581.4,221.41755838394167L582,221.04718984365465L582.6,222.16289169788362L583.8,221.96526492834093L584.4,222.74234379529955L585,221.6611700177193L588,222.0308175802231L590.4,221.65138049125673L591,220.8025080084801L592.2,223.3333653330803L593.4000000000001,222.71924997568132L594.6,222.54039115905763L595.2,222.4852926850319L595.8,221.6943462610245L596.4,222.31175107955934L597,222.91231430768968L597.6,222.5842581510544L598.8,222.40020604133608L600,222.51515693664552L601.1999999999999,222.22619129419328L603,222.2988861322403L604.1999999999999,222.7433238744736L604.8,222.60562838315965L605.4,223.33693642616274L607.8,222.52095855474474L609,221.87332899570467L609.6,223.04356606006624L610.8000000000001,223.6206299185753L612.6,221.8723827123642L613.8000000000001,223.59270329475405L614.4000000000001,223.37510318756105L615,223.32194234132768L616.8000000000001,222.6299501180649L618.6,221.88873989582063L619.2,222.34903914928438L620.4,222.67707277536394L621.5999999999999,224.3030241250992L622.8,222.653708589077L625.8,222.6952549338341L627,223.29333980083467L627.6,223.7204966068268L628.2,222.67644191980364L628.8,222.89175517559053L630.6,223.77532471418382L634.2,223.21974374055864L635.4,221.0974667787552L636,223.34734554290773L636.6,224.3346344947815L637.2,222.49855191707613L637.8000000000001,224.29494692087175L640.2,223.06573612689974L641.4,222.23188025951387L642,223.1695794582367L643.8,223.24955166578295L644.4,224.09082008600237L645,223.71404160261156L645.5999999999999,223.741134595871L646.1999999999999,223.84874053001406L647.4,223.29193164110185L648,223.54692120552065L648.6,223.2575950741768L649.1999999999999,221.59940249919893L650.4,223.89862318038942L652.2,223.6560930132866L653.4,224.39951122999193L654,223.52548338174822L655.2,222.2782819390297L655.8000000000001,222.74457432031633L657.6,224.58943254947664L658.2,224.2224435925484L659.4000000000001,224.25247682332994L660,223.90578789711L664.2,224.30225808620455L664.8,223.8447864174843L665.4,222.9711415886879L666,223.65369350910188L666.5999999999999,224.8859459280968L667.1999999999999,223.94520510435106L667.8,224.12023372650148L669,224.38831354379656L669.6,224.50987715721132L670.1999999999999,224.17935390472414L672,224.43013025522234L672.6,224.0283315896988L673.2,223.160375726223L673.8,224.70237822532656L675,224.28399707078935L678.6,223.18108130693437L679.2,223.60275192260744L679.8000000000001,224.53101081848146L681,224.44124908447267L683.4000000000001,224.34681226015093L685.2,223.80953736305239L687,224.00159908533098L689.4,224.58262832164766L691.1999999999999,223.34851713180544L691.8,223.3715095639229L692.4,224.64812464714052L693.6,224.33734942674639L694.1999999999999,225.04844756126406L694.8,224.07228870391847L696.6,224.61996145248415L697.2,224.09392930269243L698.4,224.02513225078584L699.6,224.98594779968263L700.2,224.14640296697618L701.4,224.25024629831316L702.6,224.2120006799698L703.2,224.71669639348985L704.4000000000001,224.36873449087145L705.6,224.31701560020448L706.2,223.1321900010109L706.8000000000001,224.24106509685518L707.4,225.31688786745073L709.2,223.99122376441957L709.8,224.9942277789116L710.4,224.7361740589142L712.1999999999999,224.32451827526094L712.8,224.797986638546L717.6,223.38256080150606L719.4,224.29765058755876L720,224.72259939908983L721.2,225.82076121568682L722.4000000000001,224.17001498937609L723,223.60603011846544L724.8,224.6432017207146L725.4000000000001,224.7310934185982L726.6,224.43388159275057L727.2,224.9684190273285L727.8,224.75293679237367L728.4000000000001,224.61926300525667L730.2,225.1946483373642L735,225.91478122472765L735.6,225.22010786533357L736.1999999999999,223.61646176576616L737.4,225.32638449668886L738.6,224.3463729143143L739.1999999999999,224.03599197864534L739.8000000000001,224.10873187780382L740.9999999999999,226.0081929087639L742.1999999999999,224.88285924196245L742.8000000000001,225.1190357923508L743.4,224.44520319700243L745.1999999999999,225.3989216208458L745.8000000000001,225.45618302822115L746.4,226.15822387933733L749.4,225.42803109884264L750.6,225.4510573267937L751.1999999999999,225.30451859235765L752.4,224.48591591119768L753,225.71926106214525L754.2,224.708652985096L757.8,225.87224353551866L758.4,225.2978270173073L759.5999999999999,225.01937187910082L760.8,225.34466804265978L763.2,226.97746868133547L764.4000000000001,225.3653285622597L765.5999999999999,225.0452144265175L766.8,225.01013435125353L768,225.90599430799486L769.2,225.13532538414003L769.8,225.52648962736131L770.4000000000001,226.57354087829592L771,226.80775727033617L771.6,225.70591170787813L774,224.7114805698395L775.2,224.97566260099413L775.8,224.713406932354L779.4,225.27489091157915L780.6,225.17002243995668L781.8000000000001,224.35098041296007L782.4,225.6296683073044L782.9999999999999,225.77084476947786L786.6,225.79668731689455L788.4,226.60387827157976L789.6,226.97175718545915L791.4,225.40910543203356L793.1999999999999,225.3572626233101L793.8000000000001,224.82075376510622L795,224.79126126766207L795.6,224.6414556026459L796.1999999999999,225.3536239385605L796.8000000000001,226.33142752647402L798,225.22746409177782L798.6,224.58129901885988L799.8,225.65154547691347L800.4,225.9733606696129L801,225.77121652364733L802.8,224.44655503034593L803.4,225.361205470562L804.5999999999999,226.352245759964L809.4000000000001,224.51234425306322L810,224.82691587209703L810.5999999999999,225.07363672256471L811.2,226.09610713720323L813,224.42519606351854L813.5999999999999,226.47677214145662L814.2,226.29309178590776L816,226.24869532585146L816.6,225.226382625103L817.2,225.62308938503267L819,227.16469759941103L826.1999999999999,225.26763607263567L827.9999999999999,227.02803851366045L829.1999999999999,226.22210927009584L829.8000000000001,226.20262033939363L830.9999999999999,225.6185382127762L831.6,226.6003747701645L833.4,226.39627046585085L835.1999999999999,226.45777888298036L835.8000000000001,225.50638110637667L836.4,225.73787130117418L837.0000000000001,225.25744099617006L837.6,226.428714466095L838.1999999999999,226.31000096797945L838.8000000000001,226.69563395977022L839.4,226.4336148619652L840.6,226.01215828657152L841.8000000000001,225.98278970718385L842.4,226.33718408346178L843.6,225.88825149536135L844.8,225.66445548534395L846,226.54615498781206L846.5999999999999,225.3406913995743L847.2,226.3310107111931L847.8,225.9978175878525L848.4,227.0455898165703L849,226.21088905334474L851.4000000000001,226.37701810598375L854.4000000000001,227.54802120923998L855,226.60137737989427L856.2,226.8080501675606L856.8,226.7150102376938L859.2,225.4390823364258L859.8,227.4035665512085L860.4000000000001,225.85259689092638L861.6,226.82779819965364L863.4000000000001,225.68788726329805L865.2,226.24117012023927L866.4,226.17160702943804L867.6,225.1540482759476L868.1999999999999,226.20557184219362L869.4,227.47987754344942L870,227.05773378610613L871.8000000000001,226.55262125730516L872.4,226.5706006407738L872.9999999999999,227.5272255063057L874.1999999999999,227.20228983163835L874.8000000000001,226.05510152578356L875.4,225.7048978328705L876.6,225.59023983478548L877.1999999999999,227.05059159994127L877.8000000000001,227.45241279602052L878.4,226.29440982341768L879.0000000000001,226.3555577516556L879.6,226.93061639070513L882.6,226.2267843604088L883.1999999999999,226.65992302894594L884.4,227.01730270385744L886.8000000000001,225.34783358573915L887.4,226.69153339862825L888.6,227.15585435628893L891,227.2927838087082L892.2,226.4227213382721L893.4,226.69331331253053L894.5999999999999,227.2586162209511L895.2,227.34531379938127L895.8,227.499828350544L896.4000000000001,227.37732971906664L897.5999999999999,226.63226677179338L899.4000000000001,226.72557706832887L900,226.94089032411577L901.2,227.3487384438515L901.8,227.60622889995577L902.4000000000001,226.52832205295564L903.5999999999999,227.1066476225853L906,227.58785523176195L907.2,227.03932632207872L907.8,225.77341325283052L909,227.54244489669802L909.6,226.32644827365877L911.4,226.21133966445925L912,227.32875384092333L915,226.69336963891985L915.6,227.23886818885805L916.1999999999999,226.7983057022095L916.8000000000001,226.54243744611742L917.9999999999999,227.4302539944649L919.1999999999999,226.46546180248262L919.8000000000001,228.0289584517479L920.4,227.37455846071245L920.9999999999999,227.51318897008898L921.6,226.91520549058916L922.1999999999999,226.5181720376015L924.0000000000001,226.9562223672867L925.8000000000001,226.4245012521744L927.0000000000001,227.70718832015993L928.1999999999999,226.81413341760637L928.8000000000001,227.33652688264849L929.4,227.3207892894745L930,226.95490432977678L930.6,227.91328657865526L933,227.19310863018038L935.4,227.52135629653932L936.5999999999999,226.76454366445543L937.2,227.8421012878418L939,227.1756249189377L939.5999999999999,227.6076595902443L940.2,228.48644138574602L942,227.55363131761553L943.8,226.5006319999695L944.4000000000001,226.92181820869448L945,227.11367715597154L946.2,227.79702891111376L946.8,227.37557233572008L947.4000000000001,227.42305548191072L949.2,227.9673261165619L950.4000000000001,226.76775426864626L951,227.7731352567673L951.6,226.8690178513527L952.2,227.90763140916826L952.8,226.60609753131868L953.4000000000001,226.874075961113L954.6,227.07213081121446L955.2,227.99519641399385L957,226.8244411468506L960,227.42134315967562L967.1999999999999,227.63325430154802L967.8000000000001,227.35332341194155L968.4,227.11716939210893L969.0000000000001,227.8764603853226L971.4,228.22464759349825L973.1999999999999,226.08247615098955L973.8000000000001,226.66417003870012L975,226.6936287403107L975.6,227.35467524528505L976.1999999999999,227.79462940692903L976.8000000000001,227.94285793304445L978,228.4320638895035L979.2,229.16786677837374L979.8,227.752587389946L980.4,227.01660425662996L981.5999999999999,228.51717306375505L982.2,227.53917796611788L982.8,227.3196177005768L984,228.01572175025942L985.2,227.18821949958803L988.8,226.98809183835985L990,227.34080768823625L993,227.270016682148L993.5999999999999,227.72089816331865L996,227.7032229423523L999,228.40866590738298L999.6,227.6485750794411L1002,227.5132452964783L1004.4,227.52382339239122L1006.1999999999999,227.14603103399278L1007.9999999999999,227.56463749408724L1008.6,226.93430013656618L1009.1999999999999,227.4997382283211L1010.9999999999999,226.6644742012024L1011.6,228.40363032817842L1013.4,228.06311477422716L1014.6,226.8235737204552L1015.1999999999999,227.8504939198494L1015.8000000000001,226.8648722290993L1020,228.02067847251894L1020.6,227.50514556169512L1021.1999999999999,228.72888143062593L1021.8000000000001,227.8062213778496L1023,227.60231984853746L1023.6,227.42226691246034L1024.2,227.9105040550232L1024.8,227.67535264492037L1025.3999999999999,226.80253018140795L1026,227.9832439541817L1026.6,228.5619187474251L1027.2,227.47140605449678L1027.8,228.177378487587L1029.6,228.20590217113497L1030.8,228.5557228446007L1033.8,228.20972110033037L1034.4,228.735843372345L1035,228.07143981456758L1036.2,227.85035873651506L1040.4,228.4409071326256L1041.6000000000001,227.55754036903383L1044.6000000000001,227.54059739112856L1045.2,226.95902742147447L1047.6000000000001,227.86252523660661L1048.8000000000002,227.02797092199327L1049.4,229.11977530717851L1050.6000000000001,228.66305841207506L1051.2,228.93321104049684L1052.4,228.22606701850893L1053,227.889212679863L1056.6,228.04011107683183L1057.2,228.22756530046465L1057.8,227.53344393968584L1060.8,227.33187432289125L1061.3999999999999,228.29825491905214L1066.8,227.1481601715088L1067.3999999999999,227.60099054574968L1069.2,227.89481152296068L1069.8,228.73040224313738L1070.3999999999999,228.8964974999428L1071.6,228.42128301858904L1072.8,227.4719693183899L1074,228.82780183553697L1075.8,227.8715261936188L1076.4,228.23580021858217L1077.6,228.14652289152147L1078.2,228.7096403360367L1079.4,229.03138793706896L1080.6,227.1986060857773L1081.2,227.4734788656235L1082.4,228.8381095647812L1083,229.28701962232591L1085.4,229.1948583841324L1086,228.48061723709108L1087.2,228.9718734741211L1087.8,228.7821661949158L1088.4,228.67020059823992L1089,228.50305767059328L1090.2,227.4310312986374L1090.8,228.6749883413315L1091.4,227.94787098169328L1092,227.62458003759386L1094.4,227.5016645908356L1095.6000000000001,228.72232503890993L1096.2,228.2600994229317L1096.8000000000002,228.5356593847275L1098,228.2914957523346L1099.2,227.84317148923876L1100.4,228.10289247035982L1101.6,227.8700166463852L1102.2,228.49147696495058L1102.8,228.0159695863724L1104,227.2767871141434L1104.6,227.58581621646883L1105.2,228.41469283103945L1105.8,230.533026945591L1106.3999999999999,227.50071830749513L1107,227.95549757480623L1108.1999999999998,226.9838335633278L1108.8,228.93342508077623L1110.6,228.72193075418474L1111.1999999999998,228.86338884830477L1112.3999999999999,228.70468361377718L1113,229.5143416643143L1114.8,227.71711302995683L1115.3999999999999,229.47339237928392L1116,227.9556552886963L1116.6,228.82657392024996L1117.2,228.13045860528948L1118.3999999999999,227.83070082664491L1120.8,228.51915575265886L1122,228.80001039505007L1122.6,226.90706069469454L1123.2,229.12989152669908L1125,228.22399420738222L1125.6,228.9236242890358L1126.8,226.7605782866478L1129.2,229.05043752193453L1129.8,228.41213561296465L1130.4,228.10062814950945L1131,228.21258248090746L1132.2,228.4950818538666L1134.6000000000001,227.57542963027956L1135.2,227.8448387503624L1136.4,228.85495115518572L1137,228.99400974512102L1137.6000000000001,227.7476869940758L1138.2,228.0608166575432L1139.4,229.85277314186098L1141.2,227.32023729085924L1141.8000000000002,228.70172084569933L1142.4,228.32045878171922L1143,229.5372890353203L1143.6000000000001,229.31993676424028L1145.4,227.5517725467682L1146,228.3841188669205L1148.4,228.82923252582552L1149,229.345858168602L1150.2,227.97994322776796L1150.8,228.21624369621279L1151.3999999999999,229.86051238775255L1153.8,228.4831969857216L1155.6,228.49313296079637L1156.8,227.85579986572267L1158.6,228.55303044319155L1159.2,228.96482141017916L1159.8,227.68949056863786L1160.3999999999999,229.24905563592912L1161,229.90779275894167L1162.2,228.81501574516298L1162.8,227.93392456769945L1163.3999999999999,229.37887669801714L1165.2,229.54367644786836L1165.8,227.98526043891908L1167,228.4323004603386L1167.6,228.35315061807634L1168.2,229.33970732688906L1170,229.2311325788498L1171.2,228.72519768476488L1171.8,228.23824478387834L1172.4,228.6723072052002L1173,227.8274902224541L1177.2,229.93183286190035L1177.8,229.5728760480881L1179.6000000000001,229.25527406930925L1182.6000000000001,229.07909638881685L1185,229.8808574795723L1186.2,229.99985260963442L1187.4,228.6554994106293L1188.6000000000001,229.11960632801058L1189.2,228.23343451023104L1189.8,229.46662194728853L1190.4,228.87080140113832L1192.8,228.8140807271004L1193.4,229.13660563230516L1194,229.41792215108873L1195.2,228.23301769495012L1195.8,228.73987634181978L1196.3999999999999,228.6419022202492L1198.8,229.62814350128176L1200,229.15023661851885L1201.1999999999998,229.58630425930025L1202.3999999999999,229.37709678411485L1203,228.80442638397219L1204.2,228.53804762363436L1206.6,229.1215552210808L1207.8,229.51435292959215L1208.3999999999999,228.2622285604477L1210.2,229.70885921716692L1212,229.3470635533333L1214.4,230.56017626523973L1215.6,228.90276099443437L1216.2,228.3531956791878L1218,227.59191073179247L1220.4,228.93637658357622L1221,229.34485555887224L1221.6000000000001,229.81484295129778L1222.2,228.0622022867203L1224,229.14241851568224L1224.6000000000001,230.02898461818697L1225.2,228.52989156246187L1226.4,229.64131261110307L1227,229.69651247262956L1227.6000000000001,229.16521943807604L1228.8000000000002,229.29075969457628L1229.4,229.19778735637667L1231.2,228.87961084842684L1231.8000000000002,227.85404248237612L1233,228.9351148724556L1234.2,228.5827369809151L1234.8,229.53974486589433L1235.4,228.69431955814363L1239.6,228.01025809049608L1240.2,229.51667357683183L1240.8,228.87218703031542L1241.3999999999999,229.69471002817156L1245,228.16201264858248L1245.6,229.76431818008425L1246.1999999999998,227.9427227497101L1246.8,228.24971283674242L1247.3999999999999,229.33342130184175L1248.6,229.08059467077257L1250.3999999999999,227.74295557737352L1252.2,229.8553866863251L1254.6,229.12942965030672L1255.2,228.70797307491304L1255.8,229.41115171909334L1256.4,228.90628702640535L1257,229.00599600076677L1258.2,228.95961685180666L1258.8,229.10326040983202L1261.2,228.55642129182817L1263,228.90234417915346L1263.6,230.68410558700563L1265.4,229.40843678712847L1266,228.95405180454256L1266.6000000000001,228.97135527133943L1267.2,228.86306215524675L1267.8,229.649187040329L1269,230.28247590065004L1269.6000000000001,229.28474403619768L1270.2,228.4163600921631L1270.8,229.40318716764452L1271.4,230.3499549150467L1273.8000000000002,229.004666697979L1274.4,228.63959283828737L1275,229.10825092792513L1276.8000000000002,228.85306985378267L1278,229.0659948706627L1278.6000000000001,230.6648081660271L1279.2,229.754258286953L1280.4,229.13164891004564L1281,229.66282929182054L1281.6,228.8113432645798L1282.8,228.93861837387087L1283.4,229.68226189613344L1285.2,230.2787245631218L1286.3999999999999,229.9604804635048L1287.6,230.6436857700348L1288.1999999999998,229.24433548450472L1289.3999999999999,228.64672375917436L1291.1999999999998,228.21962327957155L1292.3999999999999,229.69616324901583L1293,229.4047305107117L1293.6,229.60251499414446L1294.8,228.89539350271227L1296,228.52493484020235L1296.6,230.40120066404344L1297.2,229.18028111457826L1299.6,230.3307701468468L1300.2,229.5312395811081L1301.4,229.20178653001787L1302.6,229.17598904371263L1305.6,229.9605142593384L1308,229.43729842901232L1308.6,229.6840756058693L1309.2,228.42647631168367L1309.8,229.7214087367058L1317,230.05413998365404L1318.2,230.03388501405718L1319.4,231.07285906076433" style="fill: none;" fill="none"></path></g><g><path stroke="rgb(187, 187, 187)" stroke-width="2px" d="M125.99999999999999,-65.43336610794069L126.60000000000001,4.8986925601959115L127.8,-46.542756843566906L128.4,-24.438952374458324L129,22.722953152656544L130.20000000000002,41.52805895805358L130.8,12.610834193229664L131.4,46.775087428092945L132,-68.70818238258363L134.4,85.26040835380553L139.79999999999998,1.1041188955306893L140.4,-41.17003040313722L141.6,34.47067780494689L143.4,-125.00573258399965L144,-46.81096057891847L145.2,118.43205542564391L146.4,-92.32403497695924L147,-151.63581304550178L148.20000000000002,106.33812625408171L149.4,-53.23243932724L150,46.987099957466114L151.8,119.57615704536437L152.4,11.594953966140736L153,66.84609503746032L153.60000000000002,28.309224200248707L154.20000000000002,55.43285901546477L156,48.025713515281666L156.6,15.436931920051563L157.8,-42.11018543243409L159,16.35584063529967L159.60000000000002,-30.85756974220277L160.2,108.519917678833L160.79999999999998,58.8540788412094L162.6,78.39192337989806L163.2,11.231040430068958L163.8,-176.1453626632691L164.4,-49.12052278518678L165.6,118.22979862689971L167.4,51.35408492088317L170.4,39.495171976089466L171,69.81472105979918L171.6,55.35028452873229L172.2,-30.75025670528413L176.4,-17.414713668823254L181.2,145.6371156692505L183,36.81250376701354L183.6,110.52912504673003L187.79999999999998,-43.723102855682384L189.6,63.43550963401793L190.8,-29.341330933570873L191.39999999999998,82.1568918943405L192,-223.1818631172181L194.4,-35.23527925014497L195,87.98428494930266L195.6,37.583161425590504L197.4,66.18851823806762L198.00000000000003,-15.740332889556896L199.8,80.57855887413024L202.2,108.51324863433837L203.39999999999998,104.02484650611876L204.60000000000002,50.135497283935536L205.2,50.784850430488575L205.79999999999998,113.43937439918517L206.4,126.67902739048006L208.79999999999998,-3.999772953987133L210,118.008323264122L211.8,86.94794697761535L212.39999999999998,-1.748001623153698L213,40.17097599506377L214.2,41.38115973472594L214.8,-65.89862208366395L215.4,79.69105775356292L217.20000000000002,-35.15223162174226L218.4,24.71161265373229L218.99999999999997,4.141846132278431L220.20000000000002,-9.386964011192333L220.79999999999998,17.60362787246703L222.6,48.994347167015064L225.60000000000002,63.33412213325499L226.2,0.9002624273300057L226.8,97.44337828159331L228,41.0032772541046L228.6,152.35048903226854L229.79999999999998,9.89211709499358L231.00000000000003,44.591403436660755L231.6,124.93257136344911L232.20000000000002,67.41391010284423L232.79999999999998,143.51101977825167L234,-13.037927913665783L234.6,88.27116651535033L238.8,52.37839157581328L241.20000000000002,32.123489570617664L243.6,116.02727909088134L244.20000000000002,137.3795768737793L244.8,117.61523265838622L247.2,66.012194108963L249,80.68632252216338L250.79999999999998,85.12912280559539L251.4,98.97225673198699L253.20000000000002,-4.262389111518871L253.79999999999998,149.2203301906586L255,87.17947096824645L255.6,47.75863630771636L256.2,123.41984732151033L257.4,-35.960019636154186L258,73.77786834239959L259.2,116.98620207309722L259.8,63.48358983993529L260.40000000000003,133.83500225543978L262.20000000000005,30.384626340866077L264,75.43960947990416L267,-69.15275530815126L268.2,84.27064104080199L269.4,110.88114244937896L270,100.22901113033294L273,-1.2813487529754752L274.8,7.368762445449818L275.4,71.4525347471237L276,56.76254482269286L276.59999999999997,128.11947340965273L277.79999999999995,102.04842109680175L280.2,71.70444889068602L281.4,102.05423398017882L282.6,113.36601490974425L283.8,72.88556821346282L286.8,83.58873124122618L288,72.88130993843077L290.4,79.46214730739592L293.4,-39.49519901275636L294.6,-30.870547342300426L295.2,117.45296759605407L297,85.60386414527892L298.2,134.73780162334444L298.8,-46.89617114067079L299.4,33.19429929256438L300.59999999999997,92.88037748336791L301.2,154.85148210525514L301.8,77.50311548709868L304.2,112.79680294990538L304.8,90.06329197883605L306,62.87382287979125L307.8,57.65040643215178L310.2,150.14917488098146L310.79999999999995,109.98857195377349L311.4,107.11601622104644L312,138.3964935064316L313.2,81.95745141506194L315,105.13715751171111L315.6,99.53815670013427L316.2,45.14898962974547L318,28.70127840042113L318.6,134.0654673099518L319.8,114.71354491710662L323.4,89.56489355564116L324.59999999999997,15.102105331420887L326.4,81.47935302257537L327,79.03366119861602L328.2,68.50961608886718L328.8,127.63605780601503L331.8,89.60330815315245L332.4,94.24701340198516L333.59999999999997,54.51487405300139L334.8,163.1140564799309L335.4,93.97919268608092L336,123.34840292930605L337.8,102.42454619407653L338.4,126.23715813159944L340.2,38.36364240646361L340.8,139.39378602504732L342,51.45826621055602L342.6,117.7773400068283L343.8,156.5023071885109L346.2,118.08026332855223L346.8,106.7227003097534L347.4,31.52949399948119L348.6,70.3943871974945L349.2,129.47371752262117L351,73.36594219207763L351.6,13.837194871902454L352.20000000000005,97.29911513328551L352.8,150.6103753566742L354,23.09326536655425L354.6,66.69933099746703L355.2,119.23768050670623L355.79999999999995,89.19681186676024L361.20000000000005,95.52424807548522L361.79999999999995,-2.530645537376415L363,91.66787309646605L364.8,-9.941869068145763L368.99999999999994,88.02988679409026L369.59999999999997,103.29596049785613L372.00000000000006,148.59549028873445L372.59999999999997,169.2521346330643L373.2,93.56645543575286L374.40000000000003,23.318908882141102L375.59999999999997,111.1004098176956L378,105.41757280826567L383.4,120.54819281101226L384,163.4001156806946L384.6,100.43953664302825L385.20000000000005,69.5420112133026L386.4,99.27125973701476L387,38.292761278152454L388.8,144.02298159599306L390.59999999999997,126.52944703102114L394.8,107.49162311553954L395.40000000000003,83.67281527519225L396.00000000000006,89.9697901725769L396.59999999999997,90.55033500194548L397.8,87.55532569885253L398.40000000000003,117.66124005317687L399,161.1734208583832L400.2,115.0888589143753L400.79999999999995,101.26622779369353L401.4,96.09152240753173L402.6,131.84643287658693L403.79999999999995,115.41064031124114L404.4,94.93527681827544L406.79999999999995,134.03104062080385L411,132.68301494121553L412.8,21.29361469745635L413.40000000000003,137.9167503833771L414.59999999999997,141.8147167682648L415.8,132.65861434936525L417.59999999999997,131.16659588813783L424.2,73.44851667881011L426,66.64160771369933L426.6,77.42335731983184L427.20000000000005,116.906556558609L428.4,86.67456121444701L429.6,107.30367321968077L430.20000000000005,85.5068926334381L431.4,96.17808480262755L434.40000000000003,124.26147623062135L435,94.7082138776779L438.59999999999997,39.423569869995106L439.8,105.01420826911925L440.40000000000003,50.1853799343109L441.00000000000006,55.88198311328887L441.59999999999997,111.91083390712737L442.2,94.57174630165099L442.8,142.66745324134828L443.40000000000003,0.13082141876219566L444,115.47967393398284L444.6,87.29753108024596L445.2,76.33769996166228L446.4,156.03235359191896L448.20000000000005,72.99137170314788L448.79999999999995,142.53048999309542L449.4,117.38057692050933L450.6,82.51954371929168L453,155.86737359762193L454.20000000000005,126.75943894386293L455.4,114.21329898834227L457.8,44.23794407844542L458.40000000000003,106.61365242004393L458.99999999999994,100.39032990932463L460.2,120.21199185848235L461.40000000000003,128.17902166843416L462.59999999999997,132.68175323009493L463.8,97.91113514900206L464.40000000000003,-9.057116675376903L466.2,130.65591831207277L467.4,119.75259382724761L468,136.45798702239992L468.6,150.9764518260956L469.2,136.1106559753418L469.79999999999995,112.63886375427245L470.4,163.89371509552004L471.6,126.69087846279146L472.20000000000005,116.174831700325L475.20000000000005,129.35513920783998L475.8,116.9188582420349L477,97.68382437229155L477.6,90.83845574855803L478.2,140.66200847625734L480,76.2943511724472L481.2,70.8004328727722L482.40000000000003,131.2798569917679L483.59999999999997,147.381724190712L484.8,150.1158972501755L486.00000000000006,93.34829206466674L486.59999999999997,77.74881119728087L487.2,79.74855573177337L489,129.34461743831636L491.4,115.97764427661895L492,92.80501277446746L493.20000000000005,111.32026298046111L493.79999999999995,75.20637316703795L495,109.71759696006774L497.4,128.53746027946474L500.4,105.28725607395171L504.59999999999997,139.71770782470705L505.2,123.10448713302614L506.40000000000003,144.07135469913484L507.00000000000006,127.65890378952028L507.59999999999997,85.16832597255706L508.2,131.06392414569856L508.8,5.194563817977894L509.40000000000003,96.90980966091155L510.59999999999997,108.70207722187041L511.2,62.526018691062916L513.6,104.43798930644988L514.1999999999999,161.51887060403826L515.4,163.44976176023485L516.6,137.48977382183077L518.4,59.982386541366566L519.6,125.1668666124344L520.2,133.0625421524048L520.8000000000001,109.52791221141814L522.6,136.22578711509706L523.2,87.66770811080931L523.8000000000001,145.6213893413544L524.4000000000001,159.14362056255342L525,126.96917588710787L526.2,69.01279098987578L526.8000000000001,163.13889641761781L527.4,153.25790716409685L528.6,154.68811304569246L529.2,76.23383409976958L529.8,116.54732937812804L530.4,131.90104694366457L531,138.23621113300325L531.5999999999999,96.38948900699614L532.8,127.82324166297914L533.4,125.65077788829805L535.1999999999999,133.4337330579758L537.6,143.45712668895723L539.4,77.85747606754302L540,113.81982536315917L540.6,96.7819262266159L541.8,159.74938834905626L542.4,131.09830577373506L543,43.00883467197417L543.6,122.74192543029787L544.8000000000001,55.10003764629363L545.4,138.4746069431305L546,90.31223208904265L548.4000000000001,74.92368228435515L550.8,129.72031445503237L551.4,143.8213105916977L552.6,64.88976688385009L553.1999999999999,123.07650418281557L553.8,121.04981310367583L554.4,145.42501301765444L555,138.03505833148958L555.5999999999999,144.50540585517885L557.4,96.0551355600357L558,117.6350595474243L561.6,81.61320705413817L562.8,129.04047746658327L563.4,120.70741624832152L564,129.2001289844513L564.6,16.409057807922352L565.8000000000001,99.93126983642577L567.6,119.37928504943847L568.2,34.16453261375426L570,100.56593306064605L570.6,79.81119067668914L571.2,145.50607795715334L572.4,116.26495392322539L573.6,53.871761870384205L575.4,139.80451805591585L576,117.38524074554442L577.1999999999999,115.40552587509154L579,63.7508472919464L579.6,126.19827039241792L580.1999999999999,122.58008844852449L581.4,151.94615567922594L582,102.12383086681365L582.6,120.96212418079375L583.8,135.12992341518404L584.4,113.85400421619414L585,133.5799788951874L588,71.52708835601806L590.4,89.03612394332885L591,148.3383490562439L592.2,129.45078141689302L593.4000000000001,133.54253311157228L594.6,131.06040937900545L595.2,133.76873989105226L595.8,108.00412566661834L596.4,110.88945622444152L597,99.49577672481536L597.6,100.02427597045897L598.8,120.26800282001494L600,119.12680764198302L601.1999999999999,111.92874569892882L603,41.29392142295836L604.1999999999999,168.8627503037453L604.8,107.43275077342986L605.4,152.6783987402916L607.8,111.16897029876708L609,135.5110502958298L609.6,98.22471542358397L610.8000000000001,97.14471323490142L612.6,129.16047520637514L613.8000000000001,50.48683876991271L614.4000000000001,126.17071552276613L615,78.8635329723358L616.8000000000001,132.3205884218216L618.6,137.4674460411072L619.2,92.3604173183441L620.4,84.77208108901976L621.5999999999999,43.118017745017994L622.8,71.32516951560973L625.8,149.80168612003328L627,133.16476328372957L627.6,157.41143764257433L628.2,93.8981953382492L628.8,101.56417186260222L630.6,26.575385284423817L634.2,117.03051967620848L635.4,111.10239250659941L636,65.79777081012725L636.6,112.12800593376159L637.2,119.28977115154265L637.8000000000001,98.91342945098876L640.2,154.489810359478L641.4,151.4534011602402L642,158.92397017478945L643.8,70.57686216831206L644.4,47.002082777023304L645,106.30162675380706L645.5999999999999,117.63375277519225L646.1999999999999,143.98276455402376L647.4,139.38813085556032L648,133.20529575347902L648.6,101.3095540523529L649.1999999999999,91.62583107948302L650.4,162.85367084741594L652.2,129.5346852064133L653.4,148.74443979263307L654,138.04141194820406L655.2,128.95308144092562L655.8000000000001,126.22255833148958L657.6,115.06207008361815L658.2,153.2808770656586L659.4000000000001,112.51156611442565L660,13.678129148483265L664.2,28.2266271829605L664.8,-26.47375445365907L665.4,60.86303837299346L666,115.10005660057067L666.5999999999999,103.71293349266051L667.1999999999999,116.48102195262908L667.8,157.02784366607668L669,117.8745593547821L669.6,173.01741857528688L670.1999999999999,112.06654257774352L672,54.85039908885955L672.6,57.96995730400084L673.2,136.86628575325014L673.8,165.53255392313005L675,84.82644731998442L678.6,87.3427273750305L679.2,104.50215632915496L679.8000000000001,124.57577748298647L681,107.06219072341918L683.4000000000001,148.04250032901766L685.2,102.92030854225158L687,110.6324276447296L689.4,150.34036917686464L691.1999999999999,77.63854665756224L691.8,82.40024442672728L692.4,165.26086921691896L693.6,108.68826599121093L694.1999999999999,115.90647025108336L694.8,150.3995794773102L696.6,45.18026204109191L697.2,23.584724378585804L698.4,90.48227019309996L699.6,44.556436014175404L700.2,170.4247937321663L701.4,88.15709431171416L702.6,154.64225209951402L703.2,154.06941272020342L704.4000000000001,151.12688834667208L705.6,119.3986162662506L706.2,115.11098392009734L706.8000000000001,109.42271704673766L707.4,161.04649497270586L709.2,115.44763548374175L709.8,127.6565831422806L710.4,115.92251200675963L712.1999999999999,94.82084412574767L712.8,125.76442201137544L717.6,125.9673547267914L719.4,79.60341389179229L720,148.5098967075348L721.2,140.14331002235414L722.4000000000001,136.73500020504L723,127.0157916069031L724.8,75.1553414583206L725.4000000000001,52.19875545501708L726.6,94.1884339570999L727.2,68.38959581851958L727.8,48.23628408908843L728.4000000000001,169.46071125268938L730.2,49.11517853736876L735,92.56292195320128L735.6,126.95218784809114L736.1999999999999,89.76832194328307L737.4,118.03497691154479L738.6,101.50865657329558L739.1999999999999,115.2856407880783L739.8000000000001,116.56639022827147L740.9999999999999,110.6129387140274L742.1999999999999,125.3506258249283L742.8000000000001,144.26205332279207L743.4,122.8863012313843L745.1999999999999,97.65126771926879L745.8000000000001,111.83835310935973L746.4,120.48382301330565L749.4,131.18644530773165L750.6,109.05887110233306L751.1999999999999,172.91244871616365L752.4,82.6977604150772L753,150.7385516881943L754.2,113.96003301143645L757.8,122.31533188819887L758.4,134.1124209880829L759.5999999999999,136.6009659290314L760.8,96.53147656917571L763.2,85.10668237209319L764.4000000000001,170.56841475963594L765.5999999999999,143.02622981071474L766.8,120.01045603752135L768,74.7909547805786L769.2,126.03080077171327L769.8,132.01342935562135L770.4000000000001,78.21082277297972L771,77.33438415527343L771.6,172.0396375179291L774,57.68742413520812L775.2,106.28337700366973L775.8,161.93060524463655L779.4,93.62120468616484L780.6,92.79636104106902L781.8000000000001,123.49651880264284L782.4,96.61423130035399L782.9999999999999,52.06571252346038L786.6,109.90315861701964L788.4,127.68296642303469L789.6,113.9029856443405L791.4,153.26856411695482L793.1999999999999,93.96977491378783L793.8000000000001,164.68433482646944L795,69.49248905181884L795.6,106.21576280593871L796.1999999999999,114.99215776920317L796.8000000000001,94.91641874313353L798,177.67635447978975L798.6,139.9918145656586L799.8,163.62552262544634L800.4,21.265226197242725L801,95.58541853427886L802.8,113.50876851081847L803.4,12.157970023155201L804.5999999999999,106.35171217918395L809.4000000000001,127.82646353244783L810,36.64030272960662L810.5999999999999,139.00511140823366L811.2,150.4144947052002L813,125.3728860139847L813.5999999999999,166.05145515203478L814.2,131.2370264053345L816,50.884998750686634L816.6,144.95419199466707L817.2,108.09751482009887L819,88.60207278728484L826.1999999999999,135.55985147953035L827.9999999999999,105.76740474700927L829.1999999999999,107.96940608024596L829.8000000000001,160.59334917068483L830.9999999999999,135.65803964138033L831.6,120.30436713695525L833.4,122.465633225441L835.1999999999999,54.49078888893126L835.8000000000001,146.64060409069063L836.4,114.6514957666397L837.0000000000001,83.76244182586669L837.6,118.0383114337921L838.1999999999999,130.82280213832857L838.8000000000001,105.84675736427306L839.4,47.25329847335814L840.6,172.36931587457659L841.8000000000001,109.5073192834854L842.4,151.29203732013704L843.6,79.26658208370208L844.8,103.62188751697539L846,139.09647281169893L846.5999999999999,80.83461863994597L847.2,73.84257609844207L847.8,127.9696226835251L848.4,136.2900893211365L849,102.3941750049591L851.4000000000001,132.44862957000734L854.4000000000001,128.1121735095978L855,146.5009822368622L856.2,135.5274750709534L856.8,134.08304114341738L859.2,158.54139007329943L859.8,100.22896606922149L860.4000000000001,155.80233914852144L861.6,118.21179671287535L863.4000000000001,135.36622388362886L865.2,80.50103123188018L866.4,115.23156745433806L867.6,132.51058859825136L868.1999999999999,45.22732837200164L869.4,126.93682200908663L870,76.879221868515L871.8000000000001,103.51268191337584L872.4,138.7817885398865L872.9999999999999,112.39413685798644L874.1999999999999,148.52943069934847L874.8000000000001,94.87129004001616L875.4,112.38151974678038L876.6,97.48927302360534L877.1999999999999,116.19767768383025L877.8000000000001,0.9620637416839486L878.4,167.39166272878649L879.0000000000001,131.74833483695986L879.6,82.47885353565215L882.6,133.31966085433962L883.1999999999999,124.73826785087587L884.4,156.49970490932466L886.8000000000001,130.07688302993776L887.4,120.68454773426055L888.6,117.55047984123229L891,120.93797142505645L892.2,144.25788516998293L893.4,52.98989338874816L894.5999999999999,148.08346087932588L895.2,104.07563037872313L895.8,110.53462250232695L896.4000000000001,108.67526586055754L897.5999999999999,48.31960208415984L899.4000000000001,150.42352945804598L900,139.0866720199585L901.2,140.1767678976059L901.8,89.91015179157256L902.4000000000001,130.36887903213503L903.5999999999999,124.56595416069032L906,119.91242558956145L907.2,148.18264038562776L907.8,103.2537382364273L909,101.77528316974639L909.6,155.201291513443L911.4,133.82186694145204L912,136.05009384155275L915,90.88435049057006L915.6,133.7882513523102L916.1999999999999,109.66183383464812L916.8000000000001,126.9076224088669L917.9999999999999,126.74278886318208L919.1999999999999,95.7799022912979L919.8000000000001,159.23974717855455L920.4,113.58113665580748L920.9999999999999,101.60173029899596L921.6,97.53212614059447L922.1999999999999,102.78174562454222L924.0000000000001,124.69162960052492L925.8000000000001,142.2630522966385L927.0000000000001,142.4316484451294L928.1999999999999,181.9008224129677L928.8000000000001,137.5999482393265L929.4,126.03095848560335L930,64.4312250137329L930.6,133.05404813289644L933,101.51642961502074L935.4,115.09392828941344L936.5999999999999,113.96843690872191L937.2,46.491247487068165L939,85.61503930091857L939.5999999999999,101.64516921043395L940.2,145.87310070991518L942,123.77296872138979L943.8,136.4351635694504L944.4000000000001,76.22599346637725L945,67.03722174167632L946.2,142.75626869201662L946.8,139.92857129573824L947.4000000000001,136.8845580339432L949.2,152.1073054790497L950.4000000000001,119.55466289520263L951,118.23022670745848L951.6,61.747204971313465L952.2,52.08738691806792L952.8,20.43317277431487L953.4000000000001,142.91585261821749L954.6,146.87850422859194L955.2,128.4273759841919L957,84.74819869995116L960,124.98910052776338L967.1999999999999,143.1742330312729L967.8000000000001,30.824152421951283L968.4,130.61040658950807L969.0000000000001,145.93028326034548L971.4,124.85303850173952L973.1999999999999,68.68177206516265L973.8000000000001,110.6788405895233L975,109.93756277561187L975.6,138.0018482923508L976.1999999999999,67.13538737297057L976.8000000000001,59.74295432567595L978,141.97610313892366L979.2,132.7735652446747L979.8,130.52625496387483L980.4,180.0543645143509L981.5999999999999,125.28280885219576L982.2,55.86758608818053L982.8,133.78748531341554L984,60.72111840248107L985.2,75.00359816551207L988.8,126.31464071273805L990,56.45847244262694L993,161.67236001491548L993.5999999999999,57.094893050193775L996,164.08014417886736L999,109.5197110891342L999.6,84.9827192544937L1002,132.38362891674043L1004.4,143.436984372139L1006.1999999999999,81.82663900852202L1007.9999999999999,155.73941130638124L1008.6,131.3653153896332L1009.1999999999999,131.56791014671327L1010.9999999999999,95.94027478694915L1011.6,146.90626187324526L1013.4,57.97984821796416L1014.6,88.58567054271697L1015.1999999999999,112.52551252841948L1015.8000000000001,143.77492017745973L1020,115.71493799686431L1020.6,97.71602053642272L1021.1999999999999,144.56871671676637L1021.8000000000001,134.08669109344484L1023,116.63790221214293L1023.6,35.54556555747985L1024.2,105.94447238445281L1024.8,101.36205024719237L1025.3999999999999,125.90501267910005L1026,162.61616499423982L1026.6,94.49757571220397L1027.2,137.91438467502596L1027.8,72.71731002330779L1029.6,110.40002496242522L1030.8,123.89197511672975L1033.8,162.89229948520662L1034.4,104.16361219882964L1035,137.1565694332123L1036.2,132.93323929309847L1040.4,146.24474222660066L1041.6000000000001,93.8950635910034L1044.6000000000001,107.3629511117935L1045.2,100.18196732997893L1047.6000000000001,91.11017425060271L1048.8000000000002,26.989249062538136L1049.4,126.87558395862581L1050.6000000000001,166.2963848233223L1051.2,98.73370320796965L1052.4,84.70732827186583L1053,138.48226733207704L1056.6,98.97493786811827L1057.2,81.90295000076293L1057.8,138.88020200729372L1060.8,106.7736869573593L1061.3999999999999,107.01609320640563L1066.8,129.8372255086899L1067.3999999999999,140.8677349805832L1069.2,85.92213077545165L1069.8,155.06450850963594L1070.3999999999999,173.85153354406359L1071.6,101.3679983139038L1072.8,116.63328344821929L1074,130.8329634189606L1075.8,101.35132570266722L1076.4,106.94104392528533L1077.6,96.93515653610228L1078.2,144.12720794677736L1079.4,152.70010693073274L1080.6,112.38498945236205L1081.2,73.9144260406494L1082.4,128.58085412979128L1083,124.0226298093796L1085.4,102.48440988063811L1086,85.02144927978514L1087.2,134.21989173889162L1087.8,129.48849756717684L1088.4,140.6668074846268L1089,88.79268128871917L1090.2,98.31772155761718L1090.8,151.9991362810135L1091.4,128.41297895908357L1092,123.55739636421205L1094.4,65.51580090522765L1095.6000000000001,140.44179482460024L1096.2,156.41512520313265L1096.8000000000002,30.323343229293812L1098,152.16443170309068L1099.2,111.1728455543518L1100.4,127.15255208015444L1101.6,73.55555934906005L1102.2,154.3195582151413L1102.8,148.41146070957186L1104,120.21048231124877L1104.6,95.91553623676299L1105.2,152.14504415988924L1105.8,115.54275949001311L1106.3999999999999,125.71485478878023L1107,141.23144574165346L1108.1999999999998,155.31396682262422L1108.8,105.33630509376525L1110.6,138.25822348594667L1111.1999999999998,104.14002270698546L1112.3999999999999,124.62124414443971L1113,125.8455320119858L1114.8,165.83303267955782L1115.3999999999999,132.25770564079286L1116,149.50903673172L1116.6,173.06063218116762L1117.2,156.75984270572664L1118.3999999999999,117.69415719509124L1120.8,127.64117224216463L1122,152.8655938625336L1122.6,117.30293662548064L1123.2,93.35793514251708L1125,166.48969699144365L1125.6,164.35534365177156L1126.8,149.00239212512972L1129.2,141.58803684711458L1129.8,68.61267085075377L1130.4,124.51221878528597L1131,110.13231689929961L1132.2,145.23722083568575L1134.6000000000001,145.12999792099L1135.2,116.32625956535338L1136.4,64.86300058364867L1137,109.876820397377L1137.6000000000001,103.91656465530394L1138.2,165.5491702079773L1139.4,95.85411794185637L1141.2,138.08523387908937L1141.8000000000002,172.80355854034426L1142.4,121.8964212656021L1143,118.527201962471L1143.6000000000001,105.84955115318297L1145.4,100.58857626914977L1146,99.31814582347869L1148.4,171.18851197957994L1149,119.22587449550628L1150.2,112.5278557062149L1150.8,94.85774917602538L1151.3999999999999,116.44979460239409L1153.8,115.18605573177337L1155.6,156.52786810398104L1156.8,95.98082978725432L1158.6,142.5130513429642L1159.2,116.38028783798217L1159.8,145.47097535133364L1160.3999999999999,2.4692452669143563L1161,97.26448566913604L1162.2,123.85912556648256L1162.8,95.86957390308379L1163.3999999999999,168.31338776350023L1165.2,39.27763946056365L1165.8,128.5616580963135L1167,162.72488619089128L1167.6,120.35244734287261L1168.2,85.2642385482788L1170,132.23312480449678L1171.2,94.0596042394638L1171.8,134.2711262226105L1172.4,92.5076319694519L1173,142.9833766937256L1177.2,120.46205849647521L1177.8,87.00932021141051L1179.6000000000001,135.80818326473238L1182.6000000000001,139.28521127700807L1185,120.83070344924926L1186.2,135.96650547981264L1187.4,145.67915768623354L1188.6000000000001,113.18299920558928L1189.2,135.61840839385988L1189.8,120.85584754943847L1190.4,100.63278121948241L1192.8,88.494939994812L1193.4,119.16082878112792L1194,158.02099056243898L1195.2,138.35199565887453L1195.8,134.63627893924715L1196.3999999999999,145.91065914630892L1198.8,61.22366244792937L1200,106.72738666534423L1201.1999999999998,76.77934391498565L1202.3999999999999,116.02342636585234L1203,88.95605034828185L1204.2,105.63382108211516L1206.6,146.1869513511658L1207.8,80.47917659282683L1208.3999999999999,141.06440420150759L1210.2,99.02973217964171L1212,119.20311863422393L1214.4,133.10875232219698L1215.6,136.5267277479172L1216.2,60.01388425827025L1218,109.43375701904296L1220.4,76.31032533645629L1221,88.2925930738449L1221.6000000000001,104.42503423690795L1222.2,103.11672992706298L1224,116.5160569667816L1224.6000000000001,100.19767112731932L1225.2,127.133491230011L1226.4,163.9656438946724L1227,156.04364140033724L1227.6000000000001,80.22440106868743L1228.8000000000002,164.88309938907625L1229.4,132.37222845554354L1231.2,149.71877367496492L1231.8000000000002,112.56167407035826L1233,122.39691503047945L1234.2,146.08015651702883L1234.8,83.53934426307677L1235.4,155.7207109451294L1239.6,104.82157201766967L1240.2,136.53323907852175L1240.8,109.86010272502898L1241.3999999999999,87.50343782901763L1245,116.0301179409027L1245.6,130.7701256990433L1246.1999999999998,39.699005913734425L1246.8,102.9708671092987L1247.3999999999999,104.6318196773529L1248.6,158.83350999355318L1250.3999999999999,139.9802563905716L1252.2,113.74549705982207L1254.6,126.83649344444277L1255.2,118.46030874252318L1255.8,133.85311682224275L1256.4,162.57644362449648L1257,105.19535393714904L1258.2,153.24924416542055L1258.8,96.0171715736389L1261.2,146.5226115703583L1263,119.44653875827788L1263.6,126.97447056770326L1265.4,131.22582871913912L1266,76.37253220081328L1266.6000000000001,128.88416047096254L1267.2,95.30286283493041L1267.8,136.13140661716463L1269,151.6579448103905L1269.6000000000001,156.25006635189058L1270.2,121.96556754112243L1270.8,100.84682149887084L1271.4,132.98179264068605L1273.8000000000002,113.89564068317412L1274.4,109.80524082183837L1275,148.40429599285127L1276.8000000000002,48.62610776424407L1278,79.58881409168242L1278.6000000000001,152.22782142162325L1279.2,139.7841954946518L1280.4,131.98292298316957L1281,125.00277657508852L1281.6,160.1659557938576L1282.8,142.14496965408327L1283.4,48.86722977161406L1285.2,116.8560205221176L1286.3999999999999,71.75904042720794L1287.6,124.46078152656557L1288.1999999999998,74.37262995243071L1289.3999999999999,132.94835729599L1291.1999999999998,124.27594084739687L1292.3999999999999,184.34597350358965L1293,98.8550302505493L1293.6,83.8508742570877L1294.8,163.23105765581133L1296,129.64046616554262L1296.6,111.24494333267211L1297.2,160.48560805320741L1299.6,177.20758373737337L1300.2,149.6348248243332L1301.4,124.60394067764284L1302.6,106.15725095272063L1305.6,85.09201498031615L1308,126.0354871273041L1308.6,119.0862075805664L1309.2,175.07597912549974L1309.8,125.20541639328005L1317,137.00741715431215L1318.2,78.52178950309752L1319.4,121.88646275997161" style="fill: none;" fill="none"></path></g></g></g></g></g></g><g transform="translate(58, 378)" clip-path="url(#clip_1)"><clipPath id="clip_1"><rect width="1440" height="22"></rect></clipPath><g><g><line x1="0" y1="0" x2="0" y2="5" style="visibility: inherit;" fill="rgb(0, 0, 0)" stroke="rgb(204, 204, 204)" stroke-width="1px"></line><line x1="120" y1="0" x2="120" y2="5" style="visibility: inherit;" fill="rgb(0, 0, 0)" stroke="rgb(204, 204, 204)" stroke-width="1px"></line><line x1="240" y1="0" x2="240" y2="5" style="visibility: inherit;" fill="rgb(0, 0, 0)" stroke="rgb(204, 204, 204)" stroke-width="1px"></line><line x1="360" y1="0" x2="360" y2="5" style="visibility: inherit;" fill="rgb(0, 0, 0)" stroke="rgb(204, 204, 204)" stroke-width="1px"></line><line x1="480" y1="0" x2="480" y2="5" style="visibility: inherit;" fill="rgb(0, 0, 0)" stroke="rgb(204, 204, 204)" stroke-width="1px"></line><line x1="600" y1="0" x2="600" y2="5" style="visibility: inherit;" fill="rgb(0, 0, 0)" stroke="rgb(204, 204, 204)" stroke-width="1px"></line><line x1="720" y1="0" x2="720" y2="5" style="visibility: inherit;" fill="rgb(0, 0, 0)" stroke="rgb(204, 204, 204)" stroke-width="1px"></line><line x1="840" y1="0" x2="840" y2="5" style="visibility: inherit;" fill="rgb(0, 0, 0)" stroke="rgb(204, 204, 204)" stroke-width="1px"></line><line x1="960" y1="0" x2="960" y2="5" style="visibility: inherit;" fill="rgb(0, 0, 0)" stroke="rgb(204, 204, 204)" stroke-width="1px"></line><line x1="1080" y1="0" x2="1080" y2="5" style="visibility: inherit;" fill="rgb(0, 0, 0)" stroke="rgb(204, 204, 204)" stroke-width="1px"></line><line x1="1200" y1="0" x2="1200" y2="5" style="visibility: inherit;" fill="rgb(0, 0, 0)" stroke="rgb(204, 204, 204)" stroke-width="1px"></line><line x1="1320" y1="0" x2="1320" y2="5" style="visibility: inherit;" fill="rgb(0, 0, 0)" stroke="rgb(204, 204, 204)" stroke-width="1px"></line><line x1="1440" y1="0" x2="1440" y2="5" style="visibility: inherit;" fill="rgb(0, 0, 0)" stroke="rgb(204, 204, 204)" stroke-width="1px"></line></g><g transform="translate(0, 8)"><text x="0" y="0" dx="0em" dy="0.95em" style="text-anchor: middle; visibility: hidden; font-family: &quot;Helvetica Neue&quot;, sans-serif; font-size: 12px; font-weight: 200;" fill="rgb(50, 49, 63)" stroke="none" stroke-width="1px">-200</text><text x="120" y="0" dx="0em" dy="0.95em" style="text-anchor: middle; visibility: inherit; font-family: &quot;Helvetica Neue&quot;, sans-serif; font-size: 12px; font-weight: 200;" fill="rgb(50, 49, 63)" stroke="none" stroke-width="1px">0</text><text x="240" y="0" dx="0em" dy="0.95em" style="text-anchor: middle; visibility: inherit; font-family: &quot;Helvetica Neue&quot;, sans-serif; font-size: 12px; font-weight: 200;" fill="rgb(50, 49, 63)" stroke="none" stroke-width="1px">200</text><text x="360" y="0" dx="0em" dy="0.95em" style="text-anchor: middle; visibility: inherit; font-family: &quot;Helvetica Neue&quot;, sans-serif; font-size: 12px; font-weight: 200;" fill="rgb(50, 49, 63)" stroke="none" stroke-width="1px">400</text><text x="480" y="0" dx="0em" dy="0.95em" style="text-anchor: middle; visibility: inherit; font-family: &quot;Helvetica Neue&quot;, sans-serif; font-size: 12px; font-weight: 200;" fill="rgb(50, 49, 63)" stroke="none" stroke-width="1px">600</text><text x="600" y="0" dx="0em" dy="0.95em" style="text-anchor: middle; visibility: inherit; font-family: &quot;Helvetica Neue&quot;, sans-serif; font-size: 12px; font-weight: 200;" fill="rgb(50, 49, 63)" stroke="none" stroke-width="1px">800</text><text x="720" y="0" dx="0em" dy="0.95em" style="text-anchor: middle; visibility: inherit; font-family: &quot;Helvetica Neue&quot;, sans-serif; font-size: 12px; font-weight: 200;" fill="rgb(50, 49, 63)" stroke="none" stroke-width="1px">1k</text><text x="840" y="0" dx="0em" dy="0.95em" style="text-anchor: middle; visibility: inherit; font-family: &quot;Helvetica Neue&quot;, sans-serif; font-size: 12px; font-weight: 200;" fill="rgb(50, 49, 63)" stroke="none" stroke-width="1px">1.2k</text><text x="960" y="0" dx="0em" dy="0.95em" style="text-anchor: middle; visibility: inherit; font-family: &quot;Helvetica Neue&quot;, sans-serif; font-size: 12px; font-weight: 200;" fill="rgb(50, 49, 63)" stroke="none" stroke-width="1px">1.4k</text><text x="1080" y="0" dx="0em" dy="0.95em" style="text-anchor: middle; visibility: inherit; font-family: &quot;Helvetica Neue&quot;, sans-serif; font-size: 12px; font-weight: 200;" fill="rgb(50, 49, 63)" stroke="none" stroke-width="1px">1.6k</text><text x="1200" y="0" dx="0em" dy="0.95em" style="text-anchor: middle; visibility: inherit; font-family: &quot;Helvetica Neue&quot;, sans-serif; font-size: 12px; font-weight: 200;" fill="rgb(50, 49, 63)" stroke="none" stroke-width="1px">1.8k</text><text x="1320" y="0" dx="0em" dy="0.95em" style="text-anchor: middle; visibility: inherit; font-family: &quot;Helvetica Neue&quot;, sans-serif; font-size: 12px; font-weight: 200;" fill="rgb(50, 49, 63)" stroke="none" stroke-width="1px">2k</text><text x="1440" y="0" dx="0em" dy="0.95em" style="text-anchor: middle; visibility: hidden; font-family: &quot;Helvetica Neue&quot;, sans-serif; font-size: 12px; font-weight: 200;" fill="rgb(50, 49, 63)" stroke="none" stroke-width="1px">2.2k</text></g><line x1="0" y1="0" x2="1440" y2="0" fill="rgb(0, 0, 0)" stroke="rgb(204, 204, 204)" stroke-width="1px"></line></g></g></g></g></svg>