<svg viewBox="0 0 1498 400" xmlns="http://www.w3.org/2000/svg"><g><g><g><g><g><line x1="70" y1="378" x2="65" y2="378" style="visibility: inherit;" fill="rgb(0, 0, 0)" stroke="rgb(204, 204, 204)" stroke-width="1px"></line><line x1="70" y1="343.6363636363636" x2="65" y2="343.6363636363636" style="visibility: inherit;" fill="rgb(0, 0, 0)" stroke="rgb(204, 204, 204)" stroke-width="1px"></line><line x1="70" y1="309.27272727272725" x2="65" y2="309.27272727272725" style="visibility: inherit;" fill="rgb(0, 0, 0)" stroke="rgb(204, 204, 204)" stroke-width="1px"></line><line x1="70" y1="274.9090909090909" x2="65" y2="274.9090909090909" style="visibility: inherit;" fill="rgb(0, 0, 0)" stroke="rgb(204, 204, 204)" stroke-width="1px"></line><line x1="70" y1="240.54545454545453" x2="65" y2="240.54545454545453" style="visibility: inherit;" fill="rgb(0, 0, 0)" stroke="rgb(204, 204, 204)" stroke-width="1px"></line><line x1="70" y1="206.1818181818182" x2="65" y2="206.1818181818182" style="visibility: inherit;" fill="rgb(0, 0, 0)" stroke="rgb(204, 204, 204)" stroke-width="1px"></line><line x1="70" y1="171.81818181818184" x2="65" y2="171.81818181818184" style="visibility: inherit;" fill="rgb(0, 0, 0)" stroke="rgb(204, 204, 204)" stroke-width="1px"></line><line x1="70" y1="137.4545454545455" x2="65" y2="137.4545454545455" style="visibility: inherit;" fill="rgb(0, 0, 0)" stroke="rgb(204, 204, 204)" stroke-width="1px"></line><line x1="70" y1="103.09090909090912" x2="65" y2="103.09090909090912" style="visibility: inherit;" fill="rgb(0, 0, 0)" stroke="rgb(204, 204, 204)" stroke-width="1px"></line><line x1="70" y1="68.72727272727275" x2="65" y2="68.72727272727275" style="visibility: inherit;" fill="rgb(0, 0, 0)" stroke="rgb(204, 204, 204)" stroke-width="1px"></line><line x1="70" y1="34.363636363636374" x2="65" y2="34.363636363636374" style="visibility: inherit;" fill="rgb(0, 0, 0)" stroke="rgb(204, 204, 204)" stroke-width="1px"></line><line x1="70" y1="0" x2="65" y2="0" style="visibility: inherit;" fill="rgb(0, 0, 0)" stroke="rgb(204, 204, 204)" stroke-width="1px"></line></g><g transform="translate(60, 0)"><text x="0" y="378" dx="0em" dy="0.3em" style="text-anchor: end; visibility: hidden; font-family: &quot;Helvetica Neue&quot;, sans-serif; font-size: 12px; font-weight: 200;" fill="rgb(50, 49, 63)" stroke="none" stroke-width="1px">-0.05</text><text x="0" y="343.6363636363636" dx="0em" dy="0.3em" style="text-anchor: end; visibility: inherit; font-family: &quot;Helvetica Neue&quot;, sans-serif; font-size: 12px; font-weight: 200;" fill="rgb(50, 49, 63)" stroke="none" stroke-width="1px">0</text><text x="0" y="309.27272727272725" dx="0em" dy="0.3em" style="text-anchor: end; visibility: inherit; font-family: &quot;Helvetica Neue&quot;, sans-serif; font-size: 12px; font-weight: 200;" fill="rgb(50, 49, 63)" stroke="none" stroke-width="1px">0.05</text><text x="0" y="274.9090909090909" dx="0em" dy="0.3em" style="text-anchor: end; visibility: inherit; font-family: &quot;Helvetica Neue&quot;, sans-serif; font-size: 12px; font-weight: 200;" fill="rgb(50, 49, 63)" stroke="none" stroke-width="1px">0.1</text><text x="0" y="240.54545454545453" dx="0em" dy="0.3em" style="text-anchor: end; visibility: inherit; font-family: &quot;Helvetica Neue&quot;, sans-serif; font-size: 12px; font-weight: 200;" fill="rgb(50, 49, 63)" stroke="none" stroke-width="1px">0.15</text><text x="0" y="206.1818181818182" dx="0em" dy="0.3em" style="text-anchor: end; visibility: inherit; font-family: &quot;Helvetica Neue&quot;, sans-serif; font-size: 12px; font-weight: 200;" fill="rgb(50, 49, 63)" stroke="none" stroke-width="1px">0.2</text><text x="0" y="171.81818181818184" dx="0em" dy="0.3em" style="text-anchor: end; visibility: inherit; font-family: &quot;Helvetica Neue&quot;, sans-serif; font-size: 12px; font-weight: 200;" fill="rgb(50, 49, 63)" stroke="none" stroke-width="1px">0.25</text><text x="0" y="137.4545454545455" dx="0em" dy="0.3em" style="text-anchor: end; visibility: inherit; font-family: &quot;Helvetica Neue&quot;, sans-serif; font-size: 12px; font-weight: 200;" fill="rgb(50, 49, 63)" stroke="none" stroke-width="1px">0.3</text><text x="0" y="103.09090909090912" dx="0em" dy="0.3em" style="text-anchor: end; visibility: inherit; font-family: &quot;Helvetica Neue&quot;, sans-serif; font-size: 12px; font-weight: 200;" fill="rgb(50, 49, 63)" stroke="none" stroke-width="1px">0.35</text><text x="0" y="68.72727272727275" dx="0em" dy="0.3em" style="text-anchor: end; visibility: inherit; font-family: &quot;Helvetica Neue&quot;, sans-serif; font-size: 12px; font-weight: 200;" fill="rgb(50, 49, 63)" stroke="none" stroke-width="1px">0.4</text><text x="0" y="34.363636363636374" dx="0em" dy="0.3em" style="text-anchor: end; visibility: inherit; font-family: &quot;Helvetica Neue&quot;, sans-serif; font-size: 12px; font-weight: 200;" fill="rgb(50, 49, 63)" stroke="none" stroke-width="1px">0.45</text><text x="0" y="0" dx="0em" dy="0.3em" style="text-anchor: end; visibility: hidden; font-family: &quot;Helvetica Neue&quot;, sans-serif; font-size: 12px; font-weight: 200;" fill="rgb(50, 49, 63)" stroke="none" stroke-width="1px">0.5</text></g><line x1="70" y1="0" x2="70" y2="378" fill="rgb(0, 0, 0)" stroke="rgb(204, 204, 204)" stroke-width="1px"></line></g></g><g transform="translate(70, 0)" clip-path="url(#clip_0)"><clipPath id="clip_0"><rect width="1428" height="378"></rect></clipPath><g><g><g><line x1="0" y1="0" x2="0" y2="378" fill="rgb(0, 0, 0)" stroke="rgb(60, 60, 60)" stroke-width="1px" opacity="0.25"></line><line x1="102" y1="0" x2="102" y2="378" fill="rgb(0, 0, 0)" stroke="rgb(60, 60, 60)" stroke-width="1px" opacity="0.25"></line><line x1="204" y1="0" x2="204" y2="378" fill="rgb(0, 0, 0)" stroke="rgb(60, 60, 60)" stroke-width="1px" opacity="0.25"></line><line x1="306" y1="0" x2="306" y2="378" fill="rgb(0, 0, 0)" stroke="rgb(60, 60, 60)" stroke-width="1px" opacity="0.25"></line><line x1="408" y1="0" x2="408" y2="378" fill="rgb(0, 0, 0)" stroke="rgb(60, 60, 60)" stroke-width="1px" opacity="0.25"></line><line x1="510" y1="0" x2="510" y2="378" fill="rgb(0, 0, 0)" stroke="rgb(60, 60, 60)" stroke-width="1px" opacity="0.25"></line><line x1="612" y1="0" x2="612" y2="378" fill="rgb(0, 0, 0)" stroke="rgb(60, 60, 60)" stroke-width="1px" opacity="0.25"></line><line x1="714" y1="0" x2="714" y2="378" fill="rgb(0, 0, 0)" stroke="rgb(60, 60, 60)" stroke-width="1px" opacity="0.25"></line><line x1="816" y1="0" x2="816" y2="378" fill="rgb(0, 0, 0)" stroke="rgb(60, 60, 60)" stroke-width="1px" opacity="0.25"></line><line x1="918.0000000000001" y1="0" x2="918.0000000000001" y2="378" fill="rgb(0, 0, 0)" stroke="rgb(60, 60, 60)" stroke-width="1px" opacity="0.25"></line><line x1="1020" y1="0" x2="1020" y2="378" fill="rgb(0, 0, 0)" stroke="rgb(60, 60, 60)" stroke-width="1px" opacity="0.25"></line><line x1="1122" y1="0" x2="1122" y2="378" fill="rgb(0, 0, 0)" stroke="rgb(60, 60, 60)" stroke-width="1px" opacity="0.25"></line><line x1="1224" y1="0" x2="1224" y2="378" fill="rgb(0, 0, 0)" stroke="rgb(60, 60, 60)" stroke-width="1px" opacity="0.25"></line><line x1="1326" y1="0" x2="1326" y2="378" fill="rgb(0, 0, 0)" stroke="rgb(60, 60, 60)" stroke-width="1px" opacity="0.25"></line><line x1="1428" y1="0" x2="1428" y2="378" fill="rgb(0, 0, 0)" stroke="rgb(60, 60, 60)" stroke-width="1px" opacity="0.25"></line></g><g><line x1="0" y1="378" x2="1428" y2="378" fill="rgb(0, 0, 0)" stroke="rgb(60, 60, 60)" stroke-width="1px" opacity="0.25"></line><line x1="0" y1="343.6363636363636" x2="1428" y2="343.6363636363636" fill="rgb(0, 0, 0)" stroke="rgb(60, 60, 60)" stroke-width="1px" opacity="0.25"></line><line x1="0" y1="309.27272727272725" x2="1428" y2="309.27272727272725" fill="rgb(0, 0, 0)" stroke="rgb(60, 60, 60)" stroke-width="1px" opacity="0.25"></line><line x1="0" y1="274.9090909090909" x2="1428" y2="274.9090909090909" fill="rgb(0, 0, 0)" stroke="rgb(60, 60, 60)" stroke-width="1px" opacity="0.25"></line><line x1="0" y1="240.54545454545453" x2="1428" y2="240.54545454545453" fill="rgb(0, 0, 0)" stroke="rgb(60, 60, 60)" stroke-width="1px" opacity="0.25"></line><line x1="0" y1="206.1818181818182" x2="1428" y2="206.1818181818182" fill="rgb(0, 0, 0)" stroke="rgb(60, 60, 60)" stroke-width="1px" opacity="0.25"></line><line x1="0" y1="171.81818181818184" x2="1428" y2="171.81818181818184" fill="rgb(0, 0, 0)" stroke="rgb(60, 60, 60)" stroke-width="1px" opacity="0.25"></line><line x1="0" y1="137.4545454545455" x2="1428" y2="137.4545454545455" fill="rgb(0, 0, 0)" stroke="rgb(60, 60, 60)" stroke-width="1px" opacity="0.25"></line><line x1="0" y1="103.09090909090912" x2="1428" y2="103.09090909090912" fill="rgb(0, 0, 0)" stroke="rgb(60, 60, 60)" stroke-width="1px" opacity="0.25"></line><line x1="0" y1="68.72727272727275" x2="1428" y2="68.72727272727275" fill="rgb(0, 0, 0)" stroke="rgb(60, 60, 60)" stroke-width="1px" opacity="0.25"></line><line x1="0" y1="34.363636363636374" x2="1428" y2="34.363636363636374" fill="rgb(0, 0, 0)" stroke="rgb(60, 60, 60)" stroke-width="1px" opacity="0.25"></line><line x1="0" y1="0" x2="1428" y2="0" fill="rgb(0, 0, 0)" stroke="rgb(60, 60, 60)" stroke-width="1px" opacity="0.25"></line></g></g></g><g><g><line x1="0" y1="343.6363636363636" x2="1428" y2="343.6363636363636" fill="rgb(0, 0, 0)" stroke="rgb(153, 153, 153)" stroke-width="1.5px"></line></g></g><g><g><line x1="102" y1="0" x2="102" y2="378" fill="rgb(0, 0, 0)" stroke="rgb(153, 153, 153)" stroke-width="1.5px"></line></g></g><g><g><g><g><g><path stroke="rgb(187, 187, 187)" stroke-width="2px" d="M124.44000000000001,-9.566538649828317L126.47999999999999,5.962205783635284L128.51999999999998,19.003022760872682L130.56,29.841107116938247L132.6,41.207578809659196L134.64000000000001,50.326430648969165L136.68,58.54442520570723L138.72,66.36920486302967L140.76,74.28286254734343L142.8,80.31660020162923L144.84,86.22159132865369L146.88,90.73222717615181L148.92000000000002,95.74493919996922L150.96,100.08733067225222L153,104.38260137398333L155.04,108.17823738527329L157.08,112.31583045100933L159.12,115.40331801900885L161.16,118.56833379036857L163.2,122.45013028734115L165.24,125.10918630493674L167.28,127.1640874731286L169.32000000000002,130.0531223196394L171.35999999999999,132.94011584045543L173.4,135.13253334656397L175.44,135.92493902959367L177.48000000000002,138.28678804131115L179.52,139.7784121353748L181.56,142.8349025654065L183.6,145.39289611067863L185.64000000000001,146.68527164973952L187.67999999999998,148.13194367499267L189.72000000000003,148.38784494476104L191.76,149.83137062653594L193.79999999999998,152.35432575312637L195.84,153.98124318337094L197.88,155.68809643184213L199.92000000000002,156.6472794157644L201.96,158.475488104435L204,176.74413781056452L206.04000000000002,191.96567138090347L208.07999999999998,203.72633843023056L210.11999999999998,212.09022367672455L212.16,218.09162032140745L214.2,221.4544004564233L216.24,224.5164622069074L218.28,226.72570331100692L220.32,229.3041271162278L222.36,230.75973601836898L224.4,231.59834695333157L226.43999999999997,233.31446851232548L228.48000000000002,234.42938478119152L230.51999999999998,236.21763206861058L232.56,236.63249158358468L234.6,237.23680018211218L236.64,238.50654334754992L238.68,239.12882679172202L240.72,239.86540580237255L242.76000000000002,239.5055972385882L244.8,240.32383593284683L246.83999999999997,241.34351394176463L248.88000000000002,240.67119377179563L250.92,241.74550708345924L252.95999999999998,243.1653428177053L255,243.51511600396935L257.03999999999996,244.26177655057523L259.08000000000004,244.07451771517265L261.12,245.39693687775807L263.15999999999997,245.68025972551098L265.2,246.3043178683876L267.24,245.0401627867328L269.28000000000003,244.75106314278716L271.32,245.58229409024273L273.36,246.51764615341574L275.40000000000003,247.26541039272334L277.44,247.98978149141294L279.47999999999996,248.23377516686898L281.52,248.16683568467866L283.56,249.93752239889008L285.6,250.40425930576276L287.64,250.7491689680513L289.68,251.11255875145014L291.72,250.3331403407513L293.76,250.46791129330964L295.8,251.4409920644879L297.84000000000003,252.00470230684124L299.88,252.0769613866155L301.92,252.63403808380036L303.96,252.25350836642957L306,261.8761025217512L308.04,269.4900305911667L310.08,275.68094588568226L312.12,280.0378412061142L314.16,282.84259714096936L316.2,284.63733539338097L318.24,285.87545820740513L320.28,287.1448136326097L322.32,287.0114722496848L324.36,288.99147504629L326.4,288.7277981989353L328.44,289.0913342176809L330.48,289.0923841656787L332.52,289.6619065700713L334.56,289.88117258703807L336.59999999999997,290.01440355480645L338.64000000000004,290.9539340421884L340.68,290.7404915383654L342.71999999999997,290.4831928166648L344.76,291.4396129937709L346.8,291.21979555113285L348.84,291.3649489916752L350.88,292.0495268150421L352.92,291.80214163870585L354.96000000000004,291.38950904354215L357,292.1581742988892L359.04,291.7742707409401L361.08,291.26590769321984L363.12,291.1644718696551L365.16,291.98449365739737L367.2,291.6629857133149L369.24,291.6113188560091L371.28000000000003,292.4833167880671L373.32000000000005,292.4617820121422L375.35999999999996,291.9119539071935L377.40000000000003,291.68782981042426L379.44000000000005,291.91389340154035L381.47999999999996,292.700752690656L383.52,292.7435280424602L385.56,292.151208785256L387.59999999999997,292.4274777465453L389.64,292.0602870205711L391.68,292.2456680125344L393.71999999999997,292.49974033100943L395.76,292.9482557066457L397.8,293.6887656047666L399.84000000000003,293.74092107654684L401.88,293.9378077994974L403.92,293.55113658754993L405.96000000000004,293.72981878190615L408,301.7033145767793L410.04,308.6071410144773L412.08000000000004,313.7988354022908L414.11999999999995,317.3307845771946L416.15999999999997,320.04228034391735L418.20000000000005,321.61288316223954L420.23999999999995,322.4788601246277L422.28,323.336367769755L424.32,324.40450341327016L426.36,324.58745023015047L428.4,324.79359379650896L430.44,325.36964382564975L432.48,325.58905766996224L434.52,325.81310122528794L436.56,326.136407663882L438.6,326.38719105802136L440.64,326.7646738534102L442.68,327.18808878061026L444.72,327.1102856937134L446.76,327.1230496887398L448.8,327.5230679846046L450.84000000000003,327.2435038647793L452.87999999999994,327.2532534300152L454.91999999999996,326.87461257895285L456.96000000000004,326.95153834067963L459.00000000000006,327.03643047976226L461.03999999999996,327.79842600543117L463.08,327.5775923612481L465.12,327.73825259702L467.15999999999997,327.76240399949256L469.2,328.0449362539148L471.24,327.94034016062915L473.28,328.1614547053419L475.32,328.0962841585217L477.36,328.100943850519L479.4,328.20196828015605L481.44,328.1988291461075L483.48,328.2492616160721L485.52000000000004,328.2456965892104L487.56,328.4112909037117L489.6,328.1691313769638L491.64000000000004,328.0705205085516L493.67999999999995,327.9542748728072L495.71999999999997,328.33655444646655L497.76000000000005,328.1131056419896L499.79999999999995,327.8304601457485L501.84,327.83785599586344L503.88,327.95143868667793L505.91999999999996,328.2168397321333L507.96,328.4446992150996L510,330.2250184329672L512.0400000000001,332.0013012931323L514.0799999999999,333.19132164744536L516.12,334.2725171430046L518.1600000000001,335.0342717745872L520.1999999999999,335.2965775986622L522.24,335.5646857170149L524.28,335.92289137312895L526.3199999999999,336.2202963149875L528.36,336.3093672222962L530.4,336.590713250625L532.4399999999999,336.739154781421L534.48,337.08113005246463L536.52,337.193674434501L538.5600000000001,337.40148372850956L540.6,337.6335399483678L542.64,337.56929306271627L544.6800000000001,337.5386132158542L546.72,337.6461913107999L548.76,337.68571644946036L550.8000000000001,337.85880246035896L552.8399999999999,337.8484523125665L554.88,337.80356570866945L556.9200000000001,337.8562521217409L558.9599999999999,337.78133438153475L561,337.897250369114L563.04,337.89563284891005L565.08,338.0564529773044L567.12,338.25000323201266L569.16,338.198116502055L571.2,338.1912411676089L573.24,338.0995266393566L575.28,338.12000754374367L577.32,338.1688183732353L579.36,338.25912900912624L581.4,338.2970594666906L583.44,338.5969636749278L585.48,338.5917202655378L587.52,338.7085845051187L589.5600000000001,338.7210711674677L591.6,338.5102582097306L593.64,338.6054854410496L595.6800000000001,338.4996781125322L597.72,338.51167363739125L599.76,338.53703928520855L601.8,338.56236081182215L603.84,338.5939840075383L605.88,338.6755045398642L607.92,338.6596143724716L609.96,338.6985662839855L612,338.5719323192537L614.04,338.72242447804047L616.08,338.83048575657443L618.12,338.9474063837616L620.16,338.7890254446863L622.2,338.6856735050894L624.24,338.7451354484796L626.28,338.79571900940175L628.32,338.7920101145119L630.36,338.822118941363L632.4,338.82889079641643L634.4399999999999,338.78375997719695L636.48,338.85316974268875L638.52,338.8846419039432L640.56,338.8649464885685L642.6,338.78024429973266L644.64,338.8735651610165L646.68,338.84660183579575L648.72,338.9147870743L650.76,338.94005317872745L652.8,339.0487462672297L654.84,338.9352287579382L656.88,339.03892295681266L658.92,338.9989983538883L660.96,338.9178419675397L663,338.8556424757331L665.04,339.020625664621L667.08,339.193984717923L669.12,339.2443222530199L671.16,339.11949381233694L673.1999999999999,338.8915215920404L675.24,338.8718449197084L677.2800000000001,338.8238594523374L679.3199999999999,338.8860025189375L681.36,338.85421466761073L683.4,338.85019851273603L685.4399999999999,339.0399470650388L687.48,338.9922734902965L689.52,338.91685187477054L691.56,338.9402766478279L693.6,339.0037033840981L695.64,338.97068601973837L697.68,338.9591691498907L699.72,338.95844507368844L701.76,339.1000303217914L703.8000000000001,339.0791880941153L705.84,339.0369435760832L707.88,339.0745833380548L709.9200000000001,338.99608244881745L711.9599999999999,339.14761782328804L714,339.0977066888298L716.0400000000001,339.01282296044036L718.08,338.9349863753191L720.1200000000001,338.97969844167983L722.16,338.81878470533604L724.1999999999999,338.8996231131601L726.24,338.91323029548647L728.28,338.8684431904055L730.32,338.8390916701256L732.36,338.9348665477313L734.4,338.9435077600384L736.4399999999999,338.95761202719945L738.48,338.98551602481086L740.52,338.9295300455262L742.5600000000001,339.174092249979L744.6,338.9954046264835L746.6400000000001,339.15720407142436L748.68,339.105023927291L750.7199999999999,338.9521229120708L752.76,339.1014482399484L754.8000000000001,339.17250245350203L756.84,339.1319706039882L758.8800000000001,339.3236269691848L760.92,339.2705955845762L762.9599999999999,339.2025282900124L765,339.302588632169L767.04,339.2133215014278L769.08,339.1551268412879L771.12,338.9875196656385L773.1600000000001,339.06086257519394L775.1999999999999,339.1161026192756L777.24,339.17820468254286L779.28,339.03889536344536L781.32,339.06738482107835L783.36,339.12669205209954L785.4000000000001,339.0790487738928L787.4399999999999,339.1256526480333L789.4799999999999,338.9924441783123L791.52,339.0661735180748L793.5600000000001,339.1479086234139L795.6,339.1473258816038L797.6400000000001,339.287957604561L799.6800000000001,339.32502810395147L801.7199999999999,339.195773666745L803.76,339.19842747854113L805.8,339.11406236715L807.84,339.0969836169187L809.88,339.0990004139366L811.9200000000001,339.06177400415294L813.9599999999999,339.00489894437067L816,339.1777890069972L818.04,339.1821932492235L820.08,339.23882783907845L822.12,339.07359290721206L824.1600000000001,339.0456008827817L826.2,339.0804373809015L828.2399999999999,339.0893648014636L830.28,339.16464777782767L832.3199999999999,339.0978771858309L834.36,339.1314244604481L836.4000000000001,339.2264958542862L838.44,339.18385903155297L840.4799999999999,339.23400866444564L842.52,339.15175712488576L844.56,339.24177765857485L846.6,339.1762962321663L848.64,339.2502687359802L850.6800000000001,339.33642158432156L852.72,339.32124234790524L854.76,339.2725266011488L856.8,339.26567037897354L858.84,339.414806669391L860.88,339.33583976787895L862.9200000000001,339.29968061181L864.96,339.34129444358183L866.9999999999999,339.315115180786L869.04,339.4834434749826L871.0799999999999,339.42600968010635L873.12,339.2628976257289L875.1600000000001,339.31326416781326L877.2,339.4191603893088L879.2400000000001,339.3007532595207L881.28,339.3697449624523L883.3199999999999,339.1877958654535L885.36,339.08096228822194L887.4,339.13307436426953L889.44,339.141532750604L891.48,339.21853901383287L893.52,339.1529181190822L895.56,339.30985034581437L897.6,339.31969547777857L899.64,339.21108793513577L901.6800000000001,339.3385070470315L903.72,339.2388407444724L905.7599999999999,339.32568313310605L907.8,339.39600336845933L909.8399999999999,339.37854355912776L911.88,339.2047718382722L913.9200000000001,339.1645830179361L915.96,339.21219997436447L918.0000000000001,339.2979834221369L920.04,339.24002014936764L922.0799999999999,339.22712421986694L924.12,339.358110494129L926.16,339.2859396851244L928.2,339.33322731569683L930.24,339.3107616152644L932.28,339.2859696797841L934.3199999999999,339.28189151924005L936.36,339.3040141939319L938.4,339.254458271759L940.44,339.3655289144012L942.48,339.2641377753161L944.5200000000001,339.24979963014107L946.56,339.28991574141406L948.5999999999999,339.45058355901637L950.64,339.53371388027017L952.6800000000001,339.48829422303135L954.72,339.6216292206477L956.7600000000001,339.6126018804005L958.8,339.61898073423237L960.8399999999999,339.56240465074865L962.88,339.51655672253855L964.92,339.53146212080856L966.96,339.40440234844095L969,339.5208143857914L971.0400000000001,339.42360675454563L973.0799999999999,339.47692619999685L975.12,339.5165522692663L977.16,339.57519676213207L979.2,339.5772292330439L981.24,339.60966288033035L983.2800000000001,339.6054735380476L985.3199999999999,339.5068820902094L987.3599999999999,339.4534210513789L989.4,339.4468390320287L991.4399999999999,339.54346020449293L993.48,339.50178397242047L995.5200000000001,339.5610436637196L997.5600000000001,339.5995066882747L999.5999999999999,339.5976558512577L1001.64,339.4968289498438L1003.68,339.60221287339084L1005.72,339.5443901360147L1007.76,339.4145182091607L1009.8000000000001,339.39211111044204L1011.8399999999999,339.4436049053769L1013.88,339.50144529470913L1015.92,339.4240446518336L1017.96,339.3334715159655L1020,339.4626283856204L1022.0400000000001,339.37445289889075L1024.0800000000002,339.3272351640138L1026.12,339.3577720006455L1028.1599999999999,339.32492170594844L1030.2,339.3544350327361L1032.24,339.39315891671936L1034.28,339.33625897317927L1036.3200000000002,339.3739584520718L1038.36,339.52309668287836L1040.3999999999999,339.57544427296097L1042.44,339.50207857407565L1044.48,339.5313382510661L1046.52,339.53869181198155L1048.56,339.5510893663466L1050.6000000000001,339.55129725476667L1052.6399999999999,339.4911637605029L1054.68,339.55071307154554L1056.72,339.55516166985177L1058.76,339.59037365629L1060.8,339.5360352638098L1062.8400000000001,339.52361154133655L1064.8799999999999,339.49201402518986L1066.9199999999998,339.40507506822576L1068.96,339.39475784881296L1071,339.34630493116225L1073.04,339.46538464194555L1075.0800000000002,339.3795414103032L1077.1200000000001,339.45817708176685L1079.1599999999999,339.5279413983093L1081.2,339.46476688993806L1083.24,339.45962071683795L1085.28,339.65012950135076L1087.32,339.6250392479034L1089.3600000000001,339.54162918196835L1091.3999999999999,339.5398780286767L1093.44,339.4069471610407L1095.48,339.4529287276269L1097.52,339.51953674965887L1099.56,339.52010150958284L1101.6000000000001,339.4552041655513L1103.64,339.54782423430174L1105.6799999999998,339.56763849141294L1107.72,339.63092807629056L1109.76,339.57967096942764L1111.8,339.60858773001706L1113.8400000000001,339.6386020069206L1115.88,339.64757197978133L1117.9199999999998,339.69964111539576L1119.96,339.51477270661235L1122,339.50980582411876L1124.04,339.5870011892285L1126.08,339.61141870812946L1128.1200000000001,339.52259969053495L1130.16,339.56574853155615L1132.2,339.55887533579613L1134.24,339.5388257718345L1136.28,339.4827005355405L1138.32,339.6608747046228L1140.3600000000001,339.62226612397967L1142.4,339.6597641128401L1144.4399999999998,339.7730803759212L1146.48,339.7552098983226L1148.52,339.76468523085487L1150.56,339.60801588589175L1152.6000000000001,339.63528230679924L1154.64,339.6707730334303L1156.68,339.63918620688975L1158.72,339.69178513926585L1160.76,339.6131859549964L1162.8,339.6382208737185L1164.84,339.710447674025L1166.88,339.58191133007773L1168.92,339.57173676578515L1170.96,339.56106114071684L1173,339.54936518154517L1175.04,339.6676631970577L1177.08,339.6458199572135L1179.1200000000001,339.5877623542724L1181.16,339.7386091430369L1183.2,339.6582705725226L1185.24,339.6954106150103L1187.28,339.82735559175427L1189.32,339.77126499502776L1191.3600000000001,339.59558211016554L1193.4,339.6919029102959L1195.44,339.7031374051279L1197.48,339.5676213253095L1199.52,339.6468882282165L1201.56,339.69876950012264L1203.6,339.7471905927998L1205.64,339.66515915972303L1207.68,339.7649936235522L1209.72,339.6655023974306L1211.76,339.6513242488742L1213.8,339.638478947618L1215.84,339.61448281514765L1217.88,339.4835554372665L1219.92,339.5807969999604L1221.96,339.67303864660704L1224,339.6192826188593L1226.04,339.54534350566905L1228.08,339.68054984702917L1230.1200000000001,339.72845081125433L1232.16,339.7044984366309L1234.2,339.709149969702L1236.24,339.74815299721934L1238.28,339.8249194590808L1240.32,339.8156171522583L1242.36,339.7425139969181L1244.4,339.7049309599481L1246.44,339.686635444348L1248.48,339.6547552838994L1250.52,339.65660774353313L1252.56,339.72156671777356L1254.6,339.73339662310474L1256.64,339.7372139381696L1258.68,339.77040511239994L1260.72,339.713614027914L1262.76,339.73722182435785L1264.8,339.7722865369932L1266.84,339.72006547043094L1268.8799999999999,339.84131346628504L1270.92,339.8230306257388L1272.96,339.7823173874909L1275,339.6564320478506L1277.04,339.69179111876457L1279.08,339.64878474839276L1281.12,339.5282119041656L1283.16,339.5424025575449L1285.2,339.6198127006749L1287.24,339.5956870693394L1289.28,339.77322284708083L1291.32,339.75072129416264L1293.36,339.821139129631L1295.4,339.92933036679324L1297.44,339.78807452239084L1299.48,339.8168436530462L1301.52,339.77236475199754L1303.56,339.86375326915396L1305.6,339.8691430749091L1307.6399999999999,339.96132746435035L1309.68,339.7959148205492L1311.72,339.6732412169679L1313.76,339.7703769344814L1315.8,339.78543567007785L1317.84,339.8158856925943L1319.8799999999999,339.88942149510905L1321.92,339.8831793756865L1323.96,339.8080130104716L1326,339.8314586947151L1328.04,339.79805832081314L1330.08,339.81608065405L1332.12,339.81326101954613L1334.16,339.9490177901464L1336.2,339.94759550753315L1338.24,340.06097295159316L1340.28,339.9716809648093L1342.32,339.98584120022156L1344.36,339.87432091155694" style="fill: none;" fill="none"></path></g><g><path stroke="rgb(255, 112, 67)" stroke-width="2px" d="M144.84,-3.5778400221713014L146.88,18.19956751954021L148.92000000000002,38.82996972090473L150.96,31.363260505568746L153,36.689955940358516L155.04,32.98526894395138L157.08,31.084121969725402L159.12,40.239910485482255L161.16,31.391180240106337L163.2,43.4282204985023L165.24,54.07312207125585L167.28,57.09634865747654L169.32000000000002,61.110331899434925L171.35999999999999,63.96248360419662L173.4,58.20346972604466L175.44,45.45285530969892L177.48000000000002,37.36250182363051L179.52,46.61091016754506L181.56,38.89008867644617L183.6,30.0014591074966L185.64000000000001,30.982965287912805L187.67999999999998,41.059387699286106L189.72000000000003,29.603570997394968L191.76,41.3080890243113L193.79999999999998,53.554062670222265L195.84,43.14838823817422L197.88,37.00914029008169L199.92000000000002,60.895470620057836L201.96,56.630924996941985L204,84.13932255353546L206.04000000000002,97.01569629039295L208.07999999999998,107.58888300745019L210.11999999999998,113.14316050647733L212.16,119.02063930079953L214.2,119.76062937460284L216.24,119.9083507075643L218.28,101.064303550729L220.32,99.49599928041454L222.36,95.68898255726504L224.4,110.41040175942385L226.43999999999997,111.13348215908673L228.48000000000002,106.3029636420984L230.51999999999998,108.10691059860301L232.56,113.53543116480648L234.6,118.80562817624258L236.64,123.36871272394959L238.68,107.32004535564994L240.72,112.51595879471375L242.76000000000002,112.80218613886666L244.8,96.30209783000413L246.83999999999997,105.22916709949169L248.88000000000002,112.61818913506681L250.92,103.5922498197769L252.95999999999998,95.72004455656122L255,100.1860666283875L257.03999999999996,107.04010846451195L259.08000000000004,114.39075612186741L261.12,116.0501310905288L263.15999999999997,98.19503818037924L265.2,88.34224001652058L267.24,99.5385036560333L269.28000000000003,101.96062704984058L271.32,103.10615827370816L273.36,102.38632500552075L275.40000000000003,113.58261690584766L277.44,109.49844072435519L279.47999999999996,111.91736161270813L281.52,108.23920300611036L283.56,107.68590315964548L285.6,106.81713890631306L287.64,112.7507289038964L289.68,105.11508108082438L291.72,111.65631496360805L293.76,108.7682412743352L295.8,99.99387741889524L297.84000000000003,92.74595573212105L299.88,84.07875062190374L301.92,85.72330870021023L303.96,94.12580800905823L306,112.81839925668726L308.04,120.17815662776502L310.08,119.29047389838149L312.12,124.3674646746806L314.16,126.49619033254612L316.2,126.78208946829042L318.24,121.36049632381042L320.28,120.14412243022542L322.32,117.89517332607733L324.36,119.53319169414942L326.4,119.08532881230764L328.44,123.84465279275568L330.48,124.57318247612952L332.52,122.10225278346272L334.56,121.46101049742583L336.59999999999997,118.62926652961227L338.64000000000004,116.8257029491478L340.68,115.29501011163512L342.71999999999997,115.62257510537216L344.76,116.98176451339367L346.8,117.46520234560671L348.84,116.67055397010535L350.88,112.38524076968088L352.92,113.1002040418312L354.96000000000004,116.83811773406148L357,116.51034255732918L359.04,112.63889465495032L361.08,109.27665450974212L363.12,108.58948985383887L365.16,98.36233206017761L367.2,102.32912363879433L369.24,83.57067890871554L371.28000000000003,93.65255630395569L373.32000000000005,86.93608288342267L375.35999999999996,94.22046221826275L377.40000000000003,95.59381312287496L379.44000000000005,102.51795933881846L381.47999999999996,104.18780196180882L383.52,111.17630559378341L385.56,108.76003238282868L387.59999999999997,113.09560720484092L389.64,115.45512140228908L391.68,115.89738701949346L393.71999999999997,118.7277969050777L395.76,116.766449731112L397.8,97.85176912961907L399.84000000000003,105.2855216807688L401.88,114.38809180699815L403.92,101.53618371967474L405.96000000000004,107.6227266145425L408,119.6387320002612L410.04,125.45524229595694L412.08000000000004,129.06578116519125L414.11999999999995,127.29911332885331L416.15999999999997,126.56730499113638L418.20000000000005,127.89373072098357L420.23999999999995,124.42734574904077L422.28,123.02958432757333L424.32,119.7248721248227L426.36,121.55867997835713L428.4,122.22370712558626L430.44,118.84359546932427L432.48,119.56088898006419L434.52,119.99170750469335L436.56,114.72778735973299L438.6,115.9618859088402L440.64,116.0909312993602L442.68,110.74224696556803L444.72,112.46169784177482L446.76,111.89779537569422L448.8,108.86777346467989L450.84000000000003,109.11292017400058L452.87999999999994,112.99417334789456L454.91999999999996,113.61479779695316L456.96000000000004,115.04042269249572L459.00000000000006,112.89139308499097L461.03999999999996,112.71849954000106L463.08,113.06283471940912L465.12,110.1116268729885L467.15999999999997,106.63318435632596L469.2,110.60700219496681L471.24,111.2498857638351L473.28,110.06225394483175L475.32,109.89307089287229L477.36,109.10349427571089L479.4,108.27694438154703L481.44,107.40442644726545L483.48,108.50593406660141L485.52000000000004,106.7601082897894L487.56,102.39454197853178L489.6,103.1400546635623L491.64000000000004,102.70132973660003L493.67999999999995,102.7337857937589L495.71999999999997,102.40283145370012L497.76000000000005,102.3081779655983L499.79999999999995,102.80944725572454L501.84,100.6517974830179L503.88,96.5067646029949L505.91999999999996,95.8878146971191L507.96,99.7940223271965L510,106.10024899465662L512.0400000000001,109.71057345241366L514.0799999999999,111.33836158160227L516.12,113.60410996376515L518.1600000000001,113.75619976579571L520.1999999999999,112.9588731080043L522.24,114.3332507363624L524.28,114.76908185085568L526.3199999999999,113.85469033393537L528.36,114.2233849518982L530.4,113.46441604055252L532.4399999999999,111.57541952942182L534.48,111.21050201034444L536.52,112.09959603652891L538.5600000000001,112.28447607991967L540.6,112.46909131256916L542.64,113.71384380412638L544.6800000000001,113.48041949471451L546.72,112.04919201450281L548.76,111.77923220151342L550.8000000000001,112.12026121144436L552.8399999999999,111.78019628805157L554.88,112.73634167405942L556.9200000000001,111.27406957519207L558.9599999999999,111.45644534202802L561,111.0426375618286L563.04,111.19223431488484L565.08,110.40069534190502L567.12,110.49881820889391L569.16,111.45664471665992L571.2,111.90829920827241L573.24,111.27641470250637L575.28,111.27351150793851L577.32,112.20111814667592L579.36,111.45204052211369L581.4,112.86332290481266L583.44,112.89056180402264L585.48,113.49632906010527L587.52,114.17149760397922L589.5600000000001,114.20670435580297L591.6,113.0571653102092L593.64,113.58809004153329L595.6800000000001,113.83922526466887L597.72,114.08356796693181L599.76,112.84810833546521L601.8,112.48343694022736L603.84,112.13384217886812L605.88,112.47077491909562L607.92,112.69198312398157L609.96,111.45525990529495L612,112.16933072948461L614.04,112.69909518132647L616.08,112.69965808438735L618.12,112.58689243648388L620.16,111.87291742974702L622.2,111.01682874167835L624.24,111.2697961214746L626.28,111.3051058656477L628.32,111.71864290601309L630.36,111.80950185127114L632.4,112.33495499065657L634.4399999999999,111.80672383258701L636.48,111.99632118802151L638.52,111.75906992894397L640.56,111.36341018371252L642.6,111.62714305347589L644.64,111.29900133126989L646.68,111.24097006464774L648.72,111.1895770085901L650.76,112.65101771345763L652.8,112.96719901599738L654.84,112.8659359114933L656.88,112.01202055797387L658.92,112.5806054802589L660.96,113.16672502133184L663,113.14151380273552L665.04,113.13886490298478L667.08,112.56683466389222L669.12,112.47882626983193L671.16,112.20903149943967L673.1999999999999,113.19694214989681L675.24,111.9227821140015L677.2800000000001,112.40084214423877L679.3199999999999,111.9103084464304L681.36,111.86634776296268L683.4,112.38263002868274L685.4399999999999,112.04893490953532L687.48,112.4240417231843L689.52,111.77010280677939L691.56,112.42246903651511L693.6,113.15015117385667L695.64,113.0117560953691L697.68,112.91841234314847L699.72,112.65031572961396L701.76,111.90767784802455L703.8000000000001,113.00567578119131L705.84,112.41015344276371L707.88,112.25980982106267L709.9200000000001,111.92958358967019L711.9599999999999,112.69422355807956L714,111.94755726439763L716.0400000000001,111.08520827900992L718.08,111.21776035933493L720.1200000000001,111.19588772090827L722.16,111.13812086579912L724.1999999999999,111.67330356813278L726.24,111.9424618244957L728.28,111.58080546730594L730.32,111.16451864644193L732.36,111.72507642466769L734.4,111.08312616909006L736.4399999999999,111.96069944544763L738.48,112.43157245629783L740.52,112.3030815758766L742.5600000000001,112.2428726750237L744.6,112.59977854150992L746.6400000000001,112.30261772624095L748.68,112.95240518573519L750.7199999999999,112.97889666576799L752.76,111.33864823526454L754.8000000000001,111.14595253847375L756.84,112.31986123616355L758.8800000000001,112.59113640202366L760.92,112.55385474548888L762.9599999999999,112.1645490245644L765,112.7010681796229L767.04,111.98335428806718L769.08,112.49646129255854L771.12,112.75990343229284L773.1600000000001,112.57208781757106L775.1999999999999,111.93861489431407L777.24,111.78998958755619L779.28,111.84136410657925L781.32,110.33367957914311L783.36,111.38958769965654L785.4000000000001,111.62673407100186L787.4399999999999,111.26342803040848L789.4799999999999,111.27121696027666L791.52,111.32367148219356L793.5600000000001,111.98998971224205L795.6,112.16657248293495L797.6400000000001,110.82796122740973L799.6800000000001,110.41154170427751L801.7199999999999,111.48022726900706L803.76,111.46277624531257L805.8,111.6465190214463L807.84,111.40124890364314L809.88,112.15634956399316L811.9200000000001,111.5003904639791L813.9599999999999,112.22035699719845L816,112.35900546744807L818.04,110.98867056694291L820.08,110.67350544560679L822.12,111.05002163665728L824.1600000000001,110.87955742911299L826.2,111.18429544199262L828.2399999999999,110.8673449803029L830.28,111.21951385484488L832.3199999999999,111.10897233573405L834.36,111.32129714454629L836.4000000000001,111.71732179751154L838.44,111.69089486205132L840.4799999999999,111.05796364764689L842.52,110.64753878442991L844.56,111.10408153946514L846.6,110.31330325114106L848.64,110.06369941721238L850.6800000000001,109.95803965557093L852.72,109.72173202455764L854.76,109.97701776711943L856.8,110.0947875649153L858.84,110.03948315476617L860.88,110.18736424741292L862.9200000000001,110.0995680471272L864.96,110.9387890023541L866.9999999999999,111.43536577846822L869.04,111.05747710167736L871.0799999999999,110.21543032228578L873.12,109.17997225268095L875.1600000000001,109.50527569682902L877.2,110.40115804636838L879.2400000000001,110.51694822463554L881.28,110.57300231331305L883.3199999999999,111.055476208281L885.36,111.07359433917924L887.4,110.7533479778528L889.44,109.33439091950197L891.48,109.11841932058604L893.52,109.54826596342593L895.56,109.79115630962303L897.6,110.78061476813468L899.64,110.6256609234668L901.6800000000001,109.17493178523688L903.72,109.71425165634167L905.7599999999999,110.37184473000275L907.8,110.82702825142331L909.8399999999999,111.30387193853596L911.88,110.13599536410482L913.9200000000001,110.4138656732747L915.96,110.29981616979512L918.0000000000001,109.47047634683003L920.04,109.45643552941704L922.0799999999999,108.77745254301419L924.12,110.18970416789563L926.16,110.77632335904428L928.2,110.28524244314707L930.24,110.24502531471524L932.28,110.12390713995666L934.3199999999999,111.0755408417993L936.36,110.87206802980432L938.4,111.12531062927013L940.44,110.74011954753394L942.48,111.15710657508629L944.5200000000001,110.17053514089696L946.56,110.31797957584621L948.5999999999999,110.95293920355437L950.64,109.90310999062461L952.6800000000001,110.09482399733224L954.72,110.30567690308794L956.7600000000001,109.2639588498717L958.8,109.70742528557832L960.8399999999999,110.08485524986042L962.88,111.05034003500094L964.92,110.71851981135035L966.96,110.77659553667098L969,110.72281805503485L971.0400000000001,111.20650948508722L973.0799999999999,110.91083157911385L975.12,110.04022927576813L977.16,109.9017230198815L979.2,110.44303518417951L981.24,111.21935939827733L983.2800000000001,111.0909944970125L985.3199999999999,111.42834115129091L987.3599999999999,111.1104653581246L989.4,111.77658101291502L991.4399999999999,111.46902035804311L993.48,111.41219534789917L995.5200000000001,110.98136593074656L997.5600000000001,110.52333767895351L999.5999999999999,110.28147268974186L1001.64,110.44824213088503L1003.68,111.10670928159112L1005.72,110.96169528310207L1007.76,110.70856704841515L1009.8000000000001,110.73817987866568L1011.8399999999999,111.77459906225914L1013.88,110.69499216163194L1015.92,110.98004218585083L1017.96,111.2452089586663L1020,111.26355449604387L1022.0400000000001,111.32849587241162L1024.0800000000002,111.31839324432764L1026.12,111.54560894499025L1028.1599999999999,110.79979746885073L1030.2,110.89769750444276L1032.24,110.1169899841276L1034.28,110.56452678085134L1036.3200000000002,111.25545171761968L1038.36,111.29919469709239L1040.3999999999999,109.90953843371733L1042.44,109.98346389767437L1044.48,110.73325497226608L1046.52,110.59074805296746L1048.56,110.56807547660861L1050.6000000000001,111.021829392896L1052.6399999999999,111.85443714587501L1054.68,111.37292308623938L1056.72,110.46663645894364L1058.76,109.73392733872015L1060.8,110.27645385175447L1062.8400000000001,110.18410578370339L1064.8799999999999,110.55549940467029L1066.9199999999998,110.77762279239658L1068.96,110.10984954324698L1071,111.01599879045955L1073.04,110.8389317646766L1075.0800000000002,109.52570919668995L1077.1200000000001,110.27601452807926L1079.1599999999999,109.22472872167492L1081.2,109.44373606341878L1083.24,108.50914204428187L1085.28,109.17488354303919L1087.32,109.83468335132346L1089.3600000000001,109.81314987153684L1091.3999999999999,110.51104833446828L1093.44,110.00767321336906L1095.48,110.41051862480157L1097.52,110.53793450716466L1099.56,110.68517094620609L1101.6000000000001,110.11802930368839L1103.64,110.19760736881193L1105.6799999999998,110.9642100223864L1107.72,110.57902998695926L1109.76,110.54129967725913L1111.8,110.25064619346267L1113.8400000000001,110.74308481628344L1115.88,110.73611419578094L1117.9199999999998,111.05097268547621L1119.96,110.34241791193375L1122,110.49437041275706L1124.04,110.34960193369767L1126.08,110.19673860738158L1128.1200000000001,109.46407955525376L1130.16,108.60988093398839L1132.2,109.37595850923447L1134.24,108.95372633158445L1136.28,109.38171103012138L1138.32,110.2189790869449L1140.3600000000001,109.8505134599406L1142.4,110.05649052634556L1144.4399999999998,110.0824907846461L1146.48,109.67863753545998L1148.52,109.17338990417176L1150.56,109.61515884817595L1152.6000000000001,109.36874382790143L1154.64,108.94270389950191L1156.68,108.4135426101007L1158.72,109.34436151757075L1160.76,107.543346558439L1162.8,107.02523953365738L1164.84,108.647202054545L1166.88,107.95338061715967L1168.92,109.37391793723748L1170.96,109.74578237314353L1173,109.82296857702329L1175.04,109.57866890221487L1177.08,110.18408531106934L1179.1200000000001,109.57994682991057L1181.16,109.46674180975776L1183.2,108.87701112707276L1185.24,108.2038614887964L1187.28,108.0888216231557L1189.32,108.7068813382345L1191.3600000000001,109.1372551849015L1193.4,108.50699726904412L1195.44,107.99332327507562L1197.48,108.34204434020347L1199.52,108.88835867171571L1201.56,108.58347288000363L1203.6,109.07463105348324L1205.64,109.0113604882107L1207.68,108.13278721140847L1209.72,109.21906043726602L1211.76,109.98428825141212L1213.8,110.62040040688811L1215.84,109.6320870181475L1217.88,109.64593287633818L1219.92,109.7794775093667L1221.96,110.02443783486865L1224,110.79751769144684L1226.04,110.5867434164789L1228.08,110.52052965397172L1230.1200000000001,109.70283359667383L1232.16,109.01841221841244L1234.2,109.79079381146914L1236.24,110.26289907948956L1238.28,110.2086872872573L1240.32,109.44050069931137L1242.36,109.42371106099694L1244.4,109.90057584126845L1246.44,109.94959133390984L1248.48,109.43212259507635L1250.52,108.64275643807161L1252.56,109.55215237649821L1254.6,109.67342077777494L1256.64,110.06859816743179L1258.68,109.19177754031841L1260.72,109.26575988876789L1262.76,108.999637275299L1264.8,109.02414075910866L1266.84,108.80383686378764L1268.8799999999999,109.00336985030333L1270.92,107.71649475890081L1272.96,108.40253088472889L1275,108.37562601652189L1277.04,107.92552001354414L1279.08,107.9573167008977L1281.12,107.23676982289572L1283.16,107.7442690082172L1285.2,108.16890963546564L1287.24,108.84690797055492L1289.28,109.96155968198565L1291.32,109.40697430468867L1293.36,108.849114151364L1295.4,108.27455005251386L1297.44,108.40192914726151L1299.48,108.47890553037684L1301.52,108.2464744116848L1303.56,109.11651572382368L1305.6,109.04921490970258L1307.6399999999999,108.63918583460998L1309.68,108.45398450415348L1311.72,108.84569655208759L1313.76,107.62035870218205L1315.8,108.5507211795196L1317.84,109.10044259818147L1319.8799999999999,108.454661421835L1321.92,108.29562797229164L1323.96,109.10891027607016L1326,108.75403205098479L1328.04,108.69273985242819L1330.08,109.03581331696063L1332.12,108.966440512801L1334.16,109.15211326938936L1336.2,109.21482634418811L1338.24,108.75409468228696L1340.28,109.01777455284696L1342.32,108.02839066755752L1344.36,108.11720677283233" style="fill: none;" fill="none"></path></g></g></g></g><g opacity="0.2"><g><g><g><path stroke="rgb(187, 187, 187)" stroke-width="2px" d="M120.36,-7.758294452320399L122.4,6.600735946135103L124.44000000000001,16.277855417945204L126.47999999999999,29.20461838895625L128.51999999999998,38.538699908690035L130.56,46.08549388972199L132.6,58.24926983226436L134.64000000000001,64.00084961544388L136.68,70.86933049288666L138.72,78.10518232258886L140.76,86.15262573415583L142.8,89.36687577854508L144.84,95.07888371294194L146.88,97.49809189276266L148.92000000000002,103.26394785534256L150.96,106.60088701681661L153,110.8254891092127L155.04,113.87168169021612L157.08,118.52221369743353L159.12,120.0345465269956L161.16,123.31585569815206L163.2,128.27282374555418L165.24,129.09776980226692L167.28,130.24643898010257L169.32000000000002,134.3866743824699L171.35999999999999,137.2706059976058L173.4,138.421159549193L175.44,137.11354754187846L177.48000000000002,141.82956153696236L179.52,142.01584826816213L181.56,147.41963820023975L183.6,149.22988642345777L185.64000000000001,148.62383495677602L187.67999999999998,150.30195171182808L189.72000000000003,148.77169684930286L191.76,151.99665914882314L193.79999999999998,156.13875844261864L195.84,156.42161932858554L197.88,158.2483763044531L199.92000000000002,158.08605389161548L201.96,161.21780113740405L204,204.14711236953738L206.04000000000002,214.7979717363011L208.07999999999998,221.36733900416982L210.11999999999998,224.6360515464436L212.16,227.09371528842235L214.2,226.4985706589439L216.24,229.10955483263191L218.28,230.03956496715548L220.32,233.17176282405856L222.36,232.94314937158066L224.4,232.85626335577533L226.43999999999997,235.88865085081622L228.48000000000002,236.10175918449056L230.51999999999998,238.90000299973923L232.56,237.2547808560458L234.6,238.14326307990336L236.64,240.4111580957066L238.68,240.0622519579801L240.72,240.9702743183483L242.76000000000002,238.96588439291176L244.8,241.55119397423485L246.83999999999997,242.87303095514127L248.88000000000002,239.66271351684225L250.92,243.35697705095467L252.95999999999998,245.29509641907433L255,244.03977578336546L257.03999999999996,245.3817673704841L259.08000000000004,243.79362946206876L261.12,247.38056562163615L263.15999999999997,246.10524399714038L265.2,247.24040508270267L267.24,243.14393016425046L269.28000000000003,244.3174136768688L271.32,246.82914051142606L273.36,247.9206742481752L275.40000000000003,248.38705675168472L277.44,249.0763381394473L279.47999999999996,248.59976568005303L281.52,248.0664264613932L283.56,252.59355247020721L285.6,251.10436466607183L287.64,251.26653346148407L289.68,251.65764342654836L291.72,249.16401272470304L293.76,250.6700677221472L295.8,252.90061322125524L297.84000000000003,252.85026767037135L299.88,252.1853500062769L301.92,253.46965312957764L303.96,251.68271379037338L306,276.3099937547337L308.04,280.91092269528997L310.08,284.9673188274557L312.12,286.57318418676203L314.16,287.0497310432521L316.2,287.32944277199834L318.24,287.7326424284415L320.28,289.0488467704166L322.32,286.8114601752975L324.36,291.96147924119776L326.4,288.3322829279033L328.44,289.63663824579936L330.48,289.0939590876753L332.52,290.51619017666036L334.56,290.21007161248815L336.59999999999997,290.214250006459L338.64000000000004,292.3632297732613L340.68,290.4203277826309L342.71999999999997,290.0972447341139L344.76,292.87424325942993L346.8,290.89006938717586L348.84,291.5826791524887L350.88,293.0763935500925L352.92,291.43106387420136L354.96000000000004,290.7705601507967L357,293.31117218190974L359.04,291.1984154040163L361.08,290.5033631216396L363.12,291.01231813430786L365.16,293.2145263390108L367.2,291.18072379719126L369.24,291.53381857005036L371.28000000000003,293.7913136861541L373.32000000000005,292.4294798482548L375.35999999999996,291.08721174977046L377.40000000000003,291.3516436652704L379.44000000000005,292.2529887882146L381.47999999999996,293.8810416243293L383.52,292.8076910701665L385.56,291.2627298994498L387.59999999999997,292.84188118847936L389.64,291.50950093160975L391.68,292.5237395004793L393.71999999999997,292.8808488087221L395.76,293.6210287701L397.8,294.799530451948L399.84000000000003,293.8191542842171L401.88,294.2331378839233L403.92,292.9711297696287L405.96000000000004,293.99784207344055L408,313.6635582690889L410.04,318.9628806710243L412.08000000000004,321.58637698401105L414.11999999999995,322.62870833955026L416.15999999999997,324.1095239940015L418.20000000000005,323.96878738972276L420.23999999999995,323.77782556821L422.28,324.62262923744595L424.32,326.0067068785429L426.36,324.8618704554709L428.4,325.10280914604664L430.44,326.23371886936104L432.48,325.91817843643105L434.52,326.14916655827653L436.56,326.621367321773L438.6,326.7633661492304L440.64,327.33089804649353L442.68,327.8232111714103L444.72,326.9935810633681L446.76,327.14219568127936L448.8,328.12309542840177L450.84000000000003,326.8241576850414L452.87999999999994,327.26787777786905L454.91999999999996,326.30665130235934L456.96000000000004,327.0669269832698L459.00000000000006,327.16376868838614L461.03999999999996,328.94141929393464L463.08,327.2463418949734L465.12,327.9792429506779L467.15999999999997,327.79863110320133L469.2,328.4687346355482L471.24,327.7834460207007L473.28,328.493126522411L475.32,327.9985283382914L477.36,328.10793338851494L479.4,328.3535049246116L481.44,328.19412044503474L483.48,328.32491032101893L485.52000000000004,328.24034904891795L487.56,328.6596823754636L489.6,327.8058920868418L491.64000000000004,327.92260420593345L493.67999999999995,327.7799064191905L495.71999999999997,328.9099738069556L497.76000000000005,327.7779324352741L499.79999999999995,327.40649190138686L501.84,327.8489497710358L503.88,328.1218127228997L505.91999999999996,328.6149413003163L507.96,328.7864884395491L510,332.8954972597686L512.0400000000001,334.6657255833799L514.0799999999999,334.97635217891496L516.12,335.8943103863434L518.1600000000001,336.17690372196114L520.1999999999999,335.69003633477473L522.24,335.96684789454395L524.28,336.4601998573L526.3199999999999,336.6664037277753L528.36,336.44297358325935L530.4,337.0127322931181L532.4399999999999,336.961817077615L534.48,337.5940929590301L536.52,337.3624910075556L538.5600000000001,337.71319766952234L540.6,337.98162427815527L542.64,337.47292273423886L544.6800000000001,337.49259344556117L546.72,337.8075584532185L548.76,337.7450041574511L550.8000000000001,338.1184314767068L552.8399999999999,337.83292709087783L554.88,337.73623580282384L556.9200000000001,337.9352817413482L558.9599999999999,337.6689577712254L561,338.07112435048276L563.04,337.89320656860417L565.08,338.29768316989595L567.12,338.54032861407507L569.16,338.1202864071185L571.2,338.18092816593975L573.24,337.9619548469782L575.28,338.1507289003242L577.32,338.24203461747277L579.36,338.3945949629626L581.4,338.3539551530372L583.44,339.0468199872835L585.48,338.5838551514528L587.52,338.88388086449015L589.5600000000001,338.7398011609912L591.6,338.1940387731249L593.64,338.7483262880282L595.6800000000001,338.3409671197561L597.72,338.5296669246798L599.76,338.5750877569345L601.8,338.6003431017426L603.84,338.6414188011126L605.88,338.79778533835304L607.92,338.63577912138265L609.96,338.7569941512563L612,338.3819813721559L614.04,338.94816271622074L616.08,338.99257767437535L618.12,339.12278732454234L620.16,338.55145403607327L622.2,338.5306455956941L624.24,338.8343283635649L626.28,338.871594350785L628.32,338.7864467721771L630.36,338.86728218163955L632.4,338.83904857899654L634.4399999999999,338.7160637483678L636.48,338.95728439092636L638.52,338.9318501458249L640.56,338.83540336550635L642.6,338.65319101647896L644.64,339.01354645294225L646.68,338.80615684796464L648.72,339.0170649320564L650.76,338.9779523353685L652.8,339.2117858999832L654.84,338.76495249400085L656.88,339.19446425512433L658.92,338.93911144950175L660.96,338.7961073880169L663,338.7623432380232L665.04,339.26810044795275L667.08,339.4540232978761L669.12,339.31982855566525L671.16,338.93225115131247L673.1999999999999,338.54956326159567L675.24,338.8423299112103L677.2800000000001,338.75188125128096L679.3199999999999,338.9792171188376L681.36,338.8065328906206L683.4,338.844174280424L685.4399999999999,339.3245698934929L687.48,338.9207631281831L689.52,338.80371945148164L691.56,338.9754138074138L693.6,339.0988434885036L695.64,338.9211599731987L697.68,338.94189384511924L699.72,338.9573589593849L701.76,339.3124081939459L703.8000000000001,339.04792475260115L705.84,338.9735767990351L707.88,339.1310429810123L709.9200000000001,338.8783311149613L711.9599999999999,339.37492088499397L714,339.0228399871425L716.0400000000001,338.8854973678562L718.08,338.81823149763727L720.1200000000001,339.0467665412209L722.16,338.57741410082036L724.1999999999999,339.0208807248961L726.24,338.93364106897604L728.28,338.80126253278416L730.32,338.79506438970566L732.36,339.07852886413986L734.4,338.95646957849914L736.4399999999999,338.97876842794096L738.48,339.0273720212281L740.52,338.8455510765991L742.5600000000001,339.54093555665827L744.6,338.7273731912402L746.6400000000001,339.3999032388357L748.68,339.02675371109086L750.7199999999999,338.72277138924056L752.76,339.3254362317649L754.8000000000001,339.27908377383244L756.84,339.0711728297174L758.8800000000001,339.61111151697963L760.92,339.19104850766337L762.9599999999999,339.1004273481667L765,339.45267914540386L767.04,339.0794208053161L769.08,339.06783485107803L771.12,338.73610890216446L773.1600000000001,339.17087693952703L775.1999999999999,339.1989626853981L777.24,339.2713577774438L779.28,338.8299313847992L781.32,339.1101190075278L783.36,339.21565289863133L785.4000000000001,339.00758385658264L787.4399999999999,339.195558459244L789.4799999999999,338.7926314737309L791.52,339.1767675277184L793.5600000000001,339.2705112814226L795.6,339.14645176888865L797.6400000000001,339.4989051889967L799.6800000000001,339.38063385303724L801.7199999999999,339.0018920109353L803.76,339.20240819623524L805.8,338.98751470006323L807.84,339.0713654915718L809.88,339.10202560946345L811.9200000000001,339.00593438947743L813.9599999999999,338.9195863546973L816,339.43712410093707L818.04,339.1887996125628L820.08,339.323779723861L822.12,338.8257405094125L824.1600000000001,339.0036128461361L826.2,339.1326921280812L828.2399999999999,339.1027559323067L830.28,339.27757224237376L832.3199999999999,338.99772129783577L834.36,339.18174537237394L836.4000000000001,339.36910294504327L838.44,339.1199037974531L840.4799999999999,339.30923311378467L842.52,339.028379815546L844.56,339.37680845910853L846.6,339.07807409255344L848.64,339.3612274917012L850.6800000000001,339.4656508568336L852.72,339.29847349328077L854.76,339.19945298101413L856.8,339.2553860457106L858.84,339.63851110501724L860.88,339.2173894156109L862.9200000000001,339.24544187770647L864.96,339.40371519123966L866.9999999999999,339.2758462865922L869.04,339.7359359162775L871.0799999999999,339.33985898779196L873.12,339.01822954416275L875.1600000000001,339.38881398093974L877.2,339.57800472155213L879.2400000000001,339.1231425648386L881.28,339.4732325168496L883.3199999999999,338.9148722199554L885.36,338.92071192237466L887.4,339.21124247834086L889.44,339.1542203301056L891.48,339.33404840867627L893.52,339.0544867769561L895.56,339.54524868591267L897.6,339.33446317572486L899.64,339.0481766211716L901.6800000000001,339.52963571487504L903.72,339.0893412906338L905.7599999999999,339.45594671605664L907.8,339.50148372148925L909.8399999999999,339.3523538451303L911.88,338.9441142569889L913.9200000000001,339.10429978743196L915.96,339.2836254090071L918.0000000000001,339.42665859379554L920.04,339.15307524021375L922.0799999999999,339.20778032561594L924.12,339.5545899055221L926.16,339.1776834716174L928.2,339.4041587615555L930.24,339.27706306461585L932.28,339.2487817765637L934.3199999999999,339.275774278424L936.36,339.33719820596957L938.4,339.1801243884997L940.44,339.5321348783645L942.48,339.11205106668854L944.5200000000001,339.22829241237855L946.56,339.3500899083235L948.5999999999999,339.69158528541976L950.64,339.65840936215085L952.6800000000001,339.4201647371731L954.72,339.8216317170723L956.7600000000001,339.5990608700297L958.8,339.62854901498014L960.8399999999999,339.4775405255231L962.88,339.44778483022344L964.92,339.55382021821356L966.96,339.21381268988955L969,339.6954324418171L971.0400000000001,339.2777953076769L973.0799999999999,339.55690536817366L975.12,339.5759913731705L977.16,339.66316350143063L979.2,339.58027793941176L981.24,339.65831335126L983.2800000000001,339.5991895246235L985.3199999999999,339.3589949184521L987.3599999999999,339.37322949313307L989.4,339.4369660030035L991.4399999999999,339.6883919631893L993.48,339.4392696243118L995.5200000000001,339.6499332006682L997.5600000000001,339.65720122510737L999.5999999999999,339.59487959573215L1001.64,339.345588597723L1003.68,339.7602887587114L1005.72,339.4576560299505L1007.76,339.21971031887966L1009.8000000000001,339.3585004623641L1011.8399999999999,339.5208455977792L1013.88,339.5882058787075L1015.92,339.30794368752026L1017.96,339.1976118121635L1020,339.65636369010264L1022.0400000000001,339.2421896687963L1024.0800000000002,339.25640856169844L1026.12,339.4035772555931L1028.1599999999999,339.27564626390284L1030.2,339.39870502291757L1032.24,339.45124474269426L1034.28,339.25090905786914L1036.3200000000002,339.43050767041063L1038.36,339.74680402908814L1040.3999999999999,339.6539656580849L1042.44,339.3920300257477L1044.48,339.57522776655173L1046.52,339.54972215335476L1048.56,339.5696856978942L1050.6000000000001,339.55160908739674L1052.6399999999999,339.4009635191072L1054.68,339.64003703810954L1056.72,339.56183456731117L1058.76,339.64319163594735L1060.8,339.45452767508954L1062.8400000000001,339.50497595762664L1064.8799999999999,339.4446177509698L1066.9199999999998,339.2746666327796L1068.96,339.37928201969373L1071,339.27362555468625L1073.04,339.64400420812046L1075.0800000000002,339.25077656283975L1077.1200000000001,339.57613058896226L1079.1599999999999,339.63258787312293L1081.2,339.3700051273812L1083.24,339.45190145718783L1085.28,339.9358926781199L1087.32,339.5874038677324L1089.3600000000001,339.41651408306575L1091.3999999999999,339.53725129873914L1093.44,339.2075508595868L1095.48,339.52190107750624L1097.52,339.6194487827068L1099.56,339.5209486494688L1101.6000000000001,339.3578581495041L1103.64,339.6867543374273L1105.6799999999998,339.5973598770797L1107.72,339.725862453607L1109.76,339.50278530913323L1111.8,339.6519628709013L1113.8400000000001,339.6836234222759L1115.88,339.66102693907237L1117.9199999999998,339.7777448188175L1119.96,339.2374700934372L1122,339.50235550037837L1124.04,339.702794236893L1126.08,339.648044986481L1128.1200000000001,339.3893711641431L1130.16,339.6304717930881L1132.2,339.54856554215604L1134.24,339.5087514258921L1136.28,339.39851268109953L1138.32,339.92813595824623L1140.3600000000001,339.56435325301504L1142.4,339.7160110961307L1144.4399999999998,339.9430547705428L1146.48,339.72840418192476L1148.52,339.7788982296532L1150.56,339.37301186844707L1152.6000000000001,339.67618193816054L1154.64,339.72400912337685L1156.68,339.591805967079L1158.72,339.77068353783L1160.76,339.49528717859226L1162.8,339.67577325180173L1164.84,339.8187878744846L1166.88,339.3891068141569L1168.92,339.5564749193463L1170.96,339.54504770311445L1173,339.5318212427876L1175.04,339.8451102203266L1177.08,339.6130550974472L1179.1200000000001,339.5006759498607L1181.16,339.9648793261837L1183.2,339.5377627167512L1185.24,339.7511206787418L1187.28,340.02527305687016L1189.32,339.68712909993803L1191.3600000000001,339.33205778287214L1193.4,339.8363841104914L1195.44,339.71998914737594L1197.48,339.364347205582L1199.52,339.76578858257693L1201.56,339.7765914079818L1203.6,339.81982223181564L1205.64,339.5421120101078L1207.68,339.914745319296L1209.72,339.5162655582482L1211.76,339.6300570260395L1213.8,339.61921099573374L1215.84,339.57848861644214L1217.88,339.2871643704447L1219.92,339.72665934400123L1221.96,339.8114011165771L1224,339.53864857723767L1226.04,339.43443483588374L1228.08,339.8833593590693L1230.1200000000001,339.800302257592L1232.16,339.6685698746958L1234.2,339.7161272693087L1236.24,339.8066575384953L1238.28,339.94006915187293L1240.32,339.80166369202465L1242.36,339.6328592639078L1244.4,339.6485564044931L1246.44,339.6591921709478L1248.48,339.6069350432266L1250.52,339.65938643298364L1252.56,339.8190051791343L1254.6,339.7511414811015L1256.64,339.7429399107668L1258.68,339.8201918737455L1260.72,339.62842740118504L1262.76,339.77263351902366L1264.8,339.8248836059462L1266.84,339.6417338705876L1268.8799999999999,340.02318546006626L1270.92,339.79560636491937L1272.96,339.721247530119L1275,339.4676040383903L1277.04,339.74482972513545L1279.08,339.5842751928351L1281.12,339.3473526378247L1283.16,339.5636885376139L1285.2,339.7359279153699L1287.24,339.55949862233615L1289.28,340.03952651369303L1291.32,339.71696896478534L1293.36,339.9267658828334L1295.4,340.0916172225367L1297.44,339.57619075578725L1299.48,339.85999734902924L1301.52,339.7056464004246L1303.56,340.0008360448886L1305.6,339.8772277835418L1307.6399999999999,340.0996040485122L1309.68,339.54779585484755L1311.72,339.4892308115959L1313.76,339.9160805107518L1315.8,339.8080237734724L1317.84,339.86156072636896L1319.8799999999999,339.9997251988812L1321.92,339.87381619655275L1323.96,339.69526346264917L1326,339.8666272210804L1328.04,339.7479577599601L1330.08,339.84311415390533L1332.12,339.80903156779027L1334.16,340.1526529460468L1336.2,339.94546208361334L1338.24,340.23103911768305L1340.28,339.83774298463356L1342.32,340.00708155333996L1344.36,339.7070404785601" style="fill: none;" fill="none"></path></g><g><path stroke="rgb(255, 112, 67)" stroke-width="2px" d="M132.6,-72.16090484098953L134.64000000000001,5.813764116980849L136.68,10.422983277927756L138.72,-7.444054646925508L142.8,-4.97618046673864L144.84,20.931910384785056L146.88,50.865248875184534L148.92000000000002,69.77532863616949L150.96,20.163249752738295L153,44.67997637662023L155.04,27.428247928619385L157.08,28.232404427094878L159.12,53.97358482534236L161.16,18.11808976260096L163.2,61.48377689448273L165.24,70.04047231240708L167.28,61.63118817589503L169.32000000000002,67.13130647485906L171.35999999999999,68.24071103876287L173.4,49.564949057318984L175.44,26.326933882453204L177.48000000000002,25.226971669630586L179.52,60.483522631905316L181.56,27.308856465599717L183.6,16.66851477189499L185.64000000000001,32.455224557356416L187.67999999999998,56.174021309072316L189.72000000000003,12.419845949519754L191.76,58.864866061644136L193.79999999999998,71.92302313717931L195.84,27.53987659107554L197.88,27.800268368287504L199.92000000000002,96.72496611421758L201.96,50.234106562354384L204,125.40191888809207L206.04000000000002,116.33025689558553L208.07999999999998,123.44866308298981L210.11999999999998,121.47457675500351L212.16,127.83685749227354L214.2,120.87061448530721L216.24,120.12993270700628L218.28,72.79823281548244L220.32,97.14354287494314L222.36,89.97845747254115L224.4,132.49253056266093L226.43999999999997,112.21810275858098L228.48000000000002,99.05718586661601L230.51999999999998,110.81283103335988L232.56,121.67821201411164L234.6,126.71092369339684L236.64,130.21333954551005L238.68,83.24704430320048L240.72,120.30982895330953L242.76000000000002,113.23152715509588L244.8,71.55196536671036L246.83999999999997,118.6197710037232L248.88000000000002,123.70172218842944L250.92,90.05334084684199L252.95999999999998,83.91173666173762L255,106.88509973612702L257.03999999999996,117.32117121869868L259.08000000000004,125.41672760790047L261.12,118.53919354352087L263.15999999999997,71.41239881515509L265.2,73.56304277073258L267.24,116.33289911530238L269.28000000000003,105.5938121405515L271.32,104.82445510950959L273.36,101.3065751032396L275.40000000000003,130.37705475633797L277.44,103.37217645211655L279.47999999999996,115.54574294523763L281.52,102.72196509621364L283.56,106.85595338994807L285.6,105.5139925263145L287.64,121.65111390027135L289.68,93.66160934621638L291.72,121.46816578778356L293.76,104.43613074042582L295.8,86.83233163573527L297.84000000000003,81.87407320195979L299.88,71.07794295657766L301.92,88.19014581766999L303.96,106.72955697233027L306,140.85728612813082L308.04,131.2177926843817L310.08,117.95894980430609L312.12,131.98295083912936L314.16,129.68927881934428L316.2,127.21093817190695L318.24,113.22810660709035L320.28,118.31956158984792L322.32,114.5217496698553L324.36,121.99021924625748L326.4,118.41353448954499L328.44,130.98363876342776L330.48,125.66597700119021L332.52,118.39585824446249L334.56,120.49914706837052L336.59999999999997,114.381650577892L338.64000000000004,114.12035757845098L340.68,112.99897085536611L342.71999999999997,116.11392259597784L344.76,119.02054862542587L346.8,118.19035909392619L348.84,115.47858140685344L350.88,105.95727096904409L352.92,114.17264895005661L354.96000000000004,122.44498827240685L357,116.01867979223078L359.04,106.83172280138189L361.08,104.23329429192978L363.12,107.55874286998403L365.16,83.02159536968583L367.2,108.27931100671941L369.24,55.43301181359726L371.28000000000003,108.77537239681595L373.32000000000005,76.86137275262314L375.35999999999996,105.14703122052282L377.40000000000003,97.65383947979325L379.44000000000005,112.90417866273361L381.47999999999996,106.69256589629435L383.52,121.6590610417453L385.56,105.13562256639653L387.59999999999997,119.5989694378593L389.64,118.99439269846135L391.68,116.56078544530004L393.71999999999997,122.97341173345396L395.76,113.82442897016352L397.8,69.47974822737956L399.84000000000003,116.4361505074935L401.88,128.04194699634206L403.92,82.25832158868963L405.96000000000004,116.75254095684403L408,137.66274007883942L410.04,134.1800077395006L412.08000000000004,134.4815894690427L414.11999999999995,124.64911157434639L416.15999999999997,125.46959248456088L418.20000000000005,129.8833693157543L420.23999999999995,119.22776829112661L422.28,120.93294219537216L424.32,114.76780382069677L426.36,124.30939175865868L428.4,123.22124784643003L430.44,113.77342798493129L432.48,120.63682924617422L434.52,120.63793529163712L436.56,106.83190714229238L438.6,117.81303373250097L440.64,116.28449938514018L442.68,102.71922046487981L444.72,115.04087415608495L446.76,111.05194167657334L448.8,104.32274059815842L450.84000000000003,109.48064023798162L452.87999999999994,118.81605310873556L454.91999999999996,114.54573447054082L456.96000000000004,117.17886003580963L459.00000000000006,109.66784867373383L461.03999999999996,112.45915922251618L463.08,113.57933748852128L465.12,105.6848151033575L467.15999999999997,101.41552058133215L469.2,116.56772895292806L471.24,112.21421111713761L473.28,108.28080621632665L475.32,109.63929631493312L477.36,107.91912934996867L479.4,107.03711954030126L481.44,106.09564954584295L483.48,110.15819549560553L485.52000000000004,104.14136962457138L487.56,95.84619251164526L489.6,104.25832369110805L491.64000000000004,102.04324234615677L493.67999999999995,102.78246987949723L495.71999999999997,101.90639994361186L497.76000000000005,102.16619773344564L499.79999999999995,103.56135119091385L501.84,97.41532282395798L503.88,90.28921528296041L505.91999999999996,94.95938983830541L507.96,105.65333377231252L510,115.55958899584687L512.0400000000001,115.12606013904923L514.0799999999999,113.78004377538508L516.12,117.00273253700954L518.1600000000001,113.98433446884161L520.1999999999999,111.76288312131709L522.24,116.39481717889959L524.28,115.42282852259552L526.3199999999999,112.48310305855495L528.36,114.77642687884247L530.4,112.3259626735341L532.4399999999999,108.74192476272589L534.48,110.66312573172831L536.52,113.43323707580572L538.5600000000001,112.5617961450057L540.6,112.74601416154343L542.64,115.5809725414623L544.6800000000001,113.13028303059667L546.72,109.90235079418534L548.76,111.37429248202932L550.8000000000001,112.63180472634059L552.8399999999999,111.27009890296245L554.88,114.17055975307119L556.9200000000001,109.08066142689103L558.9599999999999,111.73000899228185L561,110.42192589152944L563.04,111.41662944446915L565.08,109.2133868824352L567.12,110.64600250937724L569.16,112.89338447830897L571.2,112.58578094569123L573.24,110.32858794385737L575.28,111.26915671608668L577.32,113.59252810478216L579.36,110.32842408527029L581.4,114.98024647886103L583.44,112.93142015283757L585.48,114.40497994422918L587.52,115.18425041979009L589.5600000000001,114.25951448353857L591.6,111.33285674181855L593.64,114.38447713851934L595.6800000000001,114.2159280993722L597.72,114.45008202032614L599.76,110.99491888826543L601.8,111.9364298473705L603.84,111.60945003682917L605.88,112.976174029437L607.92,113.02379543131048L609.96,109.60017507726496L612,113.24043696576899L614.04,113.49374185908925L616.08,112.70050243897873L618.12,112.41774396462876L620.16,110.80195491964167L622.2,109.73269570957535L624.24,111.64924719116908L626.28,111.35807048190725L628.32,112.33894846656108L630.36,111.94579026915812L632.4,113.1231346997348L634.4399999999999,111.01437709548259L636.48,112.2807172211734L638.52,111.40319304032761L640.56,110.76992056586528L642.6,112.02274235812104L644.64,110.80678874796087L646.68,111.15392316471451L648.72,111.11248742450368L650.76,114.84317877075893L652.8,113.44147096980703L654.84,112.7140412547372L656.88,110.73114752769476L658.92,113.43348286368632L660.96,114.04590433294123L663,113.10369697484106L665.04,113.13489155335861L667.08,111.7087893052535L669.12,112.34681367874151L671.16,111.80433934385127L673.1999999999999,114.67880812558263L675.24,110.01154206015849L677.2800000000001,113.11793218959463L679.3199999999999,111.17450789971787L681.36,111.80040673776108L683.4,113.15705342726278L685.4399999999999,111.54839223081416L687.48,112.98670194365764L689.52,110.78919443217194L691.56,113.40101838111883L693.6,114.24167437986898L695.64,112.80416347763759L697.68,112.7783967148174L699.72,112.24817080931234L701.76,110.79372102564031L703.8000000000001,114.65267268094152L705.84,111.51686993512243L707.88,112.034294388511L709.9200000000001,111.43424424258149L711.9599999999999,113.84118351069367L714,110.82755782387477L716.0400000000001,109.7916848009283L718.08,111.41658847982234L720.1200000000001,111.16307876326823L722.16,111.05147058313543L724.1999999999999,112.47607762163335L726.24,112.34619920903987L728.28,111.03832093152135L730.32,110.54008841514593L732.36,112.56591309200638L734.4,110.12020078572363L736.4399999999999,113.27705935998398L738.48,113.13788197257304L740.52,112.11034525524491L742.5600000000001,112.15255932374436L744.6,113.13513734123927L746.6400000000001,111.85687650333756L748.68,113.92708637497645L750.7199999999999,113.01863388581711L752.76,108.87827558950949L754.8000000000001,110.85690899328756L756.84,114.08072428269821L758.8800000000001,112.99804915081376L760.92,112.4979322606867L762.9599999999999,111.5805904431777L765,113.50584691221064L767.04,110.90678345073354L769.08,113.2661217992956L771.12,113.15506664189428L773.1600000000001,112.29036439548844L775.1999999999999,110.98840550942856L777.24,111.56705162741923L779.28,111.91842588511383L781.32,108.07215278798884L783.36,112.97344988042659L785.4000000000001,111.98245362801987L787.4399999999999,110.71846896951848L789.4799999999999,111.282900355079L791.52,111.40235326506877L793.5600000000001,112.98946705731481L795.6,112.43144663897431L797.6400000000001,108.82004434412175L799.6800000000001,109.78691241957927L801.7199999999999,113.08325561610138L803.76,111.43659970977092L805.8,111.92213318564677L807.84,111.03334372693843L809.88,113.28900055451828L811.9200000000001,110.51645181395793L813.9599999999999,113.30030679702764L816,112.56697817282247L818.04,108.93316821618515L820.08,110.20075776360255L822.12,111.61479592323309L824.1600000000001,110.62386111779648L826.2,111.64140246131205L828.2399999999999,110.3919192877683L830.28,111.74776716665792L832.3199999999999,110.94316005706793L834.36,111.63978435776454L836.4000000000001,112.31135877695954L838.44,111.65125445886093L840.4799999999999,110.10856682604009L842.52,110.03190148960465L844.56,111.78889567201787L846.6,109.12713581865484L848.64,109.68929366631943L850.6800000000001,109.79955001310873L852.72,109.36727057803762L854.76,110.35994638096207L856.8,110.2714422616092L858.84,109.9565265395425L860.88,110.40918588638311L862.9200000000001,109.96787374669856L864.96,112.19762043519455L866.9999999999999,112.18023094263947L869.04,110.49064408649099L871.0799999999999,108.9523601531983L873.12,107.62678514827383L875.1600000000001,109.993230863051L877.2,111.74498157067734L879.2400000000001,110.69063349203634L881.28,110.6570834463293L883.3199999999999,111.77918705073273L885.36,111.10077153552663L887.4,110.2729784358632L889.44,107.20595533197576L891.48,108.79446192221212L893.52,110.19303592768586L895.56,110.15549182891851L897.6,112.26480245590216L899.64,110.39323015646505L901.6800000000001,106.998838077892L903.72,110.52323146299887L905.7599999999999,111.35823434049433L907.8,111.50980353355413L909.8399999999999,112.01913746920502L911.88,108.3841805024581L913.9200000000001,110.83067113702947L915.96,110.12874191457576L918.0000000000001,108.22646661238241L920.04,109.43537430329758L922.0799999999999,107.75897806340998L924.12,112.3080816052177L926.16,111.65625214576727L928.2,109.5486210693013L930.24,110.18469962206757L932.28,109.94222987781876L934.3199999999999,112.5029913945632L936.36,110.56685881181198L938.4,111.50517452846879L940.44,110.16233292492956L942.48,111.78258711641485L944.5200000000001,108.69067798961294L946.56,110.53914622827011L948.5999999999999,111.90537864511663L950.64,108.32836617123002L952.6800000000001,110.3823950073936L954.72,110.62195626172155L956.7600000000001,107.7013817700473L958.8,110.37262493913823L960.8399999999999,110.65100019628352L962.88,112.49856721271169L964.92,110.22078947587448L966.96,110.86370912465185L969,110.64215183258062L971.0400000000001,111.93204663016581L973.0799999999999,110.46731472015387L975.12,108.73432582074946L977.16,109.69396363605154L979.2,111.25500343062663L981.24,112.38384571942419L983.2800000000001,110.89844714511526L985.3199999999999,111.93436113270849L987.3599999999999,110.6336516683752L989.4,112.77575449510056L991.4399999999999,111.00767937573522L993.48,111.32695783268326L995.5200000000001,110.33512180501765L997.5600000000001,109.83629530126399L999.5999999999999,109.91867520592433L1001.64,110.6983962925998L1003.68,112.0944100076502L1005.72,110.7441742853685L1007.76,110.32887469638479L1009.8000000000001,110.7825991240415L1011.8399999999999,113.32922783764928L1013.88,109.07558181069118L1015.92,111.40761722217911L1017.96,111.64295911788946L1020,111.2910728021102L1022.0400000000001,111.4259079369632L1024.0800000000002,111.30323930220175L1026.12,111.8864324959842L1028.1599999999999,109.68108025464147L1030.2,111.04454755783087L1032.24,108.94592870365494L1034.28,111.23583197593695L1036.3200000000002,112.29183912277227L1038.36,111.36480916630143L1040.3999999999999,107.82505403865468L1042.44,110.09435209360993L1044.48,111.85794158415365L1046.52,110.37698767401957L1048.56,110.53406661207026L1050.6000000000001,111.70246026732707L1052.6399999999999,113.10334877534348L1054.68,110.65065199678594L1056.72,109.10720651799983L1058.76,108.63486365838486L1060.8,111.090243621306L1062.8400000000001,110.0455836816268L1064.8799999999999,111.11258983612066L1066.9199999999998,111.110807873986L1068.96,109.1081896695224L1071,112.37522266127849L1073.04,110.5733312260021L1075.0800000000002,107.55587534470993L1077.1200000000001,111.40147252516317L1079.1599999999999,107.64780001206833L1081.2,109.7722470760346L1083.24,107.10725101557648L1085.28,110.17349579117518L1087.32,110.82438306374985L1089.3600000000001,109.7808496518569L1091.3999999999999,111.55789602886551L1093.44,109.25261053172028L1095.48,111.01478674195033L1097.52,110.72905833070928L1099.56,110.90602560476827L1101.6000000000001,109.26731683991176L1103.64,110.31697446649724L1105.6799999999998,112.11411400274801L1107.72,110.00125993381852L1109.76,110.48470421270895L1111.8,109.8146659677679L1113.8400000000001,111.48174275051468L1115.88,110.72565826502716L1117.9199999999998,111.52326042001897L1119.96,109.27958575162023L1122,110.72229916399175L1124.04,110.1324492151087L1126.08,109.96744361790746L1128.1200000000001,108.36509097706193L1130.16,107.32858300209051L1132.2,110.52507487210363L1134.24,108.32037806510931L1136.28,110.02368807792669L1138.32,111.47488117218023L1140.3600000000001,109.29781501943415L1142.4,110.36545612595302L1144.4399999999998,110.12149117209697L1146.48,109.07285766168076L1148.52,108.41551845723933L1150.56,110.27781226418239L1152.6000000000001,108.99912129748952L1154.64,108.30364400690252L1156.68,107.61980067599904L1158.72,110.74058987877589L1160.76,104.84182411974126L1162.8,106.24807899648494L1164.84,111.08014583587652L1166.88,106.9126484610818L1168.92,111.50472391735428L1170.96,110.30357902700251L1173,109.93874788284307L1175.04,109.21221939000219L1177.08,111.0922099243511L1179.1200000000001,108.67373910817236L1181.16,109.29693427952856L1183.2,107.9924151030454L1185.24,107.19413703138179L1187.28,107.91626182469457L1189.32,109.63397091085261L1191.3600000000001,109.78281595490199L1193.4,107.56161039525813L1195.44,107.22281228412282L1197.48,108.86512593789536L1199.52,109.70783016898417L1201.56,108.12614419243556L1203.6,109.8113683137027L1205.64,108.91645464030182L1207.68,106.81492729620504L1209.72,110.8484702760523L1211.76,111.13212997263128L1213.8,111.57456864010209L1215.84,108.14961693503642L1217.88,109.66670166362417L1219.92,109.97979445890951L1221.96,110.39187832312155L1224,111.95713747631424L1226.04,110.27058200402695L1228.08,110.42120901021093L1230.1200000000001,108.47628951072699L1232.16,107.99178015102041L1234.2,110.94936620105398L1236.24,110.97105698152023L1238.28,110.1273695989089L1240.32,108.28822081739253L1242.36,109.39852660352534L1244.4,110.61587301167577L1246.44,110.02311457287186L1248.48,108.65591948682612L1250.52,107.4587072025646L1252.56,110.91624628413808L1254.6,109.85532337968999L1256.64,110.66136425191706L1258.68,107.87654659964824L1260.72,109.37673341144216L1262.76,108.60045335509562L1264.8,109.06089598482305L1266.84,108.47338102080607L1268.8799999999999,109.30266933007675L1270.92,105.78618212179708L1272.96,109.43158507347113L1275,108.33526871421122L1277.04,107.25036100907761L1279.08,108.00501173192805L1281.12,106.15594950589269L1283.16,108.50551778619939L1285.2,108.80587057633835L1287.24,109.86390547318894L1289.28,111.63353724913168L1291.32,108.57509623874319L1293.36,108.012323921377L1295.4,107.41270390423864L1297.44,108.59299778938299L1299.48,108.59437010504985L1301.52,107.89782773364675L1303.56,110.42157769203192L1305.6,108.94826368852097L1307.6399999999999,108.02414222197103L1309.68,108.17618250846868L1311.72,109.4332646239888L1313.76,105.78235192732382L1315.8,109.94626489552587L1317.84,109.92502472617412L1319.8799999999999,107.48598965731537L1321.92,108.05707779797643L1323.96,110.32883373173803L1326,108.22171471335673L1328.04,108.6008015545932L1330.08,109.55042351375931L1332.12,108.86238130656159L1334.16,109.4306224042719L1336.2,109.30889595638627L1338.24,108.06299718943512L1340.28,109.41329435868698L1342.32,106.54431483962321L1344.36,108.25043093074453" style="fill: none;" fill="none"></path></g></g></g></g></g></g><g transform="translate(70, 378)" clip-path="url(#clip_1)"><clipPath id="clip_1"><rect width="1428" height="22"></rect></clipPath><g><g><line x1="0" y1="0" x2="0" y2="5" style="visibility: inherit;" fill="rgb(0, 0, 0)" stroke="rgb(204, 204, 204)" stroke-width="1px"></line><line x1="102" y1="0" x2="102" y2="5" style="visibility: inherit;" fill="rgb(0, 0, 0)" stroke="rgb(204, 204, 204)" stroke-width="1px"></line><line x1="204" y1="0" x2="204" y2="5" style="visibility: inherit;" fill="rgb(0, 0, 0)" stroke="rgb(204, 204, 204)" stroke-width="1px"></line><line x1="306" y1="0" x2="306" y2="5" style="visibility: inherit;" fill="rgb(0, 0, 0)" stroke="rgb(204, 204, 204)" stroke-width="1px"></line><line x1="408" y1="0" x2="408" y2="5" style="visibility: inherit;" fill="rgb(0, 0, 0)" stroke="rgb(204, 204, 204)" stroke-width="1px"></line><line x1="510" y1="0" x2="510" y2="5" style="visibility: inherit;" fill="rgb(0, 0, 0)" stroke="rgb(204, 204, 204)" stroke-width="1px"></line><line x1="612" y1="0" x2="612" y2="5" style="visibility: inherit;" fill="rgb(0, 0, 0)" stroke="rgb(204, 204, 204)" stroke-width="1px"></line><line x1="714" y1="0" x2="714" y2="5" style="visibility: inherit;" fill="rgb(0, 0, 0)" stroke="rgb(204, 204, 204)" stroke-width="1px"></line><line x1="816" y1="0" x2="816" y2="5" style="visibility: inherit;" fill="rgb(0, 0, 0)" stroke="rgb(204, 204, 204)" stroke-width="1px"></line><line x1="918.0000000000001" y1="0" x2="918.0000000000001" y2="5" style="visibility: inherit;" fill="rgb(0, 0, 0)" stroke="rgb(204, 204, 204)" stroke-width="1px"></line><line x1="1020" y1="0" x2="1020" y2="5" style="visibility: inherit;" fill="rgb(0, 0, 0)" stroke="rgb(204, 204, 204)" stroke-width="1px"></line><line x1="1122" y1="0" x2="1122" y2="5" style="visibility: inherit;" fill="rgb(0, 0, 0)" stroke="rgb(204, 204, 204)" stroke-width="1px"></line><line x1="1224" y1="0" x2="1224" y2="5" style="visibility: inherit;" fill="rgb(0, 0, 0)" stroke="rgb(204, 204, 204)" stroke-width="1px"></line><line x1="1326" y1="0" x2="1326" y2="5" style="visibility: inherit;" fill="rgb(0, 0, 0)" stroke="rgb(204, 204, 204)" stroke-width="1px"></line><line x1="1428" y1="0" x2="1428" y2="5" style="visibility: inherit;" fill="rgb(0, 0, 0)" stroke="rgb(204, 204, 204)" stroke-width="1px"></line></g><g transform="translate(0, 8)"><text x="0" y="0" dx="0em" dy="0.95em" style="text-anchor: middle; visibility: hidden; font-family: &quot;Helvetica Neue&quot;, sans-serif; font-size: 12px; font-weight: 200;" fill="rgb(50, 49, 63)" stroke="none" stroke-width="1px">-50</text><text x="102" y="0" dx="0em" dy="0.95em" style="text-anchor: middle; visibility: inherit; font-family: &quot;Helvetica Neue&quot;, sans-serif; font-size: 12px; font-weight: 200;" fill="rgb(50, 49, 63)" stroke="none" stroke-width="1px">0</text><text x="204" y="0" dx="0em" dy="0.95em" style="text-anchor: middle; visibility: inherit; font-family: &quot;Helvetica Neue&quot;, sans-serif; font-size: 12px; font-weight: 200;" fill="rgb(50, 49, 63)" stroke="none" stroke-width="1px">50</text><text x="306" y="0" dx="0em" dy="0.95em" style="text-anchor: middle; visibility: inherit; font-family: &quot;Helvetica Neue&quot;, sans-serif; font-size: 12px; font-weight: 200;" fill="rgb(50, 49, 63)" stroke="none" stroke-width="1px">100</text><text x="408" y="0" dx="0em" dy="0.95em" style="text-anchor: middle; visibility: inherit; font-family: &quot;Helvetica Neue&quot;, sans-serif; font-size: 12px; font-weight: 200;" fill="rgb(50, 49, 63)" stroke="none" stroke-width="1px">150</text><text x="510" y="0" dx="0em" dy="0.95em" style="text-anchor: middle; visibility: inherit; font-family: &quot;Helvetica Neue&quot;, sans-serif; font-size: 12px; font-weight: 200;" fill="rgb(50, 49, 63)" stroke="none" stroke-width="1px">200</text><text x="612" y="0" dx="0em" dy="0.95em" style="text-anchor: middle; visibility: inherit; font-family: &quot;Helvetica Neue&quot;, sans-serif; font-size: 12px; font-weight: 200;" fill="rgb(50, 49, 63)" stroke="none" stroke-width="1px">250</text><text x="714" y="0" dx="0em" dy="0.95em" style="text-anchor: middle; visibility: inherit; font-family: &quot;Helvetica Neue&quot;, sans-serif; font-size: 12px; font-weight: 200;" fill="rgb(50, 49, 63)" stroke="none" stroke-width="1px">300</text><text x="816" y="0" dx="0em" dy="0.95em" style="text-anchor: middle; visibility: inherit; font-family: &quot;Helvetica Neue&quot;, sans-serif; font-size: 12px; font-weight: 200;" fill="rgb(50, 49, 63)" stroke="none" stroke-width="1px">350</text><text x="918.0000000000001" y="0" dx="0em" dy="0.95em" style="text-anchor: middle; visibility: inherit; font-family: &quot;Helvetica Neue&quot;, sans-serif; font-size: 12px; font-weight: 200;" fill="rgb(50, 49, 63)" stroke="none" stroke-width="1px">400</text><text x="1020" y="0" dx="0em" dy="0.95em" style="text-anchor: middle; visibility: inherit; font-family: &quot;Helvetica Neue&quot;, sans-serif; font-size: 12px; font-weight: 200;" fill="rgb(50, 49, 63)" stroke="none" stroke-width="1px">450</text><text x="1122" y="0" dx="0em" dy="0.95em" style="text-anchor: middle; visibility: inherit; font-family: &quot;Helvetica Neue&quot;, sans-serif; font-size: 12px; font-weight: 200;" fill="rgb(50, 49, 63)" stroke="none" stroke-width="1px">500</text><text x="1224" y="0" dx="0em" dy="0.95em" style="text-anchor: middle; visibility: inherit; font-family: &quot;Helvetica Neue&quot;, sans-serif; font-size: 12px; font-weight: 200;" fill="rgb(50, 49, 63)" stroke="none" stroke-width="1px">550</text><text x="1326" y="0" dx="0em" dy="0.95em" style="text-anchor: middle; visibility: inherit; font-family: &quot;Helvetica Neue&quot;, sans-serif; font-size: 12px; font-weight: 200;" fill="rgb(50, 49, 63)" stroke="none" stroke-width="1px">600</text><text x="1428" y="0" dx="0em" dy="0.95em" style="text-anchor: middle; visibility: hidden; font-family: &quot;Helvetica Neue&quot;, sans-serif; font-size: 12px; font-weight: 200;" fill="rgb(50, 49, 63)" stroke="none" stroke-width="1px">650</text></g><line x1="0" y1="0" x2="1428" y2="0" fill="rgb(0, 0, 0)" stroke="rgb(204, 204, 204)" stroke-width="1px"></line></g></g></g></g></svg>